<?xml version="1.0" encoding="UTF-8"?>
<svg id="Layer_2" data-name="Layer 2" xmlns="http://www.w3.org/2000/svg" viewBox="0 0 78.11 62.67">
  <defs>
    <style>
      .cls-1 {
        fill: #f89f26;
      }

      .cls-2 {
        fill: #ffed00;
      }

      .cls-3 {
        fill: #28324e;
      }

      .cls-4 {
        fill: #485678;
      }
    </style>
  </defs>
  <g id="Layer_4" data-name="Layer 4">
    <g>
      <path class="cls-3" d="m15.13,20.82v26.61c0,3.54,2.34,7.07,7.01,9.77,9.34,5.4,24.49,5.4,33.84,0,4.67-2.7,7.01-6.23,7.01-9.77v-26.61H15.13Z"/>
      <polygon class="cls-3" points="78.11 24.43 39.06 46.98 0 24.43 0 22.55 39.06 1.88 78.11 22.55 78.11 24.43"/>
      <polygon class="cls-4" points="78.11 22.55 39.06 45.1 0 22.55 39.06 0 78.11 22.55"/>
      <g>
        <path class="cls-1" d="m62.04,60.44l-1.18-14.05h-4.65l-1.18,14.05c-.1.58.24,1.19,1.02,1.64,1.38.79,3.61.79,4.98,0,.77-.45,1.11-1.05,1.02-1.64Z"/>
        <path class="cls-2" d="m60.18,45.44c.91.52.91,1.38,0,1.9-.91.52-2.38.52-3.29,0-.91-.52-.91-1.38,0-1.9.91-.52,2.38-.52,3.29,0Z"/>
        <circle class="cls-1" cx="58.54" cy="44.7" r="1.97"/>
      </g>
      <path class="cls-2" d="m58.5,43.72c-.38,0-.69-.31-.69-.69v-8.07c0-.43-.23-.83-.6-1.05l-18.5-10.78c-.33-.19-.44-.61-.25-.94.19-.33.61-.44.94-.25l18.87,10.99c.56.33.91.93.91,1.59v8.5c0,.38-.31.69-.69.69Z"/>
    </g>
  </g>
</svg>