<?xml version="1.0" encoding="utf-8"?>
<!-- Generator: Adobe Illustrator 27.5.0, SVG Export Plug-In . SVG Version: 6.00 Build 0)  -->
<svg version="1.1" id="Layer_1" xmlns="http://www.w3.org/2000/svg" xmlns:xlink="http://www.w3.org/1999/xlink" x="0px" y="0px"
	 viewBox="0 0 750 500" style="enable-background:new 0 0 750 500;" xml:space="preserve">
<style type="text/css">
	.st0{fill:#B9EAE9;}
	.st1{clip-path:url(#SVGID_00000097461644989523026200000003456617055791733377_);}
	.st2{fill:#92E2E3;}
	.st3{fill:#F4E8D0;}
	.st4{fill:#DDE3E8;}
	.st5{fill:#33312F;}
	.st6{clip-path:url(#SVGID_00000129893687335757790570000003258471017130487449_);}
	.st7{clip-path:url(#SVGID_00000111186226467680109830000010574319003740110468_);}
</style>
<g>
	<g id="Layer_2_00000026148365706838955900000002313402596464666809_">
		<g id="OBJECTS">
			<g>
				<g>
					<rect x="0" class="st0" width="750" height="500"/>
					<g>
						<defs>
							<rect id="SVGID_1_" x="0.1" y="0.1" width="749.8" height="499.9"/>
						</defs>
						<clipPath id="SVGID_00000077304454642099813580000002169514005316374175_">
							<use xlink:href="#SVGID_1_"  style="overflow:visible;"/>
						</clipPath>
						<g style="clip-path:url(#SVGID_00000077304454642099813580000002169514005316374175_);">
							<path class="st2" d="M806.9,511.6c-9.6,0-19.2,0-28.8,0c1.3-66.5,0.3-133.1,0.3-199.6c0-71.4,0-142.8,0.1-214.2
								c0-35.7,0-71.4,0-107.2c6.4-0.1,12.8-0.1,19.2-0.2c2.4,0,2.4-2.4,0-2.5c-6.4-0.1-12.8-0.2-19.2-0.2c0-3.6,0-7.2,0-10.8
								c0-1.9-4.5-1.9-4.5,0c0,3.6,0,7.2,0,10.8c-46.6-0.4-93.3,0-139.9,0c-54.5,0-109.1,0-163.6,0H144.9c-7.4,0-14.9,0-22.3,0
								c0.3-0.7,0.6-1.4,0.9-2c2.7-5.4,5.4-10.8,8-16.3c0.4-1-1.8-1.6-2.5-0.7c-4.5,6.1-8.1,12.5-11.3,19c-43.6,0-87.1,0-130.6,0
								c0-0.9,0-1.7-0.1-2.6c0-1.1-2.6-1.1-2.6,0c0,0.9,0,1.7-0.1,2.6c-7.7,0-15.4,0-23.1,0c-2.9,0-2.9,3,0,3c7.7,0,15.4,0,23.1,0
								c-0.9,34-0.5,68.1-0.5,102.1c0,35.9,0,71.8,0,107.7c0,71.4,0,142.8-0.1,214.2c0,32.4-0.1,64.7-0.1,97.1
								c-4.4,0-8.8,0.1-13.1,0.2c-2.2,0-2.2,2.2,0,2.2c4.4,0.1,8.8,0.1,13.2,0.2c0,7.1,0,14.1,0,21.2c0,1.8,4.3,1.8,4.3,0
								c0-7,0-14.1,0-21.1c21.4,0.2,42.9,0,64.3,0h81.8c54.5,0,109.1,0,163.6,0c108.5,0,217,0,325.5,0c50.4,0,100.8,0,151.3,0
								c0.1,4.3,0.2,8.5,0.3,12.8c0,1.3,3,1.3,3,0c0.1-4.3,0.2-8.5,0.2-12.8c9.6,0,19.3,0,28.9,0
								C809.8,514.6,809.8,511.6,806.9,511.6L806.9,511.6z M80,60.4c21.9-4.3,44.2-7.8,66.7-10.6c40.9-5.2,82.4-8.1,123.9-9.6
								c41.7-1.5,83.4-1.5,125-0.8c41.9,0.8,83.7,2.3,125.5,4.1c43.6,1.8,87.5,3.4,130.3,8.8c4.9,0.6,9.7,1.3,14.5,2
								c11.4,50.2,21.9,100.5,28.9,151.1c7,50.6,10.5,101.4,7.9,152.2c-1.5,28.4-4.9,56.7-10.6,84.9
								c-81.5,6.2-163.5,10.1-245.5,11.5c-82.2,1.4-164.6,0.5-246.5-3c-20.4-0.9-40.7-1.9-61.1-3.1c-10.6-0.6-21.2-1.2-31.8-1.9
								c-4.7-0.3-9.3-0.6-14-0.9c-4.8-0.4-9.8-0.9-12.3-3.6c-2-2.1-2.6-4.8-3.4-7.2c-1.1-3-2.2-6.1-3.2-9.1
								c-2.1-6.1-4-12.2-5.8-18.4c-3.6-12.1-6.7-24.3-9.2-36.6C49,321.3,46.7,271.7,49.1,222.3c1.2-24.7,3.7-49.4,6.9-74
								c3.2-24.2,7.4-48.6,17-72.3C75.1,70.8,77.4,65.5,80,60.4L80,60.4z"/>
						</g>
					</g>
				</g>
				<g>
					<path class="st3" d="M410.7,275.4c3.7,2.1,9,0.8,11-3c0-0.4,0.6-0.5,0.8-0.2c0.3,0.5,0.6,1,0.9,1.5c0.3,0.5,0.6,0.9,0.9,1.3
						c0.7,0.9,1.6,1.6,2.6,2.1c1.9,1,4,1.4,6.1,1.3c1.7,0,3.4-0.3,4.9-1.1c1.8-1,3.1-2.5,4.1-4.3c1.9-3.5,1.5-8.1-1.1-11.1
						c-2.9-3.2-7.6-4.3-11.7-3.5c-3.7,0.7-7.9,3.2-8.2,7.3c-0.1,0.6-0.8,1-1.2,0.5c-2-2.2-5.3-3.2-8.2-2.2
						C406.5,265.8,406.3,272.9,410.7,275.4L410.7,275.4z"/>
					<path class="st4" d="M443.4,267.9c-0.6,0.8-1.1,1.7-1.8,2.4c-0.7,0.7-1.5,1.3-2.4,1.8c-1.9,1.1-4,1.6-6.2,1.8
						c-4.2,0.3-8.6-0.9-11-4.6c-0.2-0.4-0.8-0.5-1.1-0.1c-2,2.1-4.5,3.9-7.5,3.9c-1.4,0-2.8-0.3-3.9-1.1c-1.1-0.8-1.6-1.8-2.1-3.1
						c-0.2-0.4-0.9-0.4-0.9,0.1c0,0.9,0.4,1.8,1,2.6c0,0,0,0.1,0,0.1c0,1.5,1.1,2.8,2.3,3.6c1.4,1,3.2,1.4,4.9,1.3
						c2.9-0.2,5.3-1.6,7.1-3.7c0.5,0.7,0.9,1.4,1.4,2c0.6,0.7,1.2,1.3,1.9,1.8c1.4,1.1,3.2,1.8,5,2.1c3.7,0.6,7.4-0.5,10.2-2.9
						c0.8-0.7,1.5-1.4,2.1-2.2c0.6-0.8,1.2-1.7,1.3-2.7c0-0.1,0-0.3-0.1-0.4c0.1-0.2,0.1-0.3,0.2-0.5c0-0.1,0-0.2,0-0.3
						c0.3-0.5,0.5-0.9,0.6-1.4C444.4,267.7,443.7,267.5,443.4,267.9L443.4,267.9z"/>
					<path class="st5" d="M421.7,272.3c-1.9,3.9-7.3,5.2-11,3.1c-4.4-2.5-4.1-9.7,0.8-11.4c2.9-1,6.2,0,8.2,2.2
						c0.5,0.5,1.2,0.1,1.2-0.5c0.4-4.1,4.6-6.6,8.3-7.3c4.1-0.8,8.8,0.3,11.7,3.5c2.7,3,3.1,7.6,1.1,11.1c-1,1.8-2.3,3.3-4.1,4.3
						c-1.5,0.8-3.2,1.1-4.9,1.1c-2.1,0-4.3-0.3-6.1-1.3c-1-0.5-1.8-1.3-2.6-2.1s-1.3-1.9-1.8-2.8c-0.2-0.4-0.8-0.2-0.8,0.2
						c0,0.5,0.1,1,0.3,1.5c0.2,0.5,0.6,1,0.9,1.5c0.7,0.9,1.6,1.7,2.5,2.3c1.9,1.2,4,1.8,6.1,1.9c1.9,0.1,3.9,0,5.7-0.7
						c2-0.8,3.7-2.2,5-3.9c1.4-1.9,2.2-4,2.3-6.3s-0.5-4.5-1.8-6.4c-2.6-4-7.7-5.7-12.3-5.4c-4.9,0.4-10.5,3.4-11,8.8l1.2-0.5
						c-2.2-2.3-5.5-3.5-8.6-2.9s-5.3,2.9-5.9,5.9c-0.5,2.8,0.5,5.8,2.7,7.5c2,1.6,4.7,2,7.2,1.6c2.8-0.5,5.4-2.1,6.3-4.9
						C422.6,272.2,421.9,271.9,421.7,272.3L421.7,272.3L421.7,272.3z"/>
				</g>
				<g>
					<defs>
						<rect id="SVGID_00000031916113546831706310000012042779976943568295_" x="657.1" y="17.4" width="92.9" height="103.9"/>
					</defs>
					<clipPath id="SVGID_00000021800740949421060570000003510600869783644587_">
						<use xlink:href="#SVGID_00000031916113546831706310000012042779976943568295_"  style="overflow:visible;"/>
					</clipPath>
					<g style="clip-path:url(#SVGID_00000021800740949421060570000003510600869783644587_);">
						<g>
							<path class="st3" d="M753.9,84.2c-1.2,2.8-3.4,5.3-6.2,6.5c-3,1.3-6.8,1.4-9.7,0c-0.5-0.2-0.9,0.5-0.4,0.7
								c0.9,0.4,1.7,0.8,2.6,1c-0.8,0.7-1.7,1.4-2.5,2.1c-1.1,0.8-2.2,1.5-3.4,2.1c-4.2,2.2-9.1,3.2-13.8,2.5c-2.3-0.3-4.6-1-6.7-2
								c-1-0.5-2-1.1-3-1.8c-0.7-0.5-1.4-1.1-2.1-1.7c0.8-0.2,1.6-0.6,2.3-1c0.5-0.3,0.2-1.1-0.4-0.9c-2.5,0.8-4.8,1.6-7.5,1.6
								c-2.5,0-5-0.5-7.3-1.6c-7.9-3.6-11.8-13.8-7.2-21.5c2.1-3.5,5.8-6.2,9.8-6.8c4.5-0.7,9,1.3,12.2,4.4c0.4,0.4,1.1-0.2,0.8-0.6
								c-1.1-1.5-2.6-2.7-4.2-3.5c0.5-1.2,1.1-2.3,2-3.3c1.1-1.1,2.3-2.1,3.6-2.9c4.6-2.8,10.5-3.4,15.6-1.7
								c2.4,0.8,4.7,2.2,6.6,3.9c0.9,0.8,1.8,1.8,2.5,2.8c0.7,0.9,1.2,2,1.8,2.9c-0.9,0.3-1.7,0.8-2.4,1.4c-0.5,0.4,0.2,1.2,0.6,0.8
								c1.7-1.2,3.5-1.7,5.5-1.7c1.8,0.1,3.6,0.6,5.2,1.4C754,70.8,756.5,78.2,753.9,84.2L753.9,84.2z"/>
							<path class="st4" d="M688.1,85.5c0.2,1.3,1.4,2.3,2.4,3.1c1,0.8,2,1.5,3,2.1c3.9,2.2,8.4,3.2,12.8,2.8c0.5-0.1,1-0.2,1.4,0.1
								c0.4,0.3,0.8,0.7,1.3,1.1c0.9,0.7,1.8,1.4,2.9,1.9c1,0.5,2,1,3,1.3c0.9,0.3,2,0.6,3,0.5c0.2,0.1,0.4,0.2,0.7,0.3
								c1.9,0.7,3.8,0.9,5.8,0.7c3.2-0.2,6.4-1.1,9.3-2.4c1.4-0.7,2.8-1.5,4.1-2.4c0.7-0.5,1.3-1,1.9-1.5c0.3-0.2,0.5-0.4,0.8-0.7
								c0.4-0.3,0.5-0.3,1-0.3c2.8,0.1,5.6-0.8,7.9-2.3c2.2-1.5,4.5-3.8,5.1-6.5h0c0.1-0.3-0.1-0.6-0.4-0.6c1.1-1.8,1.7-4,1.3-6.1
								c-0.1-0.4-0.8-0.3-0.7,0.1c0.3,2.8-1,5.4-3.1,7.2c-2.3,2-5.4,2.6-8.3,2.3c-1.4-0.1-2.7-0.4-4-0.8c-0.7-0.2-1.3-0.2-1.9,0.2
								c-0.5,0.3-1,0.7-1.5,1c-2.2,1.2-4.6,2-7,2.3c-4.9,0.7-10.1-0.2-14.4-2.8c-0.5-0.3-1-0.8-1.6-0.9c-0.7-0.2-1.4,0.2-2,0.4
								c-1.4,0.5-2.8,1-4.3,1.4c-2.9,0.8-6,1.3-9,0.9c-2.3-0.3-4.6-1.2-6.4-2.4c-0.9-0.7-1.8-1.5-2.5-2.4c-0.7-0.9-1.1-2-1.5-3.1
								c-0.2-0.5-1-0.4-0.9,0.1c0.2,1.8,1.1,3.4,2.3,4.7C688.2,85,688,85.2,688.1,85.5L688.1,85.5z"/>
							<g>
								<path class="st5" d="M737.4,91.7c1.7,0.9,3.3,1.4,5.2,1.5s3.7-0.3,5.4-1c3.3-1.4,5.9-4,7.4-7.3c3-7,0.3-15.7-6.8-18.9
									c-3.6-1.6-8.8-1.9-12,0.9c-0.7,0.6,0.2,1.7,0.9,1.2c1.5-1,3-1.6,4.8-1.6c1.6,0,3.2,0.3,4.6,0.9c2.9,1.2,5.2,3.5,6.5,6.4
									c2.6,5.7,0.5,12.8-4.9,16c-1.5,0.9-3.3,1.4-5,1.5c-1.8,0.1-3.8-0.1-5.5-0.9C737.3,90.3,736.7,91.3,737.4,91.7L737.4,91.7
									L737.4,91.7z"/>
								<path class="st5" d="M740.5,65.8c-0.3-1.4-1.2-2.7-2-3.8c-0.8-1.1-1.7-2.1-2.8-3.1c-2-1.8-4.4-3.3-7-4.2
									c-5.6-1.9-12-1.1-17,2c-1.4,0.9-2.7,1.9-3.8,3.2c-1.1,1.2-2.1,2.7-2.2,4.3c0,0.7,1,1,1.3,0.4c0.6-1.2,1.1-2.5,2-3.5
									c0.9-1,1.9-1.9,3-2.6c2.3-1.5,4.8-2.5,7.5-2.9c5.1-0.8,10.4,0.7,14.4,4c1.1,0.9,2.1,1.9,3,3.1s1.5,2.4,2.3,3.6
									C739.7,66.9,740.7,66.6,740.5,65.8L740.5,65.8L740.5,65.8z"/>
								<path class="st5" d="M711.6,67.3c-2.9-4-8.2-5.9-13.1-5.1c-4.4,0.7-8.4,3.5-10.8,7.3c-5.2,8.2-1.1,19.5,7.4,23.5
									c2.5,1.2,5.2,1.8,7.9,1.8s5.8-0.3,8.1-1.7c0.7-0.4,0.3-1.6-0.6-1.4c-2.2,0.6-4.2,1.4-6.5,1.6s-4.4-0.2-6.5-0.9
									c-4.1-1.4-7.4-4.4-9.2-8.4c-1.8-4-1.9-8.2-0.2-12c1.8-3.8,5-6.6,8.9-7.7c4.8-1.3,9.9,0.7,13.4,4
									C711,68.8,712.1,68.1,711.6,67.3L711.6,67.3L711.6,67.3z"/>
								<path class="st5" d="M740.7,91.9c-1,0.6-1.8,1.5-2.8,2.2s-2,1.4-3,1.9c-2.1,1.2-4.3,2.1-6.7,2.6c-4.5,1-9.3,0.6-13.6-1.3
									c-1.2-0.5-2.3-1.1-3.4-1.8c-0.5-0.4-1.1-0.8-1.6-1.2s-1-0.9-1.5-1.2c-0.6-0.4-1.4,0.4-1,1c0.6,1,1.8,1.8,2.8,2.5
									c1,0.7,2.1,1.3,3.2,1.8c2.2,1.1,4.6,1.7,7.1,2c5,0.6,10.1-0.4,14.6-2.7c1.3-0.6,2.5-1.4,3.7-2.2c1.1-0.8,2.4-1.7,3.1-2.8
									C741.9,92.2,741.2,91.6,740.7,91.9L740.7,91.9L740.7,91.9z"/>
							</g>
						</g>
					</g>
				</g>
				<g>
					<defs>
						<rect id="SVGID_00000036250299681612180190000013819403222396929161_" y="46.1" width="121.6" height="139.3"/>
					</defs>
					<clipPath id="SVGID_00000064330643763735633600000009933854408475932308_">
						<use xlink:href="#SVGID_00000036250299681612180190000013819403222396929161_"  style="overflow:visible;"/>
					</clipPath>
					<g style="clip-path:url(#SVGID_00000064330643763735633600000009933854408475932308_);">
						<g>
							<path class="st3" d="M88.1,153.7c-3.2,2.9-7.3,4.6-11.6,4.6s-8.6-1.5-11.8-4.5c-0.2-0.2-0.6-0.1-0.7,0.1
								c-2.3,3-5.2,5.6-8.4,7.4c-5.8,3.4-12.8,4.7-19.4,3.4c-6.6-1.3-12.7-4.9-16.8-10.2c-0.2-0.3-0.6-0.1-0.8,0.1
								c-2.3,3.2-5.9,5.7-10,5.8c-3.7,0.1-7.4-1.9-9-5.2c-0.1-0.3-0.5-0.3-0.8-0.1c-4.2,3.9-10.5,3.8-15.3,1.1
								c-8.6-4.9-12.7-16.1-10.3-25.5c1.2-4.5,3.9-8.4,7.6-11.2c1.8-1.4,3.9-2.5,6-3.2c2.1-0.7,4.5-1.3,6.7-1.2c0,0,0,0,0.1,0
								c0,0,0,0,0,0c0.1,0,0.2-0.1,0.2-0.2l0,0c0.3-0.6,0.7-1.1,1.1-1.7c3.6-5,8.5-8.9,13.8-11.9c5.5-3.1,11.4-5.3,17.6-6.3
								c7.5-1.2,15.3-1,22.8,0.7c6.8,1.6,13.1,4.5,18.7,8.7c2.6,2,5.1,4.2,7.3,6.7c2.2,2.5,4,5.2,5.7,8c0.1,0.2,0.2,0.2,0.4,0.2
								c0,0,0.1,0,0.1,0c5.2,0.9,9,5.4,11.2,9.9c2,4.2,2.7,9.1,1.8,13.7C93.4,147.1,91.2,150.9,88.1,153.7L88.1,153.7z"/>
							<path class="st4" d="M-27.4,144.2c0.7,1.1,1.7,2.1,2.7,2.9c0,0.1,0,0.2,0,0.2c0,0,0,0,0,0.1c0,0.6,0.4,1,0.7,1.4
								c0.3,0.5,0.6,1,0.9,1.5c0.6,0.9,1.3,1.8,2.1,2.7c1.5,1.7,3.2,3.2,5.3,4.1c0.3,0.1,0.5-0.2,0.4-0.5c1.7,0.9,3.5,1.6,5.5,1.8
								c1.8,0.2,3.7,0,5.4-0.7c0.8-0.3,1.6-0.7,2.3-1.2c0.3-0.2,0.6-0.4,0.8-0.7c0.7,1,1.6,1.8,2.5,2.6c2.6,2.1,6,2.8,9.2,2
								c1.7-0.4,3.1-1.3,4.5-2.3c0.8-0.6,1.6-1.3,2.4-2c0.5-0.4,1.1-0.8,1.5-1.3c0,0.1,0.1,0.1,0.1,0.2c0.5,0.5,1,1.1,1.5,1.6
								c1,1.1,2.2,2,3.4,2.9c1.2,0.9,2.4,1.8,3.7,2.5c1.2,0.7,2.6,1.6,4,1.7c0.1,0,0.2-0.1,0.3-0.1c0.7,0.4,1.3,0.8,2.1,1.1
								c1.5,0.6,3.1,0.7,4.6,0.8c5,0.2,10-0.9,14.6-3c2.3-1,4.4-2.3,6.4-3.8c1.6-1.2,3.2-2.5,4.4-4.1c0.5,0.4,1.1,0.8,1.5,1.1
								c1.5,1,3.1,1.7,4.7,2.2c6.1,2,12.9,0.8,17.8-3.4c2.4-2.1,4.2-4.7,5.4-7.6c0.6-1.5,1-3,1.2-4.6c0.2-1.5,0.4-3.3-0.2-4.7
								c-0.1-0.1-0.1-0.3-0.3-0.3c0.4-1.4,0.6-2.9,0.3-4.5c-0.1-0.4-0.8-0.3-0.7,0.1c0.6,5.8-4.2,10.8-9.5,12.4
								c-6,1.8-12.5-0.2-18-2.7c-1.4-0.6-2.8-1.3-4.3-0.5c-0.7,0.4-1.2,0.9-1.8,1.4c-0.6,0.4-1.1,0.9-1.7,1.3c-2.4,1.7-5.1,3-7.8,4
								c-5.5,1.9-11.4,2.4-17.1,1.2c-5.7-1.2-11.1-3.8-15.4-7.7c-0.3-0.2-0.8-0.3-1,0c-2.1,2.4-5,4-8.2,4.6c-2.8,0.5-5.8,0.2-8.3-1
								c-1.5-0.7-2.8-1.8-4.5-1.2c-0.8,0.3-1.6,0.9-2.4,1.3c-0.7,0.4-1.4,0.8-2.2,1.1c-3.2,1.4-6.9,2.1-10.4,1.4
								c-3.1-0.6-6-2.2-8-4.7C-26.9,143.1-27.8,143.6-27.4,144.2L-27.4,144.2z"/>
							<g>
								<path class="st5" d="M81.3,119.5c4.5,0.8,8,4.4,10.2,8.2s3.4,8.7,2.9,13.3c-0.8,8.4-7.6,16.1-16.2,17
									c-4.8,0.5-9.8-1-13.3-4.3c-0.4-0.3-0.8-0.2-1.1,0.1c-4,5.3-9.9,9-16.4,10.5s-13.5,0.4-19.4-2.8c-3.3-1.8-6.2-4.2-8.6-7.2
									c-0.3-0.4-0.9-0.2-1.2,0.1c-2.2,3.1-5.8,5.6-9.8,5.7c-3.6,0.1-7.2-1.8-8.8-5.1c-0.2-0.4-0.8-0.4-1.2-0.1
									c-3.6,3.3-9,3.7-13.4,1.8s-8-5.8-10.1-10.2s-2.9-9.4-2-14.1s3.2-8.6,6.6-11.7c1.9-1.7,4.1-3,6.4-3.9
									c1.2-0.5,2.4-0.8,3.6-1.1s2.5-0.6,3.8-0.5c0.7,0,0.7-1.1,0-1.1c-1.2-0.1-2.4-0.2-3.6-0.1s-2.5,0.4-3.7,0.7
									c-2.4,0.8-4.6,2-6.6,3.5c-4,3.1-6.8,7.4-7.9,12.3c-2.3,10.1,2.2,22.1,11.7,26.9c5.2,2.6,11.8,2.5,16.2-1.6l-1.2-0.1
									c1.3,2.9,4.2,4.9,7.3,5.6c3.3,0.7,6.7-0.1,9.5-2c1.6-1.1,3-2.5,4.2-4.1l-1.2,0.1c4.4,5.5,10.8,9.3,17.7,10.6
									s14.1,0,20.2-3.6c3.4-2,6.4-4.7,8.8-7.9l-1.1,0.1c3.4,3.1,8,4.8,12.6,4.7s8.9-1.8,12.3-4.8c3.4-3,5.8-7.2,6.7-11.6
									c1-4.9,0.2-9.9-1.9-14.4c-2.3-4.8-6.4-9.5-11.9-10.4C80.8,118.1,80.4,119.3,81.3,119.5L81.3,119.5L81.3,119.5z"/>
								<path class="st5" d="M81.7,118.6c-1.4-3-3.5-5.8-5.7-8.3s-4.7-4.8-7.4-6.8c-5.7-4.3-12.2-7.3-19.1-8.9
									c-7.6-1.8-15.5-2-23.2-0.7c-6.4,1-12.4,3.3-18,6.5c-2.8,1.6-5.5,3.4-8,5.5c-2.3,1.9-4.5,4.1-6.1,6.7c-0.4,0.6-0.7,1.2-1,1.9
									s0.6,1.1,0.9,0.5c3.1-5.1,7.8-9.2,12.9-12.3s10.9-5.7,16.8-6.9c7.4-1.6,15.2-1.7,22.7-0.4c6.9,1.3,13.6,3.9,19.4,7.8
									c5.4,3.7,10.1,8.4,13.6,14c0.4,0.7,0.8,1.4,1.3,2.1S82,119.2,81.7,118.6C81.7,118.6,81.7,118.6,81.7,118.6z"/>
							</g>
						</g>
					</g>
				</g>
			</g>
		</g>
	</g>
</g>
</svg>
