<?xml version="1.0" encoding="UTF-8"?>
<svg id="OBJECTS" xmlns="http://www.w3.org/2000/svg" xmlns:xlink="http://www.w3.org/1999/xlink" viewBox="0 0 750 500">
  <defs>
    <style>
      .cls-1 {
        fill: none;
      }

      .cls-2 {
        clip-path: url(#clippath);
      }

      .cls-3 {
        fill: #fff;
      }

      .cls-4 {
        fill: #e69447;
      }

      .cls-5 {
        fill: #a16832;
      }

      .cls-6 {
        fill: #6c9232;
      }

      .cls-7 {
        fill: #587428;
      }

      .cls-8 {
        clip-path: url(#clippath-1);
      }
    </style>
    <clipPath id="clippath">
      <rect class="cls-1" x="5.76" width="291.96" height="248.42"/>
    </clipPath>
    <clipPath id="clippath-1">
      <rect class="cls-1" x="445.22" width="291.36" height="248.42" transform="translate(1181.81 248.42) rotate(180)"/>
    </clipPath>
  </defs>
  <g>
    <path class="cls-3" d="m189.84,118.99s-14.5-3.08-23.69-3.89c0,0,1.64-13.71-4.63-15.94-6.27-2.23-10.73,10.3-10.73,10.3,0,0-4.09-22.58-26.01-21.09-21.92,1.49-11.6,24.56-11.6,24.56,0,0-12.32-12.66-19.39-7.96-7.07,4.7-5.64,13.07-5.64,13.07,0,0-20.49-4.75-25.27,6.24,15.61,4.35,79.83,1,79.83,1l-59.51-1.66s88.29-3.05,106.64-4.64Z"/>
    <path class="cls-3" d="m583.89,80.44s-13.56-5.99-22.39-8.67c0,0,4.41-13.09-1.26-16.56-5.68-3.47-12.61,7.88-12.61,7.88,0,0,.63-22.94-21.13-25.98-21.76-3.04-16.4,21.66-16.4,21.66,0,0-9.46-14.92-17.34-11.77-7.88,3.15-8.2,11.64-8.2,11.64,0,0-19.08-8.85-26.02.92,14.38,7.46,77.93,17.36,77.93,17.36l-57.9-13.84s87.04,15.14,105.33,17.34Z"/>
    <path class="cls-3" d="m433.1,297.36s-14.24-4.12-23.35-5.6c0,0,2.62-13.56-3.47-16.24-6.09-2.68-11.44,9.5-11.44,9.5,0,0-2.45-22.82-24.42-22.91-21.97-.09-13.35,23.66-13.35,23.66,0,0-11.37-13.52-18.76-9.34-7.39,4.18-6.57,12.63-6.57,12.63,0,0-20.09-6.22-25.66,4.4,15.25,5.47,79.55,6.77,79.55,6.77l-59.23-5.96s88.28,3.35,106.7,3.09Z"/>
    <path class="cls-3" d="m305.76,254.91s-23.2-4.58-37.88-5.66c0,0,2.29-21.91-7.76-25.32-10.05-3.41-16.87,16.68-16.87,16.68,0,0-7.05-35.92-41.97-33.03-34.93,2.89-17.94,39.45-17.94,39.45,0,0-19.95-19.91-31.11-12.24-11.17,7.67-8.69,20.98-8.69,20.98,0,0-32.79-7.1-40.17,10.54,24.99,6.58,127.36-.26,127.36-.26l-94.96-1.27s140.75-6.91,169.99-9.88Z"/>
    <path class="cls-3" d="m659.83,265.04s-23.2-4.58-37.88-5.66c0,0,2.29-21.91-7.76-25.32-10.05-3.41-16.87,16.68-16.87,16.68,0,0-7.05-35.92-41.97-33.03-34.93,2.89-17.94,39.45-17.94,39.45,0,0-19.95-19.91-31.11-12.24-11.17,7.67-8.69,20.98-8.69,20.98,0,0-32.79-7.1-40.17,10.54,24.99,6.58,127.36-.26,127.36-.26l-94.96-1.27s140.75-6.91,169.99-9.88Z"/>
    <path class="cls-3" d="m627.55,126.61s-3.65-7.49-9.18-10.55c-5.54-3.07-10.05,5.41-10.05,5.41,0,0-4.68-15.39-14.55-16.65-9.87-1.26-14.23,11-14.23,11,0,0-4.76-6.18-9.47-5.73-4.71.45-6.86,5.67-6.86,5.67-6.98-.56-20.55-1.3-20.55-1.3,6.18,1.19,23.51,4.24,40.98,7.29,22.24,3.88,44.7,7.75,44.7,7.75l-42.15-5s49.06,8.35,60.82,7.82c-4-5.94-19.46-5.72-19.46-5.72Z"/>
    <path class="cls-3" d="m291.63,69.58s-5.17-6.53-11.24-8.33c-6.07-1.8-8.65,7.45-8.65,7.45,0,0-7.88-14.02-17.79-13.12-9.91.9-11.53,13.81-11.53,13.81,0,0-5.98-5.01-10.48-3.55-4.5,1.45-5.48,7.01-5.48,7.01-6.94.96-20.35,3.16-20.35,3.16,6.29-.17,23.87-.92,41.59-1.7,22.55-1,45.32-2.05,45.32-2.05l-42.24,4.19s49.71-2.4,61.08-5.45c-5.18-4.94-20.24-1.4-20.24-1.4Z"/>
  </g>
  <g class="cls-2">
    <g>
      <path class="cls-5" d="m58.67-23.4s-24.86,131.75,10.58,240.22l-1.24-.21s-35-74.05-11.54-240.39"/>
      <path class="cls-5" d="m39.22,74.08s-5.41-11.39,10.2-20.72c0,0,.67,7.02-10.2,20.72Z"/>
      <path class="cls-5" d="m59.9,64.55s1.01-8.04-10.4-10.6c0,0,1,4.42,10.4,10.6Z"/>
      <path class="cls-5" d="m67.01,185.98s1.01-8.04-10.4-10.6c0,0,1,4.42,10.4,10.6Z"/>
      <path class="cls-5" d="m64.24,130.95s3.08-12.23-14.05-18.33c0,0,.71,7.02,14.05,18.33Z"/>
      <path class="cls-5" d="m78.72,229.54s4.24-12.53-12.89-18.63c0,0-.45,7.32,12.89,18.63Z"/>
      <path class="cls-5" d="m59.82,101.7s1.01-8.04-10.4-10.6c0,0,1,4.42,10.4,10.6Z"/>
      <path class="cls-5" d="m64.79,10.63S65.8,2.59,54.39.03c0,0,1,4.42,10.4,10.6Z"/>
      <path class="cls-5" d="m39.22,27.28s1.73-7.92,13.34-6.52c0,0-2.42,3.84-13.34,6.52Z"/>
      <path class="cls-5" d="m47.86,166.95s-4.14-6.96,5.28-13.87c0,0,.85,4.45-5.28,13.87Z"/>
    </g>
    <g>
      <path class="cls-4" d="m45.52-48.44s-31.88,130.23-2.3,240.45l-1.23-.28s-30.99-75.82,1.35-240.66"/>
      <path class="cls-4" d="m20.88,47.85s-4.79-11.66,11.3-20.15c0,0,.3,7.05-11.3,20.15Z"/>
      <path class="cls-4" d="m42.03,39.44s1.44-7.98-9.82-11.14c0,0,.76,4.47,9.82,11.14Z"/>
      <path class="cls-4" d="m42.63,161.08s1.44-7.98-9.82-11.14c0,0,.76,4.47,9.82,11.14Z"/>
      <path class="cls-4" d="m42.81,105.98s3.73-12.04-13.05-19.06c0,0,.33,7.05,13.05,19.06Z"/>
      <path class="cls-4" d="m51.99,205.21s4.9-12.28-11.87-19.3c0,0-.84,7.28,11.87,19.3Z"/>
      <path class="cls-4" d="m39.96,76.54s1.44-7.98-9.82-11.14c0,0,.76,4.47,9.82,11.14Z"/>
      <path class="cls-4" d="m23.38,1.12s2.16-7.81,13.67-5.79c0,0-2.62,3.7-13.67,5.79Z"/>
      <path class="cls-4" d="m24.53,141.05s-3.77-7.18,6.02-13.57c0,0,.61,4.49-6.02,13.57Z"/>
    </g>
    <g>
      <path class="cls-7" d="m147.34-6.47s-24.85,85.11-8.51,158.78l-.8-.22s-18.26-50.99,7.89-158.94"/>
      <path class="cls-7" d="m128.27,56.43s-2.82-7.84,8.05-12.98c0,0,0,4.67-8.05,12.98Z"/>
      <path class="cls-7" d="m142.49,51.49s1.18-5.23-6.16-7.64c0,0,.37,2.98,6.16,7.64Z"/>
      <path class="cls-7" d="m139.34,131.86s1.18-5.23-6.16-7.64c0,0,.37,2.98,6.16,7.64Z"/>
      <path class="cls-7" d="m141.07,95.47s2.81-7.85-8.07-12.97c0,0,.01,4.67,8.07,12.97Z"/>
      <path class="cls-7" d="m144.24,161.28s3.6-7.97-7.28-13.09c0,0-.77,4.79,7.28,13.09Z"/>
      <path class="cls-7" d="m140.04,75.93s1.18-5.23-6.16-7.64c0,0,.37,2.98,6.16,7.64Z"/>
      <path class="cls-7" d="m149.18,16.32s1.18-5.23-6.16-7.64c0,0,.37,2.98,6.16,7.64Z"/>
      <path class="cls-7" d="m131.28,25.63s1.65-5.1,9.2-3.43c0,0-1.84,2.37-9.2,3.43Z"/>
      <path class="cls-7" d="m127.97,118.1s-2.28-4.85,4.37-8.79c0,0,.27,2.99-4.37,8.79Z"/>
    </g>
    <g>
      <path class="cls-7" d="m268.6-25.55s-30.63,54.01-31.35,106.85l-.51-.28s-4.25-37.69,30.95-107.07"/>
      <path class="cls-7" d="m245.48,14.25s-.66-5.8,7.57-7.55c0,0-.76,3.18-7.57,7.55Z"/>
      <path class="cls-7" d="m255.97,13.17s1.65-3.37-2.97-6.2c0,0-.22,2.09,2.97,6.2Z"/>
      <path class="cls-7" d="m240.89,67.45s1.65-3.37-2.97-6.2c0,0-.22,2.09,2.97,6.2Z"/>
      <path class="cls-7" d="m247.92,42.92s3.18-4.9-3.41-10.14c0,0-.74,3.18,3.41,10.14Z"/>
      <path class="cls-7" d="m239.5,88.29s3.73-4.85-2.86-10.1c0,0-1.29,3.14,2.86,10.1Z"/>
      <path class="cls-7" d="m250.37,29.44s1.65-3.37-2.97-6.2c0,0-.22,2.09,2.97,6.2Z"/>
      <path class="cls-7" d="m235.35,56.24s-.77-3.67,4.39-5.29c0,0-.29,2.08-4.39,5.29Z"/>
    </g>
    <g>
      <path class="cls-6" d="m250.6-14.95s12.78,84.9-71.68,91.06C113.27,80.9,55.13,39.5,44.02-15.02h5.72s21.08,89.73,117.46,89.73S246.72-15.02,246.72-15.02l3.88.07Z"/>
      <path class="cls-6" d="m206.95-14.92s7.36,120.81-41.29,129.58c-37.81,6.82-71.31-52.09-77.71-129.68h3.3s12.14,127.69,67.66,127.69S204.72-15.02,204.72-15.02l2.23.1Z"/>
    </g>
  </g>
  <g class="cls-8">
    <g>
      <path class="cls-5" d="m695.02-22.71s13.5,133.4-31.09,238.44l1.25-.11s41.21-70.79,32.06-238.52"/>
      <path class="cls-5" d="m706.05,76.07s6.36-10.89-8.39-21.52c0,0-1.27,6.94,8.39,21.52Z"/>
      <path class="cls-5" d="m686.27,64.81s-.32-8.1,11.27-9.67c0,0-1.38,4.32-11.27,9.67Z"/>
      <path class="cls-5" d="m668.8,185.19s-.32-8.1,11.27-9.67c0,0-1.38,4.32-11.27,9.67Z"/>
      <path class="cls-5" d="m676.27,130.6s-2.02-12.44,15.57-17.06c0,0-1.31,6.93-15.57,17.06Z"/>
      <path class="cls-5" d="m653.41,227.59s-3.15-12.84,14.44-17.46c0,0-.18,7.33-14.44,17.46Z"/>
      <path class="cls-5" d="m683.18,101.83s-.32-8.1,11.27-9.67c0,0-1.38,4.32-11.27,9.67Z"/>
      <path class="cls-5" d="m686.01,10.67s-.32-8.1,11.27-9.67c0,0-1.38,4.32-11.27,9.67Z"/>
      <path class="cls-5" d="m710.06,29.45s-1.05-8.03-12.73-7.63c0,0,2.08,4.03,12.73,7.63Z"/>
      <path class="cls-5" d="m689.5,167.86s4.72-6.58-4.08-14.28c0,0-1.23,4.36,4.08,14.28Z"/>
    </g>
    <g>
      <path class="cls-7" d="m711.15-25.85s26.46,131.44-7.67,240.33l1.24-.23s34.1-74.47,8.62-240.51"/>
      <path class="cls-7" d="m731.78,71.38s5.27-11.45-10.45-20.6c0,0-.59,7.03,10.45,20.6Z"/>
      <path class="cls-7" d="m710.99,62.11s-1.1-8.03,10.27-10.72c0,0-.95,4.44-10.27,10.72Z"/>
      <path class="cls-7" d="m705.36,183.62s-1.11-8.03,10.27-10.72c0,0-.95,4.44-10.27,10.72Z"/>
      <path class="cls-7" d="m707.46,128.56s-3.23-12.19,13.83-18.5c0,0-.62,7.03-13.83,18.5Z"/>
      <path class="cls-7" d="m694.18,227.31s-4.39-12.47,12.66-18.79c0,0,.54,7.31-12.66,18.79Z"/>
      <path class="cls-7" d="m711.52,99.25s-1.11-8.03,10.27-10.72c0,0-.95,4.44-10.27,10.72Z"/>
      <path class="cls-7" d="m705.45,8.25s-1.11-8.03,10.27-10.72c0,0-.95,4.43-10.27,10.72Z"/>
      <path class="cls-7" d="m731.22,24.59s-1.83-7.89-13.42-6.36c0,0,2.47,3.81,13.42,6.36Z"/>
      <path class="cls-7" d="m724.27,164.35s4.06-7.01-5.45-13.81c0,0-.8,4.46,5.45,13.81Z"/>
    </g>
    <g>
      <path class="cls-5" d="m476.28-23.04s6.47,63.9-14.89,114.21l.6-.05s19.74-33.9,15.35-114.25"/>
      <path class="cls-5" d="m481.57,24.28s3.05-5.21-4.02-10.31c0,0-.61,3.32,4.02,10.31Z"/>
      <path class="cls-5" d="m472.1,18.88s-.15-3.88,5.4-4.63c0,0-.66,2.07-5.4,4.63Z"/>
      <path class="cls-5" d="m463.73,76.54s-.15-3.88,5.4-4.63c0,0-.66,2.07-5.4,4.63Z"/>
      <path class="cls-5" d="m467.3,50.39s-.97-5.96,7.46-8.17c0,0-.63,3.32-7.46,8.17Z"/>
      <path class="cls-5" d="m456.36,96.85s-1.51-6.15,6.91-8.36c0,0-.08,3.51-6.91,8.36Z"/>
      <path class="cls-5" d="m470.61,36.61s-.15-3.88,5.4-4.63c0,0-.66,2.07-5.4,4.63Z"/>
      <path class="cls-5" d="m483.49,1.94s-.5-3.85-6.1-3.66c0,0,1,1.93,6.1,3.66Z"/>
      <path class="cls-5" d="m473.64,68.24s2.26-3.15-1.95-6.84c0,0-.59,2.09,1.95,6.84Z"/>
    </g>
    <g>
      <path class="cls-7" d="m595.6-6.47s24.85,85.11,8.51,158.78l.8-.22s18.26-50.99-7.89-158.94"/>
      <path class="cls-7" d="m614.67,56.43s2.82-7.84-8.05-12.98c0,0,0,4.67,8.05,12.98Z"/>
      <path class="cls-7" d="m600.45,51.49s-1.18-5.23,6.16-7.64c0,0-.37,2.98-6.16,7.64Z"/>
      <path class="cls-7" d="m603.6,131.86s-1.18-5.23,6.16-7.64c0,0-.37,2.98-6.16,7.64Z"/>
      <path class="cls-7" d="m601.88,95.47s-2.81-7.85,8.07-12.97c0,0-.01,4.67-8.07,12.97Z"/>
      <path class="cls-7" d="m598.7,161.28s-3.6-7.97,7.28-13.09c0,0,.77,4.79-7.28,13.09Z"/>
      <path class="cls-7" d="m602.9,75.93s-1.18-5.23,6.16-7.64c0,0-.37,2.98-6.16,7.64Z"/>
      <path class="cls-7" d="m593.76,16.32s-1.18-5.23,6.16-7.64c0,0-.37,2.98-6.16,7.64Z"/>
      <path class="cls-7" d="m611.66,25.63s-1.65-5.1-9.2-3.43c0,0,1.84,2.37,9.2,3.43Z"/>
      <path class="cls-7" d="m614.97,118.1s2.28-4.85-4.37-8.79c0,0-.27,2.99,4.37,8.79Z"/>
    </g>
    <g>
      <path class="cls-6" d="m492.34-14.95s-12.78,84.9,71.68,91.06c65.65,4.79,123.79-36.6,134.9-91.13h-5.72s-21.08,89.73-117.46,89.73S496.22-15.02,496.22-15.02l-3.88.07Z"/>
      <path class="cls-6" d="m535.99-14.92s-7.36,120.81,41.29,129.58c37.81,6.82,71.31-52.09,77.71-129.68h-3.3s-12.14,127.69-67.66,127.69-45.81-127.69-45.81-127.69l-2.23.1Z"/>
    </g>
  </g>
</svg>