<?xml version="1.0" encoding="UTF-8"?>
<svg id="Layer_1" data-name="Layer 1" xmlns="http://www.w3.org/2000/svg" viewBox="0 0 339.11 297.11">
  <defs>
    <style>
      .cls-1 {
        fill: #f2ecd0;
      }

      .cls-2 {
        fill: #ece135;
      }

      .cls-3 {
        fill: #fd8f70;
      }

      .cls-4 {
        fill: #99a294;
      }

      .cls-5 {
        fill: #b0b49b;
      }

      .cls-6 {
        fill: #c2611d;
      }

      .cls-7 {
        fill: #d6c017;
      }

      .cls-8 {
        fill: #583014;
      }

      .cls-9 {
        stroke: #7e522b;
      }

      .cls-9, .cls-10 {
        fill: none;
        stroke-miterlimit: 10;
      }

      .cls-10 {
        stroke: #583014;
      }
    </style>
  </defs>
  <path class="cls-2" d="m339.11,297.11v-67.17c-90.77,4.24-230.16,19-339.11,67.17h339.11Z"/>
  <g>
    <g>
      <g>
        <path class="cls-6" d="m215.88,230.23s2.3,23.96,6.56,28.98c0,0-2.6,11.73-1.58,11.92,1.03.18,6.42.18,6.42.18l3.68-23.86-1.04-22.46"/>
        <path class="cls-8" d="m221.39,264.43s0,.04-.01.06c-.06.33-.12.66-.18.99-.02.11-.04.22-.06.33-.04.23-.08.45-.11.68-.03.19-.06.37-.09.56-.02.11-.03.22-.05.33-.04.26-.07.51-.1.76,0,.08-.02.16-.03.23-.03.26-.06.5-.08.73,0,.06-.01.11-.01.17-.02.23-.03.45-.04.65,0,.04,0,.07,0,.11,0,.2,0,.37,0,.52,0,.02,0,.04,0,.06.01.15.03.27.07.36,0,0,0,.01.01.02.04.09.08.14.14.16.32.06,1.07.1,1.95.12.35.01.72.02,1.09.03.56.01,1.12.02,1.62.02.33,0,.64,0,.9,0,.52,0,.86,0,.86,0l1.02-6.59-6.92-.3Z"/>
      </g>
      <g>
        <path class="cls-6" d="m179.98,223.55l5.46,31.85-1.55,13.38,7.11.44s4.7-34.57,4.34-41.88"/>
        <path class="cls-8" d="m190.99,269.22l-7.11-.44.79-6.83,7.47.24c-.66,4.13-1.16,7.02-1.16,7.02Z"/>
      </g>
    </g>
    <path class="cls-8" d="m238.64,218.8c.84-.5,5.17-2.02,8.52,2.88,3.35,4.91-.39,16.16,2.82,16.65,3.22.49,6.02-1.92,6.02,1.53,0,3.45-7.82,10.06-5.82,9.96,2-.09,7.05-1.87,6.33-1.62-.72.25-7.65,5.94-10.33,4.65-2.68-1.29,1.49-8.44,1.49-8.44,0,0-3.87-.06-6.53-2.98-2.65-2.92-2.5-22.65-2.5-22.65Z"/>
    <g>
      <path class="cls-6" d="m237.94,210.08c-7.22-5.74-26.35,5.12-42.82-4.39-3.14-4.73-2.61-39.74-2.61-39.74l-21,.95s-2.6,70.38,19.73,74.71l.43-.95c15,10.07,38.17,7.94,47.22-1.05,5.62-5.58,11.05-20-.95-29.53Z"/>
      <path class="cls-1" d="m238.89,239.61c.63-.62,1.25-1.36,1.85-2.18-.11-.52-.42-.99-.97-1.37-8.05-5.49-23.05,4.76-35.13,4.39-12.08-.37-15.37-15.74-23.94-12.91-.73.24-1.32.57-1.8.96,2.88,7,12.77,12.16,12.77,12.16,15,10.07,38.17,7.94,47.22-1.05Z"/>
    </g>
    <g>
      <g>
        <path class="cls-6" d="m227.68,232.01s5.07,23.54,10.02,28.03c0,0-1.36,11.96-.28,12.03,1.08.06,6.63-.57,6.63-.57l1.1-24.14-3.61-22.19"/>
        <path class="cls-10" d="m226.58,230.62s6.56,23.11,11.12,29.42"/>
        <path class="cls-8" d="m244.06,271.5l.36-8-7.11.51c-.02.23-.04.47-.06.71-.01.14-.02.29-.03.43-.02.21-.03.41-.05.62-.01.15-.02.29-.03.44-.02.25-.03.5-.05.75,0,.1-.01.21-.02.31-.02.3-.03.59-.04.88,0,.07,0,.15,0,.22,0,.27-.02.53-.02.77,0,.04,0,.09,0,.14,0,.28,0,.54,0,.79,0,.06,0,.11,0,.16,0,.24.02.48.03.68,0,.02,0,.04,0,.07.02.19.04.35.06.49,0,.03,0,.06.01.08.03.14.06.25.11.34,0,.02.02.03.03.05.05.07.1.13.16.13.07,0,.15,0,.25,0,.2,0,.46-.01.76-.03.15,0,.31-.02.48-.03,1.18-.09,2.73-.25,3.82-.36.31-.03.58-.06.8-.09.32-.04.52-.06.52-.06h0Z"/>
      </g>
      <g>
        <path class="cls-6" d="m197.29,225.17l6.56,31.67-1.15,13.42,7.24.22s3.67-34.7,3.07-41.99"/>
        <line class="cls-10" x1="199.63" y1="234.23" x2="203.85" y2="256.84"/>
        <path class="cls-8" d="m209.94,270.48l-7.23-.22.77-8.99h7.69c-.66,5.27-1.22,9.2-1.22,9.2Z"/>
      </g>
    </g>
    <g>
      <g>
        <path class="cls-6" d="m227.01,114.01s28.51-31.95,35.46-26.58c6.95,5.37,11.48,41.56-27.61,38.85"/>
        <path class="cls-1" d="m231.97,118.81s22.08-27.88,27.09-23.84c5.01,4.05-3.74,28.11-23.24,28.13l-3.84-4.3Z"/>
        <path class="cls-6" d="m158.2,108.95s-18.67-37.39-26.59-34.12c-7.92,3.28-21.46,36.2,16.05,43.66"/>
        <path class="cls-1" d="m152.29,112.2s-13.65-31.92-19.4-29.39c-5.76,2.53-3.68,27.43,14.68,32.45l4.72-3.06Z"/>
        <path class="cls-6" d="m239.08,149.66c5.97-39.28-21.95-54.42-62.38-52.48-52.53,2.52-46.57,72.48-17.78,81.01,24.98,7.4,74.21,10.7,80.17-28.53Z"/>
        <path class="cls-8" d="m178.76,101.79s4.8-24.03-4.15-34.5c-8.96-10.47-33.02-4.85-32.97-12.39s10.04-46.87,3.72-54.9c0,0-18.73,55.9-16.22,66.24,2.51,10.34,33.18,2.72,34.47,7.72,1.3,5-1.22,28.5-1.22,28.5l16.37-.67Z"/>
        <path class="cls-9" d="m167.5,92.27s9.34-.82,12.27,1.65"/>
        <path class="cls-9" d="m169.51,82.38s7.78-1.74,10.44.09"/>
        <path class="cls-9" d="m166.95,73.95s5.13-4.03,8.97-4.12"/>
        <path class="cls-9" d="m159.35,67.72s.64-5.04,2.56-6.32"/>
        <path class="cls-9" d="m151.1,64.34s.18-3.66,1.1-4.67"/>
        <path class="cls-8" d="m189.91,102.52s3.09-24.31,14.92-31.38c11.82-7.08,32.84,5.92,35.2-1.25s5.4-47.63,13.95-53.22c0,0-.04,58.96-5.71,67.95-5.67,9-32.32-7.98-35.14-3.65-2.82,4.33-4.21,23.58-4.21,23.58l-19.01-2.01Z"/>
        <path class="cls-9" d="m212.98,68.87s1.78,2.39,1.93,4.32"/>
        <path class="cls-9" d="m221.26,69.48s.61,2.79.36,5.44"/>
        <path class="cls-9" d="m229.95,71.21s.76,1.58.46,4.32"/>
        <path class="cls-9" d="m196.98,79.78s8.23.4,9.95,2.19"/>
        <path class="cls-9" d="m193.27,88.34s9.75.86,11.81,2.26"/>
        <path class="cls-9" d="m236.82,72.03s2.01,3.66,1.74,6.14"/>
        <path class="cls-9" d="m204.94,70.52s1.37,1.03,2.96,4.75"/>
        <g>
          <path class="cls-1" d="m155.79,154.09h0c-7.77-.39-13.74-7.13-13.34-15.06l.39-7.6c.4-7.93,7.03-14.04,14.8-13.65h0c7.77.39,13.74,7.13,13.34,15.06l-.39,7.6c-.4,7.93-7.03,14.04-14.8,13.65"/>
          <path class="cls-8" d="m170.98,132.84c.22-4.29-1.44-8.22-4.23-11-1.09-.47-2.25-.75-3.47-.81-6.86-.34-12.77,6.37-13.21,15-.44,8.63,4.77,15.9,11.62,16.24.62.03,1.23-.01,1.84-.1,4.01-2.36,6.8-6.67,7.06-11.73l.39-7.6Z"/>
        </g>
        <g>
          <path class="cls-1" d="m209.78,156.77h0c-7.77-.39-13.74-7.13-13.34-15.06l.39-7.6c.4-7.93,7.03-14.04,14.8-13.65h0c7.77.39,13.74,7.13,13.34,15.06l-.39,7.6c-.4,7.93-7.03,14.04-14.8,13.65"/>
          <path class="cls-8" d="m224.96,135.52c.22-4.29-1.44-8.22-4.23-11-1.09-.47-2.25-.75-3.47-.81-6.86-.34-12.77,6.37-13.21,15-.44,8.63,4.77,15.9,11.62,16.24.62.03,1.23-.01,1.84-.1,4.01-2.36,6.81-6.67,7.06-11.73l.39-7.6Z"/>
        </g>
        <path class="cls-3" d="m221.8,158.61c-9.73-3.48-15.52,10.49-4.66,12.45,10.53,1.9,10.75-10.27,4.66-12.45Z"/>
        <path class="cls-3" d="m158.35,158.1c-8-6.54-18.14,4.68-8.56,10.16,9.28,5.32,13.57-6.07,8.56-10.16Z"/>
      </g>
      <path class="cls-1" d="m166.48,145.57c1.75-2.04,5.12-2.93,8.94-3.07,1.32-3.56,3.5-8.12,6.42-9.64,3.25-1.68,4.2,4.62,5.82,10.94,9.48,2.89,8.77,20.23.8,22.99-8.23,2.85-18.8-.1-23.33-2.94-4.53-2.85-2.69-13.55,1.35-18.28Z"/>
      <path class="cls-10" d="m182.37,156.45s.46,6.49-2.19,6.56c-2.65.07-2.26-6.1-2.26-6.1"/>
      <path class="cls-10" d="m183.19,143.35s-17.77-4.81-19.66,8.82"/>
      <path class="cls-10" d="m151.13,107.13s-23.49,16.84-9.74,52.79"/>
      <path class="cls-10" d="m201.34,180.53s-27.12,4.87-42.42-2.34"/>
      <path class="cls-8" d="m179.77,144.63c2.22.2,5.55.18,6.81.77,3.78,1.78.58,7.99-6.86,7.92-7.67-.06-11.26-7.86-6.96-9.22,1.26-.4,4.4.29,7.01.52Z"/>
    </g>
  </g>
  <g>
    <g>
      <path class="cls-4" d="m77.32,267.08c5.5-3.17,7.5-2,13-5.33,5.5-3.33,15.66-8.66,26.66-2.17,11,6.5,15.83,20.16,5.83,22.33-10,2.17-46.65,1.67-49.82-.67-3.17-2.33-1.17-11,4.33-14.16Z"/>
      <path class="cls-10" d="m80.29,267.76s1.78,3.31,6.88,2.8c5.1-.51,6.12-3.31,12.49-2.29,6.37,1.02,17.34,3.57,20.91-.25"/>
      <path class="cls-7" d="m82.74,284.29s-5.41-5.76-3.32-6.11,4.02,3.67,4.02,3.67c0,0-2.27-5.94-.52-5.41,1.75.52,2.97,2.62,2.97,2.62,0,0-4.19-9.08.35-9.43s6.64,9.61,6.64,9.61c0,0,1.05-8.56,3.32-5.94,2.27,2.62,0,7.34,0,7.34,0,0,.52-6.29,4.02-3.84s0,8.03,0,8.03l-17.46-.52Z"/>
      <g>
        <path class="cls-5" d="m56.65,281.66c-1.53-4.45,6.29-8.44,11.81-8.9,5.52-.46,15.8,7.52,11.2,10.43s-21.48,2.91-23.01-1.53Z"/>
        <path class="cls-10" d="m69.92,272.84s14.99,5.32,9.74,10.35"/>
      </g>
    </g>
    <path class="cls-4" d="m155.42,245.46c1.82-1.05,2.49-.66,4.31-1.77,1.82-1.11,5.2-2.88,8.85-.72s5.25,6.69,1.94,7.41c-3.32.72-15.48.55-16.54-.22-1.05-.77-.39-3.65,1.44-4.7Z"/>
  </g>
</svg>