<?xml version="1.0" encoding="utf-8"?>
<!-- Generator: Adobe Illustrator 27.5.0, SVG Export Plug-In . SVG Version: 6.00 Build 0)  -->
<svg version="1.1" id="Layer_2_00000014626777903277984430000004997742779572816011_"
	 xmlns="http://www.w3.org/2000/svg" xmlns:xlink="http://www.w3.org/1999/xlink" x="0px" y="0px" viewBox="0 0 567 503.5"
	 style="enable-background:new 0 0 567 503.5;" xml:space="preserve">
<style type="text/css">
	.st0{clip-path:url(#SVGID_00000165198775496704602960000004451274122329839271_);}
	.st1{fill:#04685C;}
	.st2{fill:#701B0A;}
	.st3{fill:#B8643B;}
	.st4{fill:none;stroke:#490F00;stroke-width:2;stroke-miterlimit:10;}
	.st5{fill:#FFFFD8;}
	.st6{fill:#490F00;}
	.st7{fill:#D24962;}
	.st8{fill:none;stroke:#490F00;stroke-width:1.5;stroke-miterlimit:10;}
	.st9{fill:#00935D;}
	.st10{fill:#D58D65;}
	.st11{fill:#6EB16E;}
	.st12{fill:#008073;}
	.st13{fill:none;stroke:#490F00;stroke-miterlimit:10;}
	.st14{fill:none;stroke:#FFFFD8;stroke-miterlimit:10;}
	.st15{fill:#21A998;}
	.st16{fill:#FFB200;}
	.st17{fill:#B92319;}
	.st18{fill:none;stroke:#490F00;stroke-width:0.5;stroke-linejoin:round;}
</style>
<g id="OBJECTS">
	<g>
		<g>
			<g>
				<defs>
					<rect id="SVGID_1_" x="0" y="3.5" width="750" height="500"/>
				</defs>
				<clipPath id="SVGID_00000005237963970923576650000007780363365830103996_">
					<use xlink:href="#SVGID_1_"  style="overflow:visible;"/>
				</clipPath>
				<g style="clip-path:url(#SVGID_00000005237963970923576650000007780363365830103996_);">
					<path class="st1" d="M-112.5,450.3c-11.9,17.6,4,44.3,4,44.1H0l0,8.9h418.5c-3.2-7.3-10-20.4-18.5-23.4
						c-12-4.3-47.9,1.7-47.9,1.7l28.2-15.4l36.8-1.7c0,0-12.8-24.8-7.7-22.2c5.1,2.6,15.4,24,15.4,24l23.1-7.7
						c0,0-22.2-26.5-35.9-30s-81.3,41.9-81.3,41.9s24.8-24.8,26.5-31.7c1.7-6.9-2.6-18-2.6-18l12.8,14.5l24.8-9.4
						c0,0-13.7-21.4-30.8-18.8c-17.1,2.5-59.9,41.9-59.9,41.9l19.7-26.5c0,0-18-6.9-28.2,3.4s-28.2,44.5-28.2,44.5s11.2-30,2.6-33.4
						c-8.6-3.5-16.3-2.6-16.3-2.6l23.1-27.4c0,0,45.3-19.6,47.9-28.2c2.6-8.5,1.7-18.8,1.7-18.8l14.5,13.7l23.1-27.4
						c0,0-26.6-13.7-45.4-7.7c-18.9,6-54.8,58.2-54.8,58.2s27.4-55.6,17.1-51.3c-10.3,4.3-33.4,23.9-39.4,29.1s-26.5,48.8-26.5,48.8
						s10.3-40.2,0.9-34.2S188.5,420,188.5,420s13.7-31.7,5.1-33.4c-8.5-1.7-26.5,8.6-26.5,8.6s12-20.6,7.7-31.7l-7.7-24.8l18,10.3
						l53-40.2c0,0-27.4-9.4-44.5-7.7S126,332.8,126,332.8l3.4,30L114,331.1l-29.1,15.4c0,0,12.8-37.7,11.1-53.9
						S54.9,189.1,54.9,189.1l-20.5,46.2c0,0,31.6,6,26.5,7.7c-5.1,1.8-23.1,6.9-23.1,6.9l2.6,53.9l26.5-2.6l-30,18.8L35,337.5
						c-6-27.2-21.2-87.6-40.5-96.4c-25-11.4-62.5-12.5-62.5-12.5l27.8,59.7l20.5-28.4l-12.5,35.2l9.7,12.5L-6,286l-10.8,39.2
						L-6.6,344c0,0-19.9-17.6-43.2-16.5c-23.3,1.1-39.8,15.3-39.8,15.3l73.3,9.7c0,0-30.7-1.1-36.4,9.7
						c-5.7,10.8,31.8,17.6,31.8,17.6s-21.6,3.4-25.6,10.2c-4,6.9,2.8,20.5,2.8,20.5s-30.3-37.4-36.5-28.3s18.8,33.5,18.8,33.5
						s-38.6-13.1-46.6-4c-7.9,9.1,32.4,26.1,32.4,26.1S-100.6,432.7-112.5,450.3L-112.5,450.3z"/>
					<g>
						<g>
							<g>
								<path class="st2" d="M252.9,337c-34-29.3-85.2-59.7-124,9.8c-33.3,59.7-17.2,126.6,93.5,109.9
									C285.3,447.2,293.6,372.1,252.9,337z"/>
								<path class="st3" d="M181.1,454.9c0.7,1.5,1.9,2.9,3.4,4.4c11.1,0.4,23.7-0.4,37.8-2.5c4.9-0.8,9.5-1.9,13.7-3.4
									c2.9-4.4,5-10.1,5.7-17.3c0,0,4.7-45.4-25.6-46.5S174.8,440.8,181.1,454.9L181.1,454.9z"/>
								<path class="st4" d="M165,438.3c-5-22.9-23.2-31.8-23.2-31.8"/>
							</g>
							<g>
								<g>
									<g>
										<path class="st2" d="M269.5,221.2l23.7,16.9c51.2-26,15.9-70.8-11.5-55.8C254.3,197.3,269.5,221.2,269.5,221.2
											L269.5,221.2z"/>
										<path class="st3" d="M273.8,221.6l15.7,7.2c17.1-11.2,19.6-37.1,3.7-37.6S273.8,221.6,273.8,221.6L273.8,221.6z"/>
										<path class="st4" d="M293.1,226.7c23-27.1,4-34.5,4-34.5"/>
									</g>
									<g>
										<path class="st2" d="M152.6,223.3L141,247.7c-55.3,7.2-50.1-54.1-21-54.3S152.6,223.3,152.6,223.3L152.6,223.3z"/>
										<path class="st3" d="M140,239c-19-1.4-32.7-21.3-20-28.9s29.5,15.9,29.5,15.9L140,239z"/>
										<path class="st4" d="M129.7,236.6c-25.2-16.4-9.6-26.6-9.6-26.6"/>
									</g>
								</g>
								<path class="st2" d="M118.8,298.5c11.2,73.8,103.8,67.5,150.8,53.6c54.2-16.1,65.3-147.7-33.5-152.4
									C160,196.1,107.5,224.6,118.8,298.5L118.8,298.5z"/>
								<path class="st4" d="M251.8,356.5C292.7,355.1,306,311,306,311"/>
								<path class="st4" d="M198.8,359.5c-81.2-1.9-79-68.4-79-68.4"/>
								<g>
									<g>
										<path class="st5" d="M180.8,305.2c12.9,0.2,23.5-10.2,23.7-23.3l0.2-12.6c0.3-13.1-10-23.9-22.8-24.1l0,0
											c-12.9-0.3-23.5,10.2-23.7,23.3l-0.2,12.6C157.7,294.2,168,305,180.8,305.2L180.8,305.2"/>
										<path class="st6" d="M204.7,269.3l-0.3,12.6c-0.1,8.4-4.5,15.7-11,19.8c-1,0.2-2,0.3-3,0.3c-11.4-0.2-20.4-11.9-20.1-26.2
											s9.7-25.7,21-25.5c2,0,4,0.4,5.8,1.1C201.9,255.8,204.8,262.2,204.7,269.3L204.7,269.3z"/>
									</g>
									<g>
										<path class="st5" d="M262.1,302.9c-12.8,1-24-8.8-25-21.9l-1-12.5c-1-13,8.6-24.4,21.4-25.4l0,0c12.8-1,24,8.8,25,21.9
											l1,12.5C284.5,290.5,274.9,301.9,262.1,302.9L262.1,302.9"/>
										<path class="st6" d="M237.1,281c0.7,8.4,5.5,15.4,12.2,19.1c1,0.1,2,0.2,3,0.1c11.3-0.8,19.6-13.1,18.5-27.3
											s-11.2-25.1-22.5-24.2c-2,0.2-3.9,0.7-5.7,1.5c-4.5,4.7-7,11.2-6.5,18.3L237.1,281z"/>
									</g>
									<path class="st7" d="M178.1,319.5c1.9-9.6-11.3-19.6-22.9-10.9c-9.7,7.4-2.4,29.1,15.4,19.7
										C175.2,325.9,177.5,322.7,178.1,319.5"/>
									<path class="st7" d="M285.3,327.9c18.4-9.7,0.1-31.5-15.4-19.7C260.2,315.6,267.5,337.3,285.3,327.9z"/>
									<g>
										<path class="st3" d="M259.3,314.9c-1.8,21.6-24.7,38.8-57.8,23.8c-24.7-11.3-9-55.6,11-63.5S262.2,281.5,259.3,314.9
											L259.3,314.9z"/>
										<g>
											<path class="st4" d="M222.7,315c6.9-3.2,4.4-19,4.4-19"/>
											<g>
												<path class="st2" d="M241.3,303.6c12.6,2.4,12.9,28.5-10.9,30.6c-34,2.9-33.9-25.4-26.2-30.2s12.8,3.8,17.9,5.3
													C227.2,310.7,228.6,301.1,241.3,303.6L241.3,303.6z"/>
												<path class="st7" d="M235.2,332.9c-1.8,0.7-3.8,1.1-6.1,1.3c-2.9,0.2-5.4,0.2-7.7,0l0,0c-0.7,0-1.3-0.1-2-0.2
													c-0.1,0-0.1,0-0.2,0c-11-1.8-15.7-8.5-16.7-14.8c2.9-0.3,6.1-0.3,9.3,0.1C222.8,320.7,231.7,326.2,235.2,332.9
													L235.2,332.9z"/>
												<path class="st5" d="M205.2,303.5c1,1.8,2.3,3.7,3.9,5.4c0.3,2.6,1,7.9,2.9,9.3c1.3,1,2.9-1.6,4-4.3
													c3,1.3,6.6,1.8,10.8,1c2-0.4,3.7-0.9,5.2-1.5c0.5,2.2,1.2,4.4,2.3,5.2c1.8,1.4,3.5-5.5,4.3-9.4c1.7-1.8,2.7-3.7,3.2-5.5
													c-0.2,0-0.3-0.1-0.5-0.1c-12.7-2.4-14.1,7.2-19.2,5.7C217.3,307.9,212.4,299.9,205.2,303.5L205.2,303.5z"/>
												<path class="st4" d="M241.3,303.6c12.6,2.4,12.9,28.5-10.9,30.6c-34,2.9-33.9-25.4-26.2-30.2s12.8,3.8,17.9,5.3
													C227.2,310.7,228.6,301.1,241.3,303.6L241.3,303.6z"/>
											</g>
										</g>
										<g>
											<path class="st2" d="M222.8,299.9c26.5,1.8,32.6-22.7,1.5-23.8C199,275.2,196.4,298.1,222.8,299.9z"/>
											<path class="st8" d="M217.1,296.5c0,0-5.8-3-6.5-5.9s17.5,8.6,17.5,8.6s6.9-9.3,9.8-9.6s-1.1,5.7-1.1,5.7"/>
										</g>
									</g>
								</g>
								<path class="st4" d="M196.8,200.8c-59.1,4.6-76.2,51.3-76.2,51.3"/>
								<path class="st4" d="M300.2,237.4c-11.3-26.2-40.6-33.9-40.6-33.9"/>
							</g>
							<g>
								<g>
									<path class="st2" d="M269.7,399.8c0.8,8.8-6,48.4-10.6,56s-31.2,4.6-37.9,2.2c-6.6-2.5,3.8-7.1,3.8-7.1
										c1.2-8.9,10.6-55.4,10.6-55.4"/>
									<path class="st4" d="M269.7,399.8c0.8,8.8-6,48.4-10.6,56s-31.2,4.6-37.9,2.2c-6.6-2.5,3.8-7.1,3.8-7.1
										c1.2-8.9,10.6-55.4,10.6-55.4"/>
									<path class="st4" d="M240.2,461c0-2.4,4.1-7.1,4.1-7.1"/>
									<path class="st4" d="M230.8,458.9c0.6-2.8,3.4-6.5,3.4-6.5"/>
								</g>
								<g>
									<path class="st2" d="M157.6,407.8c0,0,9.5,46,13.6,50s33.5,4.4,37.1,1.6s-2.3-3.6-2.3-3.6c-0.6-5.9-11.1-65-11.1-65"/>
									<path class="st4" d="M157.6,407.8c0,0,9.5,46,13.6,50s33.5,4.4,37.1,1.6s-2.3-3.6-2.3-3.6c-0.6-5.9-11.1-65-11.1-65"/>
									<path class="st4" d="M193.3,460.9c-1.9-2.4-4.7-5.2-4.7-5.2"/>
									<path class="st4" d="M200.6,460.8c-0.4-2.3-1.9-5.8-1.9-5.8"/>
								</g>
							</g>
						</g>
						<g>
							<g>
								<g>
									<path class="st9" d="M266.4,179l-10.5-1.9l1,21l-4.4,10h23c0,0,2-6.5,0.2-12.2S266.4,179,266.4,179L266.4,179z"/>
									<path class="st5" d="M257.6,201.5c-1.1,0.2-2.8,2.3-4,4.1l-1.1,2.6h21.3v-0.8c0,0-1.2-5.6-4.2-5.2
										c-2.9,0.4-3.8,3.9-3.8,3.9s0.5-4-1.9-4.6s-4,3.7-4,3.7S259.7,201.1,257.6,201.5L257.6,201.5z"/>
									<path class="st8" d="M268.9,207.8l6.6,0.4c3.6-13-4.6-21.2-4.6-21.2"/>
								</g>
								<g>
									<path class="st9" d="M156.5,184.3l10.3-2.8l1,21l5.3,9.6l-22.9,2.2c0,0-2.8-6.3-1.4-12.2S156.5,184.3,156.5,184.3
										L156.5,184.3z"/>
									<path class="st5" d="M167.3,205.8c1.2,0.1,3.1,2.1,4.3,3.7l1.4,2.5l-21.2,2.1l-0.1-0.8c0,0,0.7-5.7,3.7-5.6
										s4.2,3.5,4.2,3.5s-1-4,1.4-4.8s4.4,3.3,4.4,3.3S165.2,205.6,167.3,205.8L167.3,205.8z"/>
								</g>
							</g>
							<g>
								<path class="st10" d="M152.6,178.3c8.7,43.5,69.6,33.6,97.1,24c31.7-11.1,24.4-74.2-28.1-76.3
									C182.4,124.4,143.8,134.8,152.6,178.3L152.6,178.3z"/>
								<path class="st8" d="M153.9,184.9c-9.4-38.3,12.9-51.7,29.4-56.3"/>
								<path class="st8" d="M189.9,127.1c5.3-1,9-1,9-1"/>
								<path class="st8" d="M164.3,168.8c0,0,2.2,5.5,2.4,6.9c0.2,1.3-1.5,3.2-4.4,4.2s-4-7.8-5-11.2s3.5-6.6,7.5-7.7
									s8.1,15.5,8.1,19.3s-7.2,9.6-10.1,11c-2.8,1.4-11-17.1-11.6-23.1s9.7-19.2,15.5-19.2c5.8,0,9.2,24.7,9.2,24.7"/>
								<path class="st8" d="M190,144.4c0,0,3.7,7.8,4,10.6s-9.2,1.7-9.2,1.7s-2.7-11.3-2.7-13.5s7.4-4.5,13.3-3.8s7,20.9,5.4,26.1
									s-19.7,8.2-19.7,8.2s-8.9-25.4-6.5-30.9s25-12.9,29.3-11.3c4.3,1.6,4.4,20.4,4.4,20.4"/>
								<path class="st8" d="M224.8,142.1c0,0-1.6,5.8-1.8,8.3c-0.1,2.5,3.6,7,7.8,7.9c4.2,0.9,3.3-11.1,2.8-16.3
									c-0.6-5.2-7.7-5.6-12.9-5.4s-3.8,13.1-4.1,18c-0.4,5,12.9,17.5,15.8,17c3-0.5,10-4.8,10-4.8s3.7-26.3-1.5-30.4
									s-23.4-6.5-26.3-4.2c-2.9,2.4-2.8,26.5-2.8,26.5"/>
								<path class="st8" d="M258.4,162.7c0,0-0.1,8.3,1.3,9.8s3.5-5.7,3.4-8.7s-4.9-6.4-8.2-6.2c-3.3,0.2-0.8,12.4-0.1,15.1
									s6.9,7.9,10.5,7.7s3.1-18,0.9-22.3s-12.7-10.6-16.5-11.3s-1.1,21.7-1.1,21.7"/>
								<path class="st5" d="M158.2,192.3c18,27,67.5,18.4,91.5,9.9c8.3-2.9,14-9.4,16.8-17.5c-1.4,0.1-3.1,0-5-0.6
									c-10.4-3-29-16.8-54.7-14.7s-30.6,23.1-39.2,23.8C164.2,193.5,160.9,193,158.2,192.3L158.2,192.3z"/>
								<path class="st8" d="M179.9,205.9c21.7,12.5,64.1-1.4,64.1-1.4"/>
								<g>
									<g>
										<g>
											<path class="st11" d="M256.2,182.4l-13.5-2.4l1.3,26.8l-5.5,12.8h29.3c0,0,2.7-8.3,0.3-15.6S256.2,182.4,256.2,182.4
												L256.2,182.4z"/>
											<path class="st5" d="M239.9,216.2l-1.4,3.3h27.2v-1c0,0-1.5-7.3-5.3-6.7s-4.9,5-4.9,5s0.7-5.2-2.4-5.9s-5.1,4.8-5.1,4.8
												s-0.2-5.2-2.9-4.7C243.6,211.2,241.4,213.9,239.9,216.2z"/>
										</g>
										<path class="st8" d="M254.7,219.4c-0.1-3.1,2.9-9.1,2.9-8.9"/>
										<path class="st8" d="M247.8,219.3c-0.5-2.7,1.8-8.6,1.8-8.6"/>
									</g>
									<g>
										<g>
											<path class="st11" d="M169.1,190.4l13.2-3.7l1.3,26.8l6.7,12.2l-29.2,2.8c0,0-3.5-8-1.8-15.5S169.1,190.4,169.1,190.4
												L169.1,190.4z"/>
											<path class="st5" d="M182.9,217.8c1.5,0.1,3.9,2.6,5.6,4.9l1.7,3.1l-27,2.6l-0.1-1c0,0,0.9-7.4,4.7-7.2s5.3,4.5,5.3,4.5
												s-1.2-5.1,1.8-6.1s5.6,4.2,5.6,4.2S180.2,217.6,182.9,217.8L182.9,217.8z"/>
											<path class="st8" d="M170.7,227.6l-9.7,0.8c0,0-2.3-5.3-2-12.3s6.8-18.2,6.8-18.2"/>
										</g>
										<path class="st8" d="M181.1,226.5c0.3-1.7-1.7-8.3-1.7-8.3"/>
										<path class="st8" d="M173.7,227.4c1-2.3-2.2-8.3-2.2-8.3"/>
									</g>
								</g>
								<path class="st12" d="M247.1,179.6l-72,13.5c0,0-10.9,3.2-18,1.1c-7.1-2.2-6.5-6.3-6.5-6.3s6.4,1.1,12.1-0.4
									s7.9-28.5,40-32.1c32.1-3.6,49.6,13.6,55.1,20.8s19.1,5.1,19.1,5.1C258.8,193.1,247.1,179.6,247.1,179.6L247.1,179.6z"/>
								<path class="st8" d="M249.6,182.4c0,0,6.1,4.2,13.6,3.8c7.6-0.4,13.8-4.9,13.8-4.9"/>
								<path class="st8" d="M164.3,187.1c-4.8,1.8-13.6,0.9-13.6,0.9c4.2,14.1,27.5,3.3,27.5,3.3"/>
							</g>
							<g>
								<path class="st11" d="M234.3,202.5c21.1-4.6,21.3-18.7,12.6-34.7c-5.2-9.7-12.4-21.2-26.5-20.9
									c-38.5,0.9-40.4,11.1-48.3,38.5C164.9,210,215,206.7,234.3,202.5z"/>
								<path class="st8" d="M178.5,168.4c-2.3,1.9-6.5,16.8-6.5,16.8c-4,14.2,13.5,17.8,13.5,17.8"/>
								<path class="st8" d="M201.9,205.6c0,0,32,1.3,45.2-8.6c13.2-10-1.8-31.4-1.8-31.4"/>
								<g>
									<path class="st5" d="M198.2,187.9c5.2-0.4,9.1-5.1,8.7-10.5l-0.4-5.1c-0.4-5.3-5.1-9.3-10.3-8.9l0,0
										c-5.2,0.4-9.1,5.1-8.7,10.5l0.4,5.1C188.3,184.3,193,188.3,198.2,187.9L198.2,187.9"/>
									<path class="st6" d="M206.5,172.3l0.4,5.2c0.3,3.4-1.2,6.6-3.7,8.5c-0.4,0.1-0.8,0.2-1.2,0.2c-4.6,0.4-8.7-4.1-9.2-9.9
										s2.9-10.8,7.5-11.2c0.8-0.1,1.6,0,2.4,0.2C204.8,166.9,206.3,169.4,206.5,172.3L206.5,172.3z"/>
								</g>
								<g>
									<path class="st5" d="M230.7,184.6c-5,0.6-9.5-3.1-10.1-8.2l-0.6-4.9c-0.5-5.1,3-9.7,8-10.3l0,0c5-0.6,9.5,3.1,10.1,8.2
										l0.6,4.9C239.2,179.4,235.7,184,230.7,184.6L230.7,184.6"/>
									<path class="st6" d="M220,171.6l0.6,4.7c0.3,3.3,2.3,5.9,5,7.3c0.4,0,0.8,0.1,1.2,0c4.4-0.5,7.4-5.4,6.8-10.9
										s-4.7-9.6-9.1-9.1c-0.8,0.1-1.5,0.3-2.2,0.7C220.6,166.2,219.7,168.8,220,171.6L220,171.6z"/>
								</g>
								<path class="st7" d="M190.7,194.7c7-3.6,0.2-12-5.8-7.6C181.2,189.9,183.9,198.2,190.7,194.7z"/>
								<path class="st7" d="M242.6,191.3c7-3.6,0.2-12-5.8-7.6C233,186.5,235.7,194.8,242.6,191.3z"/>
								<g>
									<path class="st11" d="M200.7,190.5c2.5-11.1,11.1-14.8,18.9-13s10.1,10.7,10.1,10.7"/>
									<line class="st13" x1="215.8" y1="181" x2="215.8" y2="179.6"/>
									<line class="st13" x1="213.8" y1="181.3" x2="213.4" y2="179.9"/>
									<path class="st8" d="M210.3,186c4.9,5.2,10.8-1.1,10.8-1.1"/>
									<path class="st8" d="M200.7,190.5c2.5-11.1,11.1-14.8,18.9-13s10.1,10.7,10.1,10.7"/>
								</g>
							</g>
						</g>
					</g>
					<g>
						<g>
							<path class="st5" d="M324.4,459.8c0,0,8.9,3.3,4.9,8.6c-4.1,5.4-18.1,1.4-19-3.2s4.6-1.2,4.6-1.2s-6-5.4-4.6-6.7
								c1.3-1.4,4.7,1.6,4.7,1.6s-2.4-2.4,0-3.1S324.4,459.8,324.4,459.8L324.4,459.8z"/>
							<path class="st13" d="M322.2,470.9c-5,1.5-12.6-3.9-12.1-7s4.8,0.1,4.8,0.1s-5.3-4.7-4.6-6.7s4.7,1.6,4.7,1.6s-1.8-2.2,0-3.1
								c1.7-1,5.5,2,5.5,2"/>
						</g>
						<g>
							<path class="st10" d="M349,470.9c17.2-3.1,13.8-21.5,6.6-34.4c-9.2-16.3-23.2-14.3-33.2,5.1
								C313.7,458.2,318.8,476.5,349,470.9L349,470.9z"/>
							<path class="st13" d="M329.1,470.8c-14.9-6.1-9.4-22-9.4-22"/>
							<path class="st5" d="M343.3,455.9c-6.3,0.7-9.3,10.9-10.3,15.5c4.3,0.8,9.6,0.7,16.1-0.5c1.1-0.2,2.1-0.5,3-0.8l0.3-2
								C352.4,468.1,351.5,455,343.3,455.9L343.3,455.9z"/>
							<path class="st13" d="M333.1,466.4c-1.6-6.2-6.7-8.5-6.7-8.5"/>
						</g>
						<g>
							<g>
								<path class="st10" d="M358.1,455.9c0.3,2.4-1.2,13.4-2.4,15.5c-1.2,2.2-8.6,1.6-10.4,1c-1.8-0.6,1-2,1-2
									c0.2-2.4,2.4-15.3,2.4-15.3"/>
								<path class="st13" d="M358.1,455.9c0.3,2.4-1.2,13.4-2.4,15.5c-1.2,2.2-8.6,1.6-10.4,1c-1.8-0.6,1-2,1-2
									c0.2-2.4,2.4-15.3,2.4-15.3"/>
								<path class="st13" d="M350.5,473c0-0.7,1.1-2,1.1-2"/>
								<path class="st13" d="M347.9,472.5c0.2-0.8,0.9-1.8,0.9-1.8"/>
							</g>
							<g>
								<path class="st10" d="M328.4,457.6c0,0,3,12.5,4.2,13.6c1.2,1.1,9.2,0.9,10.2,0.1c0.9-0.8-0.7-1-0.7-1
									c-0.2-1.6-3.6-17.7-3.6-17.7"/>
								<path class="st13" d="M328.4,457.6c0,0,3,12.5,4.2,13.6c1.2,1.1,9.2,0.9,10.2,0.1c0.9-0.8-0.7-1-0.7-1
									c-0.2-1.6-3.6-17.7-3.6-17.7"/>
								<path class="st13" d="M338.7,471.8c-0.5-0.6-1.3-1.4-1.3-1.4"/>
								<path class="st13" d="M340.1,470.1c0,0,0.5,1,0.6,1.6"/>
							</g>
						</g>
						<g>
							<g>
								<g>
									<path class="st10" d="M320.5,378c-5.7-3.6-44.7-56.7-17.7-70.2c27-13.5,44,72.3,44,72.3"/>
									<path class="st3" d="M324.5,375.6c0,0-35.6-44.7-18.6-53.9s31.2,49.8,31.2,49.8L324.5,375.6z"/>
									<path class="st8" d="M319.1,369.1c0,0-27.9-39.9-13.2-47.4c14.8-7.5,27.4,38.4,27.4,38.4"/>
								</g>
								<g>
									<path class="st10" d="M346.1,372.8c-3.9-5.5-19.8-69.5,10.2-71.7c30-2.2,13.2,83.6,13.2,83.6"/>
									<path class="st3" d="M350.7,372.1c0,0-15.9-55,3.2-57c19.1-2,9.9,58,9.9,58L350.7,372.1z"/>
									<path class="st8" d="M348.4,365.5c0,0-13.3-47.7,5.4-50.3c18.7-2.6,10.4,52.1,10.4,52.1"/>
								</g>
							</g>
							<path class="st10" d="M298.8,411.2c-2.1,31.3,47.6,26.7,71.8,22.6c26.3-4.5,27.4-21.8,17.6-42.2
								c-5.9-12.2-14.1-22.8-31.6-23.2C308.8,367.2,301.2,376,298.8,411.2L298.8,411.2z"/>
							<path class="st8" d="M302.6,389c5.1-20.5,26.5-20.1,26.5-20.1"/>
							<path class="st8" d="M347,435.2c44.4,1.8,45.7-15.7,45.7-15.7"/>
							<g>
								<g>
									<path class="st5" d="M329.3,413.5c6.6-0.2,11.7-5.8,11.5-12.4l-0.2-6.4c-0.2-6.7-5.7-11.9-12.2-11.7l0,0
										c-6.6,0.2-11.7,5.7-11.5,12.4l0.2,6.4C317.3,408.5,322.8,413.7,329.3,413.5L329.3,413.5"/>
									<path class="st6" d="M340.6,394.7l0.1,6.3c0.1,4.3-1.9,8.1-5.1,10.3c-0.5,0.1-1,0.2-1.5,0.2c-5.7,0.2-10.6-5.6-10.8-12.8
										c-0.2-7.2,4.2-13.2,10-13.4c1.1,0,2.1,0.2,3,0.5C338.8,387.9,340.5,391.1,340.6,394.7L340.6,394.7z"/>
								</g>
								<g>
									<path class="st5" d="M365.8,412.7c-6.2,0.2-11.4-4.8-11.6-11.2l-0.2-6.1c-0.2-6.3,4.7-11.6,10.9-11.8l0,0
										c6.2-0.1,11.4,4.9,11.6,11.2l0.2,6.1C376.9,407.2,372,412.5,365.8,412.7L365.8,412.7"/>
									<path class="st6" d="M354,395.5l0.1,6.1c0.2,4,2.3,7.5,5.5,9.5c0.5,0.1,1,0.1,1.5,0.1c5.5-0.2,9.8-5.9,9.6-12.8
										c-0.2-6.9-4.8-12.4-10.3-12.2c-1,0-1.9,0.2-2.8,0.6C355.3,389,353.9,392.1,354,395.5L354,395.5z"/>
								</g>
								<path class="st7" d="M321.6,424.8c9.7-1.3,5.1-13.9-3.7-11.2C312.4,415.3,312.1,426.1,321.6,424.8z"/>
								<path class="st7" d="M375,423.5c8.9-4,0.9-14.8-6.7-9.7C363.6,417,366.4,427.4,375,423.5z"/>
								<g>
									<path class="st5" d="M348.6,419.7c-15.5,0.7-14.2-20.1-1.1-20.3C360.6,399.2,364.1,419,348.6,419.7z"/>
									<path class="st8" d="M347.7,411.7c1.1-2.6,0.3-9.3,0.3-9.3"/>
									<path class="st8" d="M343.3,408.8c5.8,6.7,9.3,0.4,9.3,0.4"/>
									<path class="st7" d="M346.5,405.7c9,1.1,12-6.4,1.3-6.3C339.1,399.4,337.5,404.6,346.5,405.7z"/>
									<path class="st14" d="M344.4,400.6c0.7-0.1,1.2-0.2,1.8-0.3"/>
									<path class="st14" d="M347.6,400.2c3.3,0,5.5,1,5.5,1"/>
									<path class="st8" d="M340.6,401.6c0,0-0.8,3.8,6.6,4s7.4-3.8,7.4-3.8"/>
								</g>
							</g>
						</g>
					</g>
					<g>
						<g>
							<path class="st12" d="M-88.2,453.7l25.6,13.6l16.4-19.9l-3.5,19.9l7.4,4.3l7-16.8l-1.6,19.9l11.3,4.7l12.1-16.8l-2,22.3
								c0,0-18.4-6.7-27.8-2.4s-15.6,9.4-13.3,9s37.5,1.6,37.5,1.6s-18.3,0.8-24.2,7.4L0,503.4h367.9c-8.6-2.3-23.9-4.3-23.9-4.3
								l15.8-8.5l27.8,5.5c0,0-9-18.8-16.2-21.4s-28.6,15.8-28.6,15.8s8.1-14,8.1-19.6s-0.9-33.8-0.9-33.8s-4.2-1.3-11.5,8.5
								c-7.2,9.9-9.8,35.5-9.8,35.5s-2.9-16.7-9.4-20.5s-15-5.5-15-5.5l13.2,24.4c0,0-12.4-8.1-19.2-8.5c-6.9-0.5-21.4,3.8-21.4,3.8
								s17.5-21.8,17.9-24.8s-17.5-8.5-17.5-8.5l15-2.1l12.4-23.5c0,0-19.7-3-28.2,1.3s-23,36.7-23,36.7s5.1-27,2.1-34.2
								s-12-22.6-12-22.6l-8.1,56l1.6,1.5c-8.1,0.8-21.6,10.4-29.9,16.8l-1.6-2.9c0,0,9.4-10.3,7.7-15.8c-0.5-1.5-1.1-3.5-1.7-5.4
								c-0.2-11.3-1.2-45.4-1.2-45.4s-6-1.8-16.2,12c-10.2,13.8-13.8,49.9-13.8,49.9s-4.1-23.5-13.2-28.9s-21.1-7.8-21.1-7.8
								l18.7,34.3c0,0-17.5-11.4-27.1-12s-30.1,5.4-30.1,5.4s24.7-30.7,25.3-34.9c0.6-4.2-24.7-12-24.7-12l21.1-3l17.5-33.1
								c0,0-27.6-4.2-39.7,1.8s-31.9,51.7-31.9,51.7s7.2-37.9,3-48.1C74,367,61.4,345.3,61.4,345.3L50,424.1l16.2,14.4l-15.6-3
								L35,463.2c0,0,10.2-21.7,1.2-22.9C27.2,439.1,17,462,17,462l-9-16.2c0,0,13.2-14.5,10.8-22.3c-2.4-7.9-6.6-21.7-9-19.9
								c-1.3,1-4.9,5.6-7.7,11.1c-2.6-9.9-6-20.8-9.5-22.8c-6.6-3.9-28.5-4.7-28.5-4.7l14.1,21.1l9-6.6l-9,14.5l10.2,10.2l5.5-9.4
								l-3.9,21.1l7.8,12.1c0,0-28-17.6-41-18S-88.2,453.7-88.2,453.7L-88.2,453.7z M227.1,477.6l-1.9,3.3c0,0,0.7-1.4,1.4-3.4
								L227.1,477.6L227.1,477.6z"/>
							<g>
								<path class="st15" d="M78.4,480.3c-7.3,5.7,2.3,18.7,6.2,23.5h221.7c4-2.8,13.1-9.8,7.6-11.4c-2.9-0.8-6.9,1.1-10.6,3.6
									c1.6-2.2,2-4.2-0.8-5.2c-7.7-2.9-19.5,8.1-19.5,8.1l4.1-11c0,0,20.3-4.8,14.2-8.1s-14.2,1.2-14.2,1.2s6-14.2,3.2-11.4
									s-6.9,14.2-6.9,14.2s0.5-21.5-7.3-16.2s2,21.1,2,21.1s-3.6,6-4.4,7.5c0.6-2.2-0.7-17.5-6.6-14.4c-6,3.2-2.4,13-2.4,13
									l-10.6-4.5c0,0,13-21.2,4.5-24c-8.5-2.8-15.4,18.3-15.4,18.3s-2.8-26.8-9.3-20.3s1.6,30,1.6,30s-9.8-20.7-18.7-13.8
									c-4.8,3.7-2.3,10.6,1,16.2c-3.2,0.8-5.8,2.2-5.8,2.2s4.8-8.4,0.9-7.5c-3.8,0.9-7,6.8-7,6.8s2.7-20.3-2.3-18.4
									s-7,16.4-7,16.4s-3.2-18.9-8-16.6c-4.7,2.3,1.4,17.5,1.4,17.5s-10-14.3-10.5-9.8C179,491.9,184,498,184,498s-4-1.2-8.6-0.8
									c2-2.2,2.8-4.2,0.1-5c-2.9-0.8-6.9,1.1-10.6,3.6c1.6-2.2,2-4.2-0.8-5.2c-7.7-2.9-19.5,8.1-19.5,8.1l4.1-11
									c0,0,20.3-4.8,14.2-8.1s-14.2,1.2-14.2,1.2s6-14.2,3.2-11.4s-6.9,14.2-6.9,14.2s0.5-21.5-7.3-16.2s2,21.1,2,21.1
									s-3.6,6-4.4,7.5c0.6-2.2-0.7-17.5-6.6-14.4c-6.1,3.2-2.4,13-2.4,13l-10.6-4.5c0,0,13-21.2,4.5-24
									c-8.5-2.8-15.4,18.3-15.4,18.3s-2.8-26.8-9.3-20.3s1.6,30,1.6,30S87.3,473.4,78.4,480.3L78.4,480.3z"/>
								<path class="st15" d="M189.7,466.7c-0.4,5.7-13.7,10.6-13.7,10.6C175,471.7,190.1,460.9,189.7,466.7z"/>
								<path class="st15" d="M319.9,495c-2-0.6,5.9-11.6,10.8-8.5C335.5,489.5,321.8,495.5,319.9,495z"/>
								<path class="st15" d="M267.4,472.8c-3.2-0.8-0.9-16.3,4.9-15.9C278,457.3,270.6,473.6,267.4,472.8z"/>
								<path class="st15" d="M244.6,469.2c-1.7-1.4-1.3-15.1,4.3-14.2C254.4,455.9,246.3,470.6,244.6,469.2z"/>
								<path class="st15" d="M130.2,469c-5.3-0.2-2.9-15.5,2.3-15.3C137.7,453.9,135.5,469.2,130.2,469z"/>
								<path class="st15" d="M169.5,484.3c-3.9-0.3-5.2-12.6-1.6-12.4S173.5,484.7,169.5,484.3z"/>
							</g>
							<g>
								<path class="st7" d="M188.3,471.8c0,0,4.2-2.3,7.1,2.5s-10.9,1.7-10.9,1.7s2.5,6.4-1.5,7.5s-4.8-6.5-4.8-6.5s-2.1,6.1-6.7,5
									c-4.6-1.2,1.9-7.1,1.9-7.1s-9.4,0.4-10.9-3.6s9.2-1.5,9.2-1.5s-4.4-6.2-2.7-9.4s5.7,2.9,5.7,2.9s-0.7-6.7,2.9-8.2
									c3.6-1.5,6.5,8.8,6.3,9.4s0.8-5.9,2.7-8.6s-1,8.8-1,8.8s3.4-4,6.5-1.9S188.3,471.8,188.3,471.8L188.3,471.8z"/>
								<path class="st7" d="M251.6,487.8c0,0,4.9,1.6,4.6,5.5c-0.2,3.9-8.4-0.4-8.4-0.4s-0.6,4.6-2.7,6.2s-1.9-6.2-1.9-6.2
									s-5,1.5-7.8-1.2s5.2-3.3,5.2-3.3s-3.8-1.2-5.6-3.5s6.4,0.4,6.4,0.4s-1.2-6.5,2.1-8.4s3.3,8,3.3,8s2.2-5.8,4.1-7.6
									c2-1.7-1.5,7-1.5,7s3.9-4.5,7.4-3.9S251.6,487.8,251.6,487.8L251.6,487.8z"/>
								<path class="st7" d="M127.8,448.4c0,0,4.9,1.5,4.6,5.5c-0.2,3.9-8.4-0.4-8.4-0.4s-0.6,4.7-2.7,6.2c-2.1,1.6-1.9-6.2-1.9-6.2
									s-5,1.5-7.8-1.2s5.2-3.3,5.2-3.3s-3.8-1.2-5.6-3.5s6.4,0.4,6.4,0.4s-1.2-6.5,2.1-8.4s3.3,8,3.3,8s2.2-5.8,4.1-7.6
									c2-1.7-1.5,7-1.5,7s3.9-4.5,7.4-3.9S127.8,448.4,127.8,448.4L127.8,448.4z"/>
								<path class="st7" d="M364.2,493.1c0,0,2.3,3.6,0.1,6s-5.1-4.8-5.1-4.8s-2.8,2.6-5.1,2.5s2.1-5,2.1-5s-4-1.8-4.3-5
									c-0.3-3.2,5.1,0.8,5.1,0.8s-1.9-2.8-1.7-5.3c0.2-2.5,3.9,3.7,3.9,3.7s2.7-4.8,5.9-4.2c3.2,0.6-2.2,6.9-2.2,6.9
									s4.5-2.5,6.7-2.6c2.2-0.1-4.8,3.6-4.8,3.6s4.9-0.8,6.8,1.5S364.2,493.1,364.2,493.1L364.2,493.1z"/>
								<path class="st7" d="M225.6,458.2c0,0,3.4-0.8,6.2,2S224,461,224,461s3.4,4.4,1.7,7.2s-7.5-6.1-7.5-6.1s-4.4,3.6-7.2,1.1
									s4.2-4.7,4.2-4.7s-8.1-1.7-10.3-5c-2.2-3.4,11.4,2.2,11.4,2.2s-3.8-4.7-3.3-7.8s5.8,3.6,5.8,3.6s-0.5-2.8,2-5.6
									c2.6-2.8,2,6.7,2,6.7s5.6-5.8,10.9-3.3S225.6,458.2,225.6,458.2L225.6,458.2z"/>
								<path class="st7" d="M305.2,466.4c0,0,2.4-0.6,4.5,1.3c1.8,1.9-5.3,0.6-5.3,0.6s2.3,3,1.1,4.9s-5.1-4.1-5.1-4.1
									s-3,2.5-4.9,0.8c-1.9-1.7,2.8-3.2,2.8-3.2s-5.5-1.1-7-3.4s7.7,1.5,7.7,1.5s-2.6-3.2-2.2-5.3c0.3-2.1,3.9,2.4,3.9,2.4
									s-0.4-1.9,1.3-3.8s1.3,4.5,1.3,4.5s3.7-3.9,7.3-2.2S305.2,466.4,305.2,466.4L305.2,466.4z"/>
								<path class="st7" d="M265.3,449.8c0,0,5.7-1,9.1-0.1c3.4,0.8-8.3,3.4-13.3,3.7s-8.8-3.8-9.4-8.1s6.6,2.7,6.6,2.7
									s-5.2-7.6-2.1-11.5s5.3,3.4,5.3,3.4s-0.7-3.9,0.9-7c1.6-3.2,2.5,8.4,1.7,8.8s4-3.4,8.9-4c4.8-0.6-2.5,6.5-2.5,6.5
									s3.5-1.3,6.4,0.5C279.8,446.5,266.3,449.3,265.3,449.8L265.3,449.8z"/>
								<path class="st7" d="M362.1,468c0,0-4.1-4.9-2.3-7.9s3.9,3,3.9,3s0.8-5.5,4-4.8c3.2,0.7-1.3,6.3-1.3,6.3s5.1-1.8,6.8-0.8
									c1.7,1.1-5.8,3-5.8,3s5.3,1.9,6.1,4c0.8,2.1-7.8-2.7-7.8-2.7s3.3,3.1,1.8,5.1C366.1,475.1,362.1,468,362.1,468L362.1,468z"
									/>
								<path class="st7" d="M341.9,476c-2.1-0.3-5.9-4.8-2.9-7.8c3-2.9,2.8,3.4,2.8,3.4s1-3,2.8-3.7c1.8-0.7-0.4,4.5-0.4,4.5
									s2.4-0.8,4,1.1c1.6,1.9-3.6,1-3.6,1s2.6,1.3,2.7,3.1S341.9,476,341.9,476L341.9,476z"/>
							</g>
						</g>
						<g>
							<g>
								<g>
									<path class="st16" d="M85.1,472c25.3-4.7,20.3-31.7,9.6-50.6c-13.4-23.9-34-21-48.7,7.5C33.3,453.4,40.7,480.2,85.1,472
										L85.1,472z"/>
									<path class="st5" d="M88,459.2c0.3-13.2,5-26.5,8.5-34.6c-0.5-1.1-1.1-2.1-1.7-3.2c-1.2-2.1-2.4-4-3.7-5.7l-32.6-3.9
										c-0.2,0.2-0.5,0.4-0.7,0.6c0.6,2.7,3.1,12.2,10.6,21.8c5.3,6.9,8.1,25.4,9.4,38.8c2.4-0.3,4.8-0.6,7.4-1.1
										c1.5-0.3,2.9-0.7,4.2-1.1C89.1,465,88,459.2,88,459.2L88,459.2z"/>
									<path class="st8" d="M61.8,465.3c-2.3-9.1-9.8-12.5-9.8-12.5"/>
									<path class="st8" d="M46.9,464.1c-10.5-6.2-4.8-24.7-4.8-24.7"/>
								</g>
								<g>
									<g>
										<path class="st16" d="M103.5,448.4c0.5,3.5-1.7,19.6-3.5,22.7c-1.7,3.1-12.5,2.3-15.2,1.4s1.4-2.9,1.4-2.9
											c0.3-3.6,3.5-22.5,3.5-22.5"/>
										<path class="st3" d="M84.7,472.5c2.7,0.9,13.4,1.7,15.3-1.5c0.5-1,1.2-3.2,1.7-6l0,0l-3.1,2c0,0-0.1-2.6-1.6-2.4
											s-2.2,1.1-2.2,1.1s0.3-2.8-1.2-2.4s-2.3,2.4-2.3,2.4s-0.7-3.8-4.3-2.5c-0.4,2.9-0.8,5.3-0.9,6.4
											C86.1,469.6,82,471.6,84.7,472.5L84.7,472.5z"/>
										<path class="st8" d="M103.5,448.4c0.5,3.5-1.7,19.6-3.5,22.7c-1.7,3.1-12.5,2.3-15.2,1.4s1.4-2.9,1.4-2.9
											c0.3-3.6,3.5-22.5,3.5-22.5"/>
										<path class="st8" d="M92.3,473.4c0-1,1.6-2.9,1.6-2.9"/>
										<path class="st8" d="M88.5,472.8c0.2-1.2,1.3-2.7,1.3-2.7"/>
									</g>
									<g>
										<path class="st16" d="M58.4,453c0,0,4.4,18.4,6.1,20s13.6,1.4,15,0.2c1.4-1.2-1-1.4-1-1.4c-0.3-2.3-5.3-26-5.3-26"/>
										<path class="st3" d="M62.2,464.9c-0.1,0-0.1,0.1-0.1,0c1.1,3.7,2.2,7,2.9,7.6c1.7,1.6,13.6,1.4,15,0.2
											c1.4-1.2-1-1.4-1-1.4c-0.1-0.9-1-5.3-2-10.2l-0.5-0.2l-2.2,3.6c0,0-1.7-3.6-3-2.8c-1.3,0.8-0.8,4.2-0.8,4.2
											s-1.9-4.2-3-3.1s0,4.2,0,4.2S65.2,462.8,62.2,464.9L62.2,464.9z"/>
										<path class="st8" d="M58.4,453c0,0,4.4,18.4,6.1,20s13.6,1.4,15,0.2c1.4-1.2-1-1.4-1-1.4c-0.3-2.3-5.3-26-5.3-26"/>
										<path class="st8" d="M73.5,474c-0.8-0.9-2-2-2-2"/>
										<path class="st8" d="M75.6,471.6c0,0,0.6,1.4,0.8,2.3"/>
									</g>
								</g>
								<g>
									<path class="st16" d="M46.9,466.2c18.2-7.8,46.3,8.1,51.7,13.5s15.4,6.7,15.4,6.7c-31.9,26.7-84.6,7.9-89.4-5.1
										c-4.8-13.1,16.9-22.6,16.9-22.6L46.9,466.2z"/>
									<path class="st5" d="M60.6,498.9c17.5,2.7,37.9,0.4,53.2-12.5c0,0-10-1.3-15.4-6.7c-2.1-2.1-7.7-5.9-14.9-9.2l5.5,7.7
										c0,0-9.1-1.4-6.8,0.6c2.2,1.9,5.5,4.2,5.5,4.2s-13.6-1-12,1.6s5.2,4.9,5.2,4.9s-13.3-0.1-9.4,1.6s7.2,3.3,7.2,3.3
										S60.7,494.7,60.6,498.9L60.6,498.9z"/>
									<path class="st8" d="M39.2,469.5c23.9-16.9,56.5,8.3,61.8,11.9s13,5,13,5"/>
								</g>
								<g>
									<g>
										<path class="st16" d="M33.2,272.4c13.5,7.6,38,52.2,35.4,58.5c-2.5,6.2-45.3,30.2-47.8,21.1s0.9-46.2,1.5-53.6
											S19,264.5,33.2,272.4L33.2,272.4z"/>
										<path class="st17" d="M58.8,327.4c-0.9,4.4-24.6,19.6-28,11.5s1.6-31.7,1.6-31.7s-1.3-11.5,3.1-14.3
											C39.8,290.1,58.8,327.4,58.8,327.4L58.8,327.4z"/>
										<path class="st4" d="M29.7,323.6c-0.3-4.4,2.6-16.4,2.6-16.4s-2.6-10.6,3.1-14.3c5.8-3.7,18.6,25.2,18.6,25.2"/>
									</g>
									<g>
										<path class="st16" d="M120.7,274c-14.7,9-31.9,49.8-28.4,55.8c3.5,6.1,38.3,34.1,40.9,24.8c3.3-11.9,3.2-49,1.8-56.4
											C133.7,290.8,136,264.5,120.7,274L120.7,274z"/>
										<path class="st17" d="M100.5,324c1,4.4,24.6,19.6,28,11.5s-1.6-31.7-1.6-31.7s1.3-11.5-3.1-14.3
											C119.5,286.7,100.5,324,100.5,324L100.5,324z"/>
										<path class="st4" d="M130.2,326.9c0.6-6.4-3.2-23.1-3.2-23.1s1-14.7-3.1-14.3C117.8,290.1,104,317,104,317"/>
									</g>
									<path class="st16" d="M116.7,417.4c38.7-6.5,40.3-32,25.9-61.9c-8.6-18-20.7-33.5-46.4-34.1C26.1,319.7,21.9,332,5.1,381
										C-10,425.2,81.3,423.4,116.7,417.4z"/>
									<g>
										<path class="st5" d="M132.7,400.9c0.2,24.4-100.6,30.8-102.7,1.1c-1.8-24.5,29.5-12.6,39.3-20.8
											c5.6-4.6,7.9-13.7,13.3-14.1c5.1-0.4,11,5.2,14.1,13.3C101.4,392.7,132.5,374.8,132.7,400.9L132.7,400.9z"/>
										<path class="st7" d="M52.5,403.5c13.2-6,1.4-21.8-9.8-14.3C35.7,393.9,39.9,409.3,52.5,403.5z"/>
										<path class="st7" d="M121.7,403.4c13.2-6,1.4-21.8-9.8-14.3C104.9,393.8,109,409.1,121.7,403.4z"/>
										<path class="st4" d="M84.3,390.4c1.6-3.7,0.4-13.6,0.4-13.6"/>
										<path class="st8" d="M76.9,385.8c8.5,9.8,13.6,0.6,13.6,0.6"/>
										<path class="st2" d="M82.5,383.2c13.2,1.6,17.7-9.3,1.9-9.2C71.6,374.1,69.3,381.6,82.5,383.2z"/>
										<path class="st8" d="M80.6,381.2c0,0-2.6-1.5-2.8-2.9s7.9,4.5,7.9,4.5s3.5-4.1,4.8-4.2s-0.7,2.6-0.7,2.6"/>
									</g>
									<path class="st4" d="M81.9,419.8c14.6,3.8,46.3-6.4,46.3-6.4"/>
									<path class="st4" d="M19.3,409.6C36.6,422,66.8,420,66.8,420"/>
									<path class="st4" d="M14,356.7c6.6-31.3,34.9-32.5,34.9-32.5"/>
									<path class="st4" d="M108.4,322.1c25.1,7,34.2,33.4,34.2,33.4"/>
									<g>
										<path class="st5" d="M56.2,385.6c9.6-0.3,17.2-8.5,16.8-18.2l-0.3-9.4c-0.3-9.8-8.3-17.5-17.9-17.2l0,0
											c-9.6,0.3-17.1,8.4-16.8,18.2l0.3,9.4C38.6,378.2,46.6,385.9,56.2,385.6L56.2,385.6"/>
										<path class="st6" d="M72.8,358l0.3,9.3c0.2,6.2-2.8,11.8-7.5,15.1c-0.7,0.2-1.4,0.3-2.2,0.3c-8.5,0.3-15.6-8.2-15.9-18.8
											c-0.4-10.6,6.2-19.4,14.7-19.7c1.5,0,2.9,0.2,4.3,0.7C70.2,348,72.6,352.7,72.8,358L72.8,358z"/>
									</g>
									<g>
										<path class="st5" d="M112.1,384.4c-9.1,0.6-17-6.5-17.7-15.7l-0.6-8.9c-0.6-9.3,6.3-17.3,15.4-17.9l0,0
											c9.2-0.6,17.1,6.4,17.7,15.7l0.6,8.9C128.1,375.8,121.2,383.8,112.1,384.4L112.1,384.4"/>
										<path class="st6" d="M93.9,359.7l0.6,8.9c0.4,5.9,3.7,10.9,8.5,13.6c0.7,0.1,1.5,0.1,2.2,0.1c8-0.5,14-9.2,13.3-19.3
											c-0.7-10.1-7.8-17.8-15.8-17.3c-1.4,0.1-2.7,0.4-4,1C95.4,350,93.6,354.7,93.9,359.7L93.9,359.7z"/>
									</g>
								</g>
							</g>
							<g>
								<g>
									<path class="st11" d="M-51.2,483.4l26.1,8.6l7.7-10.1l-1.5,11.1l11.4,8.6l7.5,1.9h95.4l10.7-5.8l16.3-0.8
										c0,0-5.7-10.9-3.4-9.8s6.8,10.6,6.8,10.6l10.2-3.4c0,0-9.7-11.7-15.7-13.2s-35.9,18.5-35.9,18.5s10.9-11,11.7-14
										s-1.1-7.9-1.1-7.9l5.7,6.4l11-4.2c0,0-6-9.4-13.6-8.3s-26.5,18.5-26.5,18.5l8.7-11.7c0,0-7.9-3.1-12.5,1.5
										s-12.5,19.7-12.5,19.7s4.9-13.3,1.1-14.8s-7.2-1.1-7.2-1.1l10.2-12.1c0,0,20.1-8.7,21.2-12.5c1.2-3.8,0.8-8.3,0.8-8.3
										l6.4,6L98,444.7c0,0-11.7-6-20-3.4c-8.3,2.6-24.2,25.7-24.2,25.7s12.1-24.6,7.6-22.7S46.7,454.9,44,457.2
										c-2.6,2.2-11.7,21.5-11.7,21.5s4.6-17.7,0.4-15.1s-11,13.6-11,13.6s6.1-14,2.3-14.8c-3.8-0.7-11.7,3.8-11.7,3.8
										s5.3-9.1,3.4-14l-3.4-11l7.9,4.5l23.4-17.8c0,0-12.1-4.2-19.7-3.4c-4,0.4-12,4.2-18.8,7.8c0.1-6.2-0.2-14.7-2.3-18.9
										c-3.4-6.8-10.5-11.7-10.5-11.7l1.2,37.9c0,0-9.2-16.3-16-19.4s-23.4-3.1-23.4-3.1l13.8,32.3l13.5-6.1l-10.2,12l14.8,9.9
										l6.2-7.7l-1.8,12c0,0-8-3.7-18.8-0.3C-39.2,472.6-51.2,483.4-51.2,483.4L-51.2,483.4z"/>
									<path class="st11" d="M101.2,503.5h12.9C111,502.8,105.7,503,101.2,503.5z"/>
								</g>
								<g>
									<path class="st9" d="M-30.5,495.4c-4.3,4-5.1,11.5-5.1,11.5H96.7c0,0-0.8-4.9-3.2-5.7c-2.4-0.8-9.2,2.5-9.2,2.5
										s6.5-4.8,4-4.8c-1.5,0-4.6,1-7,1.8c-0.6-1-1.4-1.8-2.1-2c-2.7-0.8-10.7,2.2-10.7,2.2s12-8.7,9-8.7s-13,7.7-13,7.7
										s3.8-9.9,1-8.7c-2.7,1.2-7.2,10.2-7.2,10.2l0,0c0,0-4.7-3.4-8.7-3.2s-7.5,2-7.5,2s7.4-6.9,4.7-7.5s-6.7,2.2-6.7,2.2
										s3-7.2,1-8.2s-4.2,2.5-4.2,2.5l3.7-10.2c0,0,14.5-3.7,11-5.2c-3.5-1.6-8.5,0.2-8.5,0.2l3.7-5c0,0,8-4.5,5-5
										s-5.5,2.5-5.5,2.5s3.8-6.9,0.5-6.3s-3.3,8.8-3.3,8.8l-6.2,9.5c0,0,2.9-9.3,0.2-7S34.3,482,34.3,482l-6.2,8.5
										c0,0,0.4-10.9-1.8-7.7c-1.2,1.7-1.7,4.4-2,6.6c-0.4-1.6-1.7-3.2-5.2-3.3c-5.9-0.2-11.1,6.8-12.5,8.2
										c2.1-2.2,2.7-11.9-0.9-11.7c-1.2,0.1-2.2,1.2-3,2.8c-0.5-5.5-1.6-11.4-4.1-10.6c-4.5,1.4-2.1,15.2-2.1,15.2
										s-6.2-15.5-8.9-11.6S-7.7,494-7.7,494s-5.1-5.9-7.8-3.5s2.7,7.1,2.7,7.1S-26.2,491.4-30.5,495.4L-30.5,495.4z"/>
									<path class="st9" d="M7.8,479.7c-1.2,0.1-0.4-7.9,1.7-8.3S9.1,479.6,7.8,479.7z"/>
									<path class="st9" d="M11.2,481.4c-1-1.5,4.9-10.8,7.8-8.1S12.2,482.9,11.2,481.4z"/>
									<path class="st9" d="M39.6,485.2c-1.2-1,7.3-6.5,10.3-4.9S40.8,486.2,39.6,485.2z"/>
									<path class="st9" d="M30.1,485.4c-1.3,0.1-2.2-9.5,0-10.3C32.3,474.3,31.4,485.4,30.1,485.4z"/>
									<path class="st9" d="M40.5,470.2c-1.3-0.7-1.6-6.4,0.3-7.6C42.7,461.3,41.8,470.9,40.5,470.2z"/>
									<path class="st9" d="M67.1,496.9c-1-0.2,1.2-10.8,3.7-10.7C73.3,486.3,68.1,497.1,67.1,496.9z"/>
									<path class="st9" d="M47.3,497.5c-0.8-1.3,6.3-7.1,8.8-4.8C58.7,495,48.1,498.8,47.3,497.5z"/>
									<path class="st9" d="M4.1,472.2c1.4-1.1,1.2,6.5,1.2,6.5C5,479.6,2.7,473.3,4.1,472.2z"/>
								</g>
							</g>
						</g>
					</g>
				</g>
			</g>
		</g>
		<g>
			<g>
				<path class="st2" d="M99.5,143.8l9.5,3.3c0,0-2.6,21.6-6.3,24.6s-6.7-1.4-6.7-1.4s-5.6,1-7-1.9
					C87.6,165.6,99.5,143.8,99.5,143.8L99.5,143.8z"/>
				<path class="st13" d="M93.1,157.5c0,0-5,8.8-4.1,11s7,1.9,7,1.9s1.2,3.5,4.9,2.5s5.7-13.6,5.7-13.6"/>
				<path class="st13" d="M96.9,167.3c0.5-0.9,0.9-1.8,1.2-2.8"/>
				<path class="st13" d="M98.9,161.8c0.2-1.1,0.4-1.9,0.4-1.9"/>
			</g>
			<g>
				<g>
					<path class="st17" d="M125,146.6c5.2,4.9,12.3,2.3,16-0.9s1.1-4.3,1.1-4.3s3.5-0.4,5.7-3.3c2.3-2.8-2.3-3.4-2.3-3.4
						s3.1-1.1,4.5-4c1.4-2.9-3.5-2.1-3.5-2.1s5.1-7.6,3.3-9.9c-1.8-2.3-11.2,7.6-11.2,7.6l-13.3,6"/>
					<path class="st13" d="M127.7,144.8c2.1-0.1,7.2-2.6,8.8-5.9s-1.3-2.5-1.3-2.5s3.1-1.1,3.5-3.2s-2.6-0.7-2.6-0.7s3.9-3.1,3-5.2
						s-7.3,2.3-7.3,2.3"/>
					<path class="st2" d="M144.2,125.1c-1-2.5-5.5,1.4-5.5,1.4s9.4-9.9,11.2-7.6c1.8,2.3-3.3,9.9-3.3,9.9s4.9-0.7,3.5,2.1
						s-4.5,4-4.5,4s4.5,0.5,2.3,3.4s-5.7,3.3-5.7,3.3s2.6,1.1-1.1,4.3c-0.9,0.8-2.1,1.6-3.4,2.2c0.5-0.9,0.9-2.1,0.9-3.1
						c0-2.5-3.3-1.7-3.3-1.7s7-2.9,7.7-4.5c0.6-1.6-2.7-1.6-2.7-1.6s4.9-3.3,4.6-5c-0.4-1.8-3.4-0.4-3.4-0.4
						S145.2,127.6,144.2,125.1L144.2,125.1z"/>
				</g>
				<g>
					<path class="st17" d="M92.2,149.5c-5.6,4.3-12.5,1-15.8-2.6s-0.6-4.4-0.6-4.4s-3.5-0.8-5.4-3.9c-1.9-3.1,2.7-3.2,2.7-3.2
						s-2.9-1.5-4-4.5c-1.1-3,3.7-1.7,3.7-1.7s-4.3-8.1-2.2-10.2s10.4,8.7,10.4,8.7l12.6,7.3"/>
					<path class="st13" d="M89.6,147c-2-0.4-6.9-3.4-8.1-6.8c-1.2-3.4,1.6-2.3,1.6-2.3s-3-1.4-3.1-3.5s2.7-0.4,2.7-0.4
						s-3.5-3.5-2.4-5.5c1.1-2.1,7,3,7,3"/>
					<path class="st2" d="M75.5,125.8c1.2-2.4,5.7,1.7,5.7,1.7s-8.4-10.8-10.4-8.7C68.7,120.9,73,129,73,129s-4.8-1.3-3.7,1.7
						c1,3,4,4.5,4,4.5s-4.6,0.1-2.7,3.2c2,3.1,5.4,3.9,5.4,3.9s-2.7,0.8,0.6,4.4c0.8,1,1.9,1.8,3.1,2.6c-0.4-1-0.7-2.2-0.6-3.2
						c0.2-2.5,3.4-1.4,3.4-1.4s-6.7-3.5-7.2-5.2s2.8-1.3,2.8-1.3s-4.5-3.8-4-5.5s3.4,0,3.4,0S74.3,128.2,75.5,125.8L75.5,125.8z"/>
				</g>
			</g>
			<g>
				<g>
					<path class="st17" d="M121,102c16.8,5.3,16.6,27.2,8.2,35.8c0,1.5-0.2,3.2-0.5,5.1c-2.5,14.4-32.7,19.6-38.5,4.4
						c-1.6-4.1-1.9-8.1-1.3-11.9c-3.2-2.9-4.8-7.1-5.2-12.7c-0.5-6.9,2.3-13.3,2.3-13.3c2.7-6.3,10.7-9.2,10.7-9.2s-1.1-1-1.4-2.7
						s3,0.2,3,0.2s-0.4-2.1-0.7-4.3c-0.4-2.2,3,0.9,3.6,1.1c0.6,0.2-1.1-2.3-1.9-4.6S103,92,103,92l-0.4-6.1
						C111.7,88.9,118.1,97.5,121,102L121,102z"/>
					<path class="st13" d="M112.8,155.8c19.9-4.8,16.7-20,16.7-20"/>
					<path class="st13" d="M84.7,114.1c2.1-13,16.2-14.8,16.2-14.8"/>
					<path class="st13" d="M130.5,136.2c7.9-6.6,2.9-23.1,2.9-23.1"/>
					<path class="st13" d="M95.5,136.6c-10.1,0.5-11.4-10-11.4-10"/>
				</g>
				<g>
					<path class="st2" d="M121.4,111c8.6,1,11.6,13.9,4,18.4c-3.3,1.9-6.9,2-8.2,2.2c-0.9,3.5-10.5,3.1-11-1.3
						c-5.7,0.3-13.5-3.3-12.9-10.7c0.8-9.5,9.8-9.4,9.8-9.4c4.1-1,7.5,0.7,8.8,2.9C117.3,108.6,121.4,111,121.4,111L121.4,111z"/>
					<path class="st7" d="M94.3,133c4.9-1.9,1-8-3.3-5.5C88.3,129.1,89.4,134.8,94.3,133z"/>
					<path class="st7" d="M127.6,135.3c4.9-1.9,1-8-3.3-5.5C121.6,131.3,122.8,137.1,127.6,135.3z"/>
					<g>
						<path class="st5" d="M102.5,128.7c3.7,0,6.8-2.7,6.8-5.9v-3.2c0-3.3-3-6.1-6.7-6.1l0,0c-3.7-0.1-6.8,2.6-6.8,5.9v3.2
							C95.8,125.9,98.8,128.7,102.5,128.7L102.5,128.7"/>
						<path class="st6" d="M109.3,119.5l0.1,3.2c-0.1,2.1-1.3,3.9-3.2,5c-0.3,0.1-0.6,0.1-0.9,0.1c-3.3,0-5.9-3-5.9-6.6
							s2.7-6.5,6-6.5c0.6,0,1.2,0.1,1.7,0.3C108.5,116.1,109.3,117.7,109.3,119.5L109.3,119.5z"/>
					</g>
					<g>
						<path class="st5" d="M121.5,129.1c-3.8,0-6.9-2.7-6.9-6.1l-0.1-3.3c-0.1-3.4,2.9-6.2,6.6-6.3l0,0c3.7-0.1,6.8,2.7,6.9,6.1
							l0.1,3.3C128.2,126.2,125.2,129,121.5,129.1L121.5,129.1"/>
						<path class="st6" d="M114.5,119.7l0.1,3.2c0,2.2,1.3,4.1,3.2,5.2c0.3,0.1,0.6,0.1,0.9,0.1c3.3-0.1,5.9-3.2,5.8-6.9
							s-2.8-6.7-6.1-6.6c-0.6,0-1.2,0.1-1.7,0.3C115.3,116.2,114.5,117.9,114.5,119.7L114.5,119.7z"/>
					</g>
					<g>
						<path class="st16" d="M112.2,130.9c1.4-0.1,3.3-3.7,3.3-4.6c0-1.4-1.9-3.6-3-4.3s-3.8,2.5-3.9,4.1
							C108.5,127.6,110.4,130.9,112.2,130.9z"/>
						<path class="st10" d="M109.3,126.3c-0.3,0.6,1.8,2.6,2.9,3c1.1,0.3,2.2-2,2.6-3.1c0.3-0.8-1.8-1.7-1.8-1.7s-0.4,1.3-0.6,1.7
							c-0.2,0.5-1-1.6-1-1.6L109.3,126.3L109.3,126.3z"/>
						<path class="st18" d="M113.1,124.5c0.4,0.2,1.5,1,1.5,1"/>
						<path class="st17" d="M110.4,127.8c0,0.5,0.8,1.2,2.1,1.4c0.9,0.1,2.2-2,1.8-2.5c-0.7-0.9-1.8,1-1.8,1s-0.5-1.1-1.1-1
							C110.8,126.8,110.4,127.3,110.4,127.8z"/>
						<path class="st18" d="M113,122.6c0.4,1.6-0.3,3.5-0.6,3.6s-1-1.6-1-1.6l-2.4,2"/>
						<path class="st18" d="M114.9,126.2c0,0-0.9,2.8-2.3,3.1c-0.9,0.2-2.8-1.8-2.8-1.8"/>
					</g>
				</g>
				<g>
					<path class="st2" d="M119.5,140.1c-1.8-0.6-1.1-2.8,0.2-3.5C120.9,136,121.3,140.7,119.5,140.1z"/>
					<path class="st2" d="M114.3,142.6c-2.4-0.3-0.7-5.4,1.3-5.5C117.6,136.9,116.7,142.9,114.3,142.6z"/>
					<path class="st2" d="M109.6,141.6c-1.1-0.4-1.5-3.6,0-4.5C111.1,136.2,110.7,141.9,109.6,141.6z"/>
					<path class="st2" d="M105.9,141.3c-1.3,0.4-2.5-3.3-0.9-4.3C106.5,136,107.1,140.8,105.9,141.3z"/>
					<path class="st2" d="M100.7,139.5c-1.5-0.5-1.1-3.6,0.2-3.8C102.2,135.5,102.2,140,100.7,139.5z"/>
					<path class="st2" d="M110.8,145.3c-1.5-0.1-0.5-3,0.6-3C112.4,142.3,112.2,145.3,110.8,145.3z"/>
					<path class="st2" d="M107.8,145c-1.2-0.4-0.7-2.5,0-3.1C108.5,141.2,109,145.4,107.8,145z"/>
					<path class="st2" d="M103.9,144.4c-1.3-0.5-1.2-2.3-0.2-2.8S105.2,144.9,103.9,144.4z"/>
				</g>
			</g>
			<g>
				<path class="st6" d="M101,151.7c0,0,0.1,2.9,1.2,3c0.9,0.3,0.9-2.8,0.9-2.8s3.9-3.8,3.8-4.9s-3.4,2.1-3.4,2.1s-0.2-3.7-1.3-4.5
					c-1.1-0.7-0.7,5.3-0.7,5.3s-2.9-2.9-3.9-3.1C96.5,146.5,101,151.7,101,151.7L101,151.7z"/>
				<path class="st6" d="M110.6,145.9c-1-0.5,1.4,5.3,1.4,5.3s-1.1,3.3,0.3,3.4c0.9,0,1.4-2.9,1.4-2.9s4.2-1.6,4.4-2.9
					c0.1-1.3-3.7,1.2-3.7,1.2s1.5-3.1,1-4c-0.5-0.8-2.6,3.4-2.6,3.4S111.6,146.3,110.6,145.9L110.6,145.9z"/>
			</g>
		</g>
		<g>
			<g>
				<g>
					<path class="st12" d="M417.2,94.7c0,0-20.3,21.9-19.8,23.3c0.6,1.4,9.8,14.7,14.8,13.4c5-1.3-2.2-8.7-2.2-8.7
						s10.5,6.4,14.9,3.2c4.4-3.3-7-8.2-7-8.2s14.7,3.8,17.3,0.2c2.6-3.6-9-7.3-9-7.3s14.5,1.4,16.1-2.8c1.7-4.2-15.6-3.9-15.6-3.9
						c6.6-0.1,17.3-6.6,16.2-10.4c-1.1-3.8-17.9,3.9-17.9,3.9c14.4-6.5,12.2-20.5,8.2-20.3S417.2,94.7,417.2,94.7L417.2,94.7z"/>
					<path class="st9" d="M413.3,97.6c0,0-18.4,17-18,18.2s7.2,12.8,11.4,12.1c4.2-0.7-1.3-7.4-1.3-7.4s8.4,6.1,12.2,3.7
						c3.8-2.4-5.3-7.3-5.3-7.3s12,4.1,14.4,1.3c2.4-2.9-7-6.7-7-6.7s12,2.1,13.6-1.3c1.6-3.4-12.8-4.3-12.8-4.3
						c5.5,0.3,14.9-4.3,14.2-7.6c-0.6-3.3-15.1,2-15.1,2c12.4-4.4,11.5-16.2,8.2-16.3C424.5,83.9,413.3,97.6,413.3,97.6L413.3,97.6z
						"/>
					<path class="st13" d="M398.4,120.7c0,0,9.8,12.3,13.8,10.7c5.8-2.3-3.2-9-3.2-9s13.7,7,16.3,2.7c2.6-4.3-11.5-7.9-11.5-7.9"/>
					<path class="st11" d="M393.7,116.7c-7.9-9.5,17.6-19.1,17.6-19.1l4-2.2C422.4,107.8,401.6,126.2,393.7,116.7L393.7,116.7z"/>
				</g>
				<g>
					<path class="st12" d="M359.8,121.2l7.7,7.7c-0.8,8.6-7.4,28.7-14,29.4c-6.6,0.7-0.7-12.7-0.7-12.7s-6.1,18.5-12.7,18
						c-6.6-0.5,6.8-15.4,6.8-15.4s-10.8,14.7-19.1,14.9c-8.4,0.2-7.7-3.1-7.7-3.1C332.6,156.9,359.8,121.2,359.8,121.2L359.8,121.2z
						"/>
					<path class="st11" d="M355.5,128.2c-0.3,1.2-27.3,29.3-27.3,29.3C348.9,156.1,355.8,127,355.5,128.2z"/>
					<path class="st13" d="M344.9,139.5c-12.5,16.1-25.4,20.6-25.4,20.6c12.5,13.7,32.2-19.5,32.2-19.5"/>
				</g>
			</g>
			<g>
				<path class="st2" d="M378.2,127.6l-4.9,1.8l0.3,4.9c0,0-2.8,6.3-2.3,7.2s3.9-4.3,3.9-4.3s-3.4,7-2.5,7.3s4.5-6.1,4.5-6.1
					s-1.2,5.1-1.3,5.8c-0.1,0.7,2.4-1.4,3.3-3.8C380,137.9,378.2,127.6,378.2,127.6L378.2,127.6z"/>
				<path class="st2" d="M367.9,126.3l-4.9,1.8l0.3,4.9c0,0-2.8,6.3-2.3,7.2s3.9-4.3,3.9-4.3s-3.4,7-2.5,7.3s4.5-6.1,4.5-6.1
					s-1.2,5.1-1.3,5.8s2.4-1.4,3.3-3.8C369.7,136.6,367.9,126.3,367.9,126.3L367.9,126.3z"/>
			</g>
			<g>
				<path class="st9" d="M390.1,96.4c0,0,12.1,5.3,7.3,24.1c-3.9,15.5-37.2,18.9-42.3,1.9c-3.7-12.3,2.3-24.1,11.6-28.4
					C374.2,90.5,390.1,96.4,390.1,96.4L390.1,96.4z"/>
				<path class="st11" d="M360.1,129.5c9.8,7.6,29.7,4.6,35.8-5.4c-0.1-0.6-0.4-1.1-0.8-1.2c-2.7-0.9-4.3,0.8-4.3,0.8
					s1.8-4.1-0.2-4.1s-3.9,3.5-3.9,3.5c-3.7-2.5-10.1,1.8-10.1,1.8s2.7-2.9-1.2-3.9C372.3,120.2,362.8,124.3,360.1,129.5
					L360.1,129.5z"/>
				<path class="st6" d="M398.9,116.5c0.4-3.2-0.3-5.9-0.7-8.2c-7.9,0.3-28,0.1-39.9-7.1c-0.8,1.1-1.5,2.4-2.1,3.7
					C366.1,112,383.3,121.1,398.9,116.5z"/>
				<g>
					<path class="st11" d="M399.4,108.3c16.7-4.1,20.8-44.1-9-48.8c-26.4-4.2-39.8,4.7-39.3,27.5
						C351.7,112.4,384.9,111.7,399.4,108.3z"/>
					<g>
						<path class="st5" d="M373.2,92.4c4.8,0.1,8.8-3.4,8.9-7.9l0.1-4.3c0.1-4.5-3.7-8.2-8.5-8.3l0,0c-4.8-0.1-8.8,3.4-8.9,7.9
							l-0.1,4.3C364.6,88.6,368.4,92.3,373.2,92.4L373.2,92.4"/>
						<path class="st6" d="M382.1,80.2l-0.1,4.4c0,2.8-1.7,5.3-4.1,6.7c-0.3,0.1-0.7,0.1-1.1,0.1c-4.3-0.1-7.6-4.1-7.5-9
							c0.1-4.9,3.7-8.8,7.9-8.7c0.7,0,1.4,0.2,2.1,0.4C381.1,75.6,382.1,77.8,382.1,80.2L382.1,80.2z"/>
					</g>
					<g>
						<path class="st5" d="M399.1,91.8c-4.8,0-8.7-3.4-8.8-7.6v-4.1c-0.1-4.2,3.8-7.7,8.6-7.7l0,0c4.8,0,8.8,3.4,8.8,7.6v4.1
							C407.8,88.3,403.9,91.8,399.1,91.8L399.1,91.8"/>
						<path class="st6" d="M390.4,80.1l0.1,4c0,2.7,1.6,5.1,4,6.4c0.3,0.1,0.7,0.1,1.1,0.1c4.2,0,7.6-3.8,7.6-8.4
							c0-4.6-3.5-8.3-7.7-8.3c-0.8,0.1-1.5,0.2-2.2,0.4C391.5,75.8,390.4,77.8,390.4,80.1L390.4,80.1z"/>
					</g>
					<path class="st7" d="M366.2,99.9c6.8-0.2,4.4-9.3-1.8-8C360.4,92.8,359.5,100.2,366.2,99.9z"/>
					<path class="st7" d="M403.3,100.1c6.8-0.2,4.4-9.3-1.8-8C397.6,92.9,396.7,100.4,403.3,100.1z"/>
					<g>
						<path class="st10" d="M385.5,81.1c-5.8-1.6-4.6,13.7-3,15.2c1.7,1.5,6.6,0.6,6.6,0.6l1.4,3.8c0,0,4,0.2,3.8-8.1
							C394.1,84.3,385.5,81.1,385.5,81.1L385.5,81.1z"/>
						<path class="st17" d="M382.6,96.3c1.7,1.5,6.6,0.6,6.6,0.6l1.4,3.8c0,0,1.9-5.2-0.2-6.6c-1.5-1-6.2-1.8-9-2.2
							C381.6,94.1,382.1,95.8,382.6,96.3L382.6,96.3z"/>
						<path class="st13" d="M381.3,91.9c0,0,6.5,0.5,9,2.2c2.4,1.7,0.2,6.6,0.2,6.6"/>
					</g>
				</g>
				<path class="st13" d="M385,132c18.6-6.7,13.2-23.8,13.2-23.8c20.4-6.3,12.6-31.6,12.6-31.6"/>
			</g>
			<g>
				<g>
					<path class="st12" d="M336.9,92c0,0.1,22,20.3,21.6,21.7c-0.4,1.4-8.5,15.4-13.6,14.5c-5.1-0.9,1.5-8.9,1.5-8.9
						s-10,7.3-14.6,4.4c-4.6-2.9,6.3-8.7,6.3-8.7s-14.3,5-17.2,1.6s8.4-8,8.4-8S314.9,111,313,107s15.3-5.1,15.3-5.1
						c-6.6,0.4-17.8-5.2-17-9.1c0.8-3.9,18.1,2.4,18.1,2.4c-14.8-5.3-13.8-19.4-9.8-19.5C323.5,75.6,336.9,92,336.9,92L336.9,92z"/>
					<path class="st9" d="M341.3,93.7c0,0,18.4,17,18,18.2s-7.2,12.8-11.4,12.1c-4.2-0.7,1.3-7.4,1.3-7.4s-8.4,6.1-12.2,3.7
						c-3.8-2.4,5.3-7.3,5.3-7.3s-12,4.2-14.4,1.3s7-6.7,7-6.7s-12,2.1-13.6-1.3c-1.6-3.4,12.8-4.3,12.8-4.3
						c-5.5,0.3-14.9-4.3-14.2-7.6c0.6-3.3,15.1,2,15.1,2C322.6,92,321.6,82.1,324.9,82c2.2-0.1,7.3,5,11.4,8.5
						C338.6,92.4,341.3,93.7,341.3,93.7L341.3,93.7z"/>
					<path class="st11" d="M360.9,112.8c7.9-9.5-17.6-19-17.6-19.1l-4-2.2C332.2,103.9,353,122.3,360.9,112.8L360.9,112.8z"/>
				</g>
				<path class="st11" d="M360.2,113.9c4.9-6-1-12.6-7.9-16.8c-5.6-3.4-12.1-4.9-12.1-4.9l-4.5-2.5
					C327.7,103.8,351.2,124.7,360.2,113.9L360.2,113.9z"/>
				<path class="st13" d="M326,93.6c-10.3-4.7-9.7-14.7-7.8-17.6s18.5,15.1,18.5,15.1c31.3,8.7,25.1,22.1,25.1,22.1"/>
			</g>
		</g>
	</g>
</g>
</svg>
