<?xml version="1.0" encoding="utf-8"?>
<!-- Generator: Adobe Illustrator 27.5.0, SVG Export Plug-In . SVG Version: 6.00 Build 0)  -->
<svg version="1.1" id="Layer_2_00000014626777903277984430000004997742779572816011_"
	 xmlns="http://www.w3.org/2000/svg" xmlns:xlink="http://www.w3.org/1999/xlink" x="0px" y="0px" viewBox="0 0 567 503.5"
	 style="enable-background:new 0 0 567 503.5;" xml:space="preserve">
<style type="text/css">
	.st0{clip-path:url(#SVGID_00000094604516255429047900000005822158735360234632_);}
	.st1{fill:#04685C;}
	.st2{fill:#701B0A;}
	.st3{fill:#B8643B;}
	.st4{fill:none;stroke:#490F00;stroke-width:2;stroke-miterlimit:10;}
	.st5{fill:#FFFFD8;}
	.st6{fill:#490F00;}
	.st7{fill:#D24962;}
	.st8{fill:none;stroke:#490F00;stroke-width:1.5;stroke-miterlimit:10;}
	.st9{fill:#00935D;}
	.st10{fill:#D58D65;}
	.st11{fill:#6EB16E;}
	.st12{fill:#008073;}
	.st13{fill:none;stroke:#490F00;stroke-miterlimit:10;}
	.st14{fill:none;stroke:#FFFFD8;stroke-miterlimit:10;}
	.st15{fill:#21A998;}
	.st16{fill:#FFB200;}
	.st17{fill:#B92319;}
	.st18{fill:none;stroke:#490F00;stroke-width:0.5;stroke-linejoin:round;}
</style>
<g id="OBJECTS">
	<g>
		<g>
			<defs>
				<rect id="SVGID_1_" x="-183" width="750" height="500"/>
			</defs>
			<clipPath id="SVGID_00000165928903401610448970000002836791609128327814_">
				<use xlink:href="#SVGID_1_"  style="overflow:visible;"/>
			</clipPath>
			<g style="clip-path:url(#SVGID_00000165928903401610448970000002836791609128327814_);">
				<path class="st1" d="M679.5,446.8c-11.9-17.6-36.9-12.5-36.9-12.5s40.3-17,32.4-26.1c-8-9.1-46.6,4-46.6,4s25-24.4,18.8-33.5
					S610.7,407,610.7,407s6.8-13.6,2.8-20.5c-4-6.8-25.6-10.2-25.6-10.2s37.5-6.8,31.8-17.6c-5.7-10.8-36.4-9.7-36.4-9.7l73.3-9.7
					c0,0-16.5-14.2-39.8-15.3c-23.3-1.1-43.2,16.5-43.2,16.5l10.2-18.8l-10.8-39.2l16.5,21.6l9.7-12.5l-12.5-35.2l20.5,28.4
					l27.8-59.7c0,0-37.5,1.1-62.5,12.5c-19.3,8.8-34.5,69.2-40.5,96.4l-1.9-17.5l-30-18.8l26.5,2.6l2.6-53.9c0,0-18-5.1-23.1-6.9
					c-5.1-1.7,26.5-7.7,26.5-7.7l-20.5-46.2c0,0-39.4,87.3-41.1,103.5s11.1,53.9,11.1,53.9l-29.1-15.4l-15.4,31.7l3.4-30
					c0,0-50.5-30-67.6-31.7s-44.5,7.7-44.5,7.7l53,40.2l18-10.3l-7.7,24.8c-4.3,11.1,7.7,31.7,7.7,31.7s-18-10.3-26.5-8.6
					c-8.6,1.7,5.1,33.4,5.1,33.4s-15.4-24.8-24.8-30.8c-9.4-6,0.9,34.2,0.9,34.2s-20.5-43.6-26.5-48.8s-29.1-24.8-39.4-29.1
					c-10.3-4.3,17.1,51.3,17.1,51.3s-35.9-52.2-54.8-58.2c-18.8-6-45.4,7.7-45.4,7.7l23.1,27.4l14.5-13.7c0,0-0.9,10.3,1.7,18.8
					c2.6,8.6,47.9,28.2,47.9,28.2l23.1,27.4c0,0-7.7-0.9-16.3,2.6c-8.6,3.4,2.6,33.4,2.6,33.4s-18-34.2-28.2-44.5
					s-28.2-3.4-28.2-3.4l19.7,26.5c0,0-42.8-39.4-59.9-41.9c-17.1-2.6-30.8,18.8-30.8,18.8l24.8,9.4l12.8-14.5c0,0-4.3,11.1-2.6,18
					s26.5,31.7,26.5,31.7s-67.6-45.4-81.3-41.9s-35.9,30-35.9,30l23.1,7.7c0,0,10.3-21.4,15.4-24c5.1-2.6-7.7,22.2-7.7,22.2
					l36.8,1.7l28.2,15.4c0,0-35.9-6-47.9-1.7c-8.5,3-15.3,16.1-18.5,23.4H567v-8.9h108.5C675.5,491.1,691.4,464.4,679.5,446.8
					L679.5,446.8z"/>
				<g>
					<g>
						<g>
							<path class="st2" d="M344.6,453.2c110.7,16.7,126.8-50.2,93.5-109.9c-38.8-69.5-90-39.1-124-9.8
								C273.4,368.6,281.7,443.7,344.6,453.2z"/>
							<path class="st3" d="M385.9,451.4c6.3-14.1-4.7-66.4-35-65.3s-25.6,46.5-25.6,46.5c0.7,7.2,2.8,12.9,5.7,17.3
								c4.2,1.5,8.8,2.6,13.7,3.4c14.1,2.1,26.7,2.9,37.8,2.5C384,454.3,385.2,452.9,385.9,451.4L385.9,451.4z"/>
							<path class="st4" d="M425.2,403c0,0-18.2,8.9-23.2,31.8"/>
						</g>
						<g>
							<g>
								<g>
									<path class="st2" d="M297.5,217.7c0,0,15.2-23.9-12.2-38.9c-27.4-15-62.7,29.8-11.5,55.8L297.5,217.7L297.5,217.7z"/>
									<path class="st3" d="M293.2,218.1c0,0-3.5-30.9-19.4-30.4s-13.4,26.4,3.7,37.6L293.2,218.1L293.2,218.1z"/>
									<path class="st4" d="M269.9,188.7c0,0-19,7.4,4,34.5"/>
								</g>
								<g>
									<path class="st2" d="M414.4,219.8c0,0,3.5-30.1,32.6-29.9s34.3,61.5-21,54.3L414.4,219.8L414.4,219.8z"/>
									<path class="st3" d="M417.5,222.5c0,0,16.8-23.5,29.5-15.9c12.7,7.6-1,27.5-20,28.9L417.5,222.5z"/>
									<path class="st4" d="M446.9,206.5c0,0,15.6,10.2-9.6,26.6"/>
								</g>
							</g>
							<path class="st2" d="M448.2,295c11.3-73.9-41.2-102.4-117.3-98.8c-98.8,4.7-87.7,136.3-33.5,152.4
								C344.4,362.5,437,368.8,448.2,295L448.2,295z"/>
							<path class="st4" d="M261,307.5c0,0,13.3,44.1,54.2,45.5"/>
							<path class="st4" d="M447.2,287.6c0,0,2.2,66.5-79,68.4"/>
							<g>
								<g>
									<path class="st5" d="M386.2,301.7L386.2,301.7c12.8-0.2,23.1-11,22.8-24.1l-0.2-12.6c-0.2-13.1-10.8-23.6-23.7-23.3l0,0
										c-12.8,0.2-23.1,11-22.8,24.1l0.2,12.6C362.7,291.5,373.3,301.9,386.2,301.7"/>
									<path class="st6" d="M362.3,265.8c-0.1-7.1,2.8-13.5,7.6-17.9c1.8-0.7,3.8-1.1,5.8-1.1c11.3-0.2,20.7,11.2,21,25.5
										s-8.7,26-20.1,26.2c-1,0-2-0.1-3-0.3c-6.5-4.1-10.9-11.4-11-19.8L362.3,265.8L362.3,265.8z"/>
								</g>
								<g>
									<path class="st5" d="M304.9,299.4L304.9,299.4c-12.8-1-22.4-12.4-21.4-25.4l1-12.5c1-13.1,12.2-22.9,25-21.9l0,0
										c12.8,1,22.4,12.4,21.4,25.4l-1,12.5C328.9,290.6,317.7,300.4,304.9,299.4"/>
									<path class="st6" d="M330.9,265c0.5-7.1-2-13.6-6.5-18.3c-1.8-0.8-3.7-1.3-5.7-1.5c-11.3-0.9-21.4,10-22.5,24.2
										c-1.1,14.2,7.2,26.5,18.5,27.3c1,0.1,2,0,3-0.1c6.7-3.7,11.5-10.7,12.2-19.1L330.9,265z"/>
								</g>
								<path class="st7" d="M388.9,316c0.6,3.2,2.9,6.4,7.5,8.8c17.8,9.4,25.1-12.3,15.4-19.7C400.2,296.4,387,306.4,388.9,316"/>
								<path class="st7" d="M297.1,304.7c-15.5-11.8-33.8,10-15.4,19.7C299.5,333.8,306.8,312.1,297.1,304.7z"/>
								<g>
									<path class="st3" d="M307.7,311.4c-2.9-33.4,26.8-47.6,46.8-39.7c20,7.9,35.7,52.2,11,63.5
										C332.4,350.2,309.5,333,307.7,311.4L307.7,311.4z"/>
									<g>
										<path class="st4" d="M339.9,292.5c0,0-2.5,15.8,4.4,19"/>
										<g>
											<path class="st2" d="M325.7,300.1c12.7-2.5,14.1,7.1,19.2,5.7c5.1-1.5,10.2-10.1,17.9-5.3s7.8,33.1-26.2,30.2
												C312.8,328.6,313.1,302.5,325.7,300.1L325.7,300.1z"/>
											<path class="st7" d="M331.8,329.4c3.5-6.7,12.4-12.2,23.4-13.6c3.2-0.4,6.4-0.4,9.3-0.1c-1,6.3-5.7,13-16.7,14.8
												c-0.1,0-0.1,0-0.2,0c-0.7,0.1-1.3,0.2-2,0.2c0,0,0,0,0,0c-2.3,0.2-4.8,0.2-7.7,0C335.6,330.5,333.6,330.1,331.8,329.4
												L331.8,329.4z"/>
											<path class="st5" d="M361.8,300c-7.2-3.6-12.1,4.4-16.9,5.8c-5.1,1.5-6.5-8.1-19.2-5.7c-0.2,0-0.3,0.1-0.5,0.1
												c0.5,1.8,1.5,3.7,3.2,5.5c0.8,3.9,2.5,10.8,4.3,9.4c1.1-0.8,1.8-3,2.3-5.2c1.5,0.6,3.2,1.1,5.2,1.5
												c4.2,0.8,7.8,0.3,10.8-1c1.1,2.7,2.7,5.3,4,4.3c1.9-1.4,2.6-6.7,2.9-9.3C359.5,303.7,360.8,301.8,361.8,300L361.8,300z"
												/>
											<path class="st4" d="M325.7,300.1c12.7-2.5,14.1,7.1,19.2,5.7c5.1-1.5,10.2-10.1,17.9-5.3s7.8,33.1-26.2,30.2
												C312.8,328.6,313.1,302.5,325.7,300.1L325.7,300.1z"/>
										</g>
									</g>
									<g>
										<path class="st2" d="M342.7,272.6c-31.1,1.1-25,25.6,1.5,23.8C370.6,294.6,368,271.7,342.7,272.6z"/>
										<path class="st8" d="M330.2,291.8c0,0-4-6-1.1-5.7s9.8,9.6,9.8,9.6s18.2-11.5,17.5-8.6s-6.5,5.9-6.5,5.9"/>
									</g>
								</g>
							</g>
							<path class="st4" d="M446.4,248.6c0,0-17.1-46.7-76.2-51.3"/>
							<path class="st4" d="M307.4,200c0,0-29.3,7.7-40.6,33.9"/>
						</g>
						<g>
							<g>
								<path class="st2" d="M331.4,392c0,0,9.4,46.5,10.6,55.4c0,0,10.4,4.6,3.8,7.1c-6.7,2.4-33.3,5.4-37.9-2.2
									c-4.6-7.6-11.4-47.2-10.6-56"/>
								<path class="st4" d="M331.4,392c0,0,9.4,46.5,10.6,55.4c0,0,10.4,4.6,3.8,7.1c-6.7,2.4-33.3,5.4-37.9-2.2
									c-4.6-7.6-11.4-47.2-10.6-56"/>
								<path class="st4" d="M322.7,450.4c0,0,4.1,4.7,4.1,7.1"/>
								<path class="st4" d="M332.8,448.9c0,0,2.8,3.7,3.4,6.5"/>
							</g>
							<g>
								<path class="st2" d="M372.1,387.3c0,0-10.5,59.1-11.1,65c0,0-5.9,0.8-2.3,3.6s33,2.4,37.1-1.6s13.6-50,13.6-50"/>
								<path class="st4" d="M372.1,387.3c0,0-10.5,59.1-11.1,65c0,0-5.9,0.8-2.3,3.6s33,2.4,37.1-1.6s13.6-50,13.6-50"/>
								<path class="st4" d="M378.4,452.2c0,0-2.8,2.8-4.7,5.2"/>
								<path class="st4" d="M368.3,451.5c0,0-1.5,3.5-1.9,5.8"/>
							</g>
						</g>
					</g>
					<g>
						<g>
							<g>
								<path class="st9" d="M300.6,175.5c0,0-7.5,11.2-9.3,16.9s0.2,12.2,0.2,12.2l23,0l-4.4-10l1-21L300.6,175.5L300.6,175.5z"/>
								<path class="st5" d="M309.4,198c-2.1-0.4-2.3,3.7-2.3,3.7s-1.6-4.3-4-3.7s-1.9,4.6-1.9,4.6s-0.9-3.5-3.8-3.9
									c-3-0.4-4.2,5.2-4.2,5.2l0,0.8l21.3,0l-1.1-2.6C312.2,200.3,310.5,198.2,309.4,198L309.4,198z"/>
								<path class="st8" d="M296.1,183.5c0,0-8.2,8.2-4.6,21.2l6.6-0.4"/>
							</g>
							<g>
								<path class="st9" d="M410.5,180.8c0,0,6.3,11.9,7.7,17.8s-1.4,12.2-1.4,12.2l-22.9-2.2l5.3-9.6l1-21L410.5,180.8
									L410.5,180.8z"/>
								<path class="st5" d="M399.7,202.3c2.1-0.2,1.9,3.9,1.9,3.9s2-4.1,4.4-3.3s1.4,4.8,1.4,4.8s1.2-3.4,4.2-3.5
									c3-0.1,3.7,5.6,3.7,5.6l-0.1,0.8l-21.2-2.1l1.4-2.5C396.6,204.4,398.5,202.4,399.7,202.3L399.7,202.3z"/>
							</g>
						</g>
						<g>
							<path class="st10" d="M414.4,174.8c8.8-43.5-29.8-53.9-69-52.3c-52.5,2.1-59.8,65.2-28.1,76.3
								C344.8,208.4,405.7,218.3,414.4,174.8L414.4,174.8z"/>
							<path class="st8" d="M383.7,125.1c16.5,4.6,38.8,18,29.4,56.3"/>
							<path class="st8" d="M368.1,122.6c0,0,3.7,0,9,1"/>
							<path class="st8" d="M391.1,170.2c0,0,3.4-24.7,9.2-24.7c5.8,0,16.1,13.2,15.5,19.2c-0.6,6-8.8,24.5-11.6,23.1
								c-2.9-1.4-10.1-7.2-10.1-11s4.1-20.4,8.1-19.3s8.5,4.3,7.5,7.7s-2.1,12.2-5,11.2c-2.9-1-4.6-2.9-4.4-4.2
								c0.2-1.4,2.4-6.9,2.4-6.9"/>
							<path class="st8" d="M358.7,148.4c0,0,0.1-18.8,4.4-20.4s26.9,5.8,29.3,11.3s-6.5,30.9-6.5,30.9s-18.1-3-19.7-8.2
								s-0.5-25.4,5.4-26.1s13.3,1.6,13.3,3.8c0,2.2-2.7,13.5-2.7,13.5s-9.5,1.1-9.2-1.7s4-10.6,4-10.6"/>
							<path class="st8" d="M355.2,155.2c0,0,0.1-24.1-2.8-26.5c-2.9-2.3-21.1,0.1-26.3,4.2s-1.5,30.4-1.5,30.4s7,4.3,10,4.8
								c2.9,0.5,16.2-12,15.8-17c-0.3-4.9,1.1-17.8-4.1-18s-12.3,0.2-12.9,5.4c-0.5,5.2-1.4,17.2,2.8,16.3c4.2-0.9,7.9-5.4,7.8-7.9
								c-0.2-2.5-1.8-8.3-1.8-8.3"/>
							<path class="st8" d="M318.4,165c0,0,2.7-22.4-1.1-21.7s-14.3,7-16.5,11.3s-2.7,22.1,0.9,22.3s9.8-5,10.5-7.7
								s3.2-14.9-0.1-15.1c-3.3-0.2-8.1,3.2-8.2,6.2s2,10.2,3.4,8.7s1.3-9.8,1.3-9.8"/>
							<path class="st5" d="M408.8,188.8c-2.7,0.7-6,1.2-9.4,0.9c-8.6-0.7-13.5-21.7-39.2-23.8s-44.3,11.7-54.7,14.7
								c-1.9,0.6-3.6,0.7-5,0.6c2.8,8.1,8.5,14.6,16.8,17.5C341.3,207.2,390.8,215.8,408.8,188.8L408.8,188.8z"/>
							<path class="st8" d="M323,201c0,0,42.4,13.9,64.1,1.4"/>
							<g>
								<g>
									<g>
										<path class="st11" d="M310.8,178.9c0,0-9.5,14.3-11.9,21.6c-2.4,7.3,0.3,15.6,0.3,15.6l29.3,0l-5.5-12.8l1.3-26.8
											L310.8,178.9L310.8,178.9z"/>
										<path class="st5" d="M321.9,207.5c-2.7-0.5-2.9,4.7-2.9,4.7s-2-5.5-5.1-4.8c-3.1,0.7-2.4,5.9-2.4,5.9s-1.1-4.4-4.9-5
											s-5.3,6.7-5.3,6.7l0,1l27.2,0l-1.4-3.3C325.6,210.4,323.4,207.7,321.9,207.5z"/>
									</g>
									<path class="st8" d="M309.4,207c0-0.2,3,5.8,2.9,8.9"/>
									<path class="st8" d="M317.4,207.2c0,0,2.3,5.9,1.8,8.6"/>
								</g>
								<g>
									<g>
										<path class="st11" d="M397.9,186.9c0,0,8.1,15.1,9.8,22.6s-1.8,15.5-1.8,15.5l-29.2-2.8l6.7-12.2l1.3-26.8L397.9,186.9
											L397.9,186.9z"/>
										<path class="st5" d="M384.1,214.3c2.7-0.2,2.4,5,2.4,5s2.6-5.2,5.6-4.2s1.8,6.1,1.8,6.1s1.5-4.3,5.3-4.5
											c3.8-0.2,4.7,7.2,4.7,7.2l-0.1,1l-27-2.6l1.7-3.1C380.2,216.9,382.6,214.4,384.1,214.3L384.1,214.3z"/>
										<path class="st8" d="M401.2,194.4c0,0,6.5,11.2,6.8,18.2s-2,12.3-2,12.3l-9.7-0.8"/>
									</g>
									<path class="st8" d="M387.6,214.7c0,0-2,6.6-1.7,8.3"/>
									<path class="st8" d="M395.5,215.6c0,0-3.2,6-2.2,8.3"/>
								</g>
							</g>
							<path class="st12" d="M319.9,176.1c0,0-11.7,13.5-29.8,1.7c0,0,13.6,2.1,19.1-5.1s23-24.4,55.1-20.8
								c32.1,3.6,34.3,30.6,40,32.1c5.7,1.5,12.1,0.4,12.1,0.4s0.6,4.1-6.5,6.3c-7.1,2.1-18-1.1-18-1.1L319.9,176.1L319.9,176.1z"/>
							<path class="st8" d="M290,177.8c0,0,6.2,4.5,13.8,4.9c7.5,0.4,13.6-3.8,13.6-3.8"/>
							<path class="st8" d="M388.8,187.8c0,0,23.3,10.8,27.5-3.3c0,0-8.8,0.9-13.6-0.9"/>
						</g>
						<g>
							<path class="st11" d="M394.9,181.9c-7.9-27.4-9.8-37.6-48.3-38.5c-14.1-0.3-21.3,11.2-26.5,20.9c-8.7,16-8.5,30.1,12.6,34.7
								C352,203.2,402.1,206.5,394.9,181.9z"/>
							<path class="st8" d="M381.5,199.5c0,0,17.5-3.6,13.5-17.8c0,0-4.2-14.9-6.5-16.8"/>
							<path class="st8" d="M321.7,162.1c0,0-15,21.4-1.8,31.4c13.2,9.9,45.2,8.6,45.2,8.6"/>
							<g>
								<path class="st5" d="M368.8,184.4L368.8,184.4c5.2,0.4,9.9-3.6,10.3-8.9l0.4-5.1c0.4-5.4-3.5-10.1-8.7-10.5l0,0
									c-5.2-0.4-9.9,3.6-10.3,8.9l-0.4,5.1C359.7,179.3,363.6,184,368.8,184.4"/>
								<path class="st6" d="M360.5,168.8c0.2-2.9,1.7-5.4,3.8-7c0.8-0.2,1.6-0.3,2.4-0.2c4.6,0.4,8,5.4,7.5,11.2
									c-0.5,5.8-4.6,10.3-9.2,9.9c-0.4,0-0.8-0.1-1.2-0.2c-2.5-1.9-4-5.1-3.7-8.5L360.5,168.8L360.5,168.8z"/>
							</g>
							<g>
								<path class="st5" d="M336.3,181.1L336.3,181.1c-5-0.6-8.5-5.2-8-10.3l0.6-4.9c0.6-5.1,5.1-8.8,10.1-8.2l0,0
									c5,0.6,8.5,5.2,8,10.3l-0.6,4.9C345.8,178,341.3,181.7,336.3,181.1"/>
								<path class="st6" d="M347,168.1c0.3-2.8-0.6-5.4-2.3-7.3c-0.7-0.4-1.4-0.6-2.2-0.7c-4.4-0.5-8.5,3.6-9.1,9.1
									c-0.6,5.5,2.4,10.4,6.8,10.9c0.4,0.1,0.8,0,1.2,0c2.7-1.4,4.7-4,5-7.3L347,168.1L347,168.1z"/>
							</g>
							<path class="st7" d="M382.1,183.6c-6-4.4-12.8,4-5.8,7.6C383.1,194.7,385.8,186.4,382.1,183.6z"/>
							<path class="st7" d="M330.2,180.2c-6-4.4-12.8,4-5.8,7.6C331.3,191.3,334,183,330.2,180.2z"/>
							<g>
								<path class="st11" d="M337.3,184.7c0,0,2.3-8.9,10.1-10.7s16.4,1.9,18.9,13"/>
								<line class="st13" x1="351.2" y1="176.1" x2="351.2" y2="177.5"/>
								<line class="st13" x1="353.6" y1="176.4" x2="353.2" y2="177.8"/>
								<path class="st8" d="M345.9,181.4c0,0,5.9,6.3,10.8,1.1"/>
								<path class="st8" d="M337.3,184.7c0,0,2.3-8.9,10.1-10.7s16.4,1.9,18.9,13"/>
							</g>
						</g>
					</g>
				</g>
				<g>
					<g>
						<path class="st5" d="M242.6,456.3c0,0,7-4.7,9.4-4c2.4,0.7,0,3.1,0,3.1s3.4-3,4.7-1.6c1.4,1.3-4.6,6.7-4.6,6.7
							s5.5-3.4,4.6,1.2c-0.9,4.6-14.9,8.6-19,3.2C233.7,459.6,242.6,456.3,242.6,456.3L242.6,456.3z"/>
						<path class="st13" d="M246.5,454.3c0,0,3.8-3,5.5-2c1.8,0.9,0,3.1,0,3.1s4-3.6,4.7-1.6c0.7,2-4.6,6.7-4.6,6.7s4.3-3.2,4.8-0.1
							c0.5,3.1-7.1,8.5-12.1,7"/>
					</g>
					<g>
						<path class="st10" d="M218,467.4c30.2,5.6,35.3-12.7,26.6-29.3c-10-19.4-24-21.4-33.2-5.1C204.2,445.9,200.8,464.3,218,467.4
							L218,467.4z"/>
						<path class="st13" d="M247.3,445.3c0,0,5.5,15.9-9.4,22"/>
						<path class="st5" d="M223.7,452.4c-8.2-0.9-9.1,12.2-9.1,12.2l0.3,2c0.9,0.3,1.9,0.6,3,0.8c6.5,1.2,11.8,1.3,16.1,0.5
							C233,463.3,230,453.1,223.7,452.4L223.7,452.4z"/>
						<path class="st13" d="M240.6,454.4c0,0-5.1,2.3-6.7,8.5"/>
					</g>
					<g>
						<g>
							<path class="st10" d="M218.3,451.6c0,0,2.2,12.9,2.4,15.3c0,0,2.8,1.4,1,2s-9.2,1.2-10.4-1c-1.2-2.1-2.7-13.1-2.4-15.5"/>
							<path class="st13" d="M218.3,451.6c0,0,2.2,12.9,2.4,15.3c0,0,2.8,1.4,1,2s-9.2,1.2-10.4-1c-1.2-2.1-2.7-13.1-2.4-15.5"/>
							<path class="st13" d="M215.4,467.5c0,0,1.1,1.3,1.1,2"/>
							<path class="st13" d="M218.2,467.2c0,0,0.7,1,0.9,1.8"/>
						</g>
						<g>
							<path class="st10" d="M228.5,449.1c0,0-3.4,16.1-3.6,17.7c0,0-1.6,0.2-0.7,1c1,0.8,9,1,10.2-0.1c1.2-1.1,4.2-13.6,4.2-13.6"
								/>
							<path class="st13" d="M228.5,449.1c0,0-3.4,16.1-3.6,17.7c0,0-1.6,0.2-0.7,1c1,0.8,9,1,10.2-0.1c1.2-1.1,4.2-13.6,4.2-13.6"
								/>
							<path class="st13" d="M229.6,466.9c0,0-0.8,0.8-1.3,1.4"/>
							<path class="st13" d="M226.3,468.2c0.1-0.6,0.6-1.6,0.6-1.6"/>
						</g>
					</g>
					<g>
						<g>
							<g>
								<path class="st10" d="M220.2,376.6c0,0,17-85.8,44-72.3s-12,66.6-17.7,70.2"/>
								<path class="st3" d="M229.9,368c0,0,14.2-59,31.2-49.8s-18.6,53.9-18.6,53.9L229.9,368z"/>
								<path class="st8" d="M233.7,356.6c0,0,12.6-45.9,27.4-38.4c14.7,7.5-13.2,47.4-13.2,47.4"/>
							</g>
							<g>
								<path class="st10" d="M197.5,381.2c0,0-16.8-85.8,13.2-83.6c30,2.2,14.1,66.2,10.2,71.7"/>
								<path class="st3" d="M203.2,369.6c0,0-9.2-60,9.9-58s3.2,57,3.2,57L203.2,369.6z"/>
								<path class="st8" d="M202.8,363.8c0,0-8.3-54.7,10.4-52.1c18.7,2.6,5.4,50.3,5.4,50.3"/>
							</g>
						</g>
						<path class="st10" d="M268.2,407.7c-2.4-35.2-10-44-57.8-42.8c-17.5,0.4-25.7,11-31.6,23.2c-9.8,20.4-8.7,37.7,17.6,42.2
							C220.6,434.4,270.3,439,268.2,407.7L268.2,407.7z"/>
						<path class="st8" d="M237.9,365.4c0,0,21.4-0.4,26.5,20.1"/>
						<path class="st8" d="M174.3,416c0,0,1.3,17.5,45.7,15.7"/>
						<g>
							<g>
								<path class="st5" d="M237.7,410L237.7,410c6.5,0.2,12-5,12.2-11.7l0.2-6.4c0.2-6.7-4.9-12.2-11.5-12.4l0,0
									c-6.5-0.2-12,5-12.2,11.7l-0.2,6.4C226,404.2,231.1,409.8,237.7,410"/>
								<path class="st6" d="M226.4,391.2c0.1-3.6,1.8-6.8,4.3-8.9c0.9-0.3,1.9-0.5,3-0.5c5.8,0.2,10.2,6.2,10,13.4
									c-0.2,7.2-5.1,13-10.8,12.8c-0.5,0-1-0.1-1.5-0.2c-3.2-2.2-5.2-6-5.1-10.3L226.4,391.2L226.4,391.2z"/>
							</g>
							<g>
								<path class="st5" d="M201.2,409.2L201.2,409.2c-6.2-0.2-11.1-5.5-10.9-11.8l0.2-6.1c0.2-6.3,5.4-11.3,11.6-11.2l0,0
									c6.2,0.2,11.1,5.5,10.9,11.8l-0.2,6.1C212.6,404.4,207.4,409.4,201.2,409.2"/>
								<path class="st6" d="M213,392c0.1-3.4-1.3-6.5-3.6-8.7c-0.9-0.4-1.8-0.6-2.8-0.6c-5.5-0.2-10.1,5.3-10.3,12.2
									s4.1,12.6,9.6,12.8c0.5,0,1,0,1.5-0.1c3.2-2,5.3-5.5,5.5-9.5L213,392L213,392z"/>
							</g>
							<path class="st7" d="M249.1,410.1c-8.8-2.7-13.4,9.9-3.7,11.2C254.9,422.6,254.6,411.8,249.1,410.1z"/>
							<path class="st7" d="M198.7,410.3c-7.6-5.1-15.6,5.7-6.7,9.7C200.6,423.9,203.4,413.5,198.7,410.3z"/>
							<g>
								<path class="st5" d="M219.5,395.9c13.1,0.2,14.4,21-1.1,20.3S206.4,395.7,219.5,395.9z"/>
								<path class="st8" d="M219,398.9c0,0-0.8,6.7,0.3,9.3"/>
								<path class="st8" d="M214.4,405.7c0,0,3.5,6.3,9.3-0.4"/>
								<path class="st7" d="M219.2,395.9c-10.7-0.1-7.7,7.4,1.3,6.3S227.9,395.9,219.2,395.9z"/>
								<path class="st14" d="M220.8,396.8c0.6,0.1,1.1,0.2,1.8,0.3"/>
								<path class="st14" d="M213.9,397.7c0,0,2.2-1,5.5-1"/>
								<path class="st8" d="M212.4,398.3c0,0,0,4,7.4,3.8s6.6-4,6.6-4"/>
							</g>
						</g>
					</g>
				</g>
				<g>
					<g>
						<path class="st12" d="M655.2,450.2c0,0-32-21.9-45-21.5s-41,18-41,18l7.8-12.1l-3.9-21.1l5.5,9.4l10.2-10.2l-9-14.5l9,6.6
							l14.1-21.1c0,0-21.9,0.8-28.5,4.7c-3.5,2-6.9,12.9-9.5,22.8c-2.8-5.5-6.4-10.1-7.7-11.1c-2.4-1.8-6.6,12-9,19.9
							c-2.4,7.8,10.8,22.3,10.8,22.3l-9,16.2c0,0-10.2-22.9-19.2-21.7c-9,1.2,1.2,22.9,1.2,22.9l-15.6-27.7l-15.6,3l16.2-14.4
							l-11.4-78.8c0,0-12.6,21.7-16.8,31.9c-4.2,10.2,3,48.1,3,48.1s-19.8-45.7-31.9-51.7s-39.7-1.8-39.7-1.8l17.5,33.1l21.1,3
							c0,0-25.3,7.8-24.7,12c0.6,4.2,25.3,34.9,25.3,34.9s-20.5-6-30.1-5.4c-9.6,0.6-27.1,12-27.1,12l18.7-34.3c0,0-12,2.4-21.1,7.8
							s-13.2,28.9-13.2,28.9s-3.6-36.1-13.8-49.9c-10.2-13.8-16.2-12-16.2-12s-1,34.1-1.2,45.4c-0.6,1.9-1.2,3.9-1.7,5.4
							c-1.7,5.5,7.7,15.8,7.7,15.8l-1.6,2.9c-8.3-6.4-21.8-16-29.9-16.8l1.6-1.5l-8.1-56c0,0-9,15.4-12,22.6s2.1,34.2,2.1,34.2
							S299,418,290.5,413.7c-8.5-4.3-28.2-1.3-28.2-1.3l12.4,23.5l15,2.1c0,0-17.9,5.5-17.5,8.5c0.4,3,17.9,24.8,17.9,24.8
							s-14.5-4.3-21.4-3.8c-6.8,0.4-19.2,8.5-19.2,8.5l13.2-24.4c0,0-8.5,1.7-15,5.5s-9.4,20.5-9.4,20.5s-2.6-25.6-9.8-35.5
							c-7.3-9.8-11.5-8.5-11.5-8.5s-0.9,28.2-0.9,33.8s8.1,19.6,8.1,19.6s-21.4-18.4-28.6-15.8s-16.2,21.4-16.2,21.4l27.8-5.5
							l15.8,8.5c0,0-15.3,2-23.9,4.3H567l43.3-2.9c-5.9-6.6-24.2-7.4-24.2-7.4s35.2-2,37.5-1.6s-3.9-4.7-13.3-9s-27.8,2.4-27.8,2.4
							l-2-22.3l12.1,16.8l11.3-4.7l-1.6-19.9l7,16.8l7.4-4.3l-3.5-19.9l16.4,19.9L655.2,450.2L655.2,450.2z M339.9,474.1l0.5-0.1
							c0.7,2,1.4,3.4,1.4,3.4L339.9,474.1L339.9,474.1z"/>
						<g>
							<path class="st15" d="M488.6,476.8c-8.9-6.9-18.7,13.8-18.7,13.8s8.1-23.5,1.6-30s-9.3,20.3-9.3,20.3s-6.9-21.1-15.4-18.3
								c-8.5,2.8,4.5,24,4.5,24l-10.6,4.5c0,0,3.7-9.8-2.4-13c-5.9-3.1-7.2,12.2-6.6,14.4c-0.8-1.5-4.4-7.5-4.4-7.5s9.8-15.8,2-21.1
								s-7.3,16.2-7.3,16.2s-4.1-11.4-6.9-14.2s3.2,11.4,3.2,11.4s-8.1-4.5-14.2-1.2s14.2,8.1,14.2,8.1l4.1,11c0,0-11.8-11-19.5-8.1
								c-2.8,1-2.4,3-0.8,5.2c-3.7-2.5-7.7-4.4-10.6-3.6c-2.7,0.8-1.9,2.8,0.1,5c-4.6-0.4-8.6,0.8-8.6,0.8s5-6.1,4.5-10.7
								c-0.5-4.5-10.5,9.8-10.5,9.8s6.1-15.2,1.4-17.5c-4.8-2.3-8,16.6-8,16.6s-2-14.5-7-16.4s-2.3,18.4-2.3,18.4s-3.2-5.9-7-6.8
								c-3.9-0.9,0.9,7.5,0.9,7.5s-2.6-1.4-5.8-2.2c3.3-5.6,5.8-12.5,1-16.2c-8.9-6.9-18.7,13.8-18.7,13.8s8.1-23.5,1.6-30
								s-9.3,20.3-9.3,20.3s-6.9-21.1-15.4-18.3c-8.5,2.8,4.5,24,4.5,24l-10.6,4.5c0,0,3.6-9.8-2.4-13c-5.9-3.1-7.2,12.2-6.6,14.4
								c-0.8-1.5-4.4-7.5-4.4-7.5s9.8-15.8,2-21.1s-7.3,16.2-7.3,16.2s-4.1-11.4-6.9-14.2s3.2,11.4,3.2,11.4s-8.1-4.5-14.2-1.2
								s14.2,8.1,14.2,8.1l4.1,11c0,0-11.8-11-19.5-8.1c-2.8,1-2.4,3-0.8,5.2c-3.7-2.5-7.7-4.4-10.6-3.6c-5.5,1.6,3.6,8.6,7.6,11.4
								h221.7C486.3,495.5,495.9,482.5,488.6,476.8L488.6,476.8z"/>
							<path class="st15" d="M391,473.8c0,0-13.3-4.9-13.7-10.6C376.9,457.4,392,468.2,391,473.8z"/>
							<path class="st15" d="M236.3,483c4.9-3.1,12.8,7.9,10.8,8.5C245.2,492,231.5,486,236.3,483z"/>
							<path class="st15" d="M294.7,453.4c5.8-0.4,8.1,15.1,4.9,15.9S289,453.8,294.7,453.4z"/>
							<path class="st15" d="M318.1,451.5c5.6-0.9,6,12.8,4.3,14.2S312.6,452.4,318.1,451.5z"/>
							<path class="st15" d="M434.5,450.2c5.2-0.2,7.6,15.1,2.3,15.3S429.3,450.4,434.5,450.2z"/>
							<path class="st15" d="M399.1,468.4c3.6-0.2,2.3,12.1-1.6,12.4C393.5,481.2,395.5,468.6,399.1,468.4z"/>
						</g>
						<g>
							<path class="st7" d="M378.7,468.3c0,0-6.9-6.9-3.8-9s6.5,1.9,6.5,1.9s-2.9-11.5-1-8.8s2.9,9.2,2.7,8.6s2.7-10.9,6.3-9.4
								c3.6,1.5,2.9,8.2,2.9,8.2s4-6.1,5.7-2.9s-2.7,9.4-2.7,9.4s10.7-2.5,9.2,1.5s-10.9,3.6-10.9,3.6s6.5,5.9,1.9,7.1
								c-4.6,1.1-6.7-5-6.7-5s-0.8,7.6-4.8,6.5c-4-1.1-1.5-7.5-1.5-7.5s-13.8,3.1-10.9-1.7S378.7,468.3,378.7,468.3L378.7,468.3z"/>
							<path class="st7" d="M315.4,484.3c0,0-8.7-6.8-5.2-7.4c3.5-0.6,7.4,3.9,7.4,3.9s-3.5-8.7-1.5-7c1.9,1.8,4.1,7.6,4.1,7.6
								s0-9.9,3.3-8s2.1,8.4,2.1,8.4s8.2-2.7,6.4-0.4s-5.6,3.5-5.6,3.5s8,0.6,5.2,3.3s-7.8,1.2-7.8,1.2s0.2,7.8-1.9,6.2
								s-2.7-6.2-2.7-6.2s-8.2,4.3-8.4,0.4C310.5,485.9,315.4,484.3,315.4,484.3L315.4,484.3z"/>
							<path class="st7" d="M439.2,444.9c0,0-8.7-6.8-5.2-7.4s7.4,3.9,7.4,3.9s-3.5-8.7-1.5-7c1.9,1.8,4.1,7.6,4.1,7.6s0-9.9,3.3-8
								s2.1,8.4,2.1,8.4s8.2-2.7,6.4-0.4s-5.6,3.5-5.6,3.5s8,0.6,5.2,3.3s-7.8,1.2-7.8,1.2s0.2,7.8-1.9,6.2
								c-2.1-1.5-2.7-6.2-2.7-6.2s-8.2,4.3-8.4,0.4C434.3,446.4,439.2,444.9,439.2,444.9L439.2,444.9z"/>
							<path class="st7" d="M202.8,489.6c0,0-9.3,0.4-7.4-1.9c1.9-2.3,6.8-1.5,6.8-1.5s-7-3.7-4.8-3.6s6.7,2.6,6.7,2.6
								s-5.4-6.3-2.2-6.9c3.2-0.6,5.9,4.2,5.9,4.2s3.7-6.2,3.9-3.7s-1.7,5.3-1.7,5.3s5.4-4,5.1-0.8c-0.3,3.2-4.3,5-4.3,5
								s4.4,4.9,2.1,5s-5.1-2.5-5.1-2.5s-2.9,7.2-5.1,4.8S202.8,489.6,202.8,489.6L202.8,489.6z"/>
							<path class="st7" d="M341.4,454.7c0,0-13.4-6.4-8.1-8.9s10.9,3.3,10.9,3.3s-0.6-9.5,2-6.7c2.5,2.8,2,5.6,2,5.6
								s5.3-6.7,5.8-3.6s-3.3,7.8-3.3,7.8s13.6-5.6,11.4-2.2c-2.2,3.3-10.3,5-10.3,5s7,2.2,4.2,4.7s-7.2-1.1-7.2-1.1
								s-5.8,8.9-7.5,6.1c-1.7-2.8,1.7-7.2,1.7-7.2s-10.6,2-7.8-0.8S341.4,454.7,341.4,454.7L341.4,454.7z"/>
							<path class="st7" d="M261.8,462.9c0,0-9-4.3-5.4-6s7.3,2.2,7.3,2.2s-0.4-6.4,1.3-4.5s1.3,3.8,1.3,3.8s3.6-4.5,3.9-2.4
								c0.4,2.1-2.2,5.3-2.2,5.3s9.2-3.8,7.7-1.5s-7,3.4-7,3.4s4.7,1.5,2.8,3.2c-1.9,1.7-4.9-0.8-4.9-0.8s-3.9,6-5.1,4.1
								s1.1-4.9,1.1-4.9s-7.1,1.3-5.3-0.6C259.4,462.3,261.8,462.9,261.8,462.9L261.8,462.9z"/>
							<path class="st7" d="M301.7,446.3c-1-0.5-14.5-3.3-11.6-5.1c2.9-1.8,6.4-0.5,6.4-0.5s-7.3-7.1-2.5-6.5c4.9,0.6,9.7,4.4,8.9,4
								s0.1-12,1.7-8.8c1.6,3.1,0.9,7,0.9,7s2.2-7.3,5.3-3.4s-2.1,11.5-2.1,11.5s7.2-7,6.6-2.7s-4.4,8.4-9.4,8.1s-16.7-2.9-13.3-3.7
								C296,445.3,301.7,446.3,301.7,446.3L301.7,446.3z"/>
							<path class="st7" d="M204.9,464.5c0,0-4,7.1-5.4,5.2c-1.5-2,1.8-5.1,1.8-5.1s-8.6,4.8-7.8,2.7s6.1-4,6.1-4s-7.5-1.9-5.8-3
								c1.7-1,6.8,0.8,6.8,0.8s-4.5-5.6-1.3-6.3c3.2-0.7,4,4.8,4,4.8s2.1-6,3.9-3S204.9,464.5,204.9,464.5L204.9,464.5z"/>
							<path class="st7" d="M225.1,472.5c0,0-5.5,3.4-5.4,1.6s2.7-3.1,2.7-3.1s-5.2,0.9-3.6-1s4-1.1,4-1.1s-2.2-5.2-0.4-4.5
								s2.8,3.7,2.8,3.7s-0.2-6.3,2.8-3.4C231,467.7,227.2,472.2,225.1,472.5L225.1,472.5z"/>
						</g>
					</g>
					<g>
						<g>
							<g>
								<path class="st16" d="M481.9,468.5c44.4,8.2,51.8-18.6,39.1-43.1c-14.7-28.5-35.3-31.4-48.7-7.5
									C461.6,436.8,456.6,463.8,481.9,468.5L481.9,468.5z"/>
								<path class="st5" d="M479,455.7c0,0-1.1,5.8-1.4,11.6c1.3,0.4,2.7,0.8,4.2,1.1c2.6,0.5,5,0.8,7.4,1.1
									c1.3-13.4,4.1-31.9,9.4-38.8c7.5-9.6,10-19.1,10.6-21.8c-0.2-0.2-0.5-0.4-0.7-0.6l-32.6,3.9c-1.3,1.7-2.5,3.6-3.7,5.7
									c-0.6,1.1-1.2,2.1-1.7,3.2C474,429.2,478.7,442.5,479,455.7L479,455.7z"/>
								<path class="st8" d="M515,449.3c0,0-7.5,3.4-9.8,12.5"/>
								<path class="st8" d="M524.9,435.9c0,0,5.7,18.5-4.8,24.7"/>
							</g>
							<g>
								<g>
									<path class="st16" d="M477.3,443.6c0,0,3.2,18.9,3.5,22.5c0,0,4.1,2,1.4,2.9s-13.5,1.7-15.2-1.4c-1.8-3.1-4-19.2-3.5-22.7"
										/>
									<path class="st3" d="M482.3,469c2.7-0.9-1.4-2.9-1.4-2.9c-0.1-1.1-0.5-3.5-0.9-6.4c-3.6-1.3-4.3,2.5-4.3,2.5
										s-0.8-2-2.3-2.4c-1.5-0.4-1.2,2.4-1.2,2.4s-0.7-0.9-2.2-1.1s-1.6,2.4-1.6,2.4l-3.1-2l0,0c0.5,2.8,1.2,5,1.7,6
										C468.9,470.7,479.6,469.9,482.3,469L482.3,469z"/>
									<path class="st8" d="M477.3,443.6c0,0,3.2,18.9,3.5,22.5c0,0,4.1,2,1.4,2.9s-13.5,1.7-15.2-1.4c-1.8-3.1-4-19.2-3.5-22.7"
										/>
									<path class="st8" d="M473.1,467c0,0,1.6,1.9,1.6,2.9"/>
									<path class="st8" d="M477.2,466.6c0,0,1.1,1.5,1.3,2.7"/>
								</g>
								<g>
									<path class="st16" d="M493.8,442.3c0,0-5,23.7-5.3,26c0,0-2.4,0.2-1,1.4c1.4,1.2,13.3,1.4,15-0.2s6.1-20,6.1-20"/>
									<path class="st3" d="M504.8,461.4c-3-2.1-5.3,2.1-5.3,2.1s1.1-3.1,0-4.2c-1.1-1.1-3,3.1-3,3.1s0.5-3.4-0.8-4.2
										c-1.3-0.8-3,2.8-3,2.8l-2.2-3.6l-0.5,0.2c-1,4.9-1.9,9.3-2,10.2c0,0-2.4,0.2-1,1.4c1.4,1.2,13.3,1.4,15-0.2
										c0.7-0.6,1.8-3.9,2.9-7.6C504.9,461.5,504.9,461.4,504.8,461.4L504.8,461.4z"/>
									<path class="st8" d="M493.8,442.3c0,0-5,23.7-5.3,26c0,0-2.4,0.2-1,1.4c1.4,1.2,13.3,1.4,15-0.2s6.1-20,6.1-20"/>
									<path class="st8" d="M495.5,468.5c0,0-1.2,1.1-2,2"/>
									<path class="st8" d="M490.6,470.4c0.2-0.9,0.8-2.3,0.8-2.3"/>
								</g>
							</g>
							<g>
								<path class="st16" d="M525.5,455.2c0,0,21.7,9.5,16.9,22.6c-4.8,13-57.5,31.8-89.4,5.1c0,0,10-1.3,15.4-6.7
									s33.5-21.3,51.7-13.5L525.5,455.2z"/>
								<path class="st5" d="M506.4,495.4c-0.1-4.2-18.1-4.5-18.1-4.5s3.3-1.6,7.2-3.3s-9.4-1.6-9.4-1.6s3.6-2.3,5.2-4.9
									s-12-1.6-12-1.6s3.3-2.3,5.5-4.2c2.3-2-6.8-0.6-6.8-0.6l5.5-7.7c-7.2,3.3-12.8,7.1-14.9,9.2c-5.4,5.4-15.4,6.7-15.4,6.7
									C468.5,495.8,488.9,498.1,506.4,495.4L506.4,495.4z"/>
								<path class="st8" d="M453,482.9c0,0,7.7-1.4,13-5s37.9-28.8,61.8-11.9"/>
							</g>
							<g>
								<g>
									<path class="st16" d="M533.8,268.9c14.2-7.9,10.3,18.6,10.9,26s4,44.5,1.5,53.6c-2.5,9.1-45.3-14.9-47.8-21.1
										C495.8,321.1,520.3,276.5,533.8,268.9L533.8,268.9z"/>
									<path class="st17" d="M508.2,323.9c0,0,19-37.3,23.3-34.5c4.4,2.8,3.1,14.3,3.1,14.3s5,23.6,1.6,31.7
										S509.1,328.3,508.2,323.9L508.2,323.9z"/>
									<path class="st4" d="M513,314.6c0,0,12.8-28.9,18.6-25.2c5.7,3.7,3.1,14.3,3.1,14.3s2.9,12,2.6,16.4"/>
								</g>
								<g>
									<path class="st16" d="M446.3,270.5c-15.3-9.5-13,16.8-14.3,24.2c-1.4,7.4-1.5,44.5,1.8,56.4c2.6,9.3,37.4-18.7,40.9-24.8
										C478.2,320.3,461,279.5,446.3,270.5L446.3,270.5z"/>
									<path class="st17" d="M466.5,320.5c0,0-19-37.3-23.3-34.5c-4.4,2.8-3.1,14.3-3.1,14.3s-5,23.6-1.6,31.7
										S465.5,324.9,466.5,320.5L466.5,320.5z"/>
									<path class="st4" d="M463,313.5c0,0-13.8-26.9-19.9-27.5c-4.1-0.4-3.1,14.3-3.1,14.3s-3.8,16.7-3.2,23.1"/>
								</g>
								<path class="st16" d="M561.9,377.5c-16.8-49-21-61.3-91.1-59.6c-25.7,0.6-37.8,16.1-46.4,34.1
									c-14.4,29.9-12.8,55.4,25.9,61.9C485.7,419.9,577,421.7,561.9,377.5z"/>
								<g>
									<path class="st5" d="M434.3,397.4c0.2-26.1,31.3-8.2,36-20.5c3.1-8.1,9-13.7,14.1-13.3c5.4,0.4,7.7,9.5,13.3,14.1
										c9.8,8.2,41.1-3.7,39.3,20.8C534.9,428.2,434.1,421.8,434.3,397.4L434.3,397.4z"/>
									<path class="st7" d="M524.3,385.7c-11.2-7.5-23,8.3-9.8,14.3C527.1,405.8,531.3,390.4,524.3,385.7z"/>
									<path class="st7" d="M455.1,385.6c-11.2-7.5-23,8.3-9.8,14.3C458,405.6,462.1,390.3,455.1,385.6z"/>
									<path class="st4" d="M482.3,373.3c0,0-1.2,9.9,0.4,13.6"/>
									<path class="st8" d="M476.5,382.9c0,0,5.1,9.2,13.6-0.6"/>
									<path class="st2" d="M482.6,370.5c-15.8-0.1-11.3,10.8,1.9,9.2S495.4,370.6,482.6,370.5z"/>
									<path class="st8" d="M477.2,377.7c0,0-2-2.7-0.7-2.6c1.3,0.1,4.8,4.2,4.8,4.2s8.1-5.9,7.9-4.5c-0.2,1.4-2.8,2.9-2.8,2.9"/>
								</g>
								<path class="st4" d="M438.8,409.9c0,0,31.7,10.2,46.3,6.4"/>
								<path class="st4" d="M500.2,416.5c0,0,30.2,2,47.5-10.4"/>
								<path class="st4" d="M518.1,320.7c0,0,28.3,1.2,34.9,32.5"/>
								<path class="st4" d="M424.4,352c0,0,9.1-26.4,34.2-33.4"/>
								<g>
									<path class="st5" d="M510.8,382.1L510.8,382.1c9.6,0.3,17.6-7.4,17.9-17.2l0.3-9.4c0.3-9.8-7.2-17.9-16.8-18.2l0,0
										c-9.6-0.3-17.6,7.4-17.9,17.2l-0.3,9.4C493.6,373.6,501.2,381.8,510.8,382.1"/>
									<path class="st6" d="M494.2,354.5c0.2-5.3,2.6-10,6.3-13.1c1.4-0.5,2.8-0.7,4.3-0.7c8.5,0.3,15.1,9.1,14.7,19.7
										c-0.3,10.6-7.4,19.1-15.9,18.8c-0.8,0-1.5-0.1-2.2-0.3c-4.7-3.3-7.7-8.9-7.5-15.1L494.2,354.5L494.2,354.5z"/>
								</g>
								<g>
									<path class="st5" d="M454.9,380.9L454.9,380.9c-9.1-0.6-16-8.6-15.4-17.9l0.6-8.9c0.6-9.3,8.5-16.3,17.7-15.7l0,0
										c9.1,0.6,16,8.6,15.4,17.9l-0.6,8.9C471.9,374.4,464,381.5,454.9,380.9"/>
									<path class="st6" d="M473.1,356.2c0.3-5-1.5-9.7-4.8-13c-1.3-0.6-2.6-0.9-4-1c-8-0.5-15.1,7.2-15.8,17.3
										c-0.7,10.1,5.3,18.8,13.3,19.3c0.7,0,1.5,0,2.2-0.1c4.8-2.7,8.1-7.7,8.5-13.6L473.1,356.2L473.1,356.2z"/>
								</g>
							</g>
						</g>
						<g>
							<g>
								<path class="st11" d="M618.2,479.9c0,0-12-10.8-22.8-14.2c-10.8-3.4-18.8,0.3-18.8,0.3l-1.8-12l6.2,7.7l14.8-9.9l-10.2-12
									l13.5,6.1l13.8-32.3c0,0-16.6,0-23.4,3.1s-16,19.4-16,19.4l1.2-37.9c0,0-7.1,4.9-10.5,11.7c-2.1,4.2-2.4,12.7-2.3,18.9
									c-6.8-3.6-14.8-7.4-18.8-7.8c-7.6-0.8-19.7,3.4-19.7,3.4l23.4,17.8l7.9-4.5l-3.4,11c-1.9,4.9,3.4,14,3.4,14
									s-7.9-4.5-11.7-3.8c-3.8,0.8,2.3,14.8,2.3,14.8s-6.8-11-11-13.6c-4.2-2.6,0.4,15.1,0.4,15.1s-9.1-19.3-11.7-21.5
									c-2.7-2.3-12.9-11-17.4-12.9c-4.5-1.9,7.6,22.7,7.6,22.7s-15.9-23.1-24.2-25.7c-8.3-2.6-20,3.4-20,3.4l10.2,12.1l6.4-6
									c0,0-0.4,4.5,0.8,8.3c1.1,3.8,21.2,12.5,21.2,12.5l10.2,12.1c0,0-3.4-0.4-7.2,1.1c-3.8,1.5,1.1,14.8,1.1,14.8
									s-7.9-15.1-12.5-19.7s-12.5-1.5-12.5-1.5l8.7,11.7c0,0-18.9-17.4-26.5-18.5c-7.6-1.1-13.6,8.3-13.6,8.3l11,4.2l5.7-6.4
									c0,0-1.9,4.9-1.1,7.9s11.7,14,11.7,14s-29.9-20-35.9-18.5S431,490.8,431,490.8l10.2,3.4c0,0,4.5-9.5,6.8-10.6
									c2.3-1.1-3.4,9.8-3.4,9.8l16.3,0.8l10.7,5.8H567l7.5-1.9l11.4-8.6l-1.5-11.1l7.7,10.1L618.2,479.9L618.2,479.9z"/>
								<path class="st11" d="M452.9,500h12.9C461.3,499.5,456,499.3,452.9,500z"/>
							</g>
							<g>
								<path class="st9" d="M597.5,491.9c-4.3-4-17.7,2.2-17.7,2.2s5.4-4.7,2.7-7.1c-2.7-2.4-7.8,3.5-7.8,3.5s7.4-11.7,4.7-15.6
									c-2.7-3.9-8.9,11.6-8.9,11.6s2.4-13.8-2.1-15.2c-2.5-0.8-3.6,5.1-4.1,10.6c-0.8-1.6-1.8-2.7-3-2.8c-3.6-0.2-3,9.5-0.9,11.7
									c-1.4-1.4-6.6-8.4-12.5-8.2c-3.5,0.1-4.8,1.7-5.2,3.3c-0.3-2.2-0.8-4.9-2-6.6c-2.2-3.2-1.8,7.7-1.8,7.7l-6.2-8.5
									c0,0-0.5-8.2-3.2-10.5s0.2,7,0.2,7l-6.2-9.5c0,0,0-8.2-3.3-8.8s0.5,6.3,0.5,6.3s-2.5-3-5.5-2.5c-3,0.5,5,5,5,5l3.7,5
									c0,0-5-1.8-8.5-0.2c-3.5,1.5,11,5.2,11,5.2l3.7,10.2c0,0-2.2-3.5-4.2-2.5s1,8.2,1,8.2s-4-2.8-6.7-2.2s4.7,7.5,4.7,7.5
									s-3.5-1.8-7.5-2c-4-0.2-8.7,3.2-8.7,3.2l0,0c0,0-4.5-9-7.2-10.2c-2.8-1.2,1,8.7,1,8.7s-10-7.7-13-7.7s9,8.7,9,8.7
									s-8-3-10.7-2.2c-0.7,0.2-1.5,1-2.1,2c-2.4-0.8-5.5-1.8-7-1.8c-2.5,0,4,4.8,4,4.8s-6.8-3.3-9.2-2.5c-2.4,0.8-3.2,5.7-3.2,5.7
									h132.3C602.6,503.4,601.8,495.9,597.5,491.9L597.5,491.9z"/>
								<path class="st9" d="M557.5,467.9c2.1,0.4,2.9,8.4,1.7,8.3C557.9,476.1,555.4,467.5,557.5,467.9z"/>
								<path class="st9" d="M548,469.8c2.9-2.7,8.8,6.6,7.8,8.1S545.1,472.5,548,469.8z"/>
								<path class="st9" d="M517.1,476.8c3-1.6,11.5,3.9,10.3,4.9S514.1,478.4,517.1,476.8z"/>
								<path class="st9" d="M536.9,471.6c2.2,0.8,1.3,10.4,0,10.3C535.6,481.9,534.7,470.8,536.9,471.6z"/>
								<path class="st9" d="M526.2,459.1c1.9,1.2,1.6,6.9,0.3,7.6S524.3,457.8,526.2,459.1z"/>
								<path class="st9" d="M496.2,482.7c2.5-0.1,4.7,10.5,3.7,10.7C498.9,493.6,493.7,482.8,496.2,482.7z"/>
								<path class="st9" d="M510.9,489.2c2.5-2.3,9.6,3.5,8.8,4.8S508.3,491.5,510.9,489.2z"/>
								<path class="st9" d="M561.7,475.2c0,0-0.2-7.6,1.2-6.5S562,476.1,561.7,475.2z"/>
							</g>
						</g>
					</g>
				</g>
			</g>
		</g>
		<g>
			<g>
				<path class="st2" d="M467.5,140.3c0,0,11.9,21.8,10.5,24.6c-1.4,2.9-7,1.9-7,1.9s-3,4.4-6.7,1.4s-6.3-24.6-6.3-24.6L467.5,140.3
					L467.5,140.3z"/>
				<path class="st13" d="M460.4,155.8c0,0,2,12.6,5.7,13.6s4.9-2.5,4.9-2.5s6.1,0.3,7-1.9s-4.1-11-4.1-11"/>
				<path class="st13" d="M468.9,161c0.3,1,0.7,1.9,1.2,2.8"/>
				<path class="st13" d="M467.7,156.4c0,0,0.2,0.8,0.4,1.9"/>
			</g>
			<g>
				<g>
					<path class="st17" d="M441.7,128.8l-13.3-6c0,0-9.4-9.9-11.2-7.6c-1.8,2.3,3.3,9.9,3.3,9.9s-4.9-0.8-3.5,2.1s4.5,4,4.5,4
						s-4.6,0.6-2.3,3.4c2.2,2.9,5.7,3.3,5.7,3.3s-2.6,1.1,1.1,4.3s10.8,5.8,16,0.9"/>
					<path class="st13" d="M435.2,126.1c0,0-6.4-4.4-7.3-2.3c-0.9,2.1,3,5.2,3,5.2s-3-1.4-2.6,0.7c0.4,2.1,3.5,3.2,3.5,3.2
						s-2.9-0.8-1.3,2.5c1.6,3.3,6.7,5.8,8.8,5.9"/>
					<path class="st2" d="M422.8,121.6c-1,2.5,2.7,6.7,2.7,6.7s-3-1.4-3.4,0.4c-0.3,1.7,4.6,5,4.6,5s-3.3,0-2.7,1.6
						c0.7,1.6,7.7,4.5,7.7,4.5s-3.3-0.8-3.3,1.7c0,1,0.4,2.2,0.9,3.1c-1.3-0.6-2.5-1.4-3.4-2.2c-3.7-3.2-1.1-4.3-1.1-4.3
						s-3.5-0.4-5.7-3.3s2.3-3.4,2.3-3.4s-3.1-1.2-4.5-4s3.5-2.1,3.5-2.1s-5.1-7.6-3.3-9.9c1.8-2.3,11.2,7.6,11.2,7.6
						S423.8,119.1,422.8,121.6L422.8,121.6z"/>
				</g>
				<g>
					<path class="st17" d="M473.4,131.5l12.6-7.3c0,0,8.3-10.8,10.4-8.7s-2.2,10.2-2.2,10.2s4.8-1.3,3.7,1.7c-1.1,3-4,4.5-4,4.5
						s4.6,0.1,2.7,3.2c-1.9,3.1-5.4,3.9-5.4,3.9s2.7,0.8-0.6,4.4s-10.2,6.9-15.8,2.6"/>
					<path class="st13" d="M479.7,128c0,0,5.9-5.1,7-3c1.1,2-2.4,5.5-2.4,5.5s2.8-1.7,2.7,0.4s-3.1,3.5-3.1,3.5s2.8-1.1,1.6,2.3
						c-1.2,3.4-6.1,6.4-8.1,6.8"/>
					<path class="st2" d="M491.5,122.3c1.2,2.4-2,6.9-2,6.9s2.9-1.7,3.4,0s-4,5.5-4,5.5s3.3-0.4,2.8,1.3c-0.5,1.7-7.2,5.2-7.2,5.2
						s3.2-1.1,3.4,1.4c0.1,1-0.2,2.2-0.6,3.2c1.2-0.8,2.3-1.6,3.1-2.6c3.3-3.6,0.6-4.4,0.6-4.4s3.4-0.8,5.4-3.9
						c1.9-3.1-2.7-3.2-2.7-3.2s3-1.5,4-4.5c1.1-3-3.7-1.7-3.7-1.7s4.3-8.1,2.2-10.2c-2-2.1-10.4,8.7-10.4,8.7
						S490.3,119.9,491.5,122.3L491.5,122.3z"/>
				</g>
			</g>
			<g>
				<g>
					<path class="st17" d="M446,98.5c2.9-4.5,9.3-13.1,18.4-16.1l-0.4,6.1c0,0,4.5-4.4,3.7-2.1s-2.5,4.8-1.9,4.6
						c0.6-0.2,4-3.3,3.6-1.1c-0.3,2.2-0.7,4.3-0.7,4.3s3.3-1.9,3-0.2s-1.4,2.7-1.4,2.7s8,2.9,10.7,9.2c0,0,2.8,6.4,2.3,13.3
						c-0.4,5.6-2,9.8-5.2,12.7c0.6,3.8,0.3,7.8-1.3,11.9c-5.8,15.2-36,10-38.5-4.4c-0.3-1.9-0.5-3.6-0.5-5.1
						C429.4,125.7,429.2,103.8,446,98.5L446,98.5z"/>
					<path class="st13" d="M437.5,132.3c0,0-3.2,15.2,16.7,20"/>
					<path class="st13" d="M466.1,95.8c0,0,14.1,1.8,16.2,14.8"/>
					<path class="st13" d="M433.6,109.6c0,0-5,16.5,2.9,23.1"/>
					<path class="st13" d="M482.9,123.1c0,0-1.3,10.5-11.4,10"/>
				</g>
				<g>
					<path class="st2" d="M445.6,107.5c0,0,4.1-2.4,9.5,2.1c1.3-2.2,4.7-3.9,8.8-2.9c0,0,9-0.1,9.8,9.4c0.6,7.4-7.2,11-12.9,10.7
						c-0.5,4.4-10.1,4.8-11,1.3c-1.3-0.2-4.9-0.3-8.2-2.2C434,121.4,437,108.5,445.6,107.5L445.6,107.5z"/>
					<path class="st7" d="M476,124c-4.3-2.5-8.2,3.6-3.3,5.5C477.6,131.3,478.7,125.6,476,124z"/>
					<path class="st7" d="M442.7,126.3c-4.3-2.5-8.2,3.6-3.3,5.5C444.2,133.6,445.4,127.8,442.7,126.3z"/>
					<g>
						<path class="st5" d="M464.5,125.2L464.5,125.2c3.7,0,6.7-2.8,6.7-6.1l0-3.2c0-3.3-3.1-6-6.8-5.9l0,0c-3.7,0-6.7,2.8-6.7,6.1
							l0,3.2C457.7,122.5,460.8,125.2,464.5,125.2"/>
						<path class="st6" d="M457.7,116c0-1.8,0.8-3.4,2.2-4.5c0.5-0.2,1.1-0.3,1.7-0.3c3.3,0,6,2.9,6,6.5c0,3.6-2.6,6.6-5.9,6.6
							c-0.3,0-0.6,0-0.9-0.1c-1.9-1.1-3.1-2.9-3.2-5L457.7,116L457.7,116z"/>
					</g>
					<g>
						<path class="st5" d="M445.5,125.6L445.5,125.6c-3.7-0.1-6.7-2.9-6.6-6.3l0.1-3.3c0.1-3.4,3.2-6.2,6.9-6.1l0,0
							c3.7,0.1,6.7,2.9,6.6,6.3l-0.1,3.3C452.4,122.9,449.3,125.6,445.5,125.6"/>
						<path class="st6" d="M452.5,116.2c0-1.8-0.8-3.5-2.2-4.7c-0.5-0.2-1.1-0.3-1.7-0.3c-3.3-0.1-6,2.9-6.1,6.6
							c-0.1,3.7,2.5,6.8,5.8,6.9c0.3,0,0.6,0,0.9-0.1c1.9-1.1,3.2-3,3.2-5.2L452.5,116.2L452.5,116.2z"/>
					</g>
					<g>
						<path class="st16" d="M458.4,122.6c-0.1-1.6-2.8-4.8-3.9-4.1s-3,2.9-3,4.3c0,0.9,1.9,4.5,3.3,4.6
							C456.6,127.4,458.5,124.1,458.4,122.6z"/>
						<path class="st10" d="M457.7,122.8l-2.1-1.7c0,0-0.8,2.1-1,1.6c-0.2-0.4-0.6-1.7-0.6-1.7s-2.1,0.9-1.8,1.7
							c0.4,1.1,1.5,3.4,2.6,3.1C455.9,125.4,458,123.4,457.7,122.8L457.7,122.8z"/>
						<path class="st18" d="M452.4,122c0,0,1.1-0.8,1.5-1"/>
						<path class="st17" d="M455.6,123.2c-0.6-0.1-1.1,1-1.1,1s-1.1-1.9-1.8-1c-0.4,0.5,0.9,2.6,1.8,2.5c1.3-0.2,2.1-0.9,2.1-1.4
							S456.2,123.3,455.6,123.2z"/>
						<path class="st18" d="M458,123.1l-2.4-2c0,0-0.7,1.7-1,1.6c-0.3-0.1-1-2-0.6-3.6"/>
						<path class="st18" d="M457.2,124c0,0-1.9,2-2.8,1.8c-1.4-0.3-2.3-3.1-2.3-3.1"/>
					</g>
				</g>
				<g>
					<path class="st2" d="M447.3,133.1c1.3,0.7,2,2.9,0.2,3.5S446.1,132.5,447.3,133.1z"/>
					<path class="st2" d="M451.4,133.6c2,0.1,3.7,5.2,1.3,5.5S449.4,133.4,451.4,133.6z"/>
					<path class="st2" d="M457.4,133.6c1.5,0.9,1.1,4.1,0,4.5C456.3,138.4,455.9,132.7,457.4,133.6z"/>
					<path class="st2" d="M462,133.5c1.6,1,0.4,4.7-0.9,4.3C459.9,137.3,460.5,132.5,462,133.5z"/>
					<path class="st2" d="M466.1,132.2c1.3,0.2,1.7,3.3,0.2,3.8S464.8,132,466.1,132.2z"/>
					<path class="st2" d="M455.6,138.8c1.1,0,2.1,2.9,0.6,3C454.8,141.8,454.6,138.8,455.6,138.8z"/>
					<path class="st2" d="M459.2,138.4c0.7,0.6,1.2,2.7,0,3.1S458.5,137.7,459.2,138.4z"/>
					<path class="st2" d="M463.3,138.1c1,0.5,1.1,2.3-0.2,2.8S462.3,137.6,463.3,138.1z"/>
				</g>
			</g>
			<g>
				<path class="st6" d="M466,148.2c0,0,4.5-5.2,3.4-4.9c-1,0.2-3.9,3.1-3.9,3.1s0.4-6-0.7-5.3c-1.1,0.8-1.3,4.5-1.3,4.5
					s-3.3-3.2-3.4-2.1s3.8,4.9,3.8,4.9s0,3.1,0.9,2.8C465.9,151.1,466,148.2,466,148.2L466,148.2z"/>
				<path class="st6" d="M456.4,142.4c-1,0.4-2.2,3.5-2.2,3.5s-2.1-4.2-2.6-3.4c-0.5,0.9,1,4,1,4s-3.8-2.5-3.7-1.2
					c0.2,1.3,4.4,2.9,4.4,2.9s0.5,2.9,1.4,2.9c1.4-0.1,0.3-3.4,0.3-3.4S457.4,141.9,456.4,142.4L456.4,142.4z"/>
			</g>
		</g>
		<g>
			<g>
				<g>
					<path class="st12" d="M149.8,91.2c0,0-12-17.4-16-17.6s-6.2,13.8,8.2,20.3c0,0-16.8-7.7-17.9-3.9c-1.1,3.8,9.6,10.3,16.2,10.4
						c0,0-17.3-0.3-15.6,3.9c1.6,4.2,16.1,2.8,16.1,2.8s-11.6,3.7-9,7.3c2.6,3.6,17.3-0.2,17.3-0.2s-11.4,4.9-7,8.2
						c4.4,3.2,14.9-3.2,14.9-3.2s-7.2,7.4-2.2,8.7s14.2-12,14.8-13.4C170.1,113.1,149.8,91.2,149.8,91.2L149.8,91.2z"/>
					<path class="st9" d="M153.7,94.1c0,0-11.2-13.7-14.5-13.6c-3.3,0.1-4.2,11.9,8.2,16.3c0,0-14.5-5.3-15.1-2
						c-0.7,3.3,8.7,7.9,14.2,7.6c0,0-14.4,0.9-12.8,4.3s13.6,1.3,13.6,1.3s-9.4,3.8-7,6.7c2.4,2.8,14.4-1.3,14.4-1.3
						s-9.1,4.9-5.3,7.3c3.8,2.4,12.2-3.7,12.2-3.7s-5.5,6.7-1.3,7.4s11-10.9,11.4-12.1S153.7,94.1,153.7,94.1L153.7,94.1z"/>
					<path class="st13" d="M153.2,113.7c0,0-14.1,3.6-11.5,7.9s16.3-2.7,16.3-2.7s-9,6.7-3.2,9c4,1.6,13.8-10.7,13.8-10.7"/>
					<path class="st11" d="M173.3,113.2c-7.9,9.5-28.7-8.9-21.6-21.3l4,2.2C155.7,94.1,181.2,103.7,173.3,113.2L173.3,113.2z"/>
				</g>
				<g>
					<path class="st12" d="M207.2,117.7c0,0,27.2,35.7,39.7,38.8c0,0,0.7,3.3-7.7,3.1c-8.3-0.2-19.1-14.9-19.1-14.9
						s13.4,14.9,6.8,15.4s-12.7-18-12.7-18s5.9,13.4-0.7,12.7c-6.6-0.7-13.2-20.8-14-29.4L207.2,117.7L207.2,117.7z"/>
					<path class="st11" d="M238.8,154c0,0-27-28.1-27.3-29.3S218.1,152.6,238.8,154z"/>
					<path class="st13" d="M215.3,137.1c0,0,19.7,33.2,32.2,19.5c0,0-12.9-4.5-25.4-20.6"/>
				</g>
			</g>
			<g>
				<path class="st2" d="M188.8,124.1c0,0-1.8,10.3-1,12.8c0.9,2.4,3.4,4.5,3.3,3.8c-0.1-0.7-1.3-5.8-1.3-5.8s3.6,6.4,4.5,6.1
					s-2.5-7.3-2.5-7.3s3.4,5.2,3.9,4.3c0.5-0.9-2.3-7.2-2.3-7.2l0.3-4.9L188.8,124.1L188.8,124.1z"/>
				<path class="st2" d="M199.1,122.8c0,0-1.8,10.3-1,12.8c0.9,2.4,3.4,4.5,3.3,3.8c-0.1-0.7-1.3-5.8-1.3-5.8s3.6,6.4,4.5,6.1
					s-2.5-7.3-2.5-7.3s3.4,5.2,3.9,4.3c0.5-0.9-2.3-7.2-2.3-7.2l0.3-4.9L199.1,122.8L199.1,122.8z"/>
			</g>
			<g>
				<path class="st9" d="M176.9,92.9c0,0,15.9-5.9,23.4-2.4c9.3,4.3,15.3,16.1,11.6,28.4c-5.1,17-38.4,13.6-42.3-1.9
					C164.8,98.2,176.9,92.9,176.9,92.9L176.9,92.9z"/>
				<path class="st11" d="M206.9,126c-2.7-5.2-12.2-9.3-15.3-8.5c-3.9,1-1.2,3.9-1.2,3.9s-6.4-4.3-10.1-1.8c0,0-1.9-3.5-3.9-3.5
					s-0.2,4.1-0.2,4.1s-1.6-1.7-4.3-0.8c-0.4,0.1-0.7,0.6-0.8,1.2C177.2,130.6,197.1,133.6,206.9,126L206.9,126z"/>
				<path class="st6" d="M210.8,101.4c-0.6-1.3-1.3-2.6-2.1-3.7c-11.9,7.2-32,7.4-39.9,7.1c-0.4,2.3-1.1,5-0.7,8.2
					C183.7,117.6,200.9,108.5,210.8,101.4z"/>
				<g>
					<path class="st11" d="M215.9,83.5c0.5-22.8-12.9-31.7-39.3-27.5c-29.8,4.7-25.7,44.7-9,48.8
						C182.1,108.2,215.3,108.9,215.9,83.5z"/>
					<g>
						<path class="st5" d="M193.8,88.9L193.8,88.9c4.8-0.1,8.6-3.8,8.5-8.3l-0.1-4.3c-0.1-4.5-4.1-8-8.9-7.9l0,0
							c-4.8,0.1-8.6,3.8-8.5,8.3l0.1,4.3C185,85.5,189,89,193.8,88.9"/>
						<path class="st6" d="M184.9,76.7c0-2.4,1-4.6,2.8-6.1c0.7-0.2,1.4-0.4,2.1-0.4c4.2-0.1,7.8,3.8,7.9,8.7s-3.2,8.9-7.5,9
							c-0.4,0-0.8,0-1.1-0.1c-2.4-1.4-4.1-3.9-4.1-6.7L184.9,76.7L184.9,76.7z"/>
					</g>
					<g>
						<path class="st5" d="M167.9,88.3L167.9,88.3c-4.8,0-8.7-3.5-8.6-7.7l0-4.1c0-4.2,4-7.6,8.8-7.6l0,0c4.8,0,8.7,3.5,8.6,7.7
							l0,4.1C176.6,84.9,172.7,88.3,167.9,88.3"/>
						<path class="st6" d="M176.6,76.6c0-2.3-1.1-4.3-2.9-5.8c-0.7-0.2-1.4-0.3-2.2-0.4c-4.2,0-7.7,3.7-7.7,8.3
							c0,4.6,3.4,8.4,7.6,8.4c0.4,0,0.8,0,1.1-0.1c2.4-1.3,4-3.7,4-6.4L176.6,76.6L176.6,76.6z"/>
					</g>
					<path class="st7" d="M202.6,88.4c-6.2-1.3-8.6,7.8-1.8,8C207.5,96.7,206.6,89.3,202.6,88.4z"/>
					<path class="st7" d="M165.5,88.6c-6.2-1.3-8.6,7.8-1.8,8C170.3,96.9,169.4,89.4,165.5,88.6z"/>
					<g>
						<path class="st10" d="M181.5,77.6c0,0-8.6,3.2-8.8,11.5c-0.2,8.3,3.8,8.1,3.8,8.1l1.4-3.8c0,0,4.9,0.9,6.6-0.6
							C186.1,91.3,187.3,76,181.5,77.6L181.5,77.6z"/>
						<path class="st17" d="M184.4,92.8c0.5-0.5,1-2.2,1.2-4.4c-2.8,0.4-7.5,1.2-9,2.2c-2.1,1.4-0.2,6.6-0.2,6.6l1.4-3.8
							C177.8,93.4,182.7,94.3,184.4,92.8L184.4,92.8z"/>
						<path class="st13" d="M176.5,97.2c0,0-2.2-4.9,0.2-6.6c2.5-1.7,9-2.2,9-2.2"/>
					</g>
				</g>
				<path class="st13" d="M156.2,73.1c0,0-7.8,25.3,12.6,31.6c0,0-5.4,17.1,13.2,23.8"/>
			</g>
			<g>
				<g>
					<path class="st12" d="M230.1,88.5c0,0,13.4-16.4,17.3-16.3c4,0.1,5,14.2-9.8,19.5c0,0,17.3-6.3,18.1-2.4s-10.4,9.5-17,9.1
						c0,0,17.2,1.1,15.3,5.1s-16.3,1.6-16.3,1.6s11.3,4.6,8.4,8c-2.9,3.4-17.2-1.6-17.2-1.6s10.9,5.8,6.3,8.7
						c-4.6,2.9-14.6-4.4-14.6-4.4s6.6,8,1.5,8.9c-5.1,0.9-13.2-13.1-13.6-14.5S230.1,88.6,230.1,88.5L230.1,88.5z"/>
					<path class="st9" d="M225.7,90.2c0,0,2.7-1.3,5-3.2c4.1-3.5,9.2-8.6,11.4-8.5c3.3,0.1,2.3,10-10.1,14.4c0,0,14.5-5.3,15.1-2
						c0.7,3.3-8.7,7.9-14.2,7.6c0,0,14.4,0.9,12.8,4.3s-13.6,1.3-13.6,1.3s9.4,3.8,7,6.7s-14.4-1.3-14.4-1.3s9.1,4.9,5.3,7.3
						c-3.8,2.4-12.2-3.7-12.2-3.7s5.5,6.7,1.3,7.4s-11-10.9-11.4-12.1S225.7,90.2,225.7,90.2L225.7,90.2z"/>
					<path class="st11" d="M206.1,109.3c7.9,9.5,28.7-8.9,21.6-21.3l-4,2.2C223.7,90.3,198.2,99.8,206.1,109.3L206.1,109.3z"/>
				</g>
				<path class="st11" d="M206.8,110.4c9,10.8,32.5-10.1,24.5-24.2l-4.5,2.5c0,0-6.5,1.5-12.1,4.9
					C207.8,97.8,201.9,104.4,206.8,110.4L206.8,110.4z"/>
				<path class="st13" d="M205.2,109.7c0,0-6.2-13.4,25.1-22.1c0,0,16.6-18,18.5-15.1s2.5,12.9-7.8,17.6"/>
			</g>
		</g>
	</g>
</g>
</svg>
