<?xml version="1.0" encoding="UTF-8"?>
<svg id="Layer_1" data-name="Layer 1" xmlns="http://www.w3.org/2000/svg" viewBox="0 0 332.14 176.28">
  <defs>
    <style>
      .cls-1 {
        stroke-width: 3px;
      }

      .cls-1, .cls-2 {
        fill: none;
        stroke: #583014;
        stroke-miterlimit: 10;
      }

      .cls-3 {
        fill: #f2ecd0;
      }

      .cls-4 {
        fill: #eb6d09;
      }

      .cls-5 {
        fill: #ece135;
      }

      .cls-6 {
        fill: #fd8f70;
      }

      .cls-7 {
        fill: #7e522b;
      }

      .cls-8 {
        fill: #99a294;
      }

      .cls-9 {
        fill: #aaaa2a;
      }

      .cls-10 {
        fill: #b0b49b;
      }

      .cls-11 {
        fill: #583014;
      }
    </style>
  </defs>
  <path class="cls-5" d="m0,127.16v49.12h332.14C252,146.21,105.62,132.96,0,127.16Z"/>
  <g>
    <g>
      <path class="cls-11" d="m163.98,167.41s.79-4.63,2.82-5.44c0,0,4.87,4.25,4.23,5.49-.8,1.54-7.04-.05-7.04-.05Z"/>
      <g>
        <path class="cls-11" d="m108.92,162.88s.79-4.63,2.82-5.44c0,0,4.87,4.25,4.23,5.49-.8,1.54-7.04-.05-7.04-.05Z"/>
        <path class="cls-11" d="m98.62,158.72s-2.58,4.35-1.7,4.56c.88.2,4.69-.07,4.69-.07,0,0-2.04-3.88-2.99-4.49Z"/>
        <path class="cls-7" d="m115.83,127.12s-4.03,29.21-4.34,31.34l1.55,4.76s-11.47.49-12.55-.16c-1.08-.66-11.62-21.17-12.71-27.89"/>
        <path class="cls-11" d="m105.48,163.71s.79-4.63,2.82-5.44c0,0,4.87,4.25,4.23,5.49-.8,1.54-7.04-.05-7.04-.05Z"/>
      </g>
      <path class="cls-11" d="m152.68,162.99s-2.58,4.35-1.7,4.56c.88.2,4.69-.07,4.69-.07,0,0-2.04-3.88-2.99-4.49Z"/>
      <path class="cls-7" d="m172.16,126.12s-4.62,33.49-4.97,35.93l1.78,5.46s-13.15.56-14.39-.19c-1.24-.75-13.32-24.27-14.57-31.98"/>
      <path class="cls-11" d="m159.75,167.93s-.6-4.55,2.82-5.44c0,0,5.96,4.87,5.31,6.11-.8,1.54-8.13-.67-8.13-.67Z"/>
    </g>
    <g>
      <path class="cls-11" d="m54.66,86s-.23-6.33,4.09-11.35c0,0-6.68.54-7.81,7.44,0,0-.08-8.64,9.4-11.32,0,0-6.24-1.09-9.48,2.68,0,0,3.29-4.43,9.68-5.65l6.39-1.23s7.13-7.16,14.18-8.34c0,0-7.96-.21-11.53,3.54,0,0,4.37-5.68,11.38-6.2,7.01-.52,4.56,1.31,9.66-.34s9.28-14.32,20.28-19.88c11.01-5.56,19.01-6.02,19.01-6.02,0,0-12.01-4.14-17.94.11,0,0,6.87-8.17,16.01-5.89,9.15,2.28,12.16,6.8,12.16,6.8l-6.29-10.06s9.94,5.32,11.94,10.11c0,0,2.83-7.45-2.19-11.77,0,0,8.13,7.53,6.05,13.7,0,0,7.97-9.76,15.07-11.6,0,0-8.26,9.07-9.54,13.3,0,0,7.68-5.46,16.06-6.55,0,0-7.87,3.45-11.06,11.21s-80.11,54.68-105.51,47.31Z"/>
      <g>
        <path class="cls-11" d="m58.23,75.19s-5.18,16.29-6.49,22.39c-.76,3.56-9.54,5.98-11.07,10.69l5.98-4.2s-8.91,8.78-9.03,13.87c-.13,5.09,0,7.12,0,7.12l-3.18.51s5.09,3.31,5.6-2.04c0,0,1.91,8.78-4.58,10.69,0,0,9.41-2.29,11.58-8.4,2.16-6.11-.89-14.63-.89-14.63,0,0,16.03-17.43,15.14-31.93"/>
        <path class="cls-7" d="m111.19,60.23s-35.69-5.64-50.84,21.71c-7.33,13.23-5.92,33.51,2.86,43.88,16.2,19.13,105.78,27.29,107.81-16.88,2.12-46.07-59.84-48.72-59.84-48.72Z"/>
        <path class="cls-2" d="m78.54,134.48s38.59,15.38,68.23,1.68"/>
      </g>
    </g>
    <g>
      <g>
        <path class="cls-11" d="m68.73,160.74s-2.58,4.35-1.7,4.56c.88.2,4.69-.07,4.69-.07,0,0-2.04-3.88-2.99-4.49Z"/>
        <path class="cls-11" d="m80.57,165.36s.79-4.63,2.82-5.44c0,0,4.87,4.25,4.23,5.49-.8,1.54-7.04-.05-7.04-.05Z"/>
        <path class="cls-7" d="m102.54,122.28s-13.19,24.52-18.23,28.54l.06,13.22c0,.91-.73,1.64-1.63,1.63-4.06-.03-13.17.05-13.94-1.23-.96-1.61-2.23-26.88-2.23-26.88,0,0-6.95-21.71-6.95-27.54"/>
        <path class="cls-11" d="m77.03,166.29s.79-4.63,2.82-5.44c0,0,4.87,4.25,4.23,5.49-.8,1.54-7.04-.05-7.04-.05Z"/>
      </g>
      <g>
        <path class="cls-11" d="m134.66,168.44s-.6-4.55,2.82-5.44c0,0,5.96,4.87,5.31,6.11-.8,1.54-8.13-.67-8.13-.67Z"/>
        <path class="cls-11" d="m123.56,165.08s-2.58,4.35-1.7,4.56,4.69-.07,4.69-.07c0,0-2.04-3.88-2.99-4.49Z"/>
        <path class="cls-7" d="m142.56,128.12s-4.62,33.49-4.97,35.93l1.78,5.46s-13.15.56-14.39-.19c-1.24-.75-13.32-24.27-14.57-31.98"/>
        <path class="cls-2" d="m108.54,132.06s5.78,22.6,10.8,27.12"/>
        <path class="cls-11" d="m130.27,169.69s-.6-4.55,2.82-5.44c0,0,5.96,4.87,5.31,6.11-.8,1.54-8.13-.67-8.13-.67Z"/>
      </g>
    </g>
    <g>
      <g>
        <path class="cls-7" d="m169.33,39.4s1.04-18.94,6.56-25.23c0,0,5.36-13.62,9.17-14.16,3.82-.54,39.16,38.6,6.79,59.18"/>
        <path class="cls-11" d="m173.46,39.49s-.91-16.23,5.21-21.72c0,0,3.69-10.93,9.12-10.67,5.43.26,24.18,26.06,7.96,43.61,0,0,2.87-10.05,1.04-10.7-1.83-.66-4.79.6-4.79.6,0,0,4.74-5,2.41-4.34-2.33.66-4.99,3.57-4.99,3.57,0,0,2.09-4.77.07-5.15-2.02-.38-6.56,1.65-6.68.94-.13-.71,5.27-7.54,3.1-7.4-2.18.14-6.74,7.55-6.74,7.55,0,0,.56-7.93-1.26-7.12-1.81.81-4.45,10.82-4.45,10.82Z"/>
        <path class="cls-7" d="m101.36,93.7c-5.93-44.42,18.71-62.61,71.43-57.92,59.09,5.26,51.05,82.7,18.41,91.73-28.32,7.84-83.91,10.56-89.84-33.81Z"/>
        <path class="cls-2" d="m114.13,119.33s18.26,19.05,60.01,11.22"/>
        <g>
          <path class="cls-3" d="m194.09,101.9h0c8.78.02,15.91-7.22,15.92-16.17l.02-8.58c.02-8.95-7.08-16.23-15.86-16.25h0c-8.78-.02-15.91,7.22-15.92,16.17l-.02,8.58c-.02,8.95,7.08,16.23,15.86,16.25"/>
          <path class="cls-11" d="m178.25,77.06c0-4.84,2.11-9.18,5.42-12.14,1.25-.46,2.58-.72,3.95-.71,7.74.02,14.01,7.94,13.99,17.68-.02,9.74-6.31,17.63-14.06,17.61-.7,0-1.39-.09-2.06-.22-4.37-2.9-7.27-7.92-7.26-13.64l.02-8.58Z"/>
        </g>
        <g>
          <path class="cls-3" d="m130.06,102.08h0c8.78.02,15.91-7.22,15.92-16.17l.02-8.58c.02-8.95-7.08-16.23-15.86-16.25h0c-8.78-.02-15.91,7.22-15.92,16.17l-.02,8.58c-.02,8.95,7.08,16.23,15.86,16.25"/>
          <path class="cls-11" d="m114.22,77.24c0-4.84,2.11-9.18,5.42-12.14,1.25-.46,2.58-.72,3.95-.71,7.74.02,14.01,7.94,13.99,17.68-.02,9.74-6.31,17.63-14.06,17.61-.7,0-1.39-.09-2.06-.22-4.37-2.9-7.27-7.92-7.26-13.64l.02-8.58Z"/>
        </g>
        <path class="cls-6" d="m119.02,105.71c11.16-3.34,16.86,12.74,4.51,14.3-11.97,1.51-11.5-12.21-4.51-14.3Z"/>
        <path class="cls-6" d="m191.3,106.32c9.4-6.89,20.16,6.34,9.04,11.96-10.77,5.44-14.92-7.64-9.04-11.96Z"/>
      </g>
      <path class="cls-7" d="m158.85,69.52s-22.68,59.62,18.99,59.55c47.48-.09,58.54-32.18,23.11-39.97,0,0-9.1-2.01-16.25-9.6-8.85-9.39-18.62-21.58-25.85-9.97Z"/>
      <path class="cls-3" d="m173.16,121.88s-13.73-5.35-15.82-8.38,1.4-25.83,5.12-25.83,10.47,30.95,10.7,34.21Z"/>
      <path class="cls-3" d="m209.3,113.73s13.73-5.35,15.82-8.38c2.09-3.03-1.4-25.83-5.12-25.83s-10.47,30.95-10.7,34.21Z"/>
      <path class="cls-2" d="m221.37,109.95s-15.61,31-62.76,5.3c-1.4-.76-8.18-3.78-9.63-4.64"/>
      <path class="cls-2" d="m148.18,112.66s.16-2.69,3.8-3.33"/>
      <path class="cls-7" d="m134.46,45.65s-17.98-24.77-27.88-26.96c0,0-.7-7.58-2.71-6.54-2.01,1.04-31.48,34.9.55,59.22"/>
      <path class="cls-11" d="m124.69,46.35s-8.67-15.9-19.03-20c0,0-2.41-3.85-5.06-2.17-2.65,1.69-9.64,26.98-.24,35.9,0,0-3.61-4.1.72-4.58,4.34-.48,7.95-.96,7.95-.96,0,0-9.15-1.93-5.78-2.65,3.37-.72,8.19-.24,8.19-.24,0,0-8.43-3.61-5.06-3.85,3.37-.24,7.47,2.41,7.47,2.41,0,0-7.71-6.75-4.1-6.02,3.61.72,6.99,4.1,6.99,4.1,0,0-5.54-5.54-1.69-5.06,3.85.48,9.64,3.13,9.64,3.13Z"/>
      <g>
        <path class="cls-4" d="m208.54,91.31c6.95-.64,12.24,9.3,14.48,12.99,3.75,6.14-.19,9.1-13.07,10.16-12.88,1.06-17.1.28-14.66-6.57,2.92-8.18,6.29-15.94,13.24-16.58Z"/>
        <line class="cls-1" x1="207.24" y1="95.49" x2="203.91" y2="108.2"/>
        <line class="cls-1" x1="212.38" y1="95.48" x2="215.1" y2="107.28"/>
      </g>
      <path class="cls-2" d="m104.29,59.22s-10.27,24.29.47,46.24"/>
      <path class="cls-2" d="m183.94,48.06s-16.44,22.02,4.4,34.64"/>
      <path class="cls-2" d="m144.35,45.56s5.35,3.1,7.04,5.35"/>
      <path class="cls-2" d="m153.08,43.87s2.53,3.1,2.82,5.35"/>
      <path class="cls-2" d="m162.94,44.15s-1.69,4.51-1.41,5.91"/>
    </g>
  </g>
  <g>
    <path class="cls-5" d="m67.41,156.9c2.31-4.61,8-19.65,9.3-15.99,1.3,3.66,1.11,13.77.91,18.29"/>
    <path class="cls-9" d="m191.47,171.15s-1.81-3.88-4.08-4.77c-2.27-.89-17.09-3.93-16.09-4.2,1-.27,7.49-5.05,10.48-4.3,2.99.75,13.3,9.74,13.17,9.02-.13-.72-2.21-6.03-2.91-7.04s-14.89-8.76-14.89-8.76c0,0,6.72-.63,8.71-.03,1.99.6,10.97,13.57,10.97,13.57,0,0-.61-8.58-1.29-10.59s-9.98-13.13-9.98-13.13c0,0,7.84,1.67,9.54,2.69,1.7,1.02,4.5,16.91,4.5,16.91,0,0,1.13-9.99.72-11.42-.41-1.43-2.19-7.31-2.19-7.31,0,0,4.4,1.91,5.09,3.92.69,2.01,1.69,13.45,1.69,13.45,0,0,1.91-15.55,2.66-18.25.75-2.7,5.27-10.08,5.27-10.08l-4.37,29.66s2.38-7.83,3.41-9.67c1.02-1.84,11.87-12.42,11.87-12.42,0,0-8.62,15.18-9.06,16.31-.44,1.14-3.03,13.82-3.03,13.82,0,0,6.16-12.49,7.74-13.76,1.59-1.27,13.33-3.4,13.33-3.4l-13.11,8.98-4.09,7.38s5.5-5.5,7.79-6.19c2.29-.69,11.87-.99,11.87-.99l-13.56,10.26-30.15.33Z"/>
  </g>
  <g>
    <g>
      <path class="cls-10" d="m289.15,157.41c-4.72-2.91-8.72-2.72-13.98-5.99-5.27-3.27-13.62-9.26-23.61-4.9-9.99,4.36-12.35,22.88-7.26,25.06,5.08,2.18,49.03.73,52.48-1.82,3.45-2.54-2.91-9.44-7.63-12.35Z"/>
      <path class="cls-2" d="m249.09,164.14s5.36-4.43,10.95-5.13c5.59-.7,3.73,1.4,10.25.47,6.52-.93,9.79-2.8,15.85-1.17"/>
      <path class="cls-8" d="m306.89,171.38s-2.73-4.92-7.52-6.42c-4.78-1.5-14.62,3.42-12.3,6.56s21.87,2.46,19.82-.14Z"/>
      <path class="cls-2" d="m286.71,169.84s5.51-6.99,12.66-4.88"/>
    </g>
    <path class="cls-9" d="m263.27,174.45s-5.32-5.63-3.34-5.42,5.11,3.34,5.11,3.34c0,0-3.54-7.71-1.77-7.19,1.77.52,3.44,4.8,3.44,4.8,0,0-2.4-8.76,1.04-8.34s3.54,9.59,3.54,9.59c0,0,1.36-5.63,2.4-3.75,1.04,1.88.42,4.59.42,4.59,0,0,1.67-4.38,3.34-2.29,1.67,2.08-.31,4.27-.31,4.27l-13.86.42Z"/>
  </g>
</svg>