<?xml version="1.0" encoding="UTF-8"?>
<svg xmlns="http://www.w3.org/2000/svg" width="95.2" height="87.11" viewBox="0 0 95.2 87.11">
  <defs>
    <style>
      .cls-1 {
        fill: #e6e6e6;
      }

      .cls-2 {
        fill: #ffb0ac;
      }

      .cls-3 {
        fill: #fff;
      }

      .cls-4 {
        fill: #f18f3d;
      }

      .cls-5 {
        fill: #9d919e;
      }

      .cls-6, .cls-7, .cls-8 {
        fill: #3a4967;
      }

      .cls-9, .cls-7, .cls-10 {
        mix-blend-mode: multiply;
      }

      .cls-7, .cls-11, .cls-8 {
        opacity: .5;
      }

      .cls-12 {
        isolation: isolate;
      }

      .cls-10 {
        opacity: .2;
      }
    </style>
  </defs>
  <g class="cls-12">
    <g id="Layer_1" data-name="Layer 1">
      <g>
        <ellipse class="cls-1" cx="47.93" cy="82.27" rx="32.54" ry="4.84"/>
        <g>
          <g>
            <path class="cls-5" d="m88.14,69.29c-3.67,1.28-8.66.26-12.59.43-4.86.21-8.83,1.21-12.58,4.28v-1.34c-.3.81-.41,1.78-.31,2.59,4.44-1.79,9.12-4.27,14.06-4.2,2.66.04,12.32,2.24,11.42-1.77Z"/>
            <path class="cls-6" d="m91.77,68.2c.48-.48.71-1.11,1.24-1.54-2-.51-4.83-.47-6.68.81-.86.6-1.37,1.6-1.45,2.65-.01.13-.02.25-.01.32.13,2.44,3.37,3.11,5.3,2.4,1.33-.49,4.82-2.97,5.04-4.95-.54.18-2.86.47-3.43.31Z"/>
          </g>
          <path class="cls-5" d="m92.9,58c-1.2,3.49-3.42,6.5-7.07,8.16-1.66.76-3.49,1.08-5.3,1.01-2.03-.05-4.06-.59-5.89-1.49-6.01-2.98-9.25-9.09-11.31-15.18-1.91-5.64-3.68-11.38-5.31-17.12-1.27-4.45-2-10.4-.35-15.07,1.11-3.17,3.31-5.74,7.16-6.86,2.46-.71,5.14-.31,7.48.71,6.28,2.74,11.32,9.16,14.81,14.84,3.33,5.43,5.58,11.53,6.58,17.82.67,4.16.65,9.01-.8,13.17Z"/>
          <g class="cls-11">
            <path class="cls-6" d="m81.41,65.07c-.25.73-.54,1.43-.89,2.1-2.03-.05-4.06-.59-5.89-1.49-6.01-2.98-9.25-9.09-11.31-15.18-1.91-5.64-3.68-11.38-5.31-17.12-1.27-4.45-2-10.4-.35-15.07,1.08.16,2.15.48,3.16.93,6.28,2.74,11.32,9.15,14.81,14.84,3.33,5.43,5.58,11.53,6.58,17.82.67,4.16.65,9.01-.8,13.17Z"/>
          </g>
          <path class="cls-5" d="m1.22,58c1.2,3.49,3.42,6.5,7.07,8.16,1.66.76,3.49,1.08,5.3,1.01,2.03-.05,4.06-.59,5.89-1.49,6.01-2.98,9.25-9.09,11.31-15.18,1.91-5.64,3.68-11.38,5.31-17.12,1.27-4.45,2-10.4.35-15.07-1.11-3.17-3.31-5.74-7.16-6.86-2.46-.71-5.14-.31-7.48.71-6.28,2.74-11.32,9.16-14.81,14.84-3.33,5.43-5.58,11.53-6.58,17.82-.67,4.16-.65,9.01.8,13.17Z"/>
          <g class="cls-11">
            <path class="cls-6" d="m12.7,65.07c.25.73.54,1.43.89,2.1,2.03-.05,4.06-.59,5.89-1.49,6.01-2.98,9.25-9.09,11.31-15.18,1.91-5.64,3.68-11.38,5.31-17.12,1.27-4.45,2-10.4.35-15.07-1.08.16-2.15.48-3.16.93-6.28,2.74-11.32,9.15-14.81,14.84-3.33,5.43-5.58,11.53-6.58,17.82-.67,4.16-.65,9.01.8,13.17Z"/>
          </g>
          <path class="cls-5" d="m74.67,79.98c-1.66,3.1-4.34,4.9-6,4.01-.04-.03-.08-.05-.11-.08,0,.02-.02.03-.03.06-3.29-.74-6.81-1.32-10.49-1.7-3.46-.35-7.09-.55-10.8-.55-3.17,0-6.28.14-9.27.42-3.94.35-7.71.92-11.23,1.68-.09.07-.18.13-.28.18-1.66.88-4.34-.92-6-4.01-1.66-3.1-1.66-6.34,0-7.22,1.25-.67,3.1.19,4.64,2,.13-.86.32-1.7.57-2.52.03-.14.08-.29.12-.42.48-1.5,1.13-2.91,1.95-4.25,1.44-2.34,3.35-4.39,5.62-6.05,3.81-2.78,8.64-4.44,13.89-4.44s9.75,1.55,13.49,4.16c4.81,3.33,8.1,8.41,8.76,14.22,1.63-2.27,3.78-3.46,5.19-2.71,1.65.88,1.65,4.12,0,7.22Z"/>
          <path class="cls-8" d="m60.73,61.25c-3.11,2.53-8.16,4.18-13.86,4.18s-10.38-1.52-13.52-3.9c3.81-2.78,8.64-4.44,13.89-4.44s9.75,1.55,13.49,4.16Z"/>
          <path class="cls-5" d="m80.44,44.1c0,10.62-14.07,17.74-31.82,18.26-.53.02-1.05.03-1.58.03-.16,0-.34,0-.51,0-18.72,0-33.9-7.26-33.9-18.29,0-2.84,1-5.85,2.81-8.75.32-.52.58-1.06.79-1.62.47-1.23.67-2.55.62-3.87,0-.26-.02-.52-.02-.78C16.83,13.09,29.92,0,45.92,0h2.71c7.86.1,15.01,3.35,20.19,8.54,5.28,5.27,8.54,12.54,8.54,20.53v.15c0,2.13.28,4.23.85,6.26.26.98.6,1.95.99,2.89.81,1.93,1.25,3.87,1.25,5.73Z"/>
          <path class="cls-7" d="m48.62,0v62.36c-.53.02-1.05.03-1.58.03V0h1.58Z"/>
          <path class="cls-2" d="m80.44,44.1c0,11.04-15.19,18.29-33.91,18.29s-33.9-7.26-33.9-18.29c0-2.84,1-5.85,2.81-8.75.32-.52.58-1.06.79-1.62,0,0,.02-.01.03-.02,1.71-1.08,3.91-1.1,5.65-.06,6.04,3.6,15.26,5.9,25.6,5.9,9.5,0,18.06-1.94,24.07-5.05,1.91-.99,4.21-.81,5.94.46.23.17.46.35.69.53.26.98.6,1.95.99,2.89.81,1.93,1.25,3.87,1.25,5.73Z"/>
          <g class="cls-10">
            <path class="cls-6" d="m35.13,2.16c-7.07,5.22-11.89,15.33-11.89,26.88,0,.27,0,.54,0,.81.05,2.04-.31,4.06-1.11,5.79-1.42,3.06-2.21,6.24-2.21,9.23,0,6.78,4.05,12.2,10.34,15.55-10.53-2.9-17.65-8.67-17.65-16.24,0-2.84,1-5.85,2.81-8.76,1.02-1.64,1.49-3.55,1.42-5.49-.02-.25-.02-.51-.02-.77,0-12.19,7.6-22.69,18.29-26.99Z"/>
            <path class="cls-6" d="m80.44,44.18c0,7.57-7.13,13.34-17.64,16.24,6.3-3.35,10.34-8.77,10.34-15.55,0-1.96-.34-4-.98-6.04-.95-3.06-1.45-6.32-1.44-9.64v-.15c0-8.43-2.57-16.09-6.7-21.64-1.61-2.16-3.45-4-5.47-5.44,3.88,1.47,7.39,3.76,10.27,6.66,5.28,5.27,8.54,12.54,8.54,20.53v.15c-.03,3.15.61,6.24,1.83,9.14.8,1.94,1.24,3.87,1.24,5.73Z"/>
          </g>
          <g class="cls-9">
            <path class="cls-5" d="m44.15,69.38c-.06,1.26-.61,2.41-1.53,3.26-.87.79-1.98,1.22-3.16,1.22-.08,0-.16,0-.23,0-.5-.03-.99-.12-1.44-.3-.69-.25-1.31-.67-1.82-1.23l-2.76-3.03c-.18-.2-.16-.51.03-.68.2-.18.5-.17.68.03l2.76,3.04c.39.43.86.75,1.4.95.37.16.77.24,1.18.26.99.04,1.95-.29,2.68-.96.74-.67,1.17-1.59,1.22-2.59.04-.93-.25-1.82-.83-2.53-.04-.06-.09-.11-.14-.16l-2.46-2.72c-.18-.2-.17-.51.03-.68.2-.18.51-.17.69.03l2.46,2.72c.09.1.16.18.24.29.68.88,1.03,1.97.98,3.1Z"/>
            <path class="cls-5" d="m63.17,69.29l-2.76,3.03c-.58.64-1.31,1.1-2.13,1.33-.35.11-.74.18-1.12.2-.08,0-.16,0-.23,0-1.18,0-2.28-.43-3.16-1.22-.93-.85-1.47-2-1.53-3.26-.05-1.07.26-2.11.87-2.97.1-.15.22-.29.35-.42l2.46-2.72c.18-.2.49-.21.69-.03.2.17.21.48.03.68l-2.47,2.72c-.1.1-.18.22-.26.33-.49.67-.74,1.5-.7,2.36.04.99.48,1.91,1.21,2.59.74.67,1.68,1,2.68.96.31-.02.61-.07.89-.16.65-.18,1.24-.54,1.7-1.06l2.76-3.04c.18-.2.49-.21.68-.03.2.17.22.48.03.68Z"/>
          </g>
          <path class="cls-6" d="m65.39,33.8c-.48,0-.86-.39-.86-.86,0-1.41-1.15-2.56-2.56-2.56s-2.56,1.15-2.56,2.56c0,.48-.39.86-.86.86s-.86-.39-.86-.86c0-2.37,1.92-4.29,4.29-4.29s4.29,1.92,4.29,4.29c0,.48-.39.86-.86.86Z"/>
          <path class="cls-6" d="m35.44,33.8c-.48,0-.86-.39-.86-.86,0-1.41-1.15-2.56-2.56-2.56s-2.56,1.15-2.56,2.56c0,.48-.39.86-.86.86s-.86-.39-.86-.86c0-2.37,1.92-4.29,4.29-4.29s4.29,1.92,4.29,4.29c0,.48-.39.86-.86.86Z"/>
          <g>
            <path class="cls-6" d="m38.85,54.32c.22-.14.51-.07.65.15.41.66,1.27.86,1.93.45.65-.41.86-1.27.45-1.93-.14-.22-.07-.51.15-.65.22-.14.51-.07.65.15.68,1.1.34,2.55-.75,3.23-1.1.68-2.55.34-3.23-.75-.14-.22-.07-.51.15-.65Z"/>
            <path class="cls-6" d="m57.54,54.32c-.22-.14-.51-.07-.65.15-.41.66-1.27.86-1.93.45-.66-.41-.86-1.27-.45-1.93.14-.22.07-.51-.15-.65-.22-.14-.51-.07-.65.15-.68,1.1-.34,2.55.75,3.23,1.1.68,2.55.34,3.23-.75.14-.22.07-.51-.15-.65Z"/>
          </g>
          <g>
            <path class="cls-4" d="m23.88,41c0,1.89-1.53,3.43-3.43,3.43s-3.43-1.53-3.43-3.43,1.53-3.43,3.43-3.43,3.43,1.53,3.43,3.43Z"/>
            <path class="cls-3" d="m19.79,38.15c0,.76-.62,1.38-1.38,1.38s-1.38-.62-1.38-1.38.62-1.38,1.38-1.38,1.38.62,1.38,1.38Z"/>
          </g>
          <g>
            <path class="cls-4" d="m69.67,41.25c0,1.89,1.53,3.43,3.43,3.43s3.43-1.53,3.43-3.43-1.53-3.43-3.43-3.43-3.43,1.53-3.43,3.43Z"/>
            <path class="cls-3" d="m73.75,38.4c0,.76.62,1.38,1.38,1.38s1.38-.62,1.38-1.38-.62-1.38-1.38-1.38-1.38.62-1.38,1.38Z"/>
          </g>
          <g>
            <path class="cls-7" d="m69.49,75.46l-1.99,4.66s1.27-6-.91-12.84c0,0,2.36,3.26,2.91,8.17Z"/>
            <path class="cls-7" d="m27.13,79.31l-1.99-4.64c.13-.85.31-1.66.52-2.43.03-.14.08-.29.12-.42.48-1.5,1.13-2.91,1.95-4.25-1.66,6.12-.67,11.32-.6,11.74Z"/>
          </g>
        </g>
      </g>
    </g>
  </g>
</svg>