<?xml version="1.0" encoding="UTF-8"?>
<svg xmlns="http://www.w3.org/2000/svg" width="90.22" height="97.6" viewBox="0 0 90.22 97.6">
  <defs>
    <style>
      .cls-1 {
        fill: #e6e6e6;
      }

      .cls-2 {
        fill: #ffb0ac;
      }

      .cls-3 {
        fill: #fff;
      }

      .cls-4 {
        fill: #f18f3d;
      }

      .cls-5, .cls-6, .cls-7 {
        fill: #9d919e;
      }

      .cls-8 {
        fill: #3a4967;
      }

      .cls-6, .cls-9, .cls-7, .cls-10 {
        mix-blend-mode: multiply;
      }

      .cls-7, .cls-10 {
        opacity: .5;
      }

      .cls-11 {
        isolation: isolate;
      }
    </style>
  </defs>
  <g class="cls-11">
    <g id="Layer_1" data-name="Layer 1">
      <g>
        <ellipse class="cls-1" cx="46.4" cy="92.76" rx="32.54" ry="4.84"/>
        <g>
          <g>
            <g>
              <path class="cls-5" d="m70.39,28.45l-2.49-2.47-9.89-9.82-2.82-2.8-1.77-1.76S63.9-.53,77.58.02c0,0,.46.79.83,2.34.93,3.94,1.28,12.78-8.03,26.1Z"/>
              <path class="cls-2" d="m67.9,25.98c-.04.07-.1.15-.15.22l-9.91-9.85-2.82-2.8s.06-.07.16-.19c1.17-1.26,8.28-8.56,17.4-8.5.18,0,.37,0,.56.02,0,0,4.29,7.33-5.25,21.11Z"/>
            </g>
            <g>
              <path class="cls-5" d="m34.58,11.59l-1.77,1.76-3.26,3.23-9.44,9.39-2.49,2.47C8.52,15.44,8.64,6.69,9.53,2.63,9.9.9,10.42.02,10.42.02c13.68-.54,24.16,11.57,24.16,11.57Z"/>
              <path class="cls-2" d="m32.98,13.54l-3.27,3.25-9.46,9.4c-.05-.07-.1-.15-.15-.22C11.16,13.05,14.38,5.8,14.81,4.96c.03-.06.05-.09.05-.09,9.38-.38,16.77,7.2,17.95,8.48.11.12.17.19.17.19Z"/>
            </g>
            <path class="cls-6" d="m32.81,13.35c.11.12.17.19.17.19l-3.27,3.25c-.05-.07-.11-.14-.16-.21-4.38-5.4-9.76-9.11-14.75-11.63-1.83-.93-3.62-1.7-5.28-2.33C9.9.9,10.42.02,10.42.02c13.68-.54,24.16,11.57,24.16,11.57l-1.77,1.76Z"/>
            <path class="cls-6" d="m78.42,2.35c-1.82.66-3.79,1.48-5.83,2.5-4.91,2.46-10.21,6.06-14.58,11.3-.06.06-.11.13-.16.19l-2.82-2.8s.06-.07.16-.19l-1.77-1.76S63.9-.53,77.58.02c0,0,.46.79.83,2.34Z"/>
          </g>
          <path class="cls-5" d="m71.24,77.29c-.81,2.5-2.15,4.83-3.95,6.71-.85.88-2.12,2.2-3.49,2.78-.84.37-1.71.47-2.54.03-.51-.27-.94-.71-1.12-1.41-.48-1.87.23-3.76,1.41-5.22.18-.22.36-.44.55-.66l.31-.34c.32-.32.65-.62.99-.89,1.11-.9,2.17-1.85,3.18-2.86,1.88-1.86,3.55-3.92,4.94-6.18l.32-.51c.16.24.16.73.19,1.03.28,2.52,0,5.1-.8,7.52Z"/>
          <path class="cls-7" d="m71.24,77.29c-.81,2.5-2.15,4.83-3.95,6.71-.85.88-2.12,2.2-3.49,2.78-.37-.86-.55-1.67-.55-1.67l-.83-5.93c.32-.32.65-.62.99-.89,1.11-.9,2.17-1.85,3.18-2.86.35,2.02.75,4.23.89,4.17.26-.1,2.31-2.75,3.29-5.94,0,0,.56,1.27.48,3.63Z"/>
          <path class="cls-5" d="m72.65,89.42c-1.66,3.1-4.34,4.9-6,4.01-.04-.03-.08-.05-.11-.08,0,.02-.02.03-.03.06-3.29-.74-6.81-1.32-10.49-1.7-3.46-.35-7.09-.55-10.8-.55-3.17,0-6.28.14-9.27.42-3.94.35-7.71.92-11.23,1.68-.09.07-.18.13-.28.18-1.66.88-4.34-.92-6-4.01-1.66-3.1-1.66-6.34,0-7.22,1.25-.67,3.1.19,4.64,2,.13-.86.32-1.7.57-2.52.03-.14.08-.29.12-.42.48-1.5,1.13-2.91,1.95-4.25,1.44-2.34,3.35-4.39,5.62-6.05,3.81-2.78,8.64-4.44,13.89-4.44s9.75,1.55,13.49,4.16c4.81,3.33,8.1,8.41,8.76,14.22,1.63-2.27,3.78-3.46,5.19-2.71,1.65.88,1.65,4.12,0,7.22Z"/>
          <path class="cls-4" d="m56.79,87.01c0,1.66-.27,3.25-.77,4.7-3.46-.35-7.09-.55-10.8-.55-3.17,0-6.28.14-9.27.42-.47-1.42-.73-2.96-.73-4.57,0-1.41.2-2.76.55-4.02.09-.31.19-.62.3-.93.37.16.77.24,1.18.26.99.04,1.95-.29,2.68-.96.74-.67,1.17-1.59,1.22-2.59.04-.93-.25-1.82-.83-2.53.27-.2.54-.37.82-.54,1.46-.87,3.1-1.36,4.85-1.36,1.84,0,3.57.54,5.09,1.5.28.17.54.36.8.56-.49.67-.74,1.5-.7,2.36.04.99.48,1.91,1.21,2.59.74.67,1.68,1,2.68.96.31-.02.61-.07.89-.16.1.3.2.61.29.93.35,1.23.53,2.55.53,3.92Z"/>
          <path class="cls-7" d="m58.71,70.69c-3.11,2.53-8.16,4.18-13.86,4.18s-10.38-1.52-13.52-3.9c3.81-2.78,8.64-4.44,13.89-4.44s9.75,1.55,13.49,4.16Z"/>
          <path class="cls-5" d="m77.18,47.81c-1.21-2.9-1.86-6-1.83-9.15,0-.05,0-.1,0-.14h0c0-15.99-13.09-29.08-29.08-29.08h-2.37c-15.99,0-29.08,13.09-29.08,29.08h0c0,.26,0,.52.01.77.07,1.93-.39,3.85-1.41,5.49-1.81,2.91-2.81,5.92-2.81,8.76,0,11.04,15.18,18.29,33.91,18.29s33.91-7.25,33.91-18.29c0-1.86-.43-3.79-1.24-5.73Z"/>
          <g class="cls-10">
            <path class="cls-5" d="m33.11,11.61c-7.07,5.22-11.89,15.33-11.89,26.88,0,.27,0,.54,0,.81.05,2.04-.31,4.06-1.11,5.79-1.42,3.06-2.21,6.24-2.21,9.23,0,6.78,4.05,12.2,10.34,15.55-10.53-2.9-17.65-8.67-17.65-16.24,0-2.84,1-5.85,2.81-8.76,1.02-1.64,1.49-3.55,1.42-5.49-.02-.25-.02-.51-.02-.77,0-12.19,7.6-22.69,18.29-26.99Z"/>
            <path class="cls-5" d="m78.42,53.62c0,7.57-7.13,13.34-17.64,16.24,6.3-3.35,10.34-8.77,10.34-15.55,0-1.96-.34-4-.98-6.04-.95-3.06-1.45-6.32-1.44-9.64v-.15c0-8.43-2.57-16.09-6.7-21.64-1.61-2.16-3.45-4-5.47-5.44,3.88,1.47,7.39,3.76,10.27,6.66,5.28,5.27,8.54,12.54,8.54,20.53v.15c-.03,3.15.61,6.24,1.83,9.14.8,1.94,1.24,3.87,1.24,5.73Z"/>
          </g>
          <g>
            <path class="cls-5" d="m42.13,78.82c-.06,1.26-.61,2.41-1.53,3.26-.87.79-1.98,1.22-3.16,1.22-.08,0-.16,0-.23,0-.5-.03-.99-.12-1.44-.3-.69-.25-1.31-.67-1.82-1.23l-2.76-3.03c-.18-.2-.16-.51.03-.68.2-.18.5-.17.68.03l2.76,3.04c.39.43.86.75,1.4.95.37.16.77.24,1.18.26.99.04,1.95-.29,2.68-.96.74-.67,1.17-1.59,1.22-2.59.04-.93-.25-1.82-.83-2.53-.04-.06-.09-.11-.14-.16l-2.46-2.72c-.18-.2-.17-.51.03-.68.2-.18.51-.17.69.03l2.46,2.72c.09.1.16.18.24.29.68.88,1.03,1.97.98,3.1Z"/>
            <path class="cls-5" d="m61.15,78.73l-2.76,3.03c-.58.64-1.31,1.1-2.13,1.33-.35.11-.74.18-1.12.2-.08,0-.16,0-.23,0-1.18,0-2.28-.43-3.16-1.22-.93-.85-1.47-2-1.53-3.26-.05-1.07.26-2.11.87-2.97.1-.15.22-.29.35-.42l2.46-2.72c.18-.2.49-.21.69-.03.2.17.21.48.03.68l-2.47,2.72c-.1.1-.18.22-.26.33-.49.67-.74,1.5-.7,2.36.04.99.48,1.91,1.21,2.59.74.67,1.68,1,2.68.96.31-.02.61-.07.89-.16.65-.18,1.24-.54,1.7-1.06l2.76-3.04c.18-.2.49-.21.68-.03.2.17.22.48.03.68Z"/>
          </g>
          <g class="cls-9">
            <path class="cls-5" d="m42.13,78.82c-.06,1.26-.61,2.41-1.53,3.26-.87.79-1.98,1.22-3.16,1.22-.08,0-.16,0-.23,0-.5-.03-.99-.12-1.44-.3-.69-.25-1.31-.67-1.82-1.23l-2.76-3.03c-.18-.2-.16-.51.03-.68.2-.18.5-.17.68.03l2.76,3.04c.39.43.86.75,1.4.95.37.16.77.24,1.18.26.99.04,1.95-.29,2.68-.96.74-.67,1.17-1.59,1.22-2.59.04-.93-.25-1.82-.83-2.53-.04-.06-.09-.11-.14-.16l-2.46-2.72c-.18-.2-.17-.51.03-.68.2-.18.51-.17.69.03l2.46,2.72c.09.1.16.18.24.29.68.88,1.03,1.97.98,3.1Z"/>
            <path class="cls-5" d="m61.15,78.73l-2.76,3.03c-.58.64-1.31,1.1-2.13,1.33-.35.11-.74.18-1.12.2-.08,0-.16,0-.23,0-1.18,0-2.28-.43-3.16-1.22-.93-.85-1.47-2-1.53-3.26-.05-1.07.26-2.11.87-2.97.1-.15.22-.29.35-.42l2.46-2.72c.18-.2.49-.21.69-.03.2.17.21.48.03.68l-2.47,2.72c-.1.1-.18.22-.26.33-.49.67-.74,1.5-.7,2.36.04.99.48,1.91,1.21,2.59.74.67,1.68,1,2.68.96.31-.02.61-.07.89-.16.65-.18,1.24-.54,1.7-1.06l2.76-3.04c.18-.2.49-.21.68-.03.2.17.22.48.03.68Z"/>
          </g>
          <g>
            <path class="cls-8" d="m63.37,39.74c0,1.89-1.53,3.43-3.43,3.43s-3.43-1.53-3.43-3.43,1.53-3.43,3.43-3.43,3.43,1.53,3.43,3.43Z"/>
            <path class="cls-3" d="m60.43,38.7c-.27.66-1.03.96-1.69.69-.66-.28-.96-1.03-.69-1.69.28-.66,1.03-.96,1.69-.69.66.28.96,1.03.69,1.69Z"/>
          </g>
          <g>
            <path class="cls-8" d="m34.95,39.39c0,1.89-1.53,3.43-3.43,3.43s-3.43-1.53-3.43-3.43,1.53-3.43,3.43-3.43,3.43,1.53,3.43,3.43Z"/>
            <path class="cls-3" d="m33.44,38.22c-.28.66-1.03.96-1.69.69-.66-.28-.96-1.03-.69-1.69.28-.66,1.03-.96,1.69-.69.66.28.96,1.03.69,1.69Z"/>
          </g>
          <g>
            <path class="cls-2" d="m29.12,48.59c0,1.89-1.53,3.43-3.43,3.43s-3.43-1.53-3.43-3.43,1.53-3.43,3.43-3.43,3.43,1.53,3.43,3.43Z"/>
            <path class="cls-3" d="m25.04,45.73c0,.76-.62,1.38-1.38,1.38s-1.38-.62-1.38-1.38.62-1.38,1.38-1.38,1.38.62,1.38,1.38Z"/>
          </g>
          <g>
            <path class="cls-2" d="m61.97,48.59c0,1.89,1.53,3.43,3.43,3.43s3.43-1.53,3.43-3.43-1.53-3.43-3.43-3.43-3.43,1.53-3.43,3.43Z"/>
            <path class="cls-3" d="m66.06,45.73c0,.76.62,1.38,1.38,1.38s1.38-.62,1.38-1.38-.62-1.38-1.38-1.38-1.38.62-1.38,1.38Z"/>
          </g>
          <path class="cls-8" d="m49.56,42.6c0,.55-1.45,1.64-2.52,2.38-.67.46-1.55.46-2.22,0-1.07-.73-2.52-1.83-2.52-2.38,0-.87,1.63-1.57,3.63-1.57s3.63.7,3.63,1.57Z"/>
          <g>
            <path class="cls-7" d="m67.47,84.91l-1.99,4.66s1.27-6-.91-12.84c0,0,2.36,3.26,2.91,8.17Z"/>
            <path class="cls-7" d="m25.11,88.75l-1.99-4.64c.13-.85.31-1.66.52-2.43.03-.14.08-.29.12-.42.48-1.5,1.13-2.91,1.95-4.25-1.66,6.12-.67,11.32-.6,11.74Z"/>
          </g>
          <path class="cls-2" d="m68.99,87.32c-1.03,2.26-1.27,4.36-.55,4.69.72.33,2.14-1.24,3.17-3.5,1.03-2.26,1.27-4.36.55-4.69-.72-.33-2.14,1.24-3.17,3.5Z"/>
          <path class="cls-2" d="m22.16,87.32c1.03,2.26,1.27,4.36.55,4.69-.72.33-2.14-1.24-3.17-3.5-1.03-2.26-1.27-4.36-.55-4.69.72-.33,2.14,1.24,3.17,3.5Z"/>
          <g>
            <path class="cls-8" d="m70.54,44.78c4.62-2.32,9.87-3.7,14.8-5.24,1.06-.33.61-2-.46-1.67-5.07,1.59-10.44,3.02-15.21,5.41-.99.5-.12,1.99.87,1.49h0Z"/>
            <path class="cls-8" d="m70.1,48c6.4-.66,12.88-1.56,19.29-1.96,1.11-.07,1.11-1.8,0-1.73-6.42.4-12.88,1.3-19.29,1.96-1.1.11-1.11,1.84,0,1.73h0Z"/>
            <path class="cls-8" d="m70.17,51.19c5.39,1.87,12.93,3.11,18.58,2.06,1.09-.2.63-1.87-.46-1.67-5.31.98-12.69-.34-17.66-2.06-1.05-.36-1.51,1.31-.46,1.67h0Z"/>
          </g>
          <g>
            <path class="cls-8" d="m19.68,44.78c-4.62-2.32-9.87-3.7-14.8-5.24-1.06-.33-.61-2,.46-1.67,5.07,1.59,10.44,3.02,15.21,5.41.99.5.12,1.99-.87,1.49h0Z"/>
            <path class="cls-8" d="m20.12,48c-6.4-.66-12.88-1.56-19.29-1.96-1.11-.07-1.11-1.8,0-1.73,6.42.4,12.88,1.3,19.29,1.96,1.1.11,1.11,1.84,0,1.73h0Z"/>
            <path class="cls-8" d="m20.05,51.19c-5.39,1.87-12.93,3.11-18.58,2.06-1.09-.2-.63-1.87.46-1.67,5.31.98,12.69-.34,17.66-2.06,1.05-.36,1.51,1.31.46,1.67h0Z"/>
          </g>
          <path class="cls-8" d="m43.45,52.88c0,1.88-1.1,3.41-2.46,3.41s-2.46-1.53-2.46-3.41,1.1-3.41,2.46-3.41,2.46,1.53,2.46,3.41Z"/>
        </g>
      </g>
    </g>
  </g>
</svg>