<?xml version="1.0" encoding="UTF-8"?>
<svg xmlns="http://www.w3.org/2000/svg" width="329.34" height="280.96" viewBox="0 0 329.34 280.96">
  <defs>
    <style>
      .cls-1 {
        opacity: .69;
      }

      .cls-1, .cls-2 {
        fill: #f58a1f;
      }

      .cls-1, .cls-3, .cls-4, .cls-5, .cls-6 {
        mix-blend-mode: screen;
      }

      .cls-7 {
        fill: #f06022;
      }

      .cls-8 {
        fill: #ed8322;
      }

      .cls-9 {
        fill: #fff8c5;
      }

      .cls-10 {
        fill: #ffff03;
      }

      .cls-11, .cls-12 {
        fill: #eb2027;
      }

      .cls-13, .cls-4 {
        fill: #fcb415;
      }

      .cls-14 {
        fill: #e77f24;
      }

      .cls-15, .cls-5 {
        fill: #fbaf17;
      }

      .cls-16 {
        fill: #fde800;
      }

      .cls-17 {
        fill: #fddb00;
      }

      .cls-18, .cls-3 {
        fill: #87331c;
      }

      .cls-19 {
        fill: #bc6728;
      }

      .cls-20 {
        fill: #ca7028;
      }

      .cls-21 {
        fill: #d47428;
      }

      .cls-12 {
        mix-blend-mode: multiply;
      }

      .cls-22 {
        isolation: isolate;
      }
    </style>
  </defs>
  <g class="cls-22">
    <g id="Layer_1" data-name="Layer 1">
      <g>
        <polygon class="cls-11" points="210.66 168.02 198.3 159.73 191.9 173.17 172.68 103.2 191.45 98.05 210.66 168.02"/>
        <polygon class="cls-11" points="121.65 167.28 134.01 158.99 140.41 172.43 159.63 102.46 140.86 97.31 121.65 167.28"/>
        <path class="cls-12" d="m129.4,139.04c4.96,4.43,10.96,7.72,17.59,9.44l12.64-46.02-18.77-5.15-11.46,41.73Z"/>
        <g>
          <g>
            <g>
              <path class="cls-15" d="m103.5,264.58c15.05,2.54,30.87,1.87,46.47-2.56l-.81-2.87c-16.34,4.64-32.93,5.04-48.56,1.85,1.03,1.16,2.03,2.35,2.91,3.57Z"/>
              <g>
                <g>
                  <path class="cls-15" d="m52.07,77.86c.08-1.19.25-2.16.27-2.3h0c1.9-11.78,9.95-16.77,23.6-20.1-.57,2.58-2.38,9.67-6.02,14.62h0c-.36.28-3.83,7.1-17.83,7.78Z"/>
                  <path class="cls-15" d="m53.68,79.13c7.79-.65,13.44-3.18,16.82-7.54,3.89.79,7.5,2.08,9.09,2.69-8.51,9.41-15.43,10.65-25.91,4.85Z"/>
                  <path class="cls-15" d="m49.53,72.99c-2.42-7.04-1.34-12.91,8.49-20.39.56,1.37,1.67,4.34,2.39,7.61-3.34,2.18-6.87,5.13-8.74,11.6-.76.41-1.15.61-2.15,1.18Z"/>
                </g>
                <g>
                  <path class="cls-15" d="m36.08,104.24c-.88-2.78-1.51-4.23-2.03-5.43-.84.71-1.24,1.06-2.23,1.96-.95-8.82,2.17-12.35,5.44-16.6h-.01c4.4-4.77,13.3-10.14,13.39-10.19,2.29,18.88-4.28,25.85-14.56,30.26Z"/>
                  <path class="cls-15" d="m36.79,106.64c-.1-.37-.21-.74-.31-1.09,7.22-3.09,11.94-7.4,14.06-12.84,4.69-.47,9.26-.27,11.16-.15-5.71,12.59-12.88,15.94-24.91,14.09Z"/>
                  <path class="cls-15" d="m29.61,102.87c-6.96-7.54-8.01-14.66.28-26.11,1.09,1.22,3.49,4.04,5.56,7.34-4.46,5.1-6,10.66-4.97,17.91-.27.27-.57.55-.87.85Z"/>
                </g>
                <g>
                  <path class="cls-15" d="m19.84,134.8c-4.45-11.72,1.21-18.42,1.65-19.72h0c2.7-4.52,6.89-9.4,11.92-13.89,4.99,13.5,6.42,24.57-5.62,34.42-1.59-2.87-2.78-4.61-3.92-6.22-1.13,1.39-2.23,2.76-4.03,5.4Z"/>
                  <path class="cls-15" d="m29.79,139.49c-.43-.93-.88-1.82-1.33-2.65,5.82-4.69,8.95-9.61,9.79-15.42,5.17-1.65,10.4-2.52,12.48-2.83-2.76,14.35-9.33,19.48-20.93,20.9Z"/>
                  <path class="cls-15" d="m18.07,137.5c-9.88-6.5-13.07-13.94-6.86-28.39,1.5,1.03,5.01,3.55,8.26,6.67-3.56,6.57-3.75,12.93-.64,20.52-.25.38-.51.78-.77,1.2Z"/>
                </g>
                <g>
                  <path class="cls-15" d="m16.53,170.77c-7.4-11.32-3.19-18.41-2.86-21.24h-.03c2.28-6.57,6.01-12.1,10.08-17.66,7.03,11.35,12.48,22.2,4.78,34.24-2.19-2.46-4.55-4.81-7.24-7.1-1.97,3.97-3.55,8.03-4.73,11.75Z"/>
                  <path class="cls-15" d="m33.29,172.12c-1.1-1.58-2.36-3.19-3.82-4.9,3.26-4.95,4.57-9.49,4.22-14.59,5.4-2.88,11.07-4.92,13.22-5.66.33,15.79-5.88,21.7-13.62,25.15Z"/>
                  <path class="cls-15" d="m15.52,174.21c-12.63-4.99-18-12.38-14.45-29.33,1.84.77,6.4,2.79,10.8,5.55-2.43,7.77-1.16,14.64,4.1,22.17-.15.52-.3,1.02-.45,1.61Z"/>
                </g>
                <g>
                  <path class="cls-15" d="m23.86,204.02c-9.2-8.75-8.35-15.09-8.44-21.24h0c.8-8.65,4.65-17.8,6.31-21.41,9.63,8.74,18.49,19.62,15.24,32.44-3.43-2.29-7.43-4.59-11.6-6.51-1.08,5.59-1.56,11.61-1.5,16.72Z"/>
                  <path class="cls-15" d="m45.08,200.15c-1.98-1.86-4.28-3.7-6.85-5.48,1.34-4.9,1.28-9.12-.22-13.55,5.15-4.33,10.75-7.79,12.91-9.07,2.55,10.16,3.55,19.98-5.84,28.09Z"/>
                  <path class="cls-15" d="m24.05,208.24c-15.04-2.32-22.94-8.8-23.53-27.75,2.14.37,7.74,1.45,13.35,3.37-.41,6.29.6,13.79,10.05,22.2.03.72.07,1.45.13,2.17Z"/>
                </g>
                <g>
                  <path class="cls-15" d="m39.02,231.55c-11.47-7.16-11.42-14.73-12.74-17.96h-.03c-1.83-9.32-.58-19.49.19-24.16,13.32,6.79,26.12,15.63,26.4,30.13-9.71-2.88-17.89-3.51-18.06-3.53.91,5.28,2.48,10.84,4.23,15.52Z"/>
                  <path class="cls-15" d="m63.34,223.61c-2.62-1.32-5.65-2.53-9.01-3.6,0-5.67-1.37-10.15-4.4-14.41,4.21-5.91,9.27-11.09,11.15-12.97,5.81,9.93,10.15,19.82,2.26,30.98Z"/>
                  <path class="cls-15" d="m9.54,214.96c3.63-.25,10.93-.64,15.49-.13,1.84,8.37,6.31,14.05,14.84,18.9.55,1.34,1.13,2.65,1.74,3.9-15.39,1.09-25.85-3.73-32.07-22.67Z"/>
                </g>
                <g>
                  <path class="cls-15" d="m45.87,242.15h-.04c-4.43-6.88-7.66-16.63-9.24-24.53,13.77,1.83,30.62,5.95,37.34,17.2-4.94.07-10.56.48-15.8,1.28,3.48,6.89,8.79,14.78,14.32,20.63-14.93-1.46-19.67-5.93-26.57-14.59Z"/>
                  <path class="cls-15" d="m75.64,234.81c-2.08-3.71-4.58-6.38-8.26-8.82,1.22-5.12,4.92-13.06,6.8-16.91,8.91,6.91,16.81,15.7,15.16,26.83-4.42-.79-9.13-1.09-13.7-1.1Z"/>
                  <path class="cls-15" d="m28.71,248.95c2.33-.96,9.01-3.58,16.32-5.37,5.54,8.29,13.43,13.55,28.89,14.67.34.33.68.67,1.03.99-19.39,9.13-32.28,6.83-46.25-10.3Z"/>
                </g>
                <g>
                  <path class="cls-15" d="m96.24,267.94c-11.47-1.52-18.34-8.12-18.61-8.3l-.02.02c-6.24-5.34-12.03-12.9-17.22-22.48,0,0,0,0,0-.01,29.96-3.83,50.81,1.47,56.9,28.84-6.71,1.59-12.82,3.02-21.04,1.93Z"/>
                  <path class="cls-15" d="m118.36,264.24c-3.73-13.71-11.77-23.18-22.76-26.79-.04-8.42,1.42-16.68,1.93-19.32,3.74,1.43,18.95,7.79,23.15,18.32,3.82,9.59-.41,22.75-2.32,27.78Z"/>
                  <path class="cls-15" d="m61.7,271.36c2.11-1.57,8.43-6.14,15.71-9.99,10.52,8.58,24.01,10.02,38.41,6.42-17.59,15.46-32.86,18.15-54.12,3.58Z"/>
                </g>
              </g>
            </g>
            <g>
              <path class="cls-15" d="m225.84,263.83c-15.05,2.54-30.87,1.87-46.47-2.56l.81-2.87c16.34,4.64,32.93,5.04,48.56,1.85-1.03,1.16-2.03,2.35-2.91,3.57Z"/>
              <g>
                <g>
                  <path class="cls-15" d="m277.27,77.12c-.08-1.19-.25-2.16-.27-2.3h0c-1.9-11.78-9.95-16.77-23.6-20.1.57,2.58,2.38,9.67,6.02,14.62h0c.36.28,3.83,7.1,17.83,7.78Z"/>
                  <path class="cls-15" d="m275.66,78.39c-7.79-.65-13.44-3.18-16.82-7.54-3.89.79-7.5,2.08-9.09,2.69,8.51,9.41,15.43,10.65,25.91,4.85Z"/>
                  <path class="cls-15" d="m279.81,72.25c2.42-7.04,1.34-12.91-8.49-20.39-.56,1.37-1.67,4.34-2.39,7.61,3.34,2.18,6.87,5.13,8.74,11.6.76.41,1.15.61,2.15,1.18Z"/>
                </g>
                <g>
                  <path class="cls-15" d="m293.26,103.5c.88-2.78,1.51-4.23,2.03-5.43.83.71,1.24,1.06,2.23,1.96.95-8.82-2.17-12.35-5.44-16.6h.01c-4.4-4.77-13.3-10.14-13.39-10.19-2.29,18.88,4.28,25.85,14.56,30.26Z"/>
                  <path class="cls-15" d="m292.55,105.9c.1-.37.21-.74.31-1.09-7.22-3.09-11.94-7.4-14.06-12.84-4.69-.47-9.26-.27-11.16-.15,5.71,12.59,12.88,15.94,24.91,14.09Z"/>
                  <path class="cls-15" d="m299.73,102.13c6.96-7.54,8.01-14.66-.28-26.11-1.09,1.22-3.49,4.04-5.56,7.34,4.46,5.1,6,10.66,4.97,17.91.27.27.57.55.87.85Z"/>
                </g>
                <g>
                  <path class="cls-15" d="m309.5,134.05c4.45-11.72-1.21-18.42-1.65-19.72h0c-2.7-4.52-6.89-9.4-11.92-13.89-4.99,13.5-6.42,24.57,5.62,34.42,1.59-2.87,2.78-4.61,3.92-6.22,1.13,1.39,2.23,2.76,4.03,5.4Z"/>
                  <path class="cls-15" d="m299.55,138.75c.43-.93.88-1.82,1.33-2.65-5.82-4.69-8.95-9.61-9.79-15.42-5.17-1.65-10.4-2.52-12.48-2.83,2.76,14.35,9.33,19.48,20.93,20.9Z"/>
                  <path class="cls-15" d="m311.27,136.76c9.88-6.5,13.07-13.94,6.86-28.39-1.5,1.03-5.01,3.55-8.26,6.67,3.56,6.57,3.75,12.93.64,20.52.25.38.51.78.77,1.2Z"/>
                </g>
                <g>
                  <path class="cls-15" d="m312.81,170.03c7.4-11.32,3.19-18.41,2.86-21.24h.03c-2.28-6.57-6.01-12.1-10.08-17.66-7.03,11.35-12.48,22.2-4.78,34.24,2.19-2.46,4.55-4.81,7.24-7.1,1.97,3.97,3.55,8.03,4.73,11.75Z"/>
                  <path class="cls-15" d="m296.05,171.38c1.1-1.58,2.36-3.19,3.82-4.9-3.26-4.95-4.57-9.49-4.22-14.59-5.4-2.88-11.07-4.92-13.22-5.66-.33,15.79,5.88,21.7,13.62,25.15Z"/>
                  <path class="cls-15" d="m313.82,173.47c12.63-4.99,18-12.38,14.45-29.33-1.84.77-6.4,2.79-10.8,5.55,2.43,7.77,1.16,14.64-4.1,22.17.15.52.3,1.02.45,1.61Z"/>
                </g>
                <g>
                  <path class="cls-15" d="m305.48,203.28c9.2-8.75,8.35-15.09,8.44-21.24h0c-.8-8.65-4.65-17.8-6.31-21.41-9.63,8.74-18.49,19.62-15.24,32.44,3.43-2.29,7.43-4.59,11.6-6.51,1.08,5.59,1.56,11.61,1.5,16.72Z"/>
                  <path class="cls-15" d="m284.26,199.4c1.98-1.86,4.28-3.7,6.85-5.48-1.34-4.9-1.28-9.12.22-13.55-5.15-4.33-10.75-7.79-12.91-9.07-2.55,10.16-3.55,19.98,5.84,28.09Z"/>
                  <path class="cls-15" d="m305.29,207.49c15.04-2.32,22.94-8.8,23.53-27.75-2.14.37-7.74,1.45-13.35,3.37.41,6.29-.6,13.79-10.05,22.2-.03.72-.07,1.45-.13,2.17Z"/>
                </g>
                <g>
                  <path class="cls-15" d="m290.32,230.8c11.47-7.16,11.42-14.73,12.74-17.96h.03c1.83-9.32.58-19.49-.19-24.16-13.32,6.79-26.12,15.63-26.4,30.13,9.71-2.88,17.89-3.51,18.06-3.53-.91,5.28-2.48,10.84-4.23,15.52Z"/>
                  <path class="cls-15" d="m266,222.87c2.62-1.32,5.65-2.53,9.01-3.6,0-5.67,1.37-10.15,4.4-14.41-4.21-5.91-9.27-11.09-11.15-12.97-5.81,9.93-10.15,19.82-2.26,30.98Z"/>
                  <path class="cls-15" d="m319.8,214.22c-3.63-.25-10.93-.64-15.49-.13-1.84,8.37-6.31,14.05-14.84,18.9-.55,1.34-1.13,2.65-1.74,3.9,15.39,1.09,25.85-3.73,32.07-22.67Z"/>
                </g>
                <g>
                  <path class="cls-15" d="m283.47,241.4h.04c4.43-6.88,7.66-16.63,9.24-24.53-13.77,1.83-30.62,5.95-37.34,17.2,4.94.07,10.56.48,15.8,1.28-3.48,6.89-8.79,14.78-14.32,20.63,14.93-1.46,19.67-5.93,26.57-14.59Z"/>
                  <path class="cls-15" d="m253.7,234.07c2.08-3.71,4.58-6.38,8.26-8.82-1.22-5.12-4.92-13.06-6.8-16.91-8.91,6.91-16.81,15.7-15.16,26.83,4.42-.79,9.13-1.09,13.7-1.1Z"/>
                  <path class="cls-15" d="m300.63,248.21c-2.33-.96-9.01-3.58-16.32-5.37-5.54,8.29-13.43,13.55-28.89,14.67-.34.33-.68.67-1.03.99,19.39,9.13,32.28,6.83,46.25-10.3Z"/>
                </g>
                <g>
                  <path class="cls-15" d="m233.1,267.2c11.47-1.52,18.34-8.12,18.61-8.3l.02.02c6.24-5.34,12.03-12.9,17.22-22.48,0,0,0,0,0-.01-29.96-3.83-50.81,1.47-56.9,28.84,6.71,1.59,12.82,3.02,21.04,1.93Z"/>
                  <path class="cls-15" d="m210.98,263.5c3.73-13.71,11.77-23.18,22.76-26.79.04-8.42-1.42-16.68-1.93-19.32-3.74,1.43-18.95,7.79-23.15,18.32-3.82,9.59.41,22.75,2.32,27.78Z"/>
                  <path class="cls-15" d="m267.64,270.62c-2.11-1.57-8.43-6.14-15.71-9.99-10.52,8.58-24.01,10.02-38.41,6.42,17.59,15.46,32.86,18.15,54.12,3.58Z"/>
                </g>
              </g>
            </g>
          </g>
          <g>
            <path class="cls-15" d="m165.64,250.18h-2.27c-2.9,0-5.27,2.37-5.27,5.27v15.6c0,2.9,2.37,5.27,5.27,5.27h2.27c2.9,0,5.27-2.37,5.27-5.27v-15.6c0-2.9-2.37-5.27-5.27-5.27h0Z"/>
            <path class="cls-15" d="m156.85,255.01c0-1.08.33-2.12.95-3.03-.7-.35-1.51-.54-2.34-.54h-1.31c-2.44,0-4.49,1.64-4.49,3.58v16.48c0,1.94,2.06,3.58,4.49,3.58h1.31c.83,0,1.64-.19,2.34-.54-.62-.92-.95-1.96-.95-3.03v-16.48Z"/>
            <path class="cls-15" d="m174.85,251.43h-1.31c-.83,0-1.64.19-2.34.54.62.92.95,1.96.95,3.03v16.48c0,1.08-.33,2.12-.95,3.03.7.35,1.51.54,2.34.54h1.31c2.44,0,4.49-1.64,4.49-3.58v-16.48c0-1.94-2.06-3.58-4.49-3.58Z"/>
          </g>
        </g>
        <g>
          <path class="cls-2" d="m175.84,152.7h-20.33c.04.16,6.67,9.61,0,18.93h20.33c-6.7-9.37-.05-18.75,0-18.93Z"/>
          <path class="cls-8" d="m155.51,152.7s.47.71,1.02,1.85c.1,0,6.42.4,9.46,5.79,2.41,4.28,1.03,9.33.33,11.29h9.52c-6.7-9.37-.05-18.75,0-18.93h-20.33Z"/>
          <path class="cls-14" d="m205.47,111.64c5.52-6.21,12.21-10.23,18.42-13.41,1.93-.99,3.13-2.92,3.13-5.04v-31.71c0-2.04-2.98-1.09-4.76-1.31-2.25,0-.94,3.37-1.31,8.94,0,4.09-3.33,7.42-7.42,7.42h-7.97v-6.62h7.97c1.43,0,.53-1.94.8-8.43,0-4.37,3.56-7.93,7.93-7.93h3.45c4.37,0,7.93,3.56,7.93,7.93v31.71c0,14.34-15.82,12.91-29.02,31.59-1.04,1.47-5.04,5.16-5.04,5.16,3.32-5.39,5.41-11.62,5.88-18.3Z"/>
          <path class="cls-2" d="m125.88,111.64c-5.52-6.21-12.21-10.23-18.42-13.41-1.93-.99-3.13-2.92-3.13-5.04v-31.71c0-2.04,2.98-1.09,4.76-1.31,2.25,0,.94,3.37,1.31,8.94,0,4.09,3.33,7.42,7.42,7.42h7.97v-6.62h-7.97c-1.43,0-.53-1.94-.8-8.43,0-4.37-3.56-7.93-7.93-7.93h-3.45c-4.37,0-7.93,3.56-7.93,7.93v31.71c0,14.34,15.82,12.91,29.02,31.59,1.04,1.47,5.04,5.16,5.04,5.16-3.32-5.39-5.41-11.62-5.88-18.3Z"/>
          <path class="cls-16" d="m187.1,45.09h-42.84l-10.89,10.2h64.62l-10.89-10.2Z"/>
          <path class="cls-13" d="m203.22,55.29h-75.1c-3.58,0-6.48,2.9-6.48,6.48h88.06c0-3.58-2.9-6.48-6.48-6.48Z"/>
          <path class="cls-21" d="m121.65,61.77v1.65c0,2.06,1.67,3.72,3.72,3.72h80.61c2.06,0,3.72-1.67,3.72-3.72v-1.65h-88.06Z"/>
          <g>
            <path class="cls-20" d="m205.47,111.64c-.47,6.68-2.56,12.91-5.88,18.3,0,0,4-3.69,5.04-5.16.46-.65.92-1.27,1.38-1.87,1.55-4.49,2.35-9.25,2.35-14.13v-.11c-.99.93-1.96,1.92-2.89,2.96Z"/>
            <rect class="cls-20" x="205.57" y="69.91" width="2.79" height="6.62"/>
          </g>
          <g>
            <path class="cls-7" d="m125.88,111.64c-.93-1.05-1.9-2.03-2.89-2.96v.11c0,4.88.8,9.63,2.35,14.13.46.6.92,1.22,1.38,1.86,1.04,1.47,5.04,5.16,5.04,5.16-3.32-5.39-5.41-11.62-5.88-18.3Z"/>
            <rect class="cls-7" x="122.99" y="69.91" width="2.79" height="6.62"/>
          </g>
          <path class="cls-13" d="m125.78,67.15v41.63c0,18.26,12.12,33.69,28.76,38.69h22.27c16.64-4.99,28.76-20.43,28.76-38.69v-41.63h-79.79Z"/>
          <path class="cls-4" d="m148.15,144.93h0c11.51-9.71,19.02-25.76,19.02-43.9,0-12.85-3.77-24.64-10.05-33.88h-31.34v41.63c0,15.83,9.11,29.54,22.37,36.16Z"/>
          <path class="cls-21" d="m154.54,147.47v5.24h22.27v-5.24h-22.27Z"/>
          <path class="cls-19" d="m154.54,149.14h22.27v-1.67h-22.27v1.67Z"/>
          <path class="cls-21" d="m176.8,171.64h-22.26c-2.05,0-3.72,1.67-3.72,3.72v.6h29.7v-.6c0-2.06-1.67-3.72-3.72-3.72Z"/>
          <path class="cls-15" d="m146.6,175.95v39.88h38.16v-39.88h-38.16Z"/>
          <path class="cls-5" d="m146.6,213.09c1.1.19,2.22.3,3.36.3,12.86,0,23.28-12.79,23.28-28.58,0-3.09-.4-6.07-1.14-8.85h-25.5v37.13Z"/>
          <path class="cls-17" d="m188.92,215.84h-46.49c-1.52,0-2.75,1.23-2.75,2.75v.74h51.99v-.74c0-1.52-1.23-2.75-2.75-2.75Z"/>
          <path class="cls-18" d="m134.42,219.33v23.4h62.51v-23.4h-62.51Z"/>
          <path class="cls-3" d="m134.42,219.33v22.81c1.12.07,2.26.1,3.41.1,19.43,0,35.63-9.85,39.25-22.91h-42.66Z"/>
          <path class="cls-13" d="m199.16,242.73h-66.96c-1.57,1.57-2.45,2.45-4.02,4.02v1.18h75v-1.18c-1.57-1.57-2.45-2.45-4.02-4.02Z"/>
          <path class="cls-2" d="m170.1,37.65c-.12,0-9.04,0-8.84,0-2.77,0-5.01,2.24-5.01,5.01v2.44h18.86v-2.44c0-2.77-2.24-5.01-5.01-5.01Z"/>
          <path class="cls-1" d="m167.17,40.67c0-1.2-3.34-2.22-7.98-2.58-1.74.78-2.95,2.54-2.95,4.57v.73c6.1-.09,10.93-1.27,10.93-2.71Z"/>
          <path class="cls-21" d="m161.21,33.4v4.25h8.93v-4.25h-8.93Z"/>
          <path class="cls-19" d="m161.21,35.31c1.43.35,2.93.54,4.47.54s3.04-.19,4.47-.54v-1.91h-8.93v1.91Z"/>
          <circle class="cls-21" cx="165.67" cy="17.09" r="17.09" transform="translate(-.41 4.6) rotate(-1.59)"/>
          <path class="cls-2" d="m182.29,17.09c0,1.72-1.52,3.19-2.03,4.74-.52,1.61-.17,3.69-1.15,5.03-.99,1.36-3.07,1.66-4.43,2.64-1.34.98-2.27,2.87-3.88,3.4-1.56.51-3.41-.47-5.14-.47s-3.58.97-5.14.47c-1.61-.52-2.54-2.42-3.88-3.4-1.36-.99-3.44-1.29-4.43-2.64-.98-1.34-.63-3.42-1.15-5.03-.5-1.56-2.03-3.02-2.03-4.74s1.52-3.19,2.03-4.74c.52-1.61.17-3.69,1.15-5.03.99-1.36,3.07-1.66,4.43-2.64,1.34-.98,2.27-2.87,3.88-3.4,1.56-.51,3.41.47,5.14.47s3.58-.97,5.14-.47c1.61.52,2.54,2.42,3.88,3.4,1.36.99,3.44,1.29,4.43,2.64.98,1.34.62,3.42,1.15,5.03.5,1.56,2.03,3.02,2.03,4.74Z"/>
          <path class="cls-13" d="m169.82,31.84c-.52,0-1.13-.13-1.77-.27-.76-.17-1.55-.34-2.37-.34s-1.61.17-2.37.34c-.64.14-1.25.27-1.77.27-.24,0-.44-.03-.62-.09-.66-.22-1.26-.89-1.89-1.61-.5-.57-1.02-1.15-1.65-1.62-.64-.47-1.37-.78-2.07-1.09-.87-.38-1.69-.74-2.1-1.29-.4-.54-.48-1.43-.58-2.37-.07-.76-.15-1.55-.4-2.32-.24-.73-.63-1.4-1.01-2.04-.49-.83-.95-1.61-.95-2.33s.46-1.5.95-2.33c.38-.64.77-1.31,1.01-2.04.25-.76.33-1.55.4-2.32.09-.94.18-1.83.58-2.37.4-.55,1.23-.91,2.1-1.29.7-.3,1.42-.62,2.07-1.09.63-.46,1.15-1.05,1.65-1.62.63-.72,1.23-1.39,1.89-1.61.18-.06.38-.09.62-.09.52,0,1.13.13,1.77.27.76.17,1.55.34,2.37.34s1.61-.17,2.37-.34c.64-.14,1.25-.27,1.77-.27.24,0,.44.03.62.09.66.22,1.26.89,1.89,1.61.5.57,1.02,1.15,1.65,1.62.64.47,1.37.78,2.07,1.09.87.38,1.69.74,2.1,1.29.4.54.48,1.43.58,2.37.08.76.15,1.55.4,2.32.24.73.63,1.4,1.01,2.04.49.83.95,1.61.95,2.33s-.46,1.5-.95,2.33c-.38.64-.77,1.31-1.01,2.04-.25.76-.33,1.55-.4,2.32-.09.94-.18,1.83-.58,2.37-.4.55-1.23.91-2.1,1.29-.7.3-1.42.62-2.07,1.09-.63.46-1.15,1.05-1.65,1.62-.63.72-1.23,1.39-1.89,1.61-.18.06-.38.09-.62.09Z"/>
          <circle class="cls-2" cx="165.67" cy="17.09" r="12.11"/>
          <circle class="cls-21" cx="165.67" cy="17.09" r="11.5" transform="translate(36.44 122.15) rotate(-45)"/>
          <circle class="cls-17" cx="165.67" cy="17.09" r="10.43"/>
          <g>
            <path class="cls-15" d="m169.9,26.62l-12.55-15.82c-.42.56-.79,1.16-1.1,1.8l11.64,14.68c.7-.15,1.37-.37,2-.66Z"/>
            <path class="cls-15" d="m163.99,27.38l-8.72-11c-.02.23-.02.47-.02.7,0,.31.01.61.04.91l7.14,9c.51.17,1.03.29,1.56.38Z"/>
            <path class="cls-15" d="m173.63,23.83l-12.71-16.03c-.3.15-.59.32-.87.5l12.89,16.26c.24-.23.47-.48.68-.73Z"/>
            <path class="cls-15" d="m175.79,19.64l-10.3-12.98c-.6.01-1.18.07-1.75.18l11.47,14.47c.24-.53.43-1.09.57-1.66Z"/>
          </g>
          <path class="cls-4" d="m131.76,74.22c-1.15,38.41,2.4,44.86,2.39,44.81.17.43-.04.92-.47,1.09-.44.17-.94-.05-1.1-.5-3.02-8.57-1.43-36.33-.83-45.4Z"/>
        </g>
        <polygon class="cls-10" points="171.39 25.09 165.61 22.68 159.81 25.04 160.31 18.79 156.28 14 162.37 12.55 165.68 7.23 168.94 12.58 175.02 14.09 170.95 18.84 171.39 25.09"/>
        <g class="cls-6">
          <polygon class="cls-9" points="165.61 22.68 165.84 22.78 158.42 13.49 157.27 13.76 164.69 23.05 165.61 22.68"/>
          <polygon class="cls-9" points="171.04 20.19 163.49 10.74 162.89 11.7 171.18 22.07 171.04 20.19"/>
          <polygon class="cls-9" points="171.88 17.76 164.71 8.79 164.11 9.75 171.17 18.58 171.88 17.76"/>
          <polygon class="cls-9" points="171.39 25.09 171.27 23.45 162.45 12.41 162.37 12.55 159.86 13.15 168.4 23.84 171.39 25.09"/>
        </g>
      </g>
    </g>
  </g>
</svg>