<?xml version="1.0" encoding="UTF-8"?>
<svg xmlns="http://www.w3.org/2000/svg" width="102.04" height="88.16" viewBox="0 0 102.04 88.16">
  <defs>
    <style>
      .cls-1 {
        fill: #e6e6e6;
      }

      .cls-2 {
        fill: #ffb0ac;
      }

      .cls-3 {
        fill: #fff;
      }

      .cls-4 {
        fill: #f18f3d;
      }

      .cls-5 {
        fill: #fdecd3;
      }

      .cls-6, .cls-7, .cls-8 {
        fill: #6c3506;
      }

      .cls-9 {
        fill: #814b1b;
      }

      .cls-10 {
        fill: #3a4967;
      }

      .cls-7, .cls-11, .cls-8 {
        mix-blend-mode: multiply;
      }

      .cls-8 {
        opacity: .5;
      }

      .cls-12 {
        isolation: isolate;
      }
    </style>
  </defs>
  <g class="cls-12">
    <g id="Layer_1" data-name="Layer 1">
      <g>
        <ellipse class="cls-1" cx="51.29" cy="83.32" rx="32.54" ry="4.84"/>
        <g>
          <path class="cls-9" d="M77.07,67.85c-.81,2.5-2.15,4.83-3.95,6.71-.85,.88-2.12,2.2-3.49,2.78-.84,.37-1.71,.47-2.54,.03-.51-.27-.94-.71-1.12-1.41-.48-1.87,.23-3.76,1.41-5.22,.18-.22,.36-.44,.55-.66l.31-.34c.32-.32,.65-.62,.99-.89,1.11-.9,2.17-1.85,3.18-2.86,1.88-1.86,3.55-3.92,4.94-6.18l.32-.51c.16,.24,.16,.73,.19,1.03,.28,2.52,0,5.1-.8,7.52Z"/>
          <path class="cls-8" d="M77.07,67.85c-.81,2.5-2.15,4.83-3.95,6.71-.85,.88-2.12,2.2-3.49,2.78-.37-.86-.55-1.67-.55-1.67l-.83-5.93c.32-.32,.65-.62,.99-.89,1.11-.9,2.17-1.85,3.18-2.86,.35,2.02,.75,4.23,.89,4.17,.26-.1,2.31-2.75,3.29-5.94,0,0,.56,1.27,.48,3.63Z"/>
          <path class="cls-6" d="M95.93,57.48c-.86,.42-1.77,.68-2.72,.82-1.57,.24-3.22,.12-4.77-.26-6.65-1.64-12.7-7.11-17.11-12.13-4.2-4.79-7.45-10.42-9.5-16.45-1.36-3.99-2.16-8.77-1.44-13.11,.29-1.73,.8-3.39,1.64-4.9,.92-1.67,2.21-3.15,3.95-4.34,3.19-2.18,7.41-2.53,11.11-1.42,6.43,1.92,10.65,7.39,13.71,13.05,2.84,5.23,5.56,10.59,8.13,15.97,3.36,7.01,5.92,18.44-3.01,22.77Z"/>
          <path class="cls-7" d="M93.21,58.31c-1.57,.24-3.22,.12-4.77-.26-6.65-1.64-12.7-7.11-17.11-12.13-4.2-4.79-7.45-10.42-9.5-16.45-1.36-3.99-2.16-8.77-1.44-13.11,.29-1.73,.8-3.39,1.64-4.9,.47-.2,.95-.36,1.44-.5,10.72-2.99,23.41,8.93,28.34,26.61,2.06,7.39,2.44,14.61,1.39,20.74Z"/>
          <path class="cls-6" d="M6.11,57.48c.86,.42,1.77,.68,2.72,.82,1.57,.24,3.22,.12,4.77-.26,6.65-1.64,12.7-7.11,17.11-12.13,4.2-4.79,7.45-10.42,9.5-16.45,1.36-3.99,2.16-8.77,1.44-13.11-.29-1.73-.8-3.39-1.64-4.9-.92-1.67-2.21-3.15-3.95-4.34-3.19-2.18-7.41-2.53-11.11-1.42-6.43,1.92-10.65,7.39-13.71,13.05-2.84,5.23-5.56,10.59-8.13,15.97-3.36,7.01-5.92,18.44,3.01,22.77Z"/>
          <path class="cls-7" d="M8.83,58.31c1.57,.24,3.22,.12,4.77-.26,6.65-1.64,12.7-7.11,17.11-12.13,4.2-4.79,7.45-10.42,9.5-16.45,1.36-3.99,2.16-8.77,1.44-13.11-.29-1.73-.8-3.39-1.64-4.9-.47-.2-.95-.36-1.44-.5-10.72-2.99-23.41,8.93-28.34,26.61-2.06,7.39-2.44,14.61-1.39,20.74Z"/>
          <path class="cls-6" d="M78.48,79.98c-1.66,3.1-4.34,4.9-6,4.01-.04-.03-.08-.05-.11-.08,0,.02-.02,.03-.03,.06-3.29-.74-6.81-1.32-10.49-1.7-3.46-.35-7.09-.55-10.8-.55-3.17,0-6.28,.14-9.27,.42-3.94,.35-7.71,.92-11.23,1.68-.09,.07-.18,.13-.28,.18-1.66,.88-4.34-.92-6-4.01-1.66-3.1-1.66-6.34,0-7.22,1.25-.67,3.1,.19,4.64,2,.13-.86,.32-1.7,.57-2.52,.03-.14,.08-.29,.12-.42,.48-1.5,1.13-2.91,1.95-4.25,1.44-2.34,3.35-4.39,5.62-6.05,3.81-2.78,8.64-4.44,13.89-4.44s9.75,1.55,13.49,4.16c4.81,3.33,8.1,8.41,8.76,14.22,1.63-2.27,3.78-3.46,5.19-2.71,1.65,.88,1.65,4.12,0,7.22Z"/>
          <path class="cls-4" d="M62.62,77.57c0,1.66-.27,3.25-.77,4.7-3.46-.35-7.09-.55-10.8-.55-3.17,0-6.28,.14-9.27,.42-.47-1.42-.73-2.96-.73-4.57,0-1.41,.2-2.76,.55-4.02,.09-.31,.19-.62,.3-.93,.37,.16,.77,.24,1.18,.26,.99,.04,1.95-.29,2.68-.96,.74-.67,1.17-1.59,1.22-2.59,.04-.93-.25-1.82-.83-2.53,.27-.2,.54-.37,.82-.54,1.46-.87,3.1-1.36,4.85-1.36,1.84,0,3.57,.54,5.09,1.5,.28,.17,.54,.36,.8,.56-.49,.67-.74,1.5-.7,2.36,.04,.99,.48,1.91,1.21,2.59,.74,.67,1.68,1,2.68,.96,.31-.02,.61-.07,.89-.16,.1,.3,.2,.61,.29,.93,.35,1.23,.53,2.55,.53,3.92Z"/>
          <path class="cls-8" d="M64.54,61.25c-3.11,2.53-8.16,4.18-13.86,4.18s-10.38-1.52-13.52-3.9c3.81-2.78,8.64-4.44,13.89-4.44s9.75,1.55,13.49,4.16Z"/>
          <path class="cls-6" d="M83.01,38.37c-1.21-2.9-1.86-6-1.83-9.15,0-.05,0-.1,0-.14h0c0-15.99-13.09-29.08-29.08-29.08h-2.37c-15.99,0-29.08,13.09-29.08,29.08h0c0,.26,0,.52,.01,.77,.07,1.93-.39,3.85-1.41,5.49-1.81,2.91-2.81,5.92-2.81,8.76,0,11.04,15.18,18.29,33.91,18.29s33.91-7.25,33.91-18.29c0-1.86-.43-3.79-1.24-5.73Z"/>
          <path class="cls-5" d="M78.66,37.41c-1.05-2.52-1.61-5.2-1.59-7.93,0-.04,0-.08,0-.13h0c0-13.86-11.34-25.2-25.2-25.2h-2.06c-13.86,0-25.2,11.34-25.2,25.2h0c0,.22,0,.45,.01,.67,.06,1.68-.34,3.33-1.22,4.76-1.57,2.52-2.44,5.13-2.44,7.59,0,9.57,13.16,15.85,29.39,15.85s29.39-6.28,29.39-15.85c0-1.61-.38-3.29-1.08-4.96Z"/>
          <g class="cls-11">
            <path class="cls-5" d="M38.94,2.17c-7.07,5.22-11.89,15.33-11.89,26.88,0,.27,0,.54,0,.81,.05,2.04-.31,4.06-1.11,5.79-1.42,3.06-2.21,6.24-2.21,9.23,0,6.78,4.05,12.2,10.34,15.55-10.53-2.9-17.65-8.67-17.65-16.24,0-2.84,1-5.85,2.81-8.76,1.02-1.64,1.49-3.55,1.42-5.49-.02-.25-.02-.51-.02-.77,0-12.19,7.6-22.69,18.29-26.99Z"/>
            <path class="cls-5" d="M84.25,44.18c0,7.57-7.13,13.34-17.64,16.24,6.3-3.35,10.34-8.77,10.34-15.55,0-1.96-.34-4-.98-6.04-.95-3.06-1.45-6.32-1.44-9.64v-.15c0-8.43-2.57-16.09-6.7-21.64-1.61-2.16-3.45-4-5.47-5.44,3.88,1.47,7.39,3.76,10.27,6.66,5.28,5.27,8.54,12.54,8.54,20.53v.15c-.03,3.15,.61,6.24,1.83,9.14,.8,1.94,1.24,3.87,1.24,5.73Z"/>
          </g>
          <g>
            <path class="cls-9" d="M47.96,69.38c-.06,1.26-.61,2.41-1.53,3.26-.87,.79-1.98,1.22-3.16,1.22-.08,0-.16,0-.23,0-.5-.03-.99-.12-1.44-.3-.69-.25-1.31-.67-1.82-1.23l-2.76-3.03c-.18-.2-.16-.51,.03-.68,.2-.18,.5-.17,.68,.03l2.76,3.04c.39,.43,.86,.75,1.4,.95,.37,.16,.77,.24,1.18,.26,.99,.04,1.95-.29,2.68-.96,.74-.67,1.17-1.59,1.22-2.59,.04-.93-.25-1.82-.83-2.53-.04-.06-.09-.11-.14-.16l-2.46-2.72c-.18-.2-.17-.51,.03-.68,.2-.18,.51-.17,.69,.03l2.46,2.72c.09,.1,.16,.18,.24,.29,.68,.88,1.03,1.97,.98,3.1Z"/>
            <path class="cls-9" d="M66.98,69.29l-2.76,3.03c-.58,.64-1.31,1.1-2.13,1.33-.35,.11-.74,.18-1.12,.2-.08,0-.16,0-.23,0-1.18,0-2.28-.43-3.16-1.22-.93-.85-1.47-2-1.53-3.26-.05-1.07,.26-2.11,.87-2.97,.1-.15,.22-.29,.35-.42l2.46-2.72c.18-.2,.49-.21,.69-.03,.2,.17,.21,.48,.03,.68l-2.47,2.72c-.1,.1-.18,.22-.26,.33-.49,.67-.74,1.5-.7,2.36,.04,.99,.48,1.91,1.21,2.59,.74,.67,1.68,1,2.68,.96,.31-.02,.61-.07,.89-.16,.65-.18,1.24-.54,1.7-1.06l2.76-3.04c.18-.2,.49-.21,.68-.03,.2,.17,.22,.48,.03,.68Z"/>
          </g>
          <g>
            <path class="cls-10" d="M69.2,30.3c0,1.89-1.53,3.43-3.43,3.43s-3.43-1.53-3.43-3.43,1.53-3.43,3.43-3.43,3.43,1.53,3.43,3.43Z"/>
            <path class="cls-3" d="M66.26,29.26c-.28,.66-1.03,.96-1.69,.69-.66-.28-.96-1.03-.69-1.69,.28-.66,1.03-.96,1.69-.69,.66,.28,.96,1.03,.69,1.69Z"/>
          </g>
          <g>
            <path class="cls-10" d="M40.78,29.95c0,1.89-1.53,3.43-3.43,3.43s-3.43-1.53-3.43-3.43,1.53-3.43,3.43-3.43,3.43,1.53,3.43,3.43Z"/>
            <path class="cls-3" d="M39.27,28.78c-.28,.66-1.03,.96-1.69,.69-.66-.28-.96-1.03-.69-1.69,.28-.66,1.03-.96,1.69-.69,.66,.28,.96,1.03,.69,1.69Z"/>
          </g>
          <g>
            <path class="cls-2" d="M34.95,39.15c0,1.89-1.53,3.43-3.43,3.43s-3.43-1.53-3.43-3.43,1.53-3.43,3.43-3.43,3.43,1.53,3.43,3.43Z"/>
            <path class="cls-3" d="M30.87,36.29c0,.76-.62,1.38-1.38,1.38s-1.38-.62-1.38-1.38,.62-1.38,1.38-1.38,1.38,.62,1.38,1.38Z"/>
          </g>
          <g>
            <path class="cls-2" d="M67.8,39.15c0,1.89,1.53,3.43,3.43,3.43s3.43-1.53,3.43-3.43-1.53-3.43-3.43-3.43-3.43,1.53-3.43,3.43Z"/>
            <path class="cls-3" d="M71.89,36.29c0,.76,.62,1.38,1.38,1.38s1.38-.62,1.38-1.38-.62-1.38-1.38-1.38-1.38,.62-1.38,1.38Z"/>
          </g>
          <g>
            <path class="cls-10" d="M61.19,42.51c0,3.02-1.36,5.72-3.49,7.52-1.72,1.44-3.92,2.3-6.32,2.3-4.6,0-8.46-3.16-9.52-7.44-.19-.77-.29-1.56-.29-2.39,0-5.42,4.66-4.28,10.08-4.28s9.54-1.13,9.54,4.28Z"/>
            <path class="cls-4" d="M57.69,50.03c-1.72,1.44-3.92,2.3-6.32,2.3-4.6,0-8.46-3.16-9.52-7.44,1.7-1.44,3.91-2.3,6.32-2.3,4.6,0,8.46,3.16,9.52,7.44Z"/>
          </g>
          <path class="cls-10" d="M56.05,33.05c0,1.03-1.92,1.86-4.29,1.86s-4.29-.83-4.29-1.86,1.92-1.86,4.29-1.86,4.29,.83,4.29,1.86Z"/>
          <g>
            <path class="cls-8" d="M73.3,75.46l-1.99,4.66s1.27-6-.91-12.84c0,0,2.36,3.26,2.91,8.17Z"/>
            <path class="cls-8" d="M30.94,79.31l-1.99-4.64c.13-.85,.31-1.66,.52-2.43,.03-.14,.08-.29,.12-.42,.48-1.5,1.13-2.91,1.95-4.25-1.66,6.12-.67,11.32-.6,11.74Z"/>
          </g>
          <path class="cls-2" d="M74.82,77.88c-1.03,2.26-1.27,4.36-.55,4.69s2.14-1.24,3.17-3.5c1.03-2.26,1.27-4.36,.55-4.69-.72-.33-2.14,1.24-3.17,3.5Z"/>
          <path class="cls-2" d="M27.99,77.88c1.03,2.26,1.27,4.36,.55,4.69s-2.14-1.24-3.17-3.5c-1.03-2.26-1.27-4.36-.55-4.69,.72-.33,2.14,1.24,3.17,3.5Z"/>
        </g>
      </g>
    </g>
  </g>
</svg>