<?xml version="1.0" encoding="UTF-8"?>
<svg xmlns="http://www.w3.org/2000/svg" width="87.04" height="99.42" viewBox="0 0 87.04 99.42">
  <defs>
    <style>
      .cls-1 {
        fill: #e6e6e6;
      }

      .cls-2 {
        fill: #ffb0ac;
      }

      .cls-3 {
        fill: #fff;
      }

      .cls-4 {
        fill: #f18f3d;
      }

      .cls-5 {
        fill: #fdecd3;
      }

      .cls-6 {
        fill: #814b1b;
      }

      .cls-7 {
        fill: #3a4967;
      }

      .cls-8, .cls-9, .cls-10 {
        mix-blend-mode: multiply;
      }

      .cls-9 {
        fill: #6c3506;
      }

      .cls-9, .cls-10 {
        opacity: .5;
      }

      .cls-11 {
        isolation: isolate;
      }
    </style>
  </defs>
  <g class="cls-11">
    <g id="Layer_1" data-name="Layer 1">
      <g>
        <ellipse class="cls-1" cx="44.81" cy="94.58" rx="32.54" ry="4.84"/>
        <g>
          <path class="cls-6" d="m84.25,39.78c-.41-1.05-1.48-3.79-1.87-3.91,1.83.58,3,2.12,4.65,2.88-.13-.06-1.03-3.08-1.15-3.34-.69-1.54-1.41-3.06-2.17-4.56-1.35-2.66-2.74-5.38-4.41-7.87-.57-.85-2.64-4.35-3.85-4.19,1.69-.21,3.31.72,4.98.57-2.47-2.71-5.61-5.35-8.61-7.51-2.88-2.07-6.28-2.94-9.28-4.63.9-.84,2.17-1.48,3.52-1.34-2.93-1.39-5.94-1.94-9.16-2.35-2.9-.37-6.9-.85-9.76-.13.59-1.32,2.03-2.05,2.68-3.35-2.31-.3-4.3,1.02-6.34,1.8-2.04-.78-4.03-2.1-6.34-1.8.65,1.3,2.09,2.03,2.68,3.35-2.86-.72-6.86-.24-9.76.13-3.21.41-6.23.96-9.16,2.35,1.34-.14,2.61.5,3.52,1.34-.55-.52-8.44,4.13-9.33,4.72-3.17,2.1-6.04,4.62-8.51,7.47,1.62-.26,3.25-.48,4.89-.67-2.19,2.99-4.8,5.7-6.67,8.91-1.86,3.2-4.26,7.22-4.81,10.89,1.55-.16,2.98-2.1,4.57-2.65-1.03.35-2.23,4.92-2.5,5.8-.9,2.93-1.29,5.98-1.22,9.04.02,1.09,0,2.22.13,3.29.42-.44.79-1.09,1.33-1.44.33,2.32.41,4.51,1.09,6.87.7,2.44,1.4,4.83,2.32,7.17.74-.63,1.12-1.63,2.17-1.79.09,2.17-.03,4.21.57,6.34.62,2.19,1.61,4.29,2.16,6.5.78-.69,1.09-1.96,2-2.37.34,2.38,1.58,6.48,3.16,8.35.47-.84.53-2.46,1.46-2.86.67,1.52,1.22,3.14,1.79,4.74.7,1.95,1.9,3.48,3.07,5.2.31-.75.4-1.57.94-2.2,1.46,1.1,1.95,3.76,3.99,4.54,1.37.52,3.3-.58,4.73-.77,3.92-.52,7.79.27,11.72.13,3.93.14,7.8-.65,11.72-.13,1.43.19,3.36,1.29,4.73.77,2.05-.78,2.54-3.44,3.99-4.54.54.62.62,1.45.94,2.2,1.17-1.72,2.37-3.25,3.07-5.2.57-1.59,1.13-3.22,1.79-4.74.93.4.99,2.03,1.46,2.86-.05-.09,1.57-2.76,1.74-3.18.67-1.67,1.14-3.43,1.47-5.19.74.7,1.38,1.5,1.89,2.37.04-1,.52-1.93.92-2.86.3-.68,2.83-9.82,1.87-9.97.96.15,1.54,1.13,2.13,1.77,1.09-2.28,1.76-4.77,2.37-7.2.21-.83,1.67-6.43,1.08-6.82.56.37.92,1.04,1.39,1.46,1-2.96.41-6.35-.29-9.31-.37-1.56-.79-3.15-1.38-4.64-.03-.07-.07-.17-.11-.29Z"/>
          <g class="cls-10">
            <path class="cls-6" d="m79.72,46.57c.6,2.84,1.11,6.09.25,8.93-.4-.39-.71-1.05-1.19-1.39.51.37-.74,5.75-.92,6.55-.53,2.34-1.09,4.72-2.04,6.91-.51-.62-1.01-1.56-1.82-1.7.82.14-1.35,8.9-1.61,9.56-.2.53-.43,1.06-.59,1.62-.1.36-.18.74-.19,1.13-.11-.21-.22-.41-.35-.61-.36-.6-.8-1.15-1.27-1.66-.29,1.68-.68,3.38-1.26,4.97-.14.39-1.49,2.88-1.49,3.04-.41-.8-.45-2.36-1.25-2.74-.47,1.19-.88,2.46-1.28,3.73-.08.27-.18.54-.26.8-.6,1.87-1.64,3.33-2.64,4.99-.26-.68-.32-1.44-.73-2.02-.02-.03-.05-.06-.06-.09-.06.05-.11.1-.17.16-1.45.33-3.38-.63-4.83-.8-4.19-.5-8.34.26-12.55.12-4.2.13-8.35-.62-12.54-.12-1.44.17-3.37,1.13-4.81.81-.05-.06-.1-.12-.17-.17-.03.03-.05.07-.06.1-.41.58-.49,1.34-.74,2.01-1-1.65-2.03-3.11-2.63-4.99-.08-.26-.17-.52-.25-.78-.41-1.28-.81-2.56-1.29-3.76-.8.38-.84,1.94-1.25,2.75-1.35-1.8-2.42-5.73-2.71-8.01-.59.3-.89,1.08-1.3,1.73-.12.2-.26.39-.42.55-.08-.36-.17-.71-.27-1.05-.48-1.74-1.15-3.43-1.58-5.18-.52-2.05-.41-4-.49-6.08-.9.15-1.22,1.11-1.85,1.71-.8-2.25-1.4-4.54-2-6.88-.57-2.26-.65-4.36-.93-6.59-.46.33-.79.96-1.14,1.38-.11-1.02-.09-2.12-.11-3.16-.06-2.93.27-5.86,1.05-8.66.22-.82,1.19-4.95,2.05-5.53-1.32.56-2.53,2.35-3.83,2.51.47-3.53,2.53-7.38,4.12-10.44,1.6-3.09,3.84-5.68,5.72-8.55-1.4.18-2.8.4-4.19.65,2.12-2.73,4.58-5.14,7.29-7.16.76-.57,7.52-5.02,8-4.53-.78-.8-1.86-1.42-3.02-1.29,5.9-4.55,32.33-4.82,38.71,0-1.15-.13-2.24.48-3.01,1.29,2.57,1.62,5.49,2.46,7.96,4.44,2.58,2.08,5.27,4.6,7.39,7.21-1.4.14-2.76-.71-4.17-.56,1.05.07,2.73,3.24,3.19,4.03,1.43,2.39,2.63,5,3.79,7.56.65,1.44,1.27,2.9,1.86,4.38.1.24.88,3.14.99,3.2-1.42-.73-2.43-2.22-3.99-2.76.33.12,1.25,2.75,1.6,3.75.04.12.06.21.09.27.51,1.44.87,2.96,1.18,4.45Z"/>
          </g>
          <path class="cls-5" d="m71.15,91.45c-1.66,3.1-4.34,4.9-6,4.01-.04-.03-.08-.05-.11-.08,0,.02-.02.03-.03.06-3.29-.74-6.81-1.32-10.49-1.7-3.46-.35-7.09-.55-10.8-.55-3.17,0-6.28.14-9.27.42-3.94.35-7.71.92-11.23,1.68-.09.07-.18.13-.28.18-1.66.88-4.34-.92-6-4.01-1.66-3.1-1.66-6.34,0-7.22,1.25-.67,3.1.19,4.64,2,.13-.86.32-1.7.57-2.52.03-.14.08-.29.12-.42.48-1.5,1.13-2.91,1.95-4.25,1.44-2.34,3.35-4.39,5.62-6.05,3.81-2.78,8.64-4.44,13.89-4.44s9.75,1.55,13.49,4.16c4.81,3.33,8.1,8.41,8.76,14.22,1.63-2.27,3.78-3.46,5.19-2.71,1.65.88,1.65,4.12,0,7.22Z"/>
          <path class="cls-9" d="m57.21,72.72c-3.11,2.53-8.16,4.18-13.86,4.18s-10.38-1.52-13.52-3.9c3.81-2.78,8.64-4.44,13.89-4.44s9.75,1.55,13.49,4.16Z"/>
          <path class="cls-5" d="m76.92,55.65c0,.17,0,.34,0,.51,0,.15-.03.29-.03.42,0,.16-.03.34-.05.51-.88,6.74-7.6,11.91-17.23,14.62h-.02c-4.9,1.38-10.55,2.14-16.57,2.14s-11.66-.74-16.54-2.13c-9.64-2.72-16.37-7.89-17.26-14.63-.03-.17-.04-.35-.05-.51,0-.16-.03-.31-.03-.48,0-.16,0-.3,0-.46,0-.17,0-.35,0-.54.1-2.69,1.09-5.54,2.8-8.3,1.02-1.64,1.49-3.55,1.41-5.49v-.3c0-.13,0-.26,0-.39,0-.39,0-.78.03-1.17,0-.29.03-.57.04-.86,0-.12.02-.24.03-.36.03-.33.06-.67.1-.99.04-.37.1-.74.15-1.1.86-5.7,3.4-10.86,7.09-14.97.03,0,.06,0,.1,0,1.37-.17,2.74-.22,4.13-.16.86.03,1.72.1,2.59.2,7.48.91,13.92,5.88,16.75,12.86.09.21.16.38.2.53.35-.64.79-1.39,1.25-2.21,3.62-6.25,10.41-9.84,17.31-9.39,1.73.1,3.46.47,5.15,1.12.21.08.42.16.61.25h0s.03.02.06.03c2.22,3.3,3.78,7.07,4.49,11.11.3,1.67.46,3.38.46,5.13,0,.02,0,.04,0,.07,0,.44,0,.87.03,1.31,0,.09,0,.17.02.26,0,.24.03.48.05.71,0,.05,0,.1.02.15.03.29.06.57.1.86.29,2,.83,3.96,1.62,5.85.72,1.72,1.14,3.44,1.22,5.11,0,.23.02.47.02.7Z"/>
          <g class="cls-8">
            <path class="cls-5" d="m26.76,71.89c-9.85-2.71-16.72-7.94-17.56-14.8-.03-.17-.04-.35-.05-.51,0-.16-.03-.31-.03-.48,0-.16,0-.3,0-.46,0-.17,0-.35,0-.54.12-2.67,1.11-5.49,2.8-8.22,1.02-1.64,1.49-3.55,1.42-5.49,0-.12-.02-.25,0-.38,0-.13,0-.26,0-.39,0-.39,0-.78.03-1.17,0-.29.03-.57.04-.86,0-.12.02-.24.03-.36.03-.33.06-.67.1-.99.04-.37.1-.74.15-1.1.89-5.7,3.46-10.87,7.19-14.98,1.37-.17,2.74-.22,4.13-.16-3.28,5.3-5.26,12.11-5.26,19.51,0,.27,0,.54,0,.81.05,2.04-.31,4.06-1.11,5.79-1.42,3.06-2.21,6.24-2.21,9.23,0,6.68,3.92,12.03,10.05,15.39.1.06.19.11.29.16Z"/>
            <path class="cls-5" d="m76.92,55.65c0,.17,0,.34,0,.51,0,.15-.03.29-.03.42,0,.16-.03.34-.05.51-.84,6.86-7.71,12.09-17.55,14.8.1-.05.21-.11.3-.17h.02c6.11-3.36,10.02-8.72,10.02-15.38,0-1.96-.34-4-.98-6.04-.95-3.06-1.45-6.32-1.44-9.64v-.15c0-6.5-1.53-12.55-4.13-17.52,1.73.1,3.46.47,5.15,1.12.21.08.42.16.61.25h0c2.24,3.3,3.82,7.07,4.55,11.14.3,1.67.46,3.38.46,5.13v.15c0,.42,0,.82.03,1.24,0,.09,0,.17.02.26,0,.23.03.48.05.71,0,.05,0,.1.02.15.02.29.05.58.1.86.27,2.03.82,4.02,1.62,5.92.7,1.7,1.12,3.39,1.22,5.03,0,.23.02.47.02.7Z"/>
          </g>
          <g>
            <path class="cls-6" d="m40.63,80.85c-.06,1.26-.61,2.41-1.53,3.26-.87.79-1.98,1.22-3.16,1.22-.08,0-.16,0-.23,0-.5-.03-.99-.12-1.44-.3-.69-.25-1.31-.67-1.82-1.23l-2.76-3.03c-.18-.2-.16-.51.03-.68.2-.18.5-.17.68.03l2.76,3.04c.39.43.86.75,1.4.95.37.16.77.24,1.18.26.99.04,1.95-.29,2.68-.96.74-.67,1.17-1.59,1.22-2.59.04-.93-.25-1.82-.83-2.53-.04-.06-.09-.11-.14-.16l-2.46-2.72c-.18-.2-.17-.51.03-.68.2-.18.51-.17.69.03l2.46,2.72c.09.1.16.18.24.29.68.88,1.03,1.97.98,3.1Z"/>
            <path class="cls-6" d="m59.65,80.76l-2.76,3.03c-.58.64-1.31,1.1-2.13,1.33-.35.11-.74.18-1.12.2-.08,0-.16,0-.23,0-1.18,0-2.28-.43-3.16-1.22-.93-.85-1.47-2-1.53-3.26-.05-1.07.26-2.11.87-2.97.1-.15.22-.29.35-.42l2.46-2.72c.18-.2.49-.21.69-.03.2.17.21.48.03.68l-2.47,2.72c-.1.1-.18.22-.26.33-.49.67-.74,1.5-.7,2.36.04.99.48,1.91,1.21,2.59.74.67,1.68,1,2.68.96.31-.02.61-.07.89-.16.65-.18,1.24-.54,1.7-1.06l2.76-3.04c.18-.2.49-.21.68-.03.2.17.22.48.03.68Z"/>
          </g>
          <g>
            <path class="cls-7" d="m61.87,41.77c0,1.89-1.53,3.43-3.43,3.43s-3.43-1.53-3.43-3.43,1.53-3.43,3.43-3.43,3.43,1.53,3.43,3.43Z"/>
            <path class="cls-3" d="m58.93,40.73c-.27.66-1.03.96-1.69.69-.66-.28-.96-1.03-.69-1.69.27-.66,1.03-.96,1.69-.69.66.28.96,1.03.69,1.69Z"/>
          </g>
          <g>
            <path class="cls-7" d="m33.45,41.41c0,1.89-1.53,3.43-3.43,3.43s-3.43-1.53-3.43-3.43,1.53-3.43,3.43-3.43,3.43,1.53,3.43,3.43Z"/>
            <path class="cls-3" d="m31.94,40.25c-.28.66-1.03.96-1.69.69-.66-.28-.96-1.03-.69-1.69.28-.66,1.03-.96,1.69-.69.66.28.96,1.03.69,1.69Z"/>
          </g>
          <g>
            <path class="cls-2" d="m27.62,50.61c0,1.89-1.53,3.43-3.43,3.43s-3.43-1.53-3.43-3.43,1.53-3.43,3.43-3.43,3.43,1.53,3.43,3.43Z"/>
            <path class="cls-3" d="m23.54,47.76c0,.76-.62,1.38-1.38,1.38s-1.38-.62-1.38-1.38.62-1.38,1.38-1.38,1.38.62,1.38,1.38Z"/>
          </g>
          <g>
            <path class="cls-2" d="m60.47,50.61c0,1.89,1.53,3.43,3.43,3.43s3.43-1.53,3.43-3.43-1.53-3.43-3.43-3.43-3.43,1.53-3.43,3.43Z"/>
            <path class="cls-3" d="m64.56,47.76c0,.76.62,1.38,1.38,1.38s1.38-.62,1.38-1.38-.62-1.38-1.38-1.38-1.38.62-1.38,1.38Z"/>
          </g>
          <g>
            <path class="cls-7" d="m53.85,53.98c0,3.02-1.36,5.72-3.49,7.52-1.72,1.44-3.92,2.3-6.32,2.3-4.6,0-8.46-3.16-9.52-7.44-.19-.77-.29-1.56-.29-2.39,0-5.42,4.66-4.28,10.08-4.28s9.54-1.13,9.54,4.28Z"/>
            <path class="cls-4" d="m50.36,61.5c-1.72,1.44-3.92,2.3-6.32,2.3-4.6,0-8.46-3.16-9.52-7.44,1.7-1.44,3.91-2.3,6.32-2.3,4.6,0,8.46,3.16,9.52,7.44Z"/>
          </g>
          <path class="cls-7" d="m48.71,44.52c0,1.03-1.92,1.86-4.29,1.86s-4.29-.83-4.29-1.86,1.92-1.86,4.29-1.86,4.29.83,4.29,1.86Z"/>
          <g>
            <path class="cls-9" d="m65.97,86.93l-1.99,4.66s1.27-6-.91-12.84c0,0,2.36,3.26,2.91,8.17Z"/>
            <path class="cls-9" d="m23.61,90.78l-1.99-4.64c.13-.85.31-1.66.52-2.43.03-.14.08-.29.12-.42.48-1.5,1.13-2.91,1.95-4.25-1.66,6.12-.67,11.32-.6,11.74Z"/>
          </g>
          <path class="cls-6" d="m44.52,29.4c-.04-.17-.1-.32-.15-.49-.09.17-.19.31-.28.49h.43Z"/>
        </g>
      </g>
    </g>
  </g>
</svg>