<?xml version="1.0" encoding="UTF-8"?>
<svg xmlns="http://www.w3.org/2000/svg" xmlns:xlink="http://www.w3.org/1999/xlink" viewBox="0 0 37.78 58.1">
  <defs>
    <style>
      .cls-1 {
        fill: url(#_ÂÁ_Ï_ÌÌ_È_ËÂÌÚ_458-4);
      }

      .cls-2 {
        fill: url(#_ÂÁ_Ï_ÌÌ_È_ËÂÌÚ_458-2);
      }

      .cls-3 {
        fill: url(#_ÂÁ_Ï_ÌÌ_È_ËÂÌÚ_458-3);
      }

      .cls-4 {
        fill: #ffb311;
        mix-blend-mode: screen;
      }

      .cls-4, .cls-5, .cls-6 {
        opacity: .5;
      }

      .cls-7, .cls-8 {
        fill: #fff;
      }

      .cls-9 {
        fill: #ffe7db;
      }

      .cls-10 {
        fill: #ffd636;
      }

      .cls-11 {
        fill: #d84c04;
      }

      .cls-12 {
        fill: #ef7a98;
      }

      .cls-12, .cls-13 {
        opacity: .2;
      }

      .cls-12, .cls-13, .cls-14, .cls-15, .cls-5, .cls-6 {
        mix-blend-mode: multiply;
      }

      .cls-13 {
        fill: #ea4c74;
      }

      .cls-14 {
        fill: #d60066;
        opacity: .3;
      }

      .cls-15 {
        fill: #d42f55;
        opacity: .8;
      }

      .cls-5 {
        fill: #ff9274;
      }

      .cls-6 {
        fill: #d42774;
      }

      .cls-8 {
        mix-blend-mode: soft-light;
      }

      .cls-16 {
        isolation: isolate;
      }

      .cls-17 {
        fill: url(#_ÂÁ_Ï_ÌÌ_È_ËÂÌÚ_480);
      }

      .cls-18 {
        fill: url(#_ÂÁ_Ï_ÌÌ_È_ËÂÌÚ_458);
      }
    </style>
    <linearGradient id="_ÂÁ_Ï_ÌÌ_È_ËÂÌÚ_480" data-name="¡ÂÁ˚ÏˇÌÌ˚È „‡‰ËÂÌÚ 480" x1="18.89" y1="58.1" x2="18.89" y2=".05" gradientUnits="userSpaceOnUse">
      <stop offset="0" stop-color="#ffa200"/>
      <stop offset="1" stop-color="#ffb82f"/>
    </linearGradient>
    <linearGradient id="_ÂÁ_Ï_ÌÌ_È_ËÂÌÚ_458" data-name="¡ÂÁ˚ÏˇÌÌ˚È „‡‰ËÂÌÚ 458" x1="15.97" y1="20.24" x2="25.03" y2="20.24" gradientUnits="userSpaceOnUse">
      <stop offset="0" stop-color="#ffde00"/>
      <stop offset="1" stop-color="#ffe834"/>
    </linearGradient>
    <linearGradient id="_ÂÁ_Ï_ÌÌ_È_ËÂÌÚ_458-2" data-name="¡ÂÁ˚ÏˇÌÌ˚È „‡‰ËÂÌÚ 458" x1="26.11" y1="20.98" x2="31.14" y2="20.98" xlink:href="#_ÂÁ_Ï_ÌÌ_È_ËÂÌÚ_458"/>
    <linearGradient id="_ÂÁ_Ï_ÌÌ_È_ËÂÌÚ_458-3" data-name="¡ÂÁ˚ÏˇÌÌ˚È „‡‰ËÂÌÚ 458" x1="32.82" y1="23.04" x2="34.43" y2="23.04" xlink:href="#_ÂÁ_Ï_ÌÌ_È_ËÂÌÚ_458"/>
    <linearGradient id="_ÂÁ_Ï_ÌÌ_È_ËÂÌÚ_458-4" data-name="¡ÂÁ˚ÏˇÌÌ˚È „‡‰ËÂÌÚ 458" x1=".14" y1="1.8" x2="8.05" y2="1.8" xlink:href="#_ÂÁ_Ï_ÌÌ_È_ËÂÌÚ_458"/>
  </defs>
  <g class="cls-16">
    <g id="Layer_2" data-name="Layer 2">
      <g id="Layer_1-2" data-name="Layer 1">
        <g>
          <path class="cls-17" d="m23.86,58.1c-4.56,0-5.9-1.43-5.19-3.21.12-.22.24-.45.36-.68,0,0,0-.02.01-.02.38-.76.74-1.57,1.05-2.44,2.91-8.14-8.11-6.18-11.99-7.05-1.99-.44-3.88-3.01-5.31-5.74,0,0-.01-.02-.02-.02-1.36-2.58-2.3-5.3-2.54-6.5-.17-.84.58-2.09,1.65-3.43,1.81-2.26,4.54-4.75,5.23-5.75.09-.14.15-.25.16-.33.08-.93-1.57-5.25-3.32-6.14C2.44,16.03-.39,8.14.04,3.99c.06-.63.21-1.18.44-1.6C2.23-.8,7.52-.16,8.34.97c.82,1.13.27,8.23,4.22,12.7,0,0,2.29,5.05,3.41,5.56,1.13.51,5.58-.32,7.88,1.3,1.14.81,2.91.19,4.68.11,1.1-.05,2.26.59,3.29,1.11,0,0,0,0,.01,0,.63.32,1.21.6,1.7.65.92.1,1.38,2.24,1.55,5.17,0,.03,0,.08,0,.14.05.88.08,1.82.08,2.81v.12c0,4.97-.53,10.82-1,13.35-.05.25-.06.52-.04.79.08,1.23.8,2.66,1.8,4.16h0c.41.63.87,1.26,1.35,1.89,3,3.82-8.29,7.27-13.43,7.27Z"/>
          <path class="cls-5" d="m2.23,2.13c-1.41,1.07.39,7.37,2.37,8.16,1.97.78,4.07-.29,4.39-2.16s-.45-6.33-1.1-6.78c-.65-.45-4.04-.45-5.66.78Z"/>
          <path class="cls-10" d="m2.44,7.2s.6,1.89,1.98,2.86,4.05.78,4.65-.04c1.08-1.46,0-4.22,0-4.22,0,0,.43,2.29-.56,3.33s-4.23,1.91-6.07-1.94Z"/>
          <path class="cls-14" d="m7.89,30.53s-1.39-.38-1.32-.67c.08-.29-.8-4.14-4.68-.84,2.07-2.59,5.34-5.47,5.39-6.08.63,3.35.61,7.58.61,7.58Z"/>
          <path class="cls-13" d="m12.82,14.25c-2.33-3.52-6.18-1.35-5.66,2.41.52,3.76,3.24,4.79,6.35,4.13,3.11-.66.19-5.19-.69-6.53Z"/>
          <path class="cls-15" d="m20.09,51.76c2.91-8.14-8.11-6.18-11.99-7.05-1.99-.44-3.88-3.01-5.31-5.74,2.01,3.18,3.91,6.06,14.95,5.83,10.36-.21,2.53,8.11,1.3,9.39.38-.76.74-1.57,1.05-2.44Z"/>
          <path class="cls-11" d="m23.86,58.1c-4.56,0-5.9-1.43-5.19-3.21.08-.22.21-.45.36-.68,0,0,0-.02.01-.02,6.23-9.46,15.25-7.17,18.25-3.36,3,3.82-8.29,7.27-13.43,7.27Z"/>
          <path class="cls-12" d="m34.63,30.54v.12c0,4.97-.53,10.82-1,13.35-.05.25-.06.52-.04.79-1.52.8.8-1.06-8.02-.39-8.82.68-13.95-19.28-13.95-19.28.97-2.31,2.09-4.35,5.58-3.71.87.16,3.53.83,7.19.83s5.21.14,7.11,1.13c1.9.99,3,3.2,3.04,4.22.01.25.05,1.37.08,2.94Z"/>
          <path class="cls-18" d="m15.97,19.24s2.56,1.16,4.93,1.73c2.36.57,4.64.1,4.03-.04-.61-.14-2.37-1.23-4.03-1.35-1.67-.12-4.93-.34-4.93-.34Z"/>
          <path class="cls-2" d="m26.16,20.91c-.6.04,3.75.19,4.69.52.95.33-.67-.79-1.75-.94s-2.94.42-2.94.42Z"/>
          <path class="cls-3" d="m32.97,22.29c-.6.04.77.59,1.24,1.31.47.72.1-.8-.29-.99s-.95-.32-.95-.32Z"/>
          <path class="cls-1" d="m.16,3.29C-.04,4.52,1.57,1.79,3.78.84c2.21-.95,4.27-.13,4.27-.13,0,0-.89-.92-3.82-.66C1.29.31.27,2.59.16,3.29Z"/>
          <path class="cls-8" d="m4.6,9.63c-1.4-.43,2.77-3.37,3.91-1.75,1.14,1.62-1.3,2.55-3.91,1.75Z"/>
          <path class="cls-9" d="m1.89,3.08s1.8-1.34,3.5-1.65c1.7-.31,2.92.7,2.92.7,0,0-.09-.82-.42-1.05-.88-.62-5.14.29-5.66.74-.52.45-.34,1.26-.34,1.26Z"/>
          <path class="cls-6" d="m1.86,2.54s-.35,4.04,2.23,6.12c2.48,1.99,4.66.54,4.89-.54.24-1.08-.19-3.97-.19-3.97,0,0,.74,3.34.19,4.5-.55,1.16-3,2.13-4.67,1.07S1.34,5.13,1.86,2.54Z"/>
          <path class="cls-4" d="m7.12,12.46c-.59,1.14,2.13,0,3.31,0,1.19,0,.41-1.73-1.45-1.58s-1.87,1.58-1.87,1.58Z"/>
          <path class="cls-15" d="m7.89,30.53c-.28-.08-1.54-.15-1.32-.67.22-.51.93-.64,1.04-1.32.11-.68.16-3.99-1.53-4.08.09-.14,1.19-1.44,1.19-1.52.08-.93-1.57-5.25-3.32-6.14C2.44,16.03-.39,8.14.04,3.99c.29-.44,1.07,8.71,3.4,11.65,2.32,2.95,3.83,4.11,4.45,6.64.62,2.54.28,8.34,0,8.26Z"/>
          <path class="cls-14" d="m8.1,44.71c-1.97-1.11,2.21-3.73,7.87-3.1,5.65.63,7.29,4.8,5.8,5.51-1.5.71-1.54-.76-5.8-1.74-4.25-.98-7.87-.67-7.87-.67Z"/>
          <path class="cls-15" d="m34.64,34.94c.31-5.8-.75-11.68-2.81-13.17.63.32,1.21.6,1.7.65.92.1,1.38,2.24,1.55,5.17,0,.03,0,.08,0,.14.05.88.08,1.82.08,2.81v.12c0,4.97-.53,10.82-1,13.35-.05.25-.06.52-.04.79.08,1.23.8,2.66,1.8,4.16-.14-.16-2.35-2.72-2.31-3.7.05-1,.7-4.51,1.01-10.31Z"/>
          <path class="cls-4" d="m23.41,49.24c-.86.16.63-3.46,3.87-4.62s7.26,2.53,7.35,3.33c.09.8-3.37-.79-5.9-.42-2.53.37-5.33,1.71-5.33,1.71Z"/>
          <path class="cls-7" d="m25.79,48.31c-1.37.34-.03-1.72,1.87-2.05,1.9-.34,3.05,1.1,2.57,1.24-.48.14-2.65.37-4.44.81Z"/>
          <path class="cls-7" d="m17.7,19.95c-1.17.2,1.93,1.46,3.19,1.48s.42-2.11-3.19-1.48Z"/>
          <path class="cls-7" d="m26.16,20.91c-.86.12.44.82,1.55.52s-.08-.73-1.55-.52Z"/>
          <path class="cls-4" d="m.65,32.07c.36,1.22,4.85-2.18,4.44-3.77-.41-1.59-5.22,1.14-4.44,3.77Z"/>
          <path class="cls-12" d="m18.89,22.95c-.65.06,2.3,8.9,3.4,10.06,1.1,1.15.32-10.43-3.4-10.06Z"/>
          <path class="cls-12" d="m26.11,23.79c-1.01.02,0,7.21.69,7.35.69.14.64-7.38-.69-7.35Z"/>
          <path class="cls-12" d="m31.83,24.66c-.66.15-1.17,4.9,0,5.47,1.17.57.96-5.69,0-5.47Z"/>
          <path class="cls-13" d="m1.04,33.9c-.15-1.59,2.93-2.76,4.43-2.76s4.75,9.22,4.08,10.37c-.67,1.15-2.51,2.36-3.55,1.97-1.04-.39-4.06-6.38-4.95-9.58Z"/>
          <path class="cls-14" d="m19.44,53.77c-1.05,3.46,9.75,3.39,12.43.78,2.68-2.61.59-5.21,3.28-4.77,2.68.45-3.05-3.45-7.89-1.78-4.84,1.67-7.82,5.77-7.82,5.77Z"/>
        </g>
      </g>
    </g>
  </g>
</svg>