<?xml version="1.0" encoding="UTF-8"?>
<svg xmlns="http://www.w3.org/2000/svg" xmlns:xlink="http://www.w3.org/1999/xlink" viewBox="0 0 48.34 61.14">
  <defs>
    <style>
      .cls-1 {
        fill: url(#_ÂÁ_Ï_ÌÌ_È_ËÂÌÚ_375-2);
      }

      .cls-2 {
        fill: url(#_ÂÁ_Ï_ÌÌ_È_ËÂÌÚ_45);
      }

      .cls-3, .cls-4, .cls-5 {
        fill: #fff;
      }

      .cls-6 {
        fill: #ffa457;
      }

      .cls-7 {
        fill: #ff7a00;
      }

      .cls-8 {
        fill: #ff6500;
      }

      .cls-4, .cls-9, .cls-10, .cls-11 {
        opacity: .5;
      }

      .cls-4, .cls-5 {
        mix-blend-mode: soft-light;
      }

      .cls-12 {
        fill: #b10053;
      }

      .cls-12, .cls-13, .cls-14 {
        opacity: .3;
      }

      .cls-12, .cls-13, .cls-14, .cls-9, .cls-10 {
        mix-blend-mode: multiply;
      }

      .cls-13 {
        fill: #912790;
      }

      .cls-14 {
        fill: #d42f55;
      }

      .cls-9 {
        fill: #9a376d;
      }

      .cls-10 {
        fill: #e09590;
      }

      .cls-15 {
        fill: url(#_ÂÁ_Ï_ÌÌ_È_ËÂÌÚ_43);
        mix-blend-mode: screen;
      }

      .cls-11 {
        fill: url(#_ÂÁ_Ï_ÌÌ_È_ËÂÌÚ_11);
      }

      .cls-16 {
        isolation: isolate;
      }

      .cls-17 {
        fill: url(#_ÂÁ_Ï_ÌÌ_È_ËÂÌÚ_375);
      }

      .cls-18 {
        fill: url(#_ÂÁ_Ï_ÌÌ_È_ËÂÌÚ_432);
      }

      .cls-19 {
        fill: url(#_ÂÁ_Ï_ÌÌ_È_ËÂÌÚ_140);
      }

      .cls-20 {
        fill: url(#_ÂÁ_Ï_ÌÌ_È_ËÂÌÚ_178);
      }
    </style>
    <linearGradient id="_ÂÁ_Ï_ÌÌ_È_ËÂÌÚ_375" data-name="¡ÂÁ˚ÏˇÌÌ˚È „‡‰ËÂÌÚ 375" x1="6.63" y1="57.17" x2="41.7" y2="57.17" gradientUnits="userSpaceOnUse">
      <stop offset="0" stop-color="#a71100"/>
      <stop offset=".39" stop-color="#d83303"/>
      <stop offset="1" stop-color="#ec5c11"/>
    </linearGradient>
    <linearGradient id="_ÂÁ_Ï_ÌÌ_È_ËÂÌÚ_432" data-name="¡ÂÁ˚ÏˇÌÌ˚È „‡‰ËÂÌÚ 432" x1="23.57" y1="54.55" x2="23.57" y2="13.53" gradientUnits="userSpaceOnUse">
      <stop offset="0" stop-color="#e8e5ed"/>
      <stop offset=".05" stop-color="#e5dde9"/>
      <stop offset=".28" stop-color="#dabbdc"/>
      <stop offset=".46" stop-color="#d3a6d4"/>
      <stop offset=".59" stop-color="#d19fd1"/>
      <stop offset=".64" stop-color="#be91c3"/>
      <stop offset=".72" stop-color="#a47fb0"/>
      <stop offset=".81" stop-color="#9272a2"/>
      <stop offset=".9" stop-color="#876a9a"/>
      <stop offset="1" stop-color="#846898"/>
    </linearGradient>
    <linearGradient id="_ÂÁ_Ï_ÌÌ_È_ËÂÌÚ_375-2" data-name="¡ÂÁ˚ÏˇÌÌ˚È „‡‰ËÂÌÚ 375" x1=".01" y1="10.56" x2="48.33" y2="10.56" xlink:href="#_ÂÁ_Ï_ÌÌ_È_ËÂÌÚ_375"/>
    <radialGradient id="_ÂÁ_Ï_ÌÌ_È_ËÂÌÚ_11" data-name="¡ÂÁ˚ÏˇÌÌ˚È „‡‰ËÂÌÚ 11" cx="24.15" cy="-2971.85" fx="24.15" fy="-2971.85" r="16.21" gradientTransform="translate(0 4732.27) scale(1 1.58)" gradientUnits="userSpaceOnUse">
      <stop offset="0" stop-color="#e8e5ed"/>
      <stop offset=".14" stop-color="#e2dce3"/>
      <stop offset=".42" stop-color="#dad1d4"/>
      <stop offset=".66" stop-color="#d8cdd0"/>
      <stop offset=".68" stop-color="#d4c5ce"/>
      <stop offset=".75" stop-color="#c7abc8"/>
      <stop offset=".83" stop-color="#be99c5"/>
      <stop offset=".91" stop-color="#b88ec2"/>
      <stop offset="1" stop-color="#b78bc2"/>
    </radialGradient>
    <linearGradient id="_ÂÁ_Ï_ÌÌ_È_ËÂÌÚ_178" data-name="¡ÂÁ˚ÏˇÌÌ˚È „‡‰ËÂÌÚ 178" x1="25.2" y1="41.32" x2="25.2" y2="21.14" gradientUnits="userSpaceOnUse">
      <stop offset="0" stop-color="#ffa900"/>
      <stop offset="1" stop-color="#ff9600"/>
    </linearGradient>
    <linearGradient id="_ÂÁ_Ï_ÌÌ_È_ËÂÌÚ_45" data-name="¡ÂÁ˚ÏˇÌÌ˚È „‡‰ËÂÌÚ 45" x1="12.36" y1="24.07" x2="37.43" y2="24.07" gradientUnits="userSpaceOnUse">
      <stop offset="0" stop-color="#ffb100"/>
      <stop offset="1" stop-color="#ffc500"/>
    </linearGradient>
    <linearGradient id="_ÂÁ_Ï_ÌÌ_È_ËÂÌÚ_140" data-name="¡ÂÁ˚ÏˇÌÌ˚È „‡‰ËÂÌÚ 140" x1="24.03" y1="53.3" x2="24.03" y2="42.41" gradientUnits="userSpaceOnUse">
      <stop offset="0" stop-color="#ff9600"/>
      <stop offset="1" stop-color="#ffa900"/>
    </linearGradient>
    <linearGradient id="_ÂÁ_Ï_ÌÌ_È_ËÂÌÚ_43" data-name="¡ÂÁ˚ÏˇÌÌ˚È „‡‰ËÂÌÚ 43" x1="11.4" y1="23.63" x2="21.68" y2="23.63" gradientUnits="userSpaceOnUse">
      <stop offset=".02" stop-color="#008dfe"/>
      <stop offset="1" stop-color="#000"/>
    </linearGradient>
  </defs>
  <g class="cls-16">
    <g id="Layer_2" data-name="Layer 2">
      <g id="Layer_1-2" data-name="Layer 1">
        <g>
          <path class="cls-17" d="m6.63,53.52s.88,4.02,1.41,4.97c.53.94,9.4,2.65,15.67,2.65s15.97-2.07,16.47-2.51c.49-.44,1.52-5.42,1.52-5.42l-35.07.31Z"/>
          <path class="cls-7" d="m6.81,52.75c2.02-3.41,31.52-3.89,34.72,0,3.1,3.76-38.01,5.56-34.72,0Z"/>
          <path class="cls-12" d="m14.76,60.34s11.21.27,17.35-1.53c6.24-1.83,7.78-3.88,8.68-4.74.91-.86-8.83-4.05-8.83-4.05l-3.28-.65s10.01,3.42,8.56,5.7c-3.18,4.98-25.78,4.63-25.78,4.63l3.3.63Z"/>
          <path class="cls-12" d="m7.57,57.24s7.72,1.61,8.73-.7c1.03-2.36-8.96-4.3-8.96-4.3l.41-.23s12.93,3.61,9.23,5.23c-3.64,1.61-8.44,1.59-8.44,1.59,0,0-.68.37-.97-1.59Z"/>
          <path class="cls-8" d="m20.26,60.28s6.15.09,10.6-.84c4.48-.94,7.79-3.51,7.79-3.51,0,0-5.63,4.26-18.39,4.35Z"/>
          <path class="cls-8" d="m10.91,58.7s3.32-.24,5.32-.91c2.02-.68,1.37-1.48,1.37-1.48,0,0,.24.75-1.33,1.33-1.56.57-5.37,1.06-5.37,1.06Z"/>
          <path class="cls-14" d="m19.14,56.5c-1.44.09-1.28,1.31-4.59,2.36-3.29,1.04,5.61.78,12.14-.17,6.59-.95,8.54-2.15,8.84-2.77.3-.61-7.35.37-10.53.37-3.18,0-5.86.2-5.86.2Z"/>
          <path class="cls-14" d="m28.55,60.61c-.89-.31,8.66-3.08,10.62-4.68,2-1.62,1.44,1.48.34,2.36-1.09.87-10.97,2.31-10.97,2.31Z"/>
          <path class="cls-4" d="m18.27,56.25c-1.23-.02-.74-.69.17-1.26.92-.57,15.23-.51,17.87-.45,2.64.07-6.16,1.9-18.04,1.7Z"/>
          <path class="cls-4" d="m7.59,52.66c-.91-.03-.44,1.78,1.36,2.34,1.79.56,5.58,1.01,6.33.73.75-.28-2.75-2.91-7.69-3.07Z"/>
          <path class="cls-18" d="m37.28,27.06c2.41-2.48,5.8-13.53,5.8-13.53l-19.51,2.46-19.51-2.46s3.44,11.05,5.86,13.53c2.38,2.44,7.03,4.16,8.66,7.57,1.58,3.31-3.86,5.25-5.65,8.94-.56,1.17-.9,2.61-1.1,4.01-.4,2.88-.22,5.61-.22,5.61,0,0,3.3,1.36,12.04,1.36,8.22,0,12.04-1.36,12.04-1.36,0,0,.14-2.21-.14-4.75h0c-.18-1.66-.54-3.46-1.22-4.87-1.79-3.7-7.25-5.64-5.68-8.94,1.61-3.41,6.27-5.13,8.63-7.57Zm-7.58,14.25c2.83,3.32,3.1,9.29,2.43,10.59-.66,1.28-7.99,1.3-7.99,1.3,0,0-7.33-.03-7.98-1.3-.67-1.29-.4-7.27,2.43-10.59,2.91-3.42,3.85-5.07,3.31-8.05-.55-3.05-3.65-3.45-6.9-5.5-3.29-2.08-6.25-11.14-5.24-12.83l14.38,1.44,14.39-1.44c1.01,1.68-1.94,10.75-5.24,12.83-3.25,2.05-6.35,2.45-6.9,5.5-.55,2.98.39,4.63,3.3,8.05Z"/>
          <path class="cls-1" d="m.01,5.2s1.3,5.92,2.05,7.3c.75,1.37,12.91,3.87,21.49,3.87s21.89-3.02,22.57-3.66c.69-.64,2.21-7.98,2.21-7.98L.01,5.2Z"/>
          <path class="cls-7" d="m.24,4.07C2.95-1,43.77-1.7,48.12,4.07,52.29,9.61-4.14,12.26.24,4.07Z"/>
          <path class="cls-11" d="m37.55,21.16c-1.02,2.76-2.58,5.55-4.25,6.6-2.99,1.88-5.84,2.38-6.71,4.82-.08.21-.14.44-.18.69-.55,2.98.39,4.63,3.3,8.05,2.83,3.32,3.1,9.29,2.43,10.59-.66,1.28-7.99,1.3-7.99,1.3,0,0-7.33-.03-7.98-1.3-.67-1.29-.4-7.27,2.43-10.59,2.62-3.07,3.64-4.72,3.43-7.19-.03-.27-.06-.56-.12-.86-.55-3.05-3.65-3.45-6.9-5.5-.75-.47-1.48-1.3-2.14-2.31-.01-.03-.02-.04-.02-.04-2.26-3.46-3.85-9.19-3.07-10.48l14.38,1.44,14.39-1.44c.5.83.02,3.51-.98,6.22Z"/>
          <path class="cls-20" d="m37.55,21.14v.02c-1.03,2.76-2.58,5.55-4.25,6.6-2.99,1.88-5.84,2.38-6.71,4.82-.97,1.48-1.87,8.85-2.43,8.73-.56-.13-1.12-4.8-2.13-7.19-.03-.27-.06-.56-.12-.86-.55-3.05-3.65-3.45-6.9-5.5-.75-.47-1.48-1.3-2.14-2.31-.01-.03-.02-.04-.02-.04l24.71-4.28Z"/>
          <path class="cls-2" d="m12.36,24.64c-.05-3.29,24.4-4.1,25.01-3.56.61.54-3.69,5.6-14.23,6.08-10.5.48-10.78-2.52-10.78-2.52Z"/>
          <path class="cls-19" d="m32.13,51.9c-.57,1.83-13.86,1.89-15.97,0-.23-.2-.95-1.82-.16-2.93,0,0,0-.01,0-.01,2-2.78,7.39-6.46,8.14-6.55.85-.1,6.48,3.7,8.09,6.62,0,.01.02.02.02.04.38.7-.02,2.47-.13,2.83Z"/>
          <path class="cls-13" d="m11.3,28.25c1.11.8,7.24,1.76,9.3,3.39,2.03,1.61,1.56,4.96.09,6.29-1.45,1.32-.99-.47-1.6-3.06-.62-2.65-7.79-6.61-7.79-6.61Z"/>
          <path class="cls-13" d="m37.28,27.06c-1.13,1-8.09,1.57-9.95,4.58-1.81,2.93-.45,4.96.42,5.48.87.52-.07-2.4,2.2-4.66,2.31-2.3,5.45-3.45,7.33-5.4Z"/>
          <path class="cls-3" d="m35.41,27.52c-1.11-.42,1.37-3.28,1.95-4.99.58-1.72.86.08.47,2.52-.39,2.39-2.23,2.54-2.42,2.47Z"/>
          <path class="cls-5" d="m7.97,19.34c-.6.98,1.44,6.45,3.08,7.51,1.62,1.06,1.3-1.1,1-1.9-.31-.81-3.27-6.93-4.07-5.61Z"/>
          <path class="cls-3" d="m15.83,41.54c-.38,1.34,1.84-.64,2.79-2.25.95-1.63-2.26.41-2.79,2.25Z"/>
          <path class="cls-3" d="m31.05,41.1c-.4.05.31,2.94,1.79,3.15,1.48.21.09-3.39-1.79-3.15Z"/>
          <path class="cls-10" d="m13.77,26.06s5.12,4.66,9.02,5.06c3.88.4,9.43-2.57,10.85-3.98,1.43-1.43,2.76-3.93,2.76-3.93,0,0-3.7,2.98-10.6,3.85-6.85.87-12.03-1-12.03-1Z"/>
          <path class="cls-10" d="m32.13,51.9c-.57,1.83-13.86,1.89-15.97,0-.23-.2-.95-1.82-.16-2.93-.03.21-.24,2.86,5.77,3.29,6.24.44,8.48-2.65,10.22-3.19.09-.03.18-.04.25-.04,0,.01.02.02.02.04.38.7-.02,2.47-.13,2.83Z"/>
          <path class="cls-4" d="m24.15,42.41c-1.01-.2-.25,5.05.79,6.56,1.02,1.5,5.27.17,5.8-.56.54-.73-4.65-5.61-6.59-6Z"/>
          <path class="cls-12" d="m4.71,1.85S30.71-.2,38.56,2.69c7.69,2.83-13,5.36-24.51,5.01C2.52,7.34.01,5.2.01,5.2c0,0,14.27,2.38,26.32,1.01C38.5,4.83,2.77,2.44,2.77,2.44l1.95-.59Z"/>
          <path class="cls-12" d="m16.81,15.42s14.16-.6,20.38-3.05c6.34-2.49,8.41-5.92,8.78-7.46.38-1.56-2.04-3.22-2.04-3.22,0,0,3.68,2,2.79,4.48-.88,2.44-11.14,8.49-16.76,9.62-5.58,1.12-13.14-.38-13.14-.38Z"/>
          <path class="cls-8" d="m31.73,15.33s4.51-.97,8-2.75c3.54-1.8,6.54-5.68,6.54-5.68,0,0-2.41,3.71-14.54,8.43Z"/>
          <path class="cls-14" d="m10.92,9.66c-3.65.35-3.94,2.46-3.46,3.87.48,1.4,8.71,1.96,15.29,1.17,6.62-.8,17-3.65,18.11-5.4,1.12-1.77-9.3-.36-15.38,0-6.06.36-14.56.36-14.56.36Z"/>
          <path class="cls-4" d="m11.89,8.65c-1.22-.56,13.37-.4,18.5-1.52,5.17-1.13,11.77-2.35,12.81-1.78,1.04.57,1.01.94.73,1.38-.28.43-20.12,3.85-32.04,1.92Z"/>
          <path class="cls-6" d="m47.34,5.46c-.5-.3-1.3,1.28-1.77,2.27-.47.98,1.85-1.16,2.03-1.66.18-.51-.26-.61-.26-.61Z"/>
          <path class="cls-6" d="m39.83,55c-.14-.5.42-1.66.54-1.58.11.08.99.23.75.67-.24.44-1.29.91-1.29.91Z"/>
          <path class="cls-15" d="m11.9,18.11c-1.84.86,1.69,8.78,6.67,10.77,4.9,1.95,3.01-6.12,1.19-8.56-1.86-2.49-7.85-2.2-7.85-2.2Z"/>
          <path class="cls-3" d="m33.62,17.18c-2.35.78-4.75,5.59-4,6.93.74,1.32,7.23-1.61,7.92-4.95.71-3.43-2.58-2.42-3.92-1.98Z"/>
          <path class="cls-9" d="m4.36,14.47c-.07-.21,13.83,4.53,20.75,4.16,6.94-.37,17.68-4.16,17.68-4.16l.29-.92s-12.78,2.43-20.56,2.68c-7.77.26-18.46-2.68-18.46-2.68l.3.93Z"/>
          <path class="cls-10" d="m26.17,30.81c-2.11-.79,3.2-4.37,6.62-5.24,3.44-.87-.04,2.2-1.45,3.16-1.39.95-5.17,2.08-5.17,2.08Z"/>
          <path class="cls-9" d="m35.7,53.19s-3.82,1.36-12.04,1.36c-8.74,0-12.04-1.36-12.04-1.36,0,0-.18-2.73.22-5.61h0s.12,4.47,1.28,5.62c1.14,1.15,14.66,1.09,18.71.53,4.07-.56,3.74-5.3,3.74-5.3h0c.27,2.55.14,4.76.14,4.76Z"/>
          <path class="cls-3" d="m26.44,40.86c-1.91.27-1,3.75.78,4.62s1.56-2.99,1.26-3.58c-.29-.58-1.43-1.13-2.05-1.04Z"/>
        </g>
      </g>
    </g>
  </g>
</svg>