<?xml version="1.0" encoding="UTF-8"?>
<svg xmlns="http://www.w3.org/2000/svg" xmlns:xlink="http://www.w3.org/1999/xlink" viewBox="0 0 49.58 61.3">
  <defs>
    <style>
      .cls-1 {
        fill: #ff4a88;
      }

      .cls-2 {
        fill: #ff4a70;
      }

      .cls-3 {
        fill: #ff4c00;
      }

      .cls-4 {
        fill: #ff7a00;
      }

      .cls-5 {
        fill: #bb001a;
      }

      .cls-6 {
        fill: #cc0040;
      }

      .cls-7, .cls-8, .cls-9, .cls-10, .cls-11 {
        opacity: .5;
      }

      .cls-7, .cls-12 {
        fill: #fff;
        mix-blend-mode: soft-light;
      }

      .cls-13 {
        opacity: .2;
      }

      .cls-13, .cls-14, .cls-15, .cls-16, .cls-8, .cls-9, .cls-10, .cls-11 {
        mix-blend-mode: multiply;
      }

      .cls-13, .cls-16, .cls-11 {
        fill: #963b66;
      }

      .cls-14, .cls-10 {
        fill: #d42f55;
      }

      .cls-15, .cls-16 {
        opacity: .3;
      }

      .cls-15, .cls-9 {
        fill: #b10053;
      }

      .cls-8 {
        fill: #912774;
      }

      .cls-17 {
        isolation: isolate;
      }

      .cls-18 {
        fill: url(#_ÂÁ_Ï_ÌÌ_È_ËÂÌÚ_638);
      }

      .cls-19 {
        fill: url(#_ÂÁ_Ï_ÌÌ_È_ËÂÌÚ_330);
      }
    </style>
    <linearGradient id="_ÂÁ_Ï_ÌÌ_È_ËÂÌÚ_330" data-name="¡ÂÁ˚ÏˇÌÌ˚È „‡‰ËÂÌÚ 330" x1="8.21" y1="61.19" x2="8.21" y2="1.35" gradientUnits="userSpaceOnUse">
      <stop offset="0" stop-color="#d32a00"/>
      <stop offset="1" stop-color="#ec5c11"/>
    </linearGradient>
    <linearGradient id="_ÂÁ_Ï_ÌÌ_È_ËÂÌÚ_638" data-name="¡ÂÁ˚ÏˇÌÌ˚È „‡‰ËÂÌÚ 638" x1="24.79" y1="36.1" x2="24.79" y2="3.9" gradientUnits="userSpaceOnUse">
      <stop offset="0" stop-color="#de0086"/>
      <stop offset="1" stop-color="#ff003b"/>
    </linearGradient>
  </defs>
  <g class="cls-17">
    <g id="Layer_2" data-name="Layer 2">
      <g id="Layer_1-2" data-name="Layer 1">
        <g>
          <path class="cls-6" d="m36.14,4.92s-1.96-.65-2.84,8.43c-.88,9.09,3.72-4.21,3.6-5.29-.13-1.08-.76-3.14-.76-3.14Z"/>
          <g>
            <path class="cls-19" d="m11.18,57.19c-.01.48-.06.86-.16,1.24-.5,1.83-5.13,3.65-7.24,2.3-.28-.18-.47-.49-.61-.94-.86-2.9,1.01-11.33.61-23.99C3.32,21.21,1,6.54,1,6.54c0,0,11.33-7.47,14.41-4.49,0,0-4.15,29.18-4.4,40.78-.2,9.24.23,12.49.16,14.35Z"/>
            <path class="cls-4" d="m1.01,6.54c1.05,7.36,13.81.58,14.41-4.49C16.02-3.02.42,2.42,1.01,6.54Z"/>
            <path class="cls-9" d="m3.31,60.16c.97,2.24,4.5-.95,5.58-11.8.64-6.5,1.6-12.43,2.27-16.15.45-2.49.76-3.99.76-3.99,0,0-2.59,15.31-2.71,20.32-.13,5.01.22,8.16-.99,10.76-1.21,2.6-3.92,2.44-4.9.87Z"/>
            <path class="cls-9" d="m8.35,60.63s2.06-2.66,2.34-7.2.3-9,.3-9c0,0,.22,7.69.16,10.68s-2.8,5.52-2.8,5.52Z"/>
            <path class="cls-9" d="m3.26,52c.58,5.83,4.26-4.37,5.53-24.12,1.27-19.75,2.41-18.37,2.6-21.2.19-2.83-4.87-5.01-4.87-5.01,0,0,4.97.99,6.37,3.22,1.39,2.22-2.91,10.99-3.53,22.31s-3.78,27.61-5.2,29.02-.9-4.22-.9-4.22Z"/>
            <path class="cls-15" d="m3.73,44.42c-.09,2,4.59-11.34,4.43-22.88-.16-11.54.53-10.3.53-13.2S5.49,2.78,2.43,3.92c0,0,3.02-.83,4.85,1.26s-.06,4.63-.25,9.82c-.19,5.19-1.64,20.1-2.24,22.93s-.96,2.81-.96,2.81l-.09,3.66Z"/>
            <path class="cls-5" d="m7.28,5.19s1.31,1.33,1.41,2.99c.1,1.66-1.08,3.76-1.41,4.98s.65-3.52.71-5.23c.06-1.7-.71-2.75-.71-2.75Z"/>
            <path class="cls-5" d="m6.52,1.67s3.07,1.31,4,2.79c.92,1.48.57-.98-.4-1.63s-3.59-1.16-3.59-1.16Z"/>
            <path class="cls-3" d="m3.32,55.87c.36.98,1.6-1.31,2.78-5.72,0,0-.9,5.6-1.85,6.96-.95,1.36-.93-1.24-.93-1.24Z"/>
            <path class="cls-3" d="m6.64,61.01s1.47-.2,2.32-2.78c.85-2.59.25-6.1.33-9.12.08-3.01.4-5.95.4-5.95,0,0-.45,3.09-.54,5.54-.09,2.45.23,6.54-.35,8.8-.57,2.26-2.16,3.51-2.16,3.51Z"/>
            <path class="cls-3" d="m8.76,60.2s1.4-1.14,1.78-2.24c.38-1.1.51-1.96.51-1.96,0,0-.86,2.57-2.29,4.2Z"/>
            <path class="cls-10" d="m3.64,46.5c.79-3.23,2.58.27,2.47,1.24s1.4-5.02,1.59-8.46c.19-3.44-4.01,2.8-4.05,7.23Z"/>
            <path class="cls-10" d="m6.64,47.84c-.02,2.4.94,4.51,1.36,4.24.42-.27,1.44-8.69,1.74-12.16.31-3.47-1.02-3.21-1.21-2.89-.19.33-1.9,10.81-1.9,10.81Z"/>
            <path class="cls-10" d="m9.36,52.37c.05,1.58.85,2.41,1.01,2.46.16.05.83-6.87.62-10.58-.21-3.7.01-7.47-.11-7.4-.13.07-2.24,9.68-1.51,15.51Z"/>
            <path class="cls-8" d="m11.18,57.19c-.01.48-.06.86-.16,1.24-.5,1.83-5.13,3.65-7.24,2.3-.28-.18-.47-.49-.61-.94.06-1.45.83.29,2.11.41,1.3.13,2.62-.97,2.7-.79.08.19-.79.97-.57,1.22.22.25,2.78-1.41,2.96-2.04.17-.63.78-1.49.78-1.49l.02.09Z"/>
            <path class="cls-8" d="m3.82,35.96s2.66,2.38,4.88,2.94c2.22.56,2.75-3.34,2.75-3.34l.12-1.73s-3.86,3.47-7.74,1.4v.74Z"/>
            <path class="cls-7" d="m2.16,8.93c-1.17-1.37,3.63-2.87,4.76-2.57,1.14.3.97,2.68.29,3.02-.69.35-3.83.98-5.05-.45Z"/>
            <path class="cls-7" d="m8.79,8.53c-.39-.2.79-2.53,1.54-2.88.75-.35,1.09.71.9,1.55-.19.84-1.97,1.58-2.44,1.33Z"/>
            <path class="cls-7" d="m13.41,5.58c-.33-.2.72-3.04,1.31-3.74.59-.7.55,1.24.55,1.24,0,0-1.38,2.07-1.86,2.51Z"/>
            <path class="cls-14" d="m1.48,9.82s1.61,3.13,5.04,3.54,7.3-4.76,7.9-6.62.74-2.89.74-2.89l-.83,5.87s-4.28,4.42-8.61,4.42-4.03-2.78-4.03-2.78l-.21-1.54Z"/>
          </g>
          <path class="cls-18" d="m40.25,31.07c-1.35-.51-2.36-1.27-3.12-2.01,0,0,0-.01-.02-.03-1.82-1.77-2.22-3.49-2.49-1.81-.33,2.11-.18,6.59-5.82,7.46-.09.01-.18.02-.27.03-.69.09-1.47.12-2.34.1-8.3-.25-13.53-2.2-13.53-2.2-.75,1.67-1.95,2.62-3.26,3.1-3.1,1.11-6.83-.44-6.83-1.42,0-4.44-.88-11.39-1.61-16.38C.5,14.67.09,12.26.04,11.87.02,11.73,0,11.6,0,11.48c0-.75.41-1.22,1.82-1.65,3.74,9.88,12.79-1.76,12.79-1.76l.17-1.45c.24-.31.49-.56,1-.99.03-.03.07-.06.11-.09,1.4-1.17,3.62-2.31,5.92-1.15,3.88,1.95,7.13,11.13,10.66,9.48,3.54-1.65,3.47-7.8,4.98-7.13,1.52.68,3.6,5.24,5.87,14.97,2.04,8.72,4.85,5.71,5.9,5.47.12-.03.21-.02.28.04.66.67-3.55,6.03-9.26,3.84Z"/>
          <path class="cls-2" d="m9.21,15.24C3.96,15.77.53,13.24,0,11.48c0-.75.41-1.22,1.82-1.65,3.74,9.88,12.51-1.38,12.51-1.38,0,0,.1-.14.28-.38.55.55.9,6.55-5.4,7.18Z"/>
          <path class="cls-16" d="m12.67,32.62s.63-13.94,1.64-18.44c1.01-4.49.3-6.11.3-6.11,0,0,3.2-3.2,6.58-1.75s4.98,6.39,5.49,12.96c.5,6.57-1.96,13.38-4.35,14.55-2.4,1.17-9.65-1.21-9.65-1.21Z"/>
          <path class="cls-11" d="m34.65,25.3c-.22-2.16,1.1-6.67,1.52-9.31.69-4.32.6-7.02,1.17-7.36,1.28-.76,4.19,6.03,4,13.59-.19,7.56-2.9,7.56-3.55,7.28-1.66-.71-3.15-4.2-3.15-4.2Z"/>
          <path class="cls-11" d="m42.24,31.27c-.95-.25,3.55-.99,6.01-3.24,2.46-2.25.28,4.12-6.01,3.24Z"/>
          <path class="cls-1" d="m49.23,27.18c-.71.8-1.51,1.52-2.3,1.82-2.22.84-3.79-.19-4.82-5.79-1.03-5.6-3.26-15.78-4.77-14.58-1.51,1.2-.04,8.25-2.87,8.06-2.82-.18-7.79-5.17-11.21-8.83-3.31-3.55-8.53-1.28-7.48-2.25.03-.03.07-.06.11-.09,1.4-1.17,3.62-2.31,5.92-1.15,3.88,1.95,8.24,10.38,11.77,8.73,3.54-1.65,1.04-8.86,2.55-8.19,1.52.68,4.45,3.1,7.19,16.78,1.76,8.78,4.85,5.71,5.9,5.47Z"/>
          <path class="cls-13" d="m13.93,13.11c-2.58,1.64-3.64,2.3-4.72,9.68-1.08,7.38-1.88,12.16-1.13,12.91s1.89-2.16,2.16-3.58c1.67-8.78,3.69-19.01,3.69-19.01Z"/>
          <path class="cls-12" d="m1.98,13.72c-1.89-1.48.17,13.2,1.83,16.24,1.66,3.04,4.6-5.33,5.54-9.69.95-4.35,1-4.32.76-4.73-.24-.4-3.88.41-8.14-1.83Z"/>
          <path class="cls-12" d="m3.17,14.37c-2.18-1.22-.42-.83,2.57-.59,2.99.24,5.51-2.26,6.33-1.91s.69,2.77-2.19,3.28c-2.88.51-5.97-.37-6.71-.78Z"/>
          <path class="cls-7" d="m22.98,5.19c-1.69-.11,2.67,4.38,4.37,6.83s6.19,2.87,6,2.16c-.19-.71-3.36-.51-5.83-3.39-2.48-2.89-3.53-5.53-4.53-5.6Z"/>
          <path class="cls-7" d="m40.01,10.58c-.75-.27.5,5.5,1.92,10.5,1.42,5,2.16,4.64,2.16,4.64,0,0-1.62-6.04-2.16-9.14s-1.92-6-1.92-6Z"/>
          <path class="cls-16" d="m14.61,8.07c3.11-2.97,7.97-2.65,9.47.92,1.5,3.57-5.4,6.02-8.43,10.27-3.04,4.25-.47,12.13.44,13.3.91,1.17-3.42.05-3.42.05,0,0,.69-13.33,1.64-18.44.95-5.11.3-6.11.3-6.11Z"/>
          <path class="cls-12" d="m12.67,32.62c-.49,1.56-2.7,2.9-2.98,2.44-.28-.46,1.77-9.1,2.82-13.98,1.05-4.88,1.55-9.04,1.88-8.96.33.09-.54,4.36-1.22,10.83-.68,6.47-.18,8.68-.5,9.67Z"/>
          <path class="cls-11" d="m9.41,35.71c-3.1,1.11-6.83-.44-6.83-1.42,0-4.44-.88-11.39-1.61-16.38l.03-.44s1.98,8.31,2.16,11.57c.19,3.26-.73,4.31,0,5.44.87,1.35,4.64,1.61,6.24,1.24Z"/>
          <path class="cls-14" d="m1.48,9.82c-.47-4.9,2.18,3.98,5.04,3.96,0,0-3.62.51-5.04-3.96Z"/>
          <path class="cls-11" d="m35.38,21.89c-.48,4.4,1.51,6.88,1.73,7.15-1.82-1.77-2.22-3.49-2.49-1.81-.33,2.11-.18,6.59-5.82,7.46,2.44-.42,4.71-3.42,5.35-6.17.66-2.84,1.16-8.82,2.18-13.27,1.01-4.45-.22-6.52,1.4-6.68.23-.02.3,3.24-.22,4.54-.52,1.3-1.62,4.11-2.13,8.78Z"/>
          <path class="cls-12" d="m30.36,14.61c-2.9-1.6-3.08,11.12-1.55,14.65,1.53,3.53,5.02-1.33,5.76-6.59.73-5.21,2.48-6.8.48-6.67-2,.13-4.69-1.39-4.69-1.39Z"/>
          <path class="cls-13" d="m25.19,12.48c-1.44.87-3.55,16.81-4.39,20.09-.84,3.28,5.34-1.17,5.94-9.21.6-8.04-1.09-11.15-1.55-10.87Z"/>
          <path class="cls-11" d="m28.8,34.68c-.09.01-.18.02-.27.03-.69.09-1.47.12-2.34.1-8.3-.25-13.53-2.2-13.53-2.2,0,0,.33-4.62.41-7.14.08-2.53,1.39,4.12,2.9,6.38,1.99,2.96,12.82,2.82,12.82,2.82Z"/>
          <path class="cls-11" d="m14.79,6.62c2.26-2.25,2.59-.41,3.69-.3s-2.76,3.65-3.32,5.22-1.42,6.39-1.42,6.39c0,0,.81-5.56,1.01-7.2.09-.76.14-2.14-.14-2.65-.01-.91.17-1.45.17-1.45Z"/>
        </g>
      </g>
    </g>
  </g>
</svg>