<?xml version="1.0" encoding="UTF-8"?>
<svg xmlns="http://www.w3.org/2000/svg" width="91.96" height="92.76" viewBox="0 0 91.96 92.76">
  <defs>
    <style>
      .cls-1 {
        fill: #e6e6e6;
      }

      .cls-2 {
        fill: #ffb0ac;
      }

      .cls-3 {
        fill: #fff;
      }

      .cls-4 {
        fill: #fdecd3;
      }

      .cls-5 {
        fill: #9d919e;
      }

      .cls-6, .cls-7, .cls-8 {
        fill: #3a4967;
      }

      .cls-7 {
        mix-blend-mode: multiply;
      }

      .cls-7, .cls-8 {
        opacity: .5;
      }

      .cls-9 {
        opacity: .3;
      }

      .cls-10 {
        isolation: isolate;
      }
    </style>
  </defs>
  <g class="cls-10">
    <g id="Layer_1" data-name="Layer 1">
      <g>
        <ellipse class="cls-1" cx="46.25" cy="87.91" rx="32.54" ry="4.84"/>
        <g>
          <g>
            <path class="cls-5" d="m91.82,19.81c-.67,1.62-2.84,1.12-4.14,1.1-.15,1.51-.01,3.31-.76,4.68-1.19,2.16-3.26,2-4.75.45-.89,2.16-.37,4.49-2.92,5.08-.2.05-.41.09-.64.12-2.41.26-3.36-1.87-4.51-3.65-3.35-5.18-9.13-7.88-13.17-12.44-.83-.93-1.59-1.97-2.09-3.12-.35-.79-.13-2.19-.4-2.46l-.65.79c1.12-1.48,2.33-3.13,3.68-4.66C64.2,2.56,67.52-.12,71.87,0c4.1.11,8,2.36,11,5.04,3.18,2.85,6.87,6.17,8.29,10.32.34,1.01,1.12,3.36.67,4.44Z"/>
            <path class="cls-8" d="m79.25,31.12c-.2.05-.41.09-.64.12-2.41.26-3.36-1.87-4.51-3.65-3.35-5.18-9.13-7.88-13.17-12.44-.83-.93-1.59-1.97-2.09-3.12-.35-.79-.13-2.19-.4-2.46l-.65.79c1.12-1.48,2.33-3.13,3.68-4.66,6.77,3.68,15.54,11.13,17.78,25.43Z"/>
          </g>
          <g>
            <path class="cls-5" d="m.13,19.62c.66,1.63,2.83,1.15,4.13,1.15.13,1.51-.02,3.31.71,4.69,1.17,2.18,3.24,2.03,4.75.51.86,2.17.32,4.49,2.86,5.12.19.05.41.09.64.12,2.4.29,3.38-1.84,4.55-3.6,3.4-5.15,9.22-7.78,13.31-12.29.84-.92,1.61-1.95,2.12-3.1.36-.79.16-2.19.43-2.45l.64.79c-1.1-1.49-2.29-3.16-3.63-4.71C27.94,2.68,24.66-.03,20.3.04c-4.1.06-8.03,2.27-11.06,4.92C6.04,7.77,2.31,11.05.85,15.19c-.35,1.01-1.16,3.34-.72,4.43Z"/>
            <path class="cls-8" d="m12.58,31.07c.19.05.41.09.64.12,2.4.29,3.38-1.84,4.55-3.6,3.4-5.15,9.22-7.78,13.31-12.29.84-.92,1.61-1.95,2.12-3.1.36-.79.16-2.19.43-2.45l.64.79c-1.1-1.49-2.29-3.16-3.63-4.71-6.82,3.61-15.66,10.96-18.06,25.23Z"/>
          </g>
          <path class="cls-5" d="m73.93,84.78c-1.66,3.1-4.34,4.9-6,4.01-.04-.03-.08-.05-.11-.08,0,.02-.02.03-.03.06-3.29-.74-6.81-1.32-10.49-1.7-3.46-.35-7.09-.55-10.8-.55-3.17,0-6.28.14-9.27.42-3.94.35-7.71.92-11.23,1.68-.09.07-.18.13-.28.18-1.66.88-4.34-.92-6-4.01-1.66-3.1-1.66-6.34,0-7.22,1.25-.67,3.1.19,4.64,2,.13-.86.32-1.7.57-2.52.03-.14.08-.29.12-.42.48-1.5,1.13-2.91,1.95-4.25,1.44-2.34,3.35-4.39,5.62-6.05,3.81-2.78,8.64-4.44,13.89-4.44s9.75,1.55,13.49,4.16c4.81,3.33,8.1,8.41,8.76,14.22,1.63-2.27,3.78-3.46,5.19-2.71,1.65.88,1.65,4.12,0,7.22Z"/>
          <path class="cls-4" d="m58.07,82.37c0,1.66-.27,3.25-.77,4.7-3.46-.35-7.09-.55-10.8-.55-3.17,0-6.28.14-9.27.42-.47-1.42-.73-2.96-.73-4.57,0-1.41.2-2.76.55-4.02.09-.31.19-.62.3-.93.37.16.77.24,1.18.26.99.04,1.95-.29,2.68-.96.74-.67,1.17-1.59,1.22-2.59.04-.93-.25-1.82-.83-2.53.27-.2.54-.37.82-.54,1.46-.87,3.1-1.36,4.85-1.36,1.84,0,3.57.54,5.09,1.5.28.17.54.36.8.56-.49.67-.74,1.5-.7,2.36.04.99.48,1.91,1.21,2.59.74.67,1.68,1,2.68.96.31-.02.61-.07.89-.16.1.3.2.61.29.93.35,1.23.53,2.55.53,3.92Z"/>
          <path class="cls-7" d="m59.99,66.05c-3.11,2.53-8.16,4.18-13.86,4.18s-10.38-1.52-13.52-3.9c3.81-2.78,8.64-4.44,13.89-4.44s9.75,1.55,13.49,4.16Z"/>
          <path class="cls-5" d="m78.46,43.18c-1.21-2.9-1.86-6-1.83-9.15,0-.05,0-.1,0-.14h0c0-15.99-13.09-29.08-29.08-29.08h-2.37c-15.99,0-29.08,13.09-29.08,29.08h0c0,.26,0,.52.01.77.07,1.93-.39,3.85-1.41,5.49-1.81,2.91-2.81,5.92-2.81,8.76,0,11.04,15.18,18.29,33.91,18.29s33.91-7.25,33.91-18.29c0-1.86-.43-3.79-1.24-5.73Z"/>
          <path class="cls-6" d="m54.25,46.57c-.54-.12-1.08.21-1.2.75-.53,2.29-2.37,4.02-4.68,4.42-.02,0-.04,0-.06,0v-6.81c0-1.11-1.73-1.11-1.73,0v6.83c-2.45-.34-4.51-2.22-4.95-4.78-.09-.55-.61-.91-1.16-.82-.55.09-.91.61-.82,1.16.74,4.26,4.8,7.12,9.05,6.38,3.11-.54,5.58-2.87,6.3-5.94.13-.54-.21-1.08-.75-1.2Z"/>
          <g class="cls-9">
            <path class="cls-6" d="m34.39,6.97c-7.07,5.22-11.89,15.33-11.89,26.88,0,.27,0,.54,0,.81.05,2.04-.31,4.06-1.11,5.79-1.42,3.06-2.21,6.24-2.21,9.23,0,6.78,4.05,12.2,10.34,15.55-10.53-2.9-17.65-8.67-17.65-16.24,0-2.84,1-5.85,2.81-8.76,1.02-1.64,1.49-3.55,1.42-5.49-.02-.25-.02-.51-.02-.77,0-12.19,7.6-22.69,18.29-26.99Z"/>
            <path class="cls-6" d="m79.7,48.98c0,7.57-7.13,13.34-17.64,16.24,6.3-3.35,10.34-8.77,10.34-15.55,0-1.96-.34-4-.98-6.04-.95-3.06-1.45-6.32-1.44-9.64v-.15c0-8.43-2.57-16.09-6.7-21.64-1.61-2.16-3.45-4-5.47-5.44,3.88,1.47,7.39,3.76,10.27,6.66,5.28,5.27,8.54,12.54,8.54,20.53v.15c-.03,3.15.61,6.24,1.83,9.14.8,1.94,1.24,3.87,1.24,5.73Z"/>
          </g>
          <g>
            <path class="cls-6" d="m42.19,70.79c.09.1.16.18.24.29.68.88,1.03,1.97.98,3.1-.06,1.26-.61,2.41-1.53,3.26-.87.79-1.98,1.22-3.16,1.22-.08,0-.16,0-.23,0-.5-.03-.99-.12-1.44-.3-.69-.25-1.31-.67-1.82-1.23l-2.76-3.03c-.18-.2-.16-.51.03-.68.2-.18.5-.17.68.03l2.76,3.04c.39.43.86.75,1.4.95.37.16.77.24,1.18.26.99.04,1.95-.29,2.68-.96.74-.67,1.17-1.59,1.22-2.59.04-.93-.25-1.82-.83-2.53-.04-.06-.09-.11-.14-.16l-2.46-2.72c-.18-.2-.17-.51.03-.68.2-.18.51-.17.69.03"/>
            <path class="cls-6" d="m62.43,74.09l-2.76,3.03c-.58.64-1.31,1.1-2.13,1.33-.35.11-.74.18-1.12.2-.08,0-.16,0-.23,0-1.18,0-2.28-.43-3.16-1.22-.93-.85-1.47-2-1.53-3.26-.05-1.07.26-2.11.87-2.97.1-.15.22-.29.35-.42l2.46-2.72c.18-.2.49-.21.69-.03.2.17.21.48.03.68l-2.47,2.72c-.1.1-.18.22-.26.33-.49.67-.74,1.5-.7,2.36.04.99.48,1.91,1.21,2.59.74.67,1.68,1,2.68.96.31-.02.61-.07.89-.16.65-.18,1.24-.54,1.7-1.06l2.76-3.04c.18-.2.49-.21.68-.03.2.17.22.48.03.68Z"/>
          </g>
          <g>
            <path class="cls-6" d="m64.65,35.11c0,1.89-1.53,3.43-3.43,3.43s-3.43-1.53-3.43-3.43,1.53-3.43,3.43-3.43,3.43,1.53,3.43,3.43Z"/>
            <path class="cls-3" d="m62.28,34.48c-.37.88-1.39,1.3-2.27.93-.88-.37-1.3-1.39-.93-2.27.37-.88,1.39-1.3,2.27-.93.88.37,1.3,1.39.93,2.27Z"/>
          </g>
          <g>
            <path class="cls-6" d="m36.23,34.75c0,1.89-1.53,3.43-3.43,3.43s-3.43-1.53-3.43-3.43,1.53-3.43,3.43-3.43,3.43,1.53,3.43,3.43Z"/>
            <path class="cls-3" d="m35.21,34.45c-.35.84-1.33,1.24-2.17.89-.84-.35-1.24-1.33-.89-2.17.35-.84,1.33-1.24,2.17-.89.84.35,1.24,1.33.89,2.17Z"/>
          </g>
          <g>
            <path class="cls-2" d="m30.4,43.95c0,1.89-1.53,3.43-3.43,3.43s-3.43-1.53-3.43-3.43,1.53-3.43,3.43-3.43,3.43,1.53,3.43,3.43Z"/>
            <path class="cls-3" d="m26.31,41.1c0,.76-.62,1.38-1.38,1.38s-1.38-.62-1.38-1.38.62-1.38,1.38-1.38,1.38.62,1.38,1.38Z"/>
          </g>
          <g>
            <path class="cls-2" d="m63.25,43.95c0,1.89,1.53,3.43,3.43,3.43s3.43-1.53,3.43-3.43-1.53-3.43-3.43-3.43-3.43,1.53-3.43,3.43Z"/>
            <path class="cls-3" d="m67.33,41.1c0,.76.62,1.38,1.38,1.38s1.38-.62,1.38-1.38-.62-1.38-1.38-1.38-1.38.62-1.38,1.38Z"/>
          </g>
          <ellipse class="cls-6" cx="47.2" cy="38.53" rx="4.84" ry="8.18"/>
          <path class="cls-7" d="m52.05,38.48c0,4.52-2.17,8.18-4.84,8.18s-4.84-3.66-4.84-8.18c0-1.5.23-2.89.65-4.09.83,2.45,2.4,4.09,4.19,4.09s3.36-1.64,4.19-4.09c.42,1.2.66,2.59.66,4.09Z"/>
          <g>
            <path class="cls-7" d="m68.75,80.27l-1.99,4.66s1.27-6-.91-12.84c0,0,2.36,3.26,2.91,8.17Z"/>
            <path class="cls-7" d="m26.39,84.12l-1.99-4.64c.13-.85.31-1.66.52-2.43.03-.14.08-.29.12-.42.48-1.5,1.13-2.91,1.95-4.25-1.66,6.12-.67,11.32-.6,11.74Z"/>
          </g>
        </g>
      </g>
    </g>
  </g>
</svg>