<?xml version="1.0" encoding="utf-8"?>
<!-- Generator: Adobe Illustrator 27.5.0, SVG Export Plug-In . SVG Version: 6.00 Build 0)  -->
<svg version="1.1" id="Layer_1" xmlns="http://www.w3.org/2000/svg" xmlns:xlink="http://www.w3.org/1999/xlink" x="0px" y="0px"
	 viewBox="0 0 197.8 320.5" style="enable-background:new 0 0 197.8 320.5;" xml:space="preserve">
<style type="text/css">
	.st0{fill:#911919;}
	.st1{opacity:0.61;fill:#911919;enable-background:new    ;}
	.st2{fill:#FFB600;}
	.st3{fill:#FFEC03;}
	.st4{fill:#FFB10F;}
	.st5{fill:#FA352C;}
	.st6{fill:#FFFF03;}
	.st7{fill:#FFF8C5;}
</style>
<g>
	<g id="Layer_2_00000034052595938461924120000000758097766939042483_">
		<g id="_Layer_">
			<g>
				<g>
					<polygon class="st0" points="138.1,0 78.4,150.2 134.6,150.2 197.8,0 					"/>
					<polygon class="st1" points="108.7,74.1 78.4,150.2 134.6,150.2 139.1,139.5 					"/>
				</g>
				<path class="st2" d="M145.8,171.9v-17.8c0-7.3-5.9-13.2-13.2-13.2H78.4c-7.3,0-13.2,5.9-13.2,13.2v17.8
					c-23.6,13.9-39.5,39.5-39.5,68.9c0,44.1,35.7,79.8,79.8,79.8s79.8-35.7,79.8-79.8C185.3,211.4,169.4,185.7,145.8,171.9
					L145.8,171.9z M74.5,167.2v-13.1c0-2.1,1.7-3.9,3.9-3.9h54.3c2.1,0,3.9,1.7,3.9,3.9v13.1c-9.5-4-20-6.2-31-6.2
					S84.1,163.2,74.5,167.2L74.5,167.2z"/>
				<path class="st3" d="M105.5,305.5c-35.7,0-64.8-29.1-64.8-64.8s29.1-64.8,64.8-64.8s64.8,29.1,64.8,64.8
					S141.3,305.5,105.5,305.5z"/>
				<g>
					<g>
						<g>
							<path class="st4" d="M134.7,284.1c-6.1,3.7-13.1,6.2-20.6,7l-0.2-1.4c7.9-0.8,15.2-3.6,21.4-7.7
								C135,282.8,134.8,283.4,134.7,284.1L134.7,284.1z"/>
							<g>
								<g>
									<path class="st4" d="M124.4,194.1c-0.2-0.5-0.5-0.9-0.5-0.9l0,0c-2.9-4.8-7.2-5.5-13.7-4.6c0.7,1,2.7,3.8,5.2,5.3l0,0
										C115.5,193.9,118.2,196.3,124.4,194.1L124.4,194.1z"/>
									<path class="st4" d="M123.9,195c-3.5,1.1-6.4,1-8.6-0.3c-1.6,1-2.9,2.2-3.5,2.8C117.2,200,120.4,199.3,123.9,195L123.9,195
										z"/>
									<path class="st4" d="M124.7,191.6c-0.2-3.5-1.7-5.8-7.2-7.4c0,0.7,0,2.2,0.3,3.7c1.8,0.4,3.9,1,5.8,3.5
										C123.9,191.5,124.1,191.5,124.7,191.6z"/>
								</g>
								<g>
									<path class="st4" d="M135.9,202.8c-0.1-1.4-0.1-2.1-0.1-2.7c0.5,0.2,0.7,0.2,1.3,0.5c-1.1-4-3.1-5-5.3-6.2l0,0
										c-2.7-1.3-7.5-2.1-7.6-2.1C126.6,200.8,130.7,202.7,135.9,202.8L135.9,202.8z"/>
									<path class="st4" d="M136.1,204c0-0.2,0-0.4-0.1-0.5c-3.7-0.1-6.5-1.1-8.3-3.1c-2.1,0.6-4.1,1.5-4.9,1.9
										C127.5,206.7,131.2,206.9,136.1,204L136.1,204z"/>
									<path class="st4" d="M138.5,201.1c1.7-4.5,0.9-7.8-4.7-11.3c-0.3,0.7-0.8,2.4-1.1,4.2c2.8,1.4,4.5,3.6,5.3,6.9
										C138.1,200.9,138.3,201,138.5,201.1z"/>
								</g>
								<g>
									<path class="st4" d="M148.3,213.2c-0.1-5.9-3.7-7.8-4.1-8.3l0,0c-2-1.5-4.6-2.9-7.6-3.9c0.2,6.7,1.5,11.8,8.4,14
										c0.2-1.5,0.4-2.5,0.6-3.4C146.4,212,147.1,212.4,148.3,213.2z"/>
									<path class="st4" d="M144.8,217c0-0.5,0.1-0.9,0.1-1.4c-3.3-1-5.6-2.6-6.9-5c-2.5,0.2-4.9,0.7-5.9,0.9
										C135.8,217.3,139.5,218.4,144.8,217L144.8,217z"/>
									<path class="st4" d="M149.6,214.1c3.1-4.6,3.2-8.3-2-13.5c-0.5,0.7-1.6,2.4-2.4,4.3c2.7,2.2,3.9,5,3.9,8.8
										C149.2,213.8,149.4,214,149.6,214.1z"/>
								</g>
								<g>
									<path class="st4" d="M156,228.3c1.2-6.2-1.8-8.5-2.5-9.7h0c-2.1-2.5-4.7-4.2-7.4-5.9c-1.1,6.1-1.5,11.8,3.9,15.7
										c0.5-1.4,1.1-2.9,1.9-4.3C153.5,225.4,154.9,226.8,156,228.3L156,228.3z"/>
									<path class="st4" d="M149,231.8c0.2-0.9,0.5-1.8,0.8-2.8c-2.3-1.6-3.6-3.3-4.4-5.6c-2.9-0.3-5.7-0.2-6.7-0.1
										C141.3,230.1,145,231.6,149,231.8z"/>
									<path class="st4" d="M157.1,229.6c4.6-4.4,5.6-8.5,1.1-15.2c-0.7,0.6-2.3,2.3-3.7,4.3c2.4,2.9,3.1,6.1,2.1,10.3
										C156.8,229.2,156.9,229.3,157.1,229.6L157.1,229.6z"/>
								</g>
								<g>
									<path class="st4" d="M158.7,244c2.5-5.4,1-8,0-10.7l0,0c-1.9-3.6-5.1-6.9-6.5-8.2c-2.6,5.5-4.6,11.7-0.9,16.7
										c1.1-1.6,2.4-3.3,3.9-4.9C156.5,239.2,157.8,241.7,158.7,244L158.7,244z"/>
									<path class="st4" d="M148.8,246c0.5-1.1,1.2-2.4,2-3.6c-1.4-1.9-2.1-3.7-2.3-5.9c-3-1-6-1.5-7.2-1.7
										C142,239.7,143.3,244.1,148.8,246L148.8,246z"/>
									<path class="st4" d="M159.3,245.8c6.1-3.6,8.4-7.8,5.4-16.1c-0.9,0.5-3.1,2-5.2,3.8c1.3,2.7,2.1,6.1-0.5,11.4
										C159.1,245.2,159.2,245.5,159.3,245.8z"/>
								</g>
								<g>
									<path class="st4" d="M156.9,258.5c3.7-5.1,2.4-8.4,2.4-10h0c-0.8-4.4-3.1-8.6-4.3-10.5c-4.6,5.3-8.6,11.3-6.2,17.7
										c3.7-2.9,7.1-4.6,7.2-4.7C156.5,253.5,156.8,256.2,156.9,258.5L156.9,258.5z"/>
									<path class="st4" d="M144.9,259.4c0.9-1,2-2.1,3.3-3.1c-1-2.5-1.2-4.6-0.6-7c-2.9-1.8-6-3.2-7.1-3.7
										C139.7,250.8,139.6,255.9,144.9,259.4L144.9,259.4z"/>
									<path class="st4" d="M166.8,246.2c-1.6,0.5-4.9,1.6-6.7,2.6c0.7,3.9-0.3,7.2-3.1,10.8c0,0.7,0,1.4-0.1,2
										C163.7,259.4,167.4,255.5,166.8,246.2L166.8,246.2z"/>
								</g>
								<g>
									<path class="st4" d="M155.8,264.4L155.8,264.4c0.7-3.8,0.4-8.6-0.2-12.3c-5.6,3.2-12.2,7.9-13.2,14
										c2.2-0.8,4.7-1.6,7.1-2.2c-0.3,3.6-1.2,8-2.6,11.5C153,272.1,154.3,269.3,155.8,264.4z"/>
									<path class="st4" d="M141.6,266.4c0.3-2,0.9-3.6,2-5.3c-1.4-2-4.4-4.8-5.9-6.1c-2.7,4.5-4.6,9.8-1.9,14.3
										C137.6,268.1,139.6,267.2,141.6,266.4L141.6,266.4z"/>
									<path class="st4" d="M164.4,264.3c-1.2,0-4.5,0-8,0.5c-1,4.6-3.5,8.2-10,11.4c-0.1,0.2-0.2,0.4-0.3,0.6
										C156.1,277.4,161.3,274.2,164.4,264.3L164.4,264.3z"/>
								</g>
								<g>
									<path class="st4" d="M138.4,284.3c4.7-2.7,6.5-6.7,6.6-6.9h0c1.8-3.4,3-7.7,3.6-12.8l0,0c-13.7,3.6-21.8,9.5-19.6,22.4
										C132.1,286.7,135,286.2,138.4,284.3L138.4,284.3z"/>
									<path class="st4" d="M128.2,286.6c-0.8-6.6,1.1-12.1,5.2-15.6c-1.4-3.7-3.5-7-4.2-8c-1.4,1.3-6.9,6.7-6.8,12
										C122.3,279.8,126.4,284.7,128.2,286.6L128.2,286.6z"/>
									<path class="st4" d="M154,279.8c-1.2-0.3-4.7-1.2-8.6-1.6c-3.1,5.6-8.7,8.5-15.5,9.5C140.2,291.3,147.3,289.8,154,279.8
										L154,279.8z"/>
								</g>
							</g>
						</g>
						<g>
							<path class="st4" d="M76.4,284.1c6.1,3.7,13.1,6.2,20.6,7l0.2-1.4c-7.9-0.8-15.2-3.6-21.4-7.7
								C76,282.8,76.3,283.4,76.4,284.1L76.4,284.1z"/>
							<g>
								<g>
									<path class="st4" d="M86.7,194.1c0.2-0.5,0.5-0.9,0.5-0.9l0,0c2.9-4.8,7.2-5.5,13.7-4.6c-0.7,1-2.7,3.8-5.2,5.3l0,0
										C95.6,193.9,92.9,196.3,86.7,194.1L86.7,194.1z"/>
									<path class="st4" d="M87.2,195c3.5,1.1,6.4,1,8.6-0.3c1.6,1,2.9,2.2,3.5,2.8C93.9,200,90.7,199.3,87.2,195L87.2,195z"/>
									<path class="st4" d="M86.4,191.6c0.2-3.5,1.7-5.8,7.2-7.4c0,0.7,0,2.2-0.3,3.7c-1.8,0.4-3.9,1-5.8,3.5
										C87.2,191.5,87,191.5,86.4,191.6L86.4,191.6z"/>
								</g>
								<g>
									<path class="st4" d="M75.1,202.8c0.1-1.4,0.1-2.1,0.1-2.7c-0.5,0.2-0.7,0.2-1.3,0.5c1.1-4,3.1-5,5.3-6.2l0,0
										c2.7-1.3,7.5-2.1,7.6-2.1C84.4,200.8,80.4,202.7,75.1,202.8L75.1,202.8z"/>
									<path class="st4" d="M75,204c0-0.2,0-0.4,0.1-0.5c3.7-0.1,6.5-1.1,8.3-3.1c2.1,0.6,4.1,1.5,4.9,1.9
										C83.6,206.7,79.9,206.9,75,204L75,204z"/>
									<path class="st4" d="M72.6,201.1c-1.7-4.5-0.9-7.8,4.7-11.3c0.3,0.7,0.8,2.4,1.1,4.2c-2.8,1.4-4.5,3.6-5.3,6.9
										C72.9,200.9,72.8,201,72.6,201.1z"/>
								</g>
								<g>
									<path class="st4" d="M62.8,213.2c0.1-5.9,3.7-7.8,4.1-8.3l0,0c2-1.5,4.6-2.9,7.6-3.9c-0.2,6.7-1.5,11.8-8.4,14
										c-0.2-1.5-0.4-2.5-0.6-3.4C64.7,212,64,212.4,62.8,213.2z"/>
									<path class="st4" d="M66.3,217c0-0.5-0.1-0.9-0.1-1.4c3.3-1,5.6-2.6,6.9-5c2.5,0.2,4.9,0.7,5.9,0.9
										C75.3,217.3,71.5,218.4,66.3,217L66.3,217z"/>
									<path class="st4" d="M61.5,214.1c-3.2-4.6-3.2-8.3,2-13.5c0.5,0.7,1.6,2.4,2.4,4.3c-2.7,2.2-3.9,5-3.9,8.8
										C61.9,213.8,61.7,214,61.5,214.1z"/>
								</g>
								<g>
									<path class="st4" d="M55,228.3c-1.2-6.2,1.8-8.5,2.5-9.7h0c2.1-2.5,4.7-4.2,7.4-5.9c1.1,6.1,1.5,11.8-3.9,15.7
										c-0.5-1.4-1.1-2.9-1.9-4.3C57.6,225.4,56.2,226.8,55,228.3L55,228.3z"/>
									<path class="st4" d="M62.1,231.8c-0.2-0.9-0.5-1.8-0.8-2.8c2.3-1.6,3.6-3.3,4.4-5.6c2.8-0.3,5.7-0.2,6.7-0.1
										C69.8,230.1,66.1,231.6,62.1,231.8L62.1,231.8z"/>
									<path class="st4" d="M54,229.6c-4.6-4.4-5.7-8.5-1.2-15.2c0.7,0.6,2.3,2.3,3.7,4.3c-2.4,2.9-3.1,6.1-2.1,10.3
										C54.3,229.2,54.2,229.3,54,229.6L54,229.6z"/>
								</g>
								<g>
									<path class="st4" d="M52.4,244c-2.5-5.4-1-8,0-10.7l0,0c1.9-3.6,5.1-6.9,6.5-8.2c2.7,5.5,4.6,11.7,1,16.7
										c-1.1-1.6-2.4-3.3-3.9-4.9C54.5,239.2,53.3,241.7,52.4,244L52.4,244z"/>
									<path class="st4" d="M62.3,246c-0.5-1.1-1.2-2.4-2-3.6c1.4-1.9,2.1-3.7,2.3-5.9c3-1,6-1.5,7.2-1.7
										C69.1,239.7,67.8,244.1,62.3,246L62.3,246z"/>
									<path class="st4" d="M51.8,245.8c-6.1-3.6-8.4-7.8-5.4-16.1c0.9,0.5,3.1,2,5.2,3.8c-1.3,2.7-2.2,6.1,0.5,11.4
										C52,245.2,51.9,245.5,51.8,245.8z"/>
								</g>
								<g>
									<path class="st4" d="M54.2,258.5c-3.7-5.1-2.4-8.4-2.4-10h0c0.8-4.4,3.2-8.6,4.3-10.5c4.6,5.3,8.6,11.3,6.2,17.7
										c-3.7-2.9-7.2-4.6-7.2-4.7C54.6,253.5,54.3,256.2,54.2,258.5L54.2,258.5z"/>
									<path class="st4" d="M66.1,259.4c-0.9-1-2-2.1-3.3-3.1c1-2.5,1.2-4.6,0.6-7c2.9-1.8,6-3.2,7.1-3.7
										C71.3,250.8,71.5,255.9,66.1,259.4z"/>
									<path class="st4" d="M44.3,246.2c1.6,0.5,4.8,1.6,6.7,2.6c-0.7,3.9,0.3,7.2,3.1,10.8c0,0.7,0,1.4,0.1,2
										C47.4,259.4,43.7,255.5,44.3,246.2L44.3,246.2z"/>
								</g>
								<g>
									<path class="st4" d="M55.3,264.4L55.3,264.4c-0.7-3.8-0.4-8.6,0.2-12.3c5.7,3.2,12.2,7.9,13.2,14c-2.2-0.8-4.7-1.6-7.1-2.2
										c0.3,3.6,1.2,8,2.6,11.5C58.1,272.1,56.8,269.3,55.3,264.4z"/>
									<path class="st4" d="M69.5,266.4c-0.3-2-0.9-3.6-2-5.3c1.4-2,4.4-4.8,5.9-6.1c2.7,4.5,4.6,9.8,1.9,14.3
										C73.5,268.1,71.5,267.2,69.5,266.4L69.5,266.4z"/>
									<path class="st4" d="M46.7,264.3c1.2,0,4.5,0,8,0.5c1,4.6,3.5,8.2,10,11.4c0.1,0.2,0.2,0.4,0.3,0.6
										C54.9,277.4,49.8,274.2,46.7,264.3L46.7,264.3z"/>
								</g>
								<g>
									<path class="st4" d="M72.7,284.3c-4.7-2.7-6.5-6.7-6.6-6.9h0c-1.8-3.4-3-7.7-3.5-12.8l0,0c13.7,3.6,21.8,9.5,19.6,22.4
										C78.9,286.7,76,286.2,72.7,284.3z"/>
									<path class="st4" d="M82.9,286.6c0.8-6.6-1.1-12.1-5.2-15.6c1.4-3.7,3.5-7,4.2-8c1.4,1.3,6.9,6.7,6.8,12
										C88.8,279.8,84.6,284.7,82.9,286.6L82.9,286.6z"/>
									<path class="st4" d="M57.1,279.8c1.2-0.3,4.7-1.2,8.6-1.6c3.1,5.6,8.7,8.5,15.6,9.5C70.9,291.3,63.8,289.8,57.1,279.8
										L57.1,279.8z"/>
								</g>
							</g>
						</g>
					</g>
					<g>
						<path class="st4" d="M106,285h-1.1c-1.3,0-2.5,1.1-2.5,2.5v7.3c0,1.4,1.1,2.5,2.5,2.5h1.1c1.3,0,2.5-1.1,2.5-2.5v-7.3
							C108.4,286.1,107.3,285,106,285L106,285z"/>
						<path class="st4" d="M101.9,287.3c0-0.5,0.2-1,0.4-1.4c-0.3-0.2-0.7-0.2-1.1-0.2h-0.6c-1.1,0-2.1,0.8-2.1,1.7v7.7
							c0,0.9,1,1.7,2.1,1.7h0.6c0.4,0,0.8-0.1,1.1-0.2c-0.3-0.4-0.4-0.9-0.4-1.4V287.3z"/>
						<path class="st4" d="M110.3,285.6h-0.6c-0.4,0-0.8,0.1-1.1,0.2c0.3,0.4,0.4,0.9,0.4,1.4v7.7c0,0.5-0.2,1-0.4,1.4
							c0.3,0.2,0.7,0.2,1.1,0.2h0.6c1.1,0,2.1-0.8,2.1-1.7v-7.7C112.4,286.4,111.4,285.6,110.3,285.6z"/>
					</g>
				</g>
				<polygon class="st5" points="0,0 65.2,0 136.5,153.3 74.6,153.3 				"/>
			</g>
		</g>
	</g>
</g>
<polygon class="st6" points="125.5,263.1 107,255.4 88.4,262.9 90,243 77.1,227.6 96.6,223 107.2,205.9 117.7,223 137.1,227.9 
	124.1,243.1 "/>
<g>
	<polygon class="st7" points="107,255.4 107.7,255.7 84,226 80.3,226.8 104.1,256.6 	"/>
	<polygon class="st7" points="124.4,247.4 100.2,217.2 98.3,220.3 124.8,253.4 	"/>
	<polygon class="st7" points="127.1,239.6 104.1,210.9 102.2,214 124.8,242.3 	"/>
	<polygon class="st7" points="125.5,263.1 125.1,257.9 96.9,222.5 96.6,223 88.6,224.9 115.9,259.1 	"/>
</g>
</svg>
