<?xml version="1.0" encoding="utf-8"?>
<!-- Generator: Adobe Illustrator 27.5.0, SVG Export Plug-In . SVG Version: 6.00 Build 0)  -->
<svg version="1.1" id="Layer_1" xmlns="http://www.w3.org/2000/svg" xmlns:xlink="http://www.w3.org/1999/xlink" x="0px" y="0px"
	 viewBox="0 0 197.8 320.5" style="enable-background:new 0 0 197.8 320.5;" xml:space="preserve">
<style type="text/css">
	.st0{fill:#2D1E66;}
	.st1{fill:#FF8B00;}
	.st2{fill:#FFCF03;}
	.st3{fill:#004DA2;}
	.st4{fill:#FFFF03;}
	.st5{fill:#FFF8C5;}
	.st6{fill:#FFB600;}
	.st7{fill:#FFEC03;}
</style>
<g>
	<g id="Layer_2_00000096753085636533827310000017445823598946157246_">
		<g id="_Layer_">
			<g>
				<polygon class="st0" points="138.1,0 78.4,150.2 134.6,150.2 197.8,0 				"/>
				<path class="st1" d="M145.9,171.9v-17.8c0-7.3-5.9-13.2-13.2-13.2H78.4c-7.3,0-13.2,5.9-13.2,13.2v17.8
					c-23.6,13.9-39.5,39.5-39.5,68.9c0,44.1,35.7,79.8,79.8,79.8s79.8-35.7,79.8-79.8C185.3,211.4,169.5,185.7,145.9,171.9
					L145.9,171.9z M74.5,167.2v-13.1c0-2.1,1.7-3.9,3.9-3.9h54.3c2.1,0,3.9,1.7,3.9,3.9v13.1c-9.5-4-20-6.2-31-6.2
					S84.1,163.2,74.5,167.2L74.5,167.2z"/>
				<path class="st2" d="M105.5,305.5c-35.7,0-64.8-29.1-64.8-64.8s29.1-64.8,64.8-64.8s64.8,29.1,64.8,64.8
					S141.3,305.5,105.5,305.5z"/>
				<polygon class="st3" points="0,0 65.2,0 136.5,153.3 74.6,153.3 				"/>
				<polygon class="st4" points="127.6,268.3 105.4,259.1 83.1,268.1 85.1,244.2 69.6,225.8 93,220.2 105.7,199.9 118.2,220.4 
					141.5,226.1 125.9,244.4 				"/>
				<g>
					<polygon class="st5" points="105.4,259.1 106.3,259.5 77.8,223.9 73.4,224.9 101.9,260.5 					"/>
					<polygon class="st5" points="126.2,249.6 97.3,213.3 95,217 126.8,256.8 					"/>
					<polygon class="st5" points="129.4,240.2 102,205.8 99.7,209.5 126.7,243.4 					"/>
					<polygon class="st5" points="127.6,268.3 127.1,262.1 93.3,219.7 93,220.2 83.3,222.5 116.1,263.6 					"/>
				</g>
			</g>
		</g>
	</g>
</g>
<polygon class="st6" points="168.3,240.7 156.4,257.3 156.3,277.6 137,284 125,300.5 105.6,294.2 86.1,300.5 74.1,284 54.8,277.6 
	54.7,257.3 42.8,240.7 54.7,224.2 54.8,203.8 74.1,197.5 86.1,181 105.6,187.3 125,181 137,197.5 156.3,203.8 156.4,224.2 "/>
<circle class="st7" cx="105.5" cy="240.7" r="40.9"/>
</svg>
