<?xml version="1.0" encoding="UTF-8"?>
<svg id="Layer_2" data-name="Layer 2" xmlns="http://www.w3.org/2000/svg" width="262.16" height="241.68" viewBox="0 0 262.16 241.68">
  <defs>
    <style>
      .cls-1 {
        fill: #ffb10f;
      }
    </style>
  </defs>
  <g id="_Layer_" data-name="&amp;lt;Layer&amp;gt;">
    <g>
      <g>
        <g>
          <path class="cls-1" d="m193.36,213.64c-13.02,7.97-27.94,13.25-44.06,14.96l-.32-2.96c16.89-1.8,32.43-7.61,45.75-16.4-.53,1.47-1.01,2.93-1.37,4.4Z"/>
          <g>
            <g>
              <path class="cls-1" d="m171.42,21.22c-.52-1.07-1.04-1.91-1.11-2.03v-.02c-6.15-10.21-15.48-11.84-29.38-9.83,1.49,2.18,5.81,8.08,11.04,11.32h0c.44.12,6.21,5.16,19.45.57Z"/>
              <path class="cls-1" d="m170.4,23c-7.47,2.3-13.66,2.06-18.42-.72-3.32,2.18-6.19,4.73-7.43,5.89,11.41,5.56,18.29,4.13,25.85-5.17Z"/>
              <path class="cls-1" d="m171.95,15.75c-.38-7.44-3.58-12.47-15.49-15.75,0,1.48.06,4.65.62,7.95,3.91.78,8.29,2.2,12.43,7.5.86.09,1.29.13,2.43.3Z"/>
            </g>
            <g>
              <path class="cls-1" d="m196.09,39.73c-.22-2.91-.17-4.49-.14-5.8,1.04.35,1.55.51,2.8.99-2.41-8.54-6.62-10.65-11.25-13.37v-.02c-5.85-2.77-16.11-4.43-16.21-4.45,4.92,18.38,13.62,22.39,24.8,22.65Z"/>
              <path class="cls-1" d="m196.33,42.22c-.04-.39-.08-.77-.12-1.13-7.85-.17-13.84-2.41-17.83-6.67-4.52,1.32-8.69,3.2-10.41,4.03,10,9.55,17.9,9.98,28.37,3.78Z"/>
              <path class="cls-1" d="m201.59,36.05c3.64-9.6,1.97-16.59-10.01-24.12-.56,1.54-1.73,5.05-2.42,8.89,6.04,3.07,9.54,7.65,11.29,14.77.35.14.73.3,1.13.47Z"/>
            </g>
            <g>
              <path class="cls-1" d="m222.56,62.02c-.24-12.53-7.99-16.64-8.88-17.68h0c-4.19-3.19-9.9-6.16-16.25-8.44.41,14.39,3.22,25.19,18.05,29.84.41-3.25.86-5.32,1.32-7.23,1.57.87,3.1,1.73,5.75,3.51Z"/>
              <path class="cls-1" d="m215.08,70.09c.06-1.02.14-2.02.25-2.96-7.15-2.18-11.89-5.58-14.84-10.65-5.41.4-10.59,1.54-12.63,2.03,7.91,12.29,15.92,14.59,27.22,11.58Z"/>
              <path class="cls-1" d="m225.22,63.87c6.74-9.72,6.92-17.81-4.23-28.9-1,1.51-3.32,5.17-5.18,9.27,5.75,4.77,8.31,10.6,8.25,18.8.37.26.76.54,1.16.82Z"/>
            </g>
            <g>
              <path class="cls-1" d="m239.05,94.17c2.64-13.26-3.91-18.27-5.27-20.77h.02c-4.56-5.26-10.09-9-15.94-12.63-2.29,13.15-3.29,25.25,8.34,33.55,1.11-3.1,2.43-6.16,4.07-9.29,3.31,2.94,6.29,6.12,8.78,9.13Z"/>
              <path class="cls-1" d="m224.02,101.67c.43-1.88,1-3.84,1.72-5.97-4.87-3.37-7.78-7.1-9.36-11.96-6.09-.66-12.11-.44-14.38-.31,5.58,14.78,13.55,17.94,22.03,18.25Z"/>
              <path class="cls-1" d="m241.27,96.98c9.86-9.34,12.08-18.21,2.46-32.6-1.42,1.4-4.9,4.98-7.95,9.17,5.16,6.31,6.54,13.16,4.47,22.1.34.43.66.84,1.02,1.33Z"/>
            </g>
            <g>
              <path class="cls-1" d="m244.66,127.75c5.27-11.55,2.12-17.11-.09-22.86h0c-3.97-7.73-10.96-14.78-13.84-17.52-5.67,11.71-9.84,25.1-2.04,35.78,2.33-3.4,5.18-7.03,8.33-10.36,3.08,4.78,5.78,10.19,7.63,14.96Z"/>
              <path class="cls-1" d="m223.53,132.07c1.15-2.46,2.59-5.03,4.31-7.64-3.08-4.05-4.59-7.98-4.85-12.65-6.4-2.09-12.88-3.21-15.36-3.6,1.43,10.38,4.16,19.86,15.9,23.89Z"/>
              <path class="cls-1" d="m246.06,131.73c13.09-7.76,18-16.72,11.48-34.52-1.85,1.15-6.64,4.23-11.13,8.11,2.73,5.68,4.59,13.02-1.04,24.35.24.68.47,1.37.69,2.06Z"/>
            </g>
            <g>
              <path class="cls-1" d="m240.86,158.94c7.97-10.92,5.1-17.92,5.12-21.41h.02c-1.78-9.34-6.73-18.31-9.19-22.36-9.82,11.27-18.4,24.25-13.25,37.8,7.93-6.29,15.29-9.93,15.44-10.02,1.13,5.23,1.75,10.98,1.87,15.98Z"/>
              <path class="cls-1" d="m215.34,160.65c1.94-2.21,4.3-4.46,7.01-6.7-2.11-5.26-2.51-9.93-1.29-15.02-6.11-3.91-12.74-6.84-15.18-7.87-1.68,11.38-2.02,22.18,9.46,29.59Z"/>
              <path class="cls-1" d="m262.03,132.55c-3.46,1.12-10.38,3.48-14.42,5.66,1.42,8.45-.61,15.39-6.72,23.07,0,1.45-.06,2.88-.16,4.27,14.68-4.73,22.6-13.11,21.29-33Z"/>
            </g>
            <g>
              <path class="cls-1" d="m238.46,171.33l.04-.02c1.54-8.03.91-18.28-.57-26.2-12.09,6.83-26.19,16.94-28.23,29.89,4.61-1.78,9.97-3.5,15.14-4.7-.66,7.69-2.64,17-5.58,24.48,13.3-6.92,16.04-12.84,19.21-23.45Z"/>
              <path class="cls-1" d="m208.11,175.63c.55-4.22,1.87-7.63,4.37-11.26-3.04-4.3-9.44-10.28-12.62-13.15-5.69,9.74-9.74,20.84-4.05,30.55,3.81-2.38,8.06-4.42,12.3-6.13Z"/>
              <path class="cls-1" d="m256.92,171.24c-2.52-.02-9.69.04-17.15,1.11-2.04,9.76-7.41,17.58-21.33,24.4-.19.44-.39.88-.59,1.31,21.4,1.23,32.5-5.71,39.06-26.81Z"/>
            </g>
            <g>
              <path class="cls-1" d="m201.36,214.05c10.07-5.69,13.98-14.38,14.17-14.64h.03c3.8-7.27,6.35-16.45,7.59-27.28,0,0,0,0,0-.01-29.23,7.62-46.59,20.32-42.03,47.99,6.81-1.03,13.02-1.98,20.24-6.06Z"/>
              <path class="cls-1" d="m179.46,218.87c-1.65-14.11,2.27-25.89,11.13-33.35-3.11-7.82-7.55-14.95-9-17.2-2.94,2.72-14.67,14.3-14.64,25.64.03,10.32,8.87,20.96,12.52,24.91Z"/>
              <path class="cls-1" d="m234.68,204.34c-2.54-.67-10.11-2.55-18.3-3.41-6.56,11.88-18.54,18.26-33.24,20.29,22.09,7.78,37.25,4.58,51.54-16.88Z"/>
            </g>
          </g>
        </g>
        <g>
          <path class="cls-1" d="m68.8,213.64c13.02,7.97,27.94,13.25,44.06,14.96l.32-2.96c-16.89-1.8-32.43-7.61-45.75-16.4.53,1.47,1.01,2.93,1.37,4.4Z"/>
          <g>
            <g>
              <path class="cls-1" d="m90.74,21.22c.52-1.07,1.04-1.91,1.11-2.03v-.02c6.15-10.21,15.48-11.84,29.38-9.83-1.49,2.18-5.81,8.08-11.04,11.32h0c-.44.12-6.21,5.16-19.45.57Z"/>
              <path class="cls-1" d="m91.77,23c7.47,2.3,13.66,2.06,18.42-.72,3.32,2.18,6.19,4.73,7.43,5.89-11.41,5.56-18.29,4.13-25.85-5.17Z"/>
              <path class="cls-1" d="m90.21,15.75c.38-7.44,3.58-12.47,15.49-15.75,0,1.48-.06,4.65-.62,7.95-3.91.78-8.29,2.2-12.43,7.5-.86.09-1.29.13-2.43.3Z"/>
            </g>
            <g>
              <path class="cls-1" d="m66.07,39.73c.22-2.91.17-4.49.14-5.8-1.04.35-1.55.51-2.8.99,2.41-8.54,6.62-10.65,11.25-13.37v-.02c5.85-2.77,16.11-4.43,16.21-4.45-4.92,18.38-13.62,22.39-24.8,22.65Z"/>
              <path class="cls-1" d="m65.83,42.22c.04-.39.08-.77.12-1.13,7.85-.17,13.84-2.41,17.83-6.67,4.52,1.32,8.69,3.2,10.41,4.03-10,9.55-17.9,9.98-28.37,3.78Z"/>
              <path class="cls-1" d="m60.58,36.05c-3.64-9.6-1.97-16.59,10.01-24.12.56,1.54,1.73,5.05,2.42,8.89-6.04,3.07-9.54,7.65-11.29,14.77-.35.14-.73.3-1.13.47Z"/>
            </g>
            <g>
              <path class="cls-1" d="m39.6,62.02c.24-12.53,7.99-16.64,8.88-17.68h0c4.19-3.19,9.9-6.16,16.25-8.44-.41,14.39-3.21,25.19-18.05,29.84-.41-3.25-.86-5.32-1.32-7.23-1.57.87-3.1,1.73-5.75,3.51Z"/>
              <path class="cls-1" d="m47.09,70.09c-.06-1.02-.14-2.02-.25-2.96,7.15-2.18,11.89-5.58,14.83-10.65,5.42.4,10.59,1.54,12.63,2.03-7.91,12.29-15.92,14.59-27.22,11.58Z"/>
              <path class="cls-1" d="m36.95,63.87c-6.74-9.72-6.92-17.81,4.23-28.9,1.01,1.51,3.32,5.17,5.18,9.27-5.75,4.77-8.31,10.6-8.25,18.8-.37.26-.76.54-1.16.82Z"/>
            </g>
            <g>
              <path class="cls-1" d="m23.11,94.17c-2.64-13.26,3.91-18.27,5.27-20.77h-.02c4.56-5.26,10.09-9,15.94-12.63,2.29,13.15,3.29,25.25-8.34,33.55-1.11-3.1-2.43-6.16-4.07-9.29-3.31,2.94-6.29,6.12-8.78,9.13Z"/>
              <path class="cls-1" d="m38.15,101.67c-.43-1.88-1-3.84-1.72-5.97,4.87-3.37,7.78-7.1,9.36-11.96,6.09-.66,12.11-.44,14.38-.31-5.58,14.78-13.55,17.94-22.03,18.25Z"/>
              <path class="cls-1" d="m20.89,96.98c-9.86-9.34-12.08-18.21-2.46-32.6,1.42,1.4,4.9,4.98,7.95,9.17-5.16,6.31-6.54,13.16-4.47,22.1-.34.43-.66.84-1.02,1.33Z"/>
            </g>
            <g>
              <path class="cls-1" d="m17.51,127.75c-5.27-11.55-2.12-17.11.09-22.86h0c3.97-7.73,10.96-14.78,13.84-17.52,5.67,11.71,9.84,25.1,2.04,35.78-2.33-3.4-5.18-7.03-8.33-10.36-3.08,4.78-5.78,10.19-7.63,14.96Z"/>
              <path class="cls-1" d="m38.63,132.07c-1.15-2.46-2.59-5.03-4.31-7.64,3.08-4.05,4.59-7.98,4.85-12.65,6.4-2.09,12.88-3.21,15.36-3.6-1.43,10.38-4.16,19.86-15.9,23.89Z"/>
              <path class="cls-1" d="m16.11,131.73c-13.09-7.76-18-16.72-11.48-34.52,1.85,1.15,6.64,4.23,11.13,8.11-2.73,5.68-4.59,13.02,1.04,24.35-.24.68-.47,1.37-.69,2.06Z"/>
            </g>
            <g>
              <path class="cls-1" d="m21.3,158.94c-7.97-10.92-5.1-17.92-5.12-21.41h-.02c1.78-9.34,6.73-18.31,9.19-22.36,9.82,11.27,18.4,24.25,13.25,37.8-7.93-6.29-15.29-9.93-15.44-10.02-1.13,5.23-1.75,10.98-1.87,15.98Z"/>
              <path class="cls-1" d="m46.82,160.65c-1.94-2.21-4.3-4.46-7.01-6.7,2.11-5.26,2.51-9.93,1.29-15.02,6.11-3.91,12.74-6.84,15.19-7.87,1.68,11.38,2.02,22.18-9.46,29.59Z"/>
              <path class="cls-1" d="m.14,132.55c3.46,1.12,10.38,3.48,14.42,5.66-1.42,8.45.61,15.39,6.72,23.07,0,1.45.06,2.88.16,4.27C6.75,160.82-1.16,152.44.14,132.55Z"/>
            </g>
            <g>
              <path class="cls-1" d="m23.7,171.33l-.04-.02c-1.55-8.03-.91-18.28.57-26.2,12.09,6.83,26.19,16.94,28.23,29.89-4.61-1.78-9.97-3.5-15.14-4.7.66,7.69,2.64,17,5.58,24.48-13.3-6.92-16.04-12.84-19.21-23.45Z"/>
              <path class="cls-1" d="m54.06,175.63c-.55-4.22-1.87-7.63-4.37-11.26,3.04-4.3,9.44-10.28,12.62-13.15,5.69,9.74,9.74,20.84,4.05,30.55-3.81-2.38-8.06-4.42-12.3-6.13Z"/>
              <path class="cls-1" d="m5.24,171.24c2.52-.02,9.69.04,17.15,1.11,2.04,9.76,7.41,17.58,21.33,24.4.19.44.39.88.59,1.31-21.4,1.23-32.5-5.71-39.06-26.81Z"/>
            </g>
            <g>
              <path class="cls-1" d="m60.81,214.05c-10.07-5.69-13.98-14.38-14.17-14.64h-.03c-3.8-7.27-6.35-16.45-7.59-27.28,0,0,0,0,0-.01,29.23,7.62,46.59,20.32,42.03,47.99-6.81-1.03-13.02-1.98-20.24-6.06Z"/>
              <path class="cls-1" d="m82.71,218.87c1.65-14.11-2.27-25.89-11.13-33.35,3.11-7.82,7.55-14.95,9-17.2,2.94,2.72,14.67,14.3,14.64,25.64-.03,10.32-8.87,20.96-12.52,24.91Z"/>
              <path class="cls-1" d="m27.49,204.34c2.54-.67,10.11-2.55,18.3-3.41,6.56,11.88,18.54,18.26,33.24,20.29-22.09,7.78-37.25,4.58-51.54-16.88Z"/>
            </g>
          </g>
        </g>
      </g>
      <g>
        <path class="cls-1" d="m132.05,215.54h-2.27c-2.9,0-5.27,2.37-5.27,5.27v15.6c0,2.9,2.37,5.27,5.27,5.27h2.27c2.9,0,5.27-2.37,5.27-5.27v-15.6c0-2.9-2.37-5.27-5.27-5.27h0Z"/>
        <path class="cls-1" d="m123.27,220.37c0-1.08.33-2.12.95-3.03-.7-.35-1.51-.54-2.34-.54h-1.31c-2.44,0-4.49,1.64-4.49,3.58v16.48c0,1.94,2.06,3.58,4.49,3.58h1.31c.83,0,1.64-.19,2.34-.54-.62-.92-.95-1.96-.95-3.03v-16.48Z"/>
        <path class="cls-1" d="m141.27,216.79h-1.31c-.83,0-1.64.19-2.34.54.62.92.95,1.96.95,3.03v16.48c0,1.08-.33,2.12-.95,3.03.7.35,1.51.54,2.34.54h1.31c2.44,0,4.49-1.64,4.49-3.58v-16.48c0-1.94-2.06-3.58-4.49-3.58Z"/>
      </g>
    </g>
  </g>
</svg>