<?xml version="1.0" encoding="UTF-8"?>
<svg xmlns="http://www.w3.org/2000/svg" width="241.11" height="328.91" viewBox="0 0 241.11 328.91">
  <defs>
    <style>
      .cls-1 {
        fill: #ffec03;
      }

      .cls-2 {
        fill: #ffdc01;
      }

      .cls-3, .cls-4 {
        fill: #ed1c24;
      }

      .cls-5 {
        fill: #ffa506;
      }

      .cls-6 {
        fill: #ffaa2e;
      }

      .cls-7 {
        fill: #ffcf03;
      }

      .cls-8 {
        fill: #ff9912;
      }

      .cls-4 {
        mix-blend-mode: multiply;
      }

      .cls-9 {
        isolation: isolate;
      }
    </style>
  </defs>
  <g class="cls-9">
    <g id="Layer_2" data-name="Layer 2">
      <g id="_Layer_" data-name="&amp;lt;Layer&amp;gt;">
        <g>
          <polygon class="cls-3" points="225.62 318.9 189.8 289.13 165.57 328.91 128.27 105.03 188.32 95.02 225.62 318.9"/>
          <polygon class="cls-3" points="8.04 307.69 46.72 281.76 66.74 323.81 126.84 104.95 68.14 88.83 8.04 307.69"/>
          <path class="cls-4" d="m32.29,219.37c15.51,13.87,34.29,24.15,55.02,29.52l39.53-143.94-58.7-16.12-35.85,130.54Z"/>
          <path class="cls-4" d="m188.32,95.02l-60.05,10,24.03,144.24c21.41-5.28,40.79-15.78,56.71-30.06l-20.69-124.18Z"/>
          <circle class="cls-7" cx="120.56" cy="120.56" r="120.56" transform="translate(-49.94 120.56) rotate(-45)"/>
          <path class="cls-5" d="m203.79,33.34c20.66,21.64,33.34,50.96,33.34,83.23,0,66.58-53.98,120.56-120.56,120.56-32.28,0-61.59-12.69-83.23-33.34,21.95,23,52.91,37.32,87.21,37.32,66.58,0,120.56-53.98,120.56-120.56,0-34.3-14.33-65.26-37.32-87.21Z"/>
          <g>
            <path class="cls-1" d="m194.79,120.56c0,7.7-6.79,14.24-9.05,21.18-2.34,7.2-.77,16.46-5.13,22.46-4.41,6.05-13.73,7.4-19.78,11.81-5.99,4.36-10.13,12.84-17.33,15.18-6.95,2.26-15.25-2.1-22.95-2.1s-16,4.35-22.95,2.1c-7.2-2.34-11.34-10.81-17.33-15.18-6.05-4.41-15.38-5.75-19.78-11.81-4.36-5.99-2.79-15.25-5.13-22.46-2.26-6.95-9.05-13.48-9.05-21.18s6.79-14.23,9.05-21.18c2.34-7.2.77-16.46,5.13-22.46,4.41-6.05,13.73-7.4,19.78-11.81,5.99-4.36,10.13-12.84,17.33-15.18,6.95-2.26,15.25,2.09,22.95,2.09s16-4.35,22.95-2.09c7.2,2.34,11.34,10.81,17.33,15.18,6.05,4.41,15.38,5.75,19.78,11.81,4.36,6,2.79,15.26,5.13,22.46,2.26,6.95,9.05,13.48,9.05,21.18Z"/>
            <path class="cls-2" d="m131.13,185.21c-9.22-2.03-11.93-2.03-21.15,0-3.27.72-7.74,1.8-10.71.84-5.25-1.7-9.44-9.76-15.83-14.41-6.42-4.67-15.4-6.23-18.6-10.62-3.15-4.33-1.89-13.34-4.36-20.95-1.07-3.28-2.82-6.25-4.52-9.11-5.68-9.57-5.67-11.25,0-20.81,1.7-2.87,3.46-5.84,4.52-9.11,2.47-7.6,1.21-16.62,4.36-20.95,3.2-4.4,12.16-5.94,18.6-10.62,6.39-4.65,10.57-12.7,15.83-14.41,2.98-.97,7.42.12,10.71.84,9.22,2.03,11.93,2.03,21.15,0,3.28-.72,7.74-1.81,10.71-.84,5.25,1.7,9.44,9.76,15.83,14.41,6.47,4.71,15.39,6.21,18.6,10.62,3.15,4.32,1.89,13.34,4.36,20.95,1.07,3.28,2.82,6.25,4.53,9.11,5.68,9.57,5.67,11.24,0,20.81-4.55,7.67-5.39,10.07-6.31,19.46-1.06,10.83-1.83,11.97-11.93,16.37-3.13,1.36-6.36,2.77-9.24,4.86-6.38,4.65-10.58,12.71-15.83,14.41-.8.26-7.32-.1-10.71-.84Z"/>
            <path class="cls-1" d="m178.73,120.56c0,32.13-26.05,58.18-58.18,58.18s-58.18-26.05-58.18-58.18,26.05-58.18,58.18-58.18,58.18,26.05,58.18,58.18Z"/>
          </g>
          <g>
            <g>
              <path class="cls-6" d="m102.23,201.06c4.83,3.8,6.12,10.12,6.12,10.12,0,0-6.55.15-11.38-3.65s-6.12-10.12-6.12-10.12c0,0,6.55-.15,11.38,3.65Z"/>
              <path class="cls-6" d="m96.39,210.95c5.84-2.03,11.97.24,11.97.24,0,0-3.33,5.55-9.17,7.58-5.83,2.03-11.97-.24-11.97-.24,0,0,3.33-5.55,9.17-7.58Z"/>
            </g>
            <g>
              <path class="cls-6" d="m83.37,195.95c4.25,4.42,4.65,10.85,4.65,10.85,0,0-6.51-.74-10.76-5.16-4.25-4.42-4.65-10.85-4.65-10.85,0,0,6.51.74,10.76,5.16Z"/>
              <path class="cls-6" d="m76.2,204.95c6.06-1.22,11.82,1.86,11.82,1.86,0,0-4.07,5.05-10.14,6.26-6.06,1.22-11.82-1.86-11.82-1.86,0,0,4.07-5.04,10.14-6.26Z"/>
              <path class="cls-6" d="m68.52,188.6c3.49,5.03,2.84,11.44,2.84,11.44,0,0-6.31-1.74-9.8-6.77-3.49-5.03-2.84-11.44-2.84-11.44,0,0,6.31,1.74,9.8,6.77Z"/>
              <path class="cls-6" d="m59.99,196.37c6.18-.26,11.37,3.67,11.37,3.67,0,0-4.83,4.35-11.02,4.6-6.18.26-11.37-3.67-11.37-3.67,0,0,4.83-4.35,11.02-4.6Z"/>
              <path class="cls-6" d="m54.65,177.42c2.14,5.71-.06,11.78-.06,11.78,0,0-5.69-3.19-7.83-8.9-2.15-5.71.06-11.78.06-11.78,0,0,5.69,3.19,7.84,8.91Z"/>
              <path class="cls-6" d="m44.46,182.92c6.06,1.23,10.12,6.28,10.12,6.28,0,0-5.76,3.06-11.82,1.84-6.06-1.23-10.13-6.28-10.13-6.28,0,0,5.76-3.06,11.82-1.83Z"/>
              <path class="cls-6" d="m44.16,164.46c.72,6.05-2.87,11.43-2.87,11.43,0,0-4.77-4.42-5.49-10.47-.72-6.05,2.88-11.43,2.88-11.43,0,0,4.77,4.42,5.49,10.47Z"/>
              <path class="cls-6" d="m32.94,167.44c5.6,2.59,8.34,8.45,8.34,8.45,0,0-6.33,1.64-11.93-.95-5.6-2.59-8.34-8.45-8.34-8.45,0,0,6.33-1.64,11.93.95Z"/>
            </g>
            <g>
              <path class="cls-6" d="m35.21,148.14c-.51,6.07-5.13,10.64-5.13,10.64,0,0-3.78-5.26-3.26-11.33.51-6.07,5.13-10.64,5.13-10.64,0,0,3.78,5.26,3.26,11.33Z"/>
              <path class="cls-6" d="m23.61,148.87c4.96,3.64,6.47,9.91,6.47,9.91,0,0-6.54.37-11.5-3.27-4.96-3.64-6.47-9.91-6.47-9.91,0,0,6.54-.37,11.5,3.27Z"/>
              <path class="cls-6" d="m30.59,132.58c-1.48,5.91-6.78,9.71-6.78,9.71,0,0-2.88-5.79-1.4-11.7,1.48-5.91,6.77-9.71,6.77-9.71,0,0,2.88,5.79,1.4,11.7Z"/>
              <path class="cls-6" d="m19.02,131.5c4.31,4.37,4.79,10.79,4.79,10.79,0,0-6.51-.65-10.83-5.02-4.31-4.37-4.79-10.79-4.79-10.79,0,0,6.52.65,10.83,5.02Z"/>
              <path class="cls-6" d="m30.09,115.25c-2.9,5.38-8.97,7.8-8.97,7.8,0,0-1.37-6.3,1.53-11.68,2.9-5.38,8.97-7.8,8.97-7.8,0,0,1.37,6.3-1.53,11.68Z"/>
              <path class="cls-6" d="m19.13,111.43c3.11,5.27,1.99,11.62,1.99,11.62,0,0-6.16-2.19-9.27-7.45-3.11-5.26-1.99-11.61-1.99-11.61,0,0,6.16,2.19,9.27,7.45Z"/>
              <path class="cls-6" d="m33.18,97.75c-4.1,4.56-10.58,5.51-10.58,5.51,0,0,.17-6.44,4.28-11,4.1-4.56,10.58-5.51,10.58-5.51,0,0-.17,6.44-4.27,11Z"/>
              <path class="cls-6" d="m23.44,91.51c1.76,5.84-.84,11.75-.84,11.75,0,0-5.47-3.55-7.23-9.39s.84-11.75.84-11.75c0,0,5.46,3.55,7.23,9.39Z"/>
            </g>
            <path class="cls-6" d="m39.51,83.36c-5.05,3.52-11.58,2.99-11.58,2.99,0,0,1.66-6.23,6.71-9.75,5.05-3.52,11.58-2.99,11.58-2.99,0,0-1.66,6.23-6.71,9.75Z"/>
            <path class="cls-6" d="m31.48,75.1c.37,6.08-3.54,11.25-3.54,11.25,0,0-4.5-4.68-4.87-10.76-.37-6.08,3.54-11.25,3.54-11.25,0,0,4.5,4.68,4.87,10.76Z"/>
            <path class="cls-6" d="m47.44,70.35c-5.55,2.69-11.91,1.15-11.91,1.15,0,0,2.64-5.9,8.2-8.58,5.55-2.69,11.91-1.15,11.91-1.15,0,0-2.64,5.9-8.2,8.59Z"/>
            <path class="cls-6" d="m40.83,60.94c-.62,6.06-5.31,10.56-5.31,10.56,0,0-3.69-5.32-3.07-11.38.62-6.06,5.31-10.56,5.31-10.56,0,0,3.69,5.32,3.07,11.38Z"/>
            <g>
              <path class="cls-6" d="m135.8,200.25c-4.83,3.8-6.12,10.12-6.12,10.12,0,0,6.55.15,11.38-3.65,4.83-3.8,6.12-10.12,6.12-10.12,0,0-6.55-.15-11.38,3.65Z"/>
              <path class="cls-6" d="m141.64,210.13c-5.84-2.03-11.97.24-11.97.24,0,0,3.33,5.55,9.17,7.58,5.83,2.03,11.97-.24,11.97-.24,0,0-3.33-5.55-9.17-7.58Z"/>
            </g>
            <g>
              <path class="cls-6" d="m152.27,195.95c-4.26,4.42-4.65,10.85-4.65,10.85,0,0,6.51-.74,10.76-5.16,4.26-4.42,4.65-10.85,4.65-10.85,0,0-6.51.74-10.76,5.16Z"/>
              <path class="cls-6" d="m159.45,204.95c-6.06-1.22-11.82,1.86-11.82,1.86,0,0,4.07,5.05,10.14,6.26,6.06,1.22,11.82-1.86,11.82-1.86,0,0-4.07-5.04-10.14-6.26Z"/>
              <path class="cls-6" d="m167.1,187.99c-3.49,5.03-2.84,11.44-2.84,11.44,0,0,6.31-1.74,9.8-6.77,3.49-5.03,2.84-11.44,2.84-11.44,0,0-6.31,1.74-9.8,6.77Z"/>
              <path class="cls-6" d="m175.63,195.75c-6.18-.26-11.37,3.67-11.37,3.67,0,0,4.83,4.35,11.02,4.6,6.18.26,11.37-3.67,11.37-3.67,0,0-4.83-4.35-11.02-4.6Z"/>
              <path class="cls-6" d="m180.5,177.09c-2.15,5.71.06,11.78.06,11.78,0,0,5.69-3.19,7.83-8.9,2.15-5.71-.06-11.78-.06-11.78,0,0-5.69,3.19-7.83,8.91Z"/>
              <path class="cls-6" d="m190.68,182.59c-6.06,1.23-10.13,6.28-10.13,6.28,0,0,5.76,3.06,11.82,1.84,6.06-1.23,10.13-6.28,10.13-6.28,0,0-5.76-3.06-11.82-1.83Z"/>
              <path class="cls-6" d="m191.56,163.27c-.72,6.05,2.87,11.43,2.87,11.43,0,0,4.77-4.42,5.49-10.47.72-6.05-2.88-11.43-2.88-11.43,0,0-4.77,4.42-5.49,10.47Z"/>
              <path class="cls-6" d="m202.77,166.26c-5.6,2.59-8.34,8.45-8.34,8.45,0,0,6.33,1.64,11.93-.95,5.6-2.59,8.34-8.45,8.34-8.45,0,0-6.33-1.64-11.93.95Z"/>
            </g>
            <g>
              <path class="cls-6" d="m199.49,147.84c.52,6.07,5.13,10.64,5.13,10.64,0,0,3.78-5.26,3.26-11.33-.51-6.07-5.13-10.64-5.13-10.64,0,0-3.78,5.26-3.26,11.33Z"/>
              <path class="cls-6" d="m211.09,148.57c-4.96,3.64-6.47,9.91-6.47,9.91,0,0,6.54.37,11.5-3.27,4.96-3.64,6.47-9.91,6.47-9.91,0,0-6.54-.37-11.5,3.27Z"/>
              <path class="cls-6" d="m204.11,132.25c1.48,5.91,6.78,9.71,6.78,9.71,0,0,2.88-5.79,1.4-11.7-1.48-5.91-6.77-9.71-6.77-9.71,0,0-2.88,5.79-1.4,11.7Z"/>
              <path class="cls-6" d="m215.68,131.17c-4.31,4.37-4.79,10.79-4.79,10.79,0,0,6.51-.65,10.83-5.02,4.31-4.37,4.79-10.79,4.79-10.79,0,0-6.52.65-10.83,5.02Z"/>
              <path class="cls-6" d="m204.53,115.5c2.9,5.38,8.97,7.8,8.97,7.8,0,0,1.37-6.3-1.53-11.68-2.9-5.38-8.97-7.8-8.97-7.8,0,0-1.37,6.3,1.53,11.68Z"/>
              <path class="cls-6" d="m215.49,111.68c-3.11,5.26-1.99,11.61-1.99,11.61,0,0,6.16-2.19,9.27-7.45,3.11-5.27,1.99-11.62,1.99-11.62,0,0-6.16,2.19-9.27,7.45Z"/>
              <path class="cls-6" d="m201.29,97.99c4.1,4.56,10.58,5.51,10.58,5.51,0,0-.17-6.44-4.28-11-4.1-4.56-10.58-5.51-10.58-5.51,0,0,.17,6.44,4.28,11Z"/>
              <path class="cls-6" d="m211.03,91.75c-1.76,5.84.84,11.75.84,11.75,0,0,5.46-3.55,7.23-9.39,1.76-5.84-.84-11.75-.84-11.75,0,0-5.46,3.55-7.23,9.39Z"/>
            </g>
            <path class="cls-6" d="m195.14,83.84c5.05,3.52,11.58,2.99,11.58,2.99,0,0-1.66-6.23-6.71-9.75-5.05-3.52-11.58-2.99-11.58-2.99,0,0,1.66,6.23,6.71,9.75Z"/>
            <path class="cls-6" d="m203.17,75.59c-.37,6.08,3.54,11.25,3.54,11.25,0,0,4.5-4.68,4.87-10.76.37-6.08-3.54-11.25-3.54-11.25,0,0-4.5,4.68-4.86,10.76Z"/>
            <path class="cls-6" d="m186.75,70.93c5.55,2.69,11.91,1.15,11.91,1.15,0,0-2.64-5.9-8.19-8.58-5.55-2.69-11.91-1.15-11.91-1.15,0,0,2.64,5.9,8.19,8.59Z"/>
            <path class="cls-6" d="m193.36,61.52c.62,6.06,5.31,10.56,5.31,10.56,0,0,3.69-5.32,3.07-11.38-.62-6.06-5.3-10.56-5.3-10.56,0,0-3.69,5.32-3.07,11.38Z"/>
            <path class="cls-8" d="m182.29,52.35c-.25.26-.54.52-.87.77-.1.07-.2.12-.3.19,19.41,16.52,31.62,40.44,31.62,67,0,49.74-42.85,90.21-95.52,90.21S21.7,170.05,21.7,120.3c0-25.38,11.16-48.34,29.09-64.75-.51-.15-1.02-.35-1.54-.61-17.94,16.64-29.09,39.79-29.09,65.36,0,50.54,43.54,91.66,97.06,91.66s97.06-41.12,97.06-91.66c0-26.92-12.36-51.17-32-67.96Z"/>
            <path class="cls-6" d="m60.29,58.84c-6.05,1.28-11.84-1.73-11.84-1.73,0,0,4.02-5.09,10.07-6.37,6.05-1.28,11.84,1.73,11.84,1.73,0,0-4.02,5.09-10.07,6.37Z"/>
            <path class="cls-6" d="m56.2,48.14c-2.09,5.73-7.75,8.97-7.75,8.97,0,0-2.27-6.05-.17-11.78,2.09-5.73,7.75-8.98,7.75-8.98,0,0,2.27,6.05.17,11.78Z"/>
            <path class="cls-6" d="m174.56,58.84c6.05,1.28,11.84-1.73,11.84-1.73,0,0-4.02-5.09-10.07-6.37-6.05-1.28-11.84,1.73-11.84,1.73,0,0,4.02,5.09,10.07,6.37Z"/>
            <path class="cls-6" d="m178.65,48.14c2.09,5.73,7.75,8.97,7.75,8.97,0,0,2.27-6.05.17-11.78-2.09-5.73-7.75-8.98-7.75-8.98,0,0-2.27,6.05-.17,11.78Z"/>
          </g>
          <polygon class="cls-1" points="97.79 39.29 89.53 36.92 81.99 41.04 81.69 32.46 75.45 26.56 83.52 23.62 87.2 15.85 92.49 22.63 101.01 23.73 96.2 30.85 97.79 39.29"/>
          <polygon class="cls-1" points="152.72 40.02 159.82 44.85 160.95 36.34 167.75 31.08 160 27.37 157.09 19.28 151.17 25.5 142.58 25.76 146.67 33.32 144.27 41.57 152.72 40.02"/>
          <polygon class="cls-1" points="128.64 38.11 120.84 34.51 112.76 37.43 113.78 28.89 108.5 22.11 116.93 20.44 121.76 13.33 125.95 20.83 134.2 23.22 128.36 29.53 128.64 38.11"/>
        </g>
      </g>
    </g>
  </g>
</svg>