<?xml version="1.0" encoding="UTF-8"?>
<svg xmlns="http://www.w3.org/2000/svg" width="69.91" height="90.26" viewBox="0 0 69.91 90.26">
  <defs>
    <style>
      .cls-1 {
        fill: #e6e6e6;
      }

      .cls-2, .cls-3 {
        fill: #ffb0ac;
      }

      .cls-4 {
        fill: #fff;
      }

      .cls-5 {
        fill: #fdecd3;
      }

      .cls-6, .cls-7, .cls-8 {
        fill: #3a4967;
      }

      .cls-7, .cls-9, .cls-3, .cls-8, .cls-10 {
        mix-blend-mode: multiply;
      }

      .cls-3, .cls-8, .cls-10 {
        opacity: .5;
      }

      .cls-11 {
        isolation: isolate;
      }
    </style>
  </defs>
  <g class="cls-11">
    <g id="Layer_1" data-name="Layer 1">
      <g>
        <ellipse class="cls-1" cx="36.25" cy="85.41" rx="32.54" ry="4.84"/>
        <g>
          <g>
            <path class="cls-6" d="m67.21,18.28c-.64.59-1.36,1.03-2.14,1.37-1.19.54-2.48.87-3.75,1.18-2.26.58-3.46.67-5.31-.86-.02-.02-.04-.04-.06-.05-1.42-1.18-3.29-2.96-4.72-4.96-.02-.02-.03-.04-.04-.06-1.7-2.38-2.77-5.05-1.72-7.36-.06-.75.05-1.47.31-2.15,1.04-2.78,4.36-4.96,7.17-5.3,4.92-.59,8.51,1.93,11.14,5.88,2.47,3.73,2.69,9.07-.87,12.31Z"/>
            <path class="cls-2" d="m64.36,17.38c-.2.29-.45.56-.73.81-1.23,1.11-2.84,1.5-4.39,1.9-1.4.35-2.25.47-3.29-.17-.21-.12-.42-.28-.66-.47-1.23-1.02-2.95-2.68-4.06-4.49-.02-.02-.03-.04-.04-.06-.95-1.56-1.44-3.23-.77-4.7-.14-1.64.91-3.16,2.33-4.2.99-.73,2.17-1.21,3.23-1.34,3.66-.44,6.33,1.43,8.29,4.38,1.65,2.47,1.95,5.93.08,8.35Z"/>
            <path class="cls-3" d="m65.07,19.64c-1.19.54-2.48.87-3.75,1.18-2.26.58-3.46.67-5.31-.86-.02-.02-.04-.04-.06-.05-.21-.12-.42-.28-.66-.47-1.23-1.02-2.95-2.68-4.06-4.49-.02-.02-.03-.04-.04-.06-1.7-2.38-2.77-5.05-1.72-7.36-.06-.75.05-1.47.31-2.15.97.06,1.96.27,2.97.61,2.78.93,5.64,2.82,8.02,5.55,1.61,1.84,2.81,3.85,3.59,5.84.3.76.54,1.52.72,2.26Z"/>
          </g>
          <g>
            <path class="cls-6" d="m18.6,16.89s-.03.05-.05.07c-1.5,1.94-3.42,3.64-4.86,4.77-.02,0-.03.03-.04.03-1.89,1.47-3.09,1.34-5.34.69-.78-.22-1.57-.44-2.34-.72-1.26-.45-2.47-1.05-3.46-2.02-3.46-3.36-3.07-8.68-.48-12.33C4.78,3.52,8.45,1.12,13.35,1.86c2.25.34,4.8,1.89,6.2,3.95.77,1.13,1.19,2.41,1.04,3.73.98,2.35-.2,5.02-1.99,7.35Z"/>
            <path class="cls-2" d="m18.6,16.89s-.03.05-.05.07c-1.17,1.76-2.91,3.33-4.16,4.3-.25.19-.48.35-.7.47-1.05.58-1.9.44-3.28.05-1.44-.42-2.96-.84-4.13-1.87-.06-.04-.13-.1-.19-.16-2.57-2.5-2.28-6.47-.35-9.18,2.05-2.89,4.78-4.67,8.42-4.12.64.1,1.31.33,1.95.66,1.97,1,3.68,2.97,3.43,5.06.62,1.5.06,3.18-.95,4.72Z"/>
            <path class="cls-3" d="m18.6,16.89s-.03.05-.05.07c-1.17,1.76-2.91,3.33-4.16,4.3-.25.19-.48.35-.7.47-.02,0-.03.03-.04.03-1.89,1.47-3.09,1.34-5.34.69-.78-.22-1.57-.44-2.34-.72.07-.6.17-1.21.31-1.82.57-2.46,1.77-5.03,3.59-7.4,1.82-2.38,4-4.21,6.24-5.4,1.14-.61,2.3-1.05,3.43-1.3.77,1.13,1.19,2.41,1.04,3.73.98,2.35-.2,5.02-1.99,7.35Z"/>
          </g>
          <g>
            <path class="cls-6" d="m57.37,79.16c-.52.28-1.03.4-1.49.37-1.45-.09-2.44-1.53-1.7-3.3,0,0,1.88-3.16,3.55-4.53,1.28-1.06,2.6-1.7,3.68-.92,3.26,2.36-2.05,7.27-4.03,8.38Z"/>
            <g class="cls-10">
              <path class="cls-6" d="m55.88,79.54c-1.45-.09-2.44-1.53-1.7-3.3,0,0,1.88-3.16,3.55-4.53.32.02.63.13.93.34,2.7,1.96-.47,5.66-2.77,7.5Z"/>
            </g>
          </g>
          <path class="cls-6" d="m63.35,83.12c-1.66,3.1-4.34,4.9-6,4.01-.04-.03-.08-.05-.11-.08,0,.02-.02.03-.03.06-3.29-.74-6.81-1.32-10.49-1.7-3.46-.35-7.09-.55-10.8-.55-3.17,0-6.28.14-9.27.42-3.94.35-7.71.92-11.23,1.68-.09.07-.18.13-.28.18-1.66.88-4.34-.92-6-4.01-1.66-3.1-1.66-6.34,0-7.22,1.25-.67,3.1.19,4.64,2,.13-.86.32-1.7.57-2.52.03-.14.08-.29.12-.42.48-1.5,1.13-2.91,1.95-4.25,1.44-2.34,3.35-4.39,5.62-6.05,3.81-2.78,8.64-4.44,13.89-4.44s9.75,1.55,13.49,4.16c4.81,3.33,8.1,8.41,8.76,14.22,1.63-2.27,3.78-3.46,5.19-2.71,1.65.88,1.65,4.12,0,7.22Z"/>
          <path class="cls-5" d="m47.49,80.7c0,1.66-.26,3.26-.77,4.71-3.45-.36-7.09-.55-10.8-.55-3.17,0-6.28.13-9.27.41-.47-1.42-.72-2.96-.72-4.57,0-1.41.19-2.75.55-4.02.45.18.93.28,1.43.31h.24c1.17,0,2.28-.43,3.15-1.22.93-.84,1.47-1.99,1.54-3.26.05-1.13-.3-2.22-.98-3.1,1.46-.87,3.1-1.36,4.85-1.36,1.84,0,3.57.55,5.09,1.5-.62.85-.93,1.89-.88,2.96.06,1.27.61,2.42,1.53,3.26.88.79,1.98,1.22,3.16,1.22h.23c.39-.02.77-.09,1.13-.2.34,1.22.52,2.55.52,3.91Z"/>
          <path class="cls-8" d="m49.41,64.39c-3.11,2.53-8.16,4.18-13.86,4.18s-10.38-1.52-13.52-3.9c3.81-2.78,8.64-4.44,13.89-4.44s9.75,1.55,13.49,4.16Z"/>
          <path class="cls-5" d="m67.88,41.51c-1.21-2.9-1.86-6-1.83-9.15,0-.05,0-.1,0-.14h0c0-15.99-13.09-29.08-29.08-29.08h-2.37c-15.99,0-29.08,13.09-29.08,29.08h0c0,.26,0,.52.01.77.07,1.93-.39,3.85-1.41,5.49-1.81,2.91-2.81,5.92-2.81,8.76,0,11.04,15.18,18.29,33.91,18.29s33.91-7.25,33.91-18.29c0-1.86-.43-3.79-1.24-5.73Z"/>
          <g>
            <circle class="cls-6" cx="21.4" cy="31.73" r="8.84" transform="translate(-13.34 47.79) rotate(-80.81)"/>
            <path class="cls-6" d="m34.99,48.62c-4.32,0-7.83-3.51-7.83-7.83,0-.55.45-1,1-1s1,.45,1,1c0,3.21,2.61,5.83,5.83,5.83,2.35,0,4.46-1.4,5.37-3.56.22-.51.8-.75,1.31-.53.51.22.75.8.53,1.31-1.23,2.91-4.06,4.78-7.22,4.78Z"/>
            <circle class="cls-6" cx="50.65" cy="31.73" r="8.84" transform="translate(11.23 76.66) rotate(-80.81)"/>
          </g>
          <g class="cls-9">
            <path class="cls-5" d="m23.81,5.31c-7.07,5.22-11.89,15.33-11.89,26.88,0,.27,0,.54,0,.81.05,2.04-.31,4.06-1.11,5.79-1.42,3.06-2.21,6.24-2.21,9.23,0,6.78,4.05,12.2,10.34,15.55C8.44,60.67,1.31,54.89,1.31,47.32c0-2.84,1-5.85,2.81-8.76,1.02-1.64,1.49-3.55,1.42-5.49-.02-.25-.02-.51-.02-.77,0-12.19,7.6-22.69,18.29-26.99Z"/>
            <path class="cls-5" d="m69.12,47.32c0,7.57-7.13,13.34-17.64,16.24,6.3-3.35,10.34-8.77,10.34-15.55,0-1.96-.34-4-.98-6.04-.95-3.06-1.45-6.32-1.44-9.64v-.15c0-8.43-2.57-16.09-6.7-21.64-1.61-2.16-3.45-4-5.47-5.44,3.88,1.47,7.39,3.76,10.27,6.66,5.28,5.27,8.54,12.54,8.54,20.53v.15c-.03,3.15.61,6.24,1.83,9.14.8,1.94,1.24,3.87,1.24,5.73Z"/>
          </g>
          <g>
            <g class="cls-9">
              <path class="cls-6" d="m32.84,72.51c-.07,1.27-.61,2.42-1.54,3.26-.87.79-1.98,1.22-3.15,1.22h-.24c-.5-.03-.98-.13-1.43-.31-.69-.25-1.32-.67-1.82-1.23l-2.76-3.02c-.18-.2-.16-.51.04-.69s.5-.17.68.03l2.76,3.04c.39.43.87.75,1.4.95.37.15.77.24,1.19.26.99.04,1.95-.3,2.68-.96.73-.68,1.16-1.59,1.22-2.59.04-.93-.25-1.82-.83-2.52-.05-.06-.09-.12-.14-.17l-2.47-2.71c-.18-.2-.17-.51.03-.69s.51-.17.69.03l2.47,2.71c.08.1.16.19.24.29.68.88,1.03,1.97.98,3.1Z"/>
            </g>
            <path class="cls-7" d="m51.85,72.43l-2.76,3.02c-.57.64-1.31,1.1-2.12,1.34-.36.11-.74.18-1.13.2h-.23c-1.18,0-2.28-.43-3.16-1.22-.92-.84-1.47-1.99-1.53-3.26-.05-1.07.26-2.11.88-2.96.1-.15.22-.29.34-.43l2.47-2.71c.18-.2.49-.21.69-.03s.21.49.03.69l-2.47,2.71c-.1.11-.18.22-.26.33-.49.67-.74,1.5-.7,2.36.04,1,.47,1.91,1.21,2.59.73.66,1.68,1,2.68.96.31-.02.61-.07.89-.16.65-.18,1.24-.54,1.7-1.05l2.76-3.04c.18-.2.49-.21.68-.03.2.18.22.49.03.69Z"/>
          </g>
          <g>
            <path class="cls-4" d="m54.07,33.44c0,1.89-1.53,3.43-3.43,3.43s-3.43-1.53-3.43-3.43,1.53-3.43,3.43-3.43,3.43,1.53,3.43,3.43Z"/>
            <path class="cls-6" d="m50.96,32.82c-.37.88-1.39,1.3-2.27.93-.88-.37-1.3-1.39-.93-2.27.37-.88,1.39-1.3,2.27-.93.88.37,1.3,1.39.93,2.27Z"/>
          </g>
          <g>
            <path class="cls-4" d="m25.65,33.09c0,1.89-1.53,3.43-3.43,3.43s-3.43-1.53-3.43-3.43,1.53-3.43,3.43-3.43,3.43,1.53,3.43,3.43Z"/>
            <path class="cls-6" d="m25.34,32.37c-.35.84-1.33,1.24-2.17.89s-1.24-1.33-.89-2.17c.35-.84,1.33-1.24,2.17-.89.84.35,1.24,1.33.89,2.17Z"/>
          </g>
          <g>
            <path class="cls-2" d="m19.82,42.29c0,1.89-1.53,3.43-3.43,3.43s-3.43-1.53-3.43-3.43,1.53-3.43,3.43-3.43,3.43,1.53,3.43,3.43Z"/>
            <path class="cls-4" d="m15.74,39.43c0,.76-.62,1.38-1.38,1.38s-1.38-.62-1.38-1.38.62-1.38,1.38-1.38,1.38.62,1.38,1.38Z"/>
          </g>
          <g>
            <path class="cls-2" d="m52.68,42.29c0,1.89,1.53,3.43,3.43,3.43s3.43-1.53,3.43-3.43-1.53-3.43-3.43-3.43-3.43,1.53-3.43,3.43Z"/>
            <path class="cls-4" d="m56.76,39.43c0,.76.62,1.38,1.38,1.38s1.38-.62,1.38-1.38-.62-1.38-1.38-1.38-1.38.62-1.38,1.38Z"/>
          </g>
          <ellipse class="cls-6" cx="36.63" cy="36.87" rx="4.29" ry="1.86"/>
          <g>
            <path class="cls-8" d="m58.17,78.61l-1.99,4.66s1.27-6-.91-12.84c0,0,2.36,3.26,2.91,8.17Z"/>
            <path class="cls-8" d="m15.81,82.45l-1.99-4.64c.13-.85.31-1.66.52-2.43.03-.14.08-.29.12-.42.48-1.5,1.13-2.91,1.95-4.25-1.66,6.12-.67,11.32-.6,11.74Z"/>
          </g>
          <path class="cls-2" d="m59.7,81.02c-1.03,2.26-1.27,4.36-.55,4.69s2.14-1.24,3.17-3.5c1.03-2.26,1.27-4.36.55-4.69-.72-.33-2.14,1.24-3.17,3.5Z"/>
          <path class="cls-2" d="m12.86,81.02c1.03,2.26,1.27,4.36.55,4.69s-2.14-1.24-3.17-3.5c-1.03-2.26-1.27-4.36-.55-4.69.72-.33,2.14,1.24,3.17,3.5Z"/>
        </g>
      </g>
    </g>
  </g>
</svg>