<?xml version="1.0" encoding="UTF-8"?>
<svg xmlns="http://www.w3.org/2000/svg" width="67.82" height="87.26" viewBox="0 0 67.82 87.26">
  <defs>
    <style>
      .cls-1 {
        fill: #e6e6e6;
      }

      .cls-2 {
        fill: #ffb0ac;
      }

      .cls-3 {
        fill: #fff;
      }

      .cls-4, .cls-5 {
        fill: #f18f3d;
      }

      .cls-6 {
        fill: #fdecd3;
      }

      .cls-7, .cls-8, .cls-9 {
        fill: #3a4967;
      }

      .cls-8, .cls-10, .cls-5, .cls-9 {
        mix-blend-mode: multiply;
      }

      .cls-5, .cls-9 {
        opacity: .5;
      }

      .cls-11 {
        isolation: isolate;
      }
    </style>
  </defs>
  <g class="cls-11">
    <g id="Layer_1" data-name="Layer 1">
      <g>
        <ellipse class="cls-1" cx="34.18" cy="82.42" rx="32.54" ry="4.84"/>
        <g>
          <path class="cls-7" d="m62.04,79.98c-1.66,3.1-4.34,4.9-6,4.01-.04-.03-.08-.05-.11-.08,0,.02-.02.03-.03.06-3.29-.74-6.81-1.32-10.49-1.7-3.46-.35-7.09-.55-10.8-.55-3.17,0-6.28.14-9.27.42-3.94.35-7.71.92-11.23,1.68-.09.07-.18.13-.28.18-1.66.88-4.34-.92-6-4.01-1.66-3.1-1.66-6.34,0-7.22,1.25-.67,3.1.19,4.64,2,.13-.86.32-1.7.57-2.52.03-.14.08-.29.12-.42.48-1.5,1.13-2.91,1.95-4.25,1.44-2.34,3.35-4.39,5.62-6.05,3.81-2.78,8.64-4.44,13.89-4.44s9.75,1.55,13.49,4.16c4.81,3.33,8.1,8.42,8.76,14.22,1.63-2.27,3.78-3.46,5.19-2.71,1.65.88,1.65,4.12,0,7.22Z"/>
          <path class="cls-6" d="m46.19,77.57c0,1.66-.27,3.25-.77,4.7-3.46-.35-7.1-.55-10.81-.55-3.17,0-6.27.14-9.27.41-.46-1.41-.72-2.95-.72-4.56,0-1.41.2-2.76.55-4.02.45.18.93.27,1.44.3.07,0,.15.01.23.01,1.18,0,2.28-.44,3.16-1.22.92-.85,1.47-2,1.53-3.26.05-1.14-.3-2.23-.98-3.11,1.46-.87,3.1-1.36,4.85-1.36,1.84,0,3.57.55,5.09,1.5-.62.86-.93,1.89-.88,2.97.06,1.26.61,2.41,1.53,3.26.88.78,1.98,1.22,3.16,1.22.08,0,.16-.01.23-.01.39-.02.77-.09,1.13-.2.34,1.23.53,2.55.53,3.92Z"/>
          <path class="cls-9" d="m48.1,61.25c-3.11,2.53-8.16,4.18-13.86,4.18s-10.38-1.52-13.52-3.9c3.81-2.78,8.64-4.44,13.89-4.44s9.75,1.55,13.49,4.16Z"/>
          <path class="cls-6" d="m67.82,44.1c0,7.03-6.17,12.53-15.49,15.58-5.3,1.76-11.63,2.71-18.42,2.71s-13.11-.95-18.41-2.71c-.29-.1-.58-.19-.86-.29-.61-.22-1.21-.44-1.79-.67-.23-.1-.46-.19-.68-.29-.27-.11-.53-.23-.79-.35-.25-.11-.5-.22-.74-.35-.02-.02-.04-.03-.07-.04-.23-.1-.47-.22-.69-.35-.25-.13-.48-.26-.73-.39-.22-.13-.45-.26-.67-.38-.25-.16-.49-.3-.73-.45-.35-.22-.68-.44-1-.67-1.64-1.17-3.03-2.46-4.11-3.87-.1-.13-.19-.25-.28-.38-.32-.45-.61-.9-.86-1.37-.07-.13-.14-.26-.2-.39-.07-.12-.12-.24-.18-.36-.09-.18-.16-.37-.24-.55-.1-.23-.18-.47-.26-.7-.06-.18-.11-.36-.16-.54-.05-.18-.1-.36-.14-.54-.07-.28-.12-.56-.16-.86-.03-.14-.04-.28-.06-.42-.03-.24-.05-.49-.06-.74,0-.21-.02-.42-.02-.62s0-.43.02-.65c0-.05,0-.1,0-.15,0-.16.03-.32.04-.48.03-.28.06-.56.11-.84.03-.24.09-.48.14-.72.1-.48.23-.96.39-1.44.15-.48.33-.96.54-1.44.03-.1.08-.18.11-.28.41-.93.89-1.84,1.45-2.75.91-1.46,1.37-3.14,1.41-4.84,0-.22,0-.43,0-.65,0-.26-.02-.52-.02-.78C4.21,13.09,17.29,0,33.29,0h2.37c7.99,0,15.26,3.27,20.53,8.54,5.28,5.27,8.54,12.53,8.54,20.53v.15c0,.79.03,1.57.11,2.35.22,2.34.81,4.62,1.72,6.8.81,1.93,1.25,3.87,1.25,5.73Z"/>
          <g class="cls-10">
            <path class="cls-6" d="m22.5,2.16c-7.07,5.22-11.89,15.33-11.89,26.88,0,.27,0,.54,0,.81.05,2.04-.31,4.06-1.11,5.79-1.42,3.06-2.21,6.24-2.21,9.23,0,6.78,4.05,12.2,10.34,15.55C7.13,57.52,0,51.75,0,44.18c0-2.84,1-5.85,2.81-8.76,1.02-1.64,1.49-3.55,1.42-5.49-.02-.25-.02-.51-.02-.77,0-12.19,7.6-22.68,18.29-26.99Z"/>
            <path class="cls-6" d="m67.81,44.18c0,7.57-7.13,13.34-17.64,16.24,6.3-3.35,10.34-8.77,10.34-15.55,0-1.96-.34-4-.98-6.04-.95-3.06-1.45-6.32-1.44-9.64v-.15c0-8.43-2.57-16.09-6.7-21.64-1.61-2.16-3.45-4-5.47-5.44,3.88,1.47,7.39,3.76,10.27,6.66,5.28,5.27,8.54,12.54,8.54,20.53v.15c-.03,3.15.61,6.24,1.83,9.14.8,1.94,1.24,3.87,1.24,5.73Z"/>
          </g>
          <g>
            <g class="cls-10">
              <path class="cls-7" d="m31.53,69.38c-.06,1.26-.61,2.41-1.53,3.26-.88.78-1.98,1.22-3.16,1.22-.08,0-.16-.01-.23-.01-.51-.03-.99-.12-1.44-.3-.69-.26-1.31-.68-1.82-1.23l-2.75-3.03c-.19-.2-.17-.51.03-.68.2-.18.5-.18.68.02l2.76,3.04c.39.43.87.75,1.4.95.37.16.77.24,1.19.26.99.04,1.95-.29,2.68-.96s1.17-1.59,1.22-2.59c.04-.93-.25-1.81-.83-2.52-.05-.06-.09-.11-.14-.17l-2.47-2.71c-.18-.2-.17-.51.03-.68.2-.19.51-.18.69.02l2.47,2.72c.08.09.16.18.24.28.68.88,1.03,1.97.98,3.11Z"/>
            </g>
            <path class="cls-8" d="m50.54,69.29l-2.75,3.03c-.58.64-1.32,1.1-2.13,1.33-.36.11-.74.18-1.13.2-.07,0-.15.01-.23.01-1.18,0-2.28-.44-3.16-1.22-.92-.85-1.47-2-1.53-3.26-.05-1.08.26-2.11.88-2.97.1-.15.22-.28.34-.42l2.47-2.72c.18-.2.49-.21.69-.02.2.17.21.48.03.68l-2.47,2.71c-.09.11-.18.22-.26.33-.49.68-.74,1.51-.7,2.36.04,1,.48,1.92,1.21,2.59.74.67,1.68,1,2.68.96.31-.02.61-.07.89-.16.65-.18,1.24-.54,1.7-1.05l2.76-3.04c.18-.2.49-.2.68-.02.2.17.22.48.03.68Z"/>
          </g>
          <g>
            <path class="cls-7" d="m52.76,37.87c0,1.89-1.53,3.43-3.43,3.43s-3.43-1.53-3.43-3.43,1.53-3.43,3.43-3.43,3.43,1.53,3.43,3.43Z"/>
            <path class="cls-3" d="m50.01,37.5c-.37.88-1.39,1.3-2.27.93-.88-.37-1.3-1.39-.93-2.27.37-.88,1.39-1.3,2.27-.93.88.37,1.3,1.39.93,2.27Z"/>
          </g>
          <g>
            <path class="cls-7" d="m24.34,37.51c0,1.89-1.53,3.43-3.43,3.43s-3.43-1.53-3.43-3.43,1.53-3.43,3.43-3.43,3.43,1.53,3.43,3.43Z"/>
            <path class="cls-3" d="m23.31,37.36c-.35.84-1.33,1.24-2.17.89s-1.24-1.33-.89-2.17,1.33-1.24,2.17-.89c.84.35,1.24,1.33.89,2.17Z"/>
          </g>
          <g>
            <path class="cls-2" d="m18.51,46.71c0,1.89-1.53,3.43-3.43,3.43s-3.43-1.53-3.43-3.43,1.53-3.43,3.43-3.43,3.43,1.53,3.43,3.43Z"/>
            <circle class="cls-3" cx="13.05" cy="43.86" r="1.38"/>
          </g>
          <g>
            <path class="cls-2" d="m51.37,46.71c0,1.89,1.53,3.43,3.43,3.43s3.43-1.53,3.43-3.43-1.53-3.43-3.43-3.43-3.43,1.53-3.43,3.43Z"/>
            <circle class="cls-3" cx="56.83" cy="43.86" r="1.38"/>
          </g>
          <g>
            <path class="cls-9" d="m56.86,75.46l-1.99,4.66s1.27-6-.91-12.84c0,0,2.36,3.26,2.91,8.17Z"/>
            <path class="cls-9" d="m14.5,79.31l-1.99-4.64c.13-.85.31-1.66.52-2.43.03-.14.08-.29.12-.42.48-1.5,1.13-2.91,1.95-4.25-1.66,6.12-.67,11.32-.6,11.74Z"/>
          </g>
          <path class="cls-7" d="m66.57,38.37c-.91-2.18-1.5-4.46-1.72-6.8-.03-.03-.06-.05-.09-.08-.07-.72-.1-1.44-.09-2.17,0-.05,0-.1,0-.14C64.66,13.18,51.58.1,35.58.1h-2.37C17.22.1,4.13,13.18,4.13,29.18c0,.26,0,.52.01.77.05,1.45-.19,2.9-.76,4.22.01-.01.03-.02.05-.03-.18.41-.38.82-.62,1.2-.56.91-1.05,1.82-1.45,2.75-.03.1-.08.18-.11.28-.2.48-.38.97-.54,1.44-.16.48-.29.97-.39,1.44-.05.24-.1.48-.14.72-.05.28-.09.56-.11.84-.02.16-.03.32-.04.48,0,.05,0,.1,0,.15,0,.22-.02.43-.02.65s0,.42.02.62c0,.25.03.5.06.74.02.14.03.28.06.42.04.29.1.58.16.86.04.18.09.36.14.54.05.17.1.35.16.54.08.23.16.47.26.7.08.18.16.37.24.55.06.12.11.24.18.36.06.13.13.26.2.39.26.47.54.92.86,1.37.09.13.18.25.28.38,1.08,1.41,2.46,2.71,4.11,3.87.32.22.66.45,1,.67.23.15.48.29.73.45.22.12.44.25.67.38.24.13.48.26.73.39.22.12.46.24.69.35.03.02.05.03.07.04.24.12.49.23.74.35.26.12.52.24.79.35.22.1.45.19.68.29.58.23,1.18.46,1.79.67.29.1.57.2.86.29-20.18-10-7.91-27.68-7.56-27.78.4-7.13,6.29-12.79,13.51-12.79,6.02,0,11.12,3.93,12.88,9.36,1.77-5.43,6.86-9.36,12.88-9.36,7.21,0,13.09,5.64,13.51,12.75,0,0,0,0,0,0,6.88,13.06,2.38,21.66-8.41,27.82,9.32-3.05,15.49-8.55,15.49-15.58,0-1.86-.43-3.8-1.25-5.73Z"/>
          <g>
            <ellipse class="cls-4" cx="34.41" cy="45.99" rx="6.93" ry="3.2"/>
            <path class="cls-7" d="m28.6,46.16c2.12,1.45,4.55,1.83,7.07,1.5,1.44-.19,3.54-.55,4.67-1.61.6-.55-.28-1.47-.87-.91-.84.78-2.48,1.03-3.57,1.21-2.35.39-4.65.09-6.64-1.27-.67-.46-1.33.62-.66,1.08h0Z"/>
          </g>
          <g>
            <path class="cls-4" d="m66.45,73.1s-3.25,10.28-8.68,11.22c-.12.02-.24.03-.36.03-.42.04-.86-.03-1.29-.13l-1.95-.62s.09-9.25,7.25-13.66c.03-.03.07-.04.1-.07,0,0,.55,2.39,2.66,1.33,0,0,.54,2.92,2.28,1.9Z"/>
            <path class="cls-5" d="m66.45,73.1s-3.25,10.28-8.68,11.22c-.12.02-.24.03-.36.03-.96-1.89-1.64-6.21,4.01-14.41.03-.03.07-.04.1-.07,0,0,.55,2.39,2.66,1.33,0,0,.54,2.92,2.28,1.9Z"/>
          </g>
          <g>
            <path class="cls-4" d="m2.81,73.1s3.25,10.28,8.68,11.22c.12.02.24.03.36.03.42.04.86-.03,1.29-.13l1.95-.62s-.09-9.25-7.25-13.66c-.03-.03-.07-.04-.1-.07,0,0-.55,2.38-2.66,1.33,0,0-.54,2.92-2.28,1.9Z"/>
            <path class="cls-5" d="m2.81,73.1s3.25,10.28,8.68,11.22c.12.02.24.03.36.03.96-1.89,1.64-6.21-4.01-14.41-.03-.03-.07-.04-.1-.07,0,0-.55,2.38-2.66,1.33,0,0-.54,2.92-2.28,1.9Z"/>
          </g>
        </g>
      </g>
    </g>
  </g>
</svg>