<?xml version="1.0" encoding="UTF-8"?>
<svg id="Layer_2" data-name="Layer 2" xmlns="http://www.w3.org/2000/svg" width="132.6" height="144.43" viewBox="0 0 132.6 144.43">
  <defs>
    <style>
      .cls-1 {
        fill: #594a3e;
      }

      .cls-1, .cls-2 {
        opacity: .1;
      }

      .cls-2 {
        fill: #fffff9;
      }

      .cls-3 {
        fill: #fff;
      }

      .cls-4 {
        fill: #efbf2f;
      }

      .cls-5 {
        fill: #89ccc7;
      }

      .cls-6 {
        fill: #b7dcda;
      }

      .cls-7 {
        fill: #dba00b;
      }

      .cls-8 {
        fill: #3d567f;
      }

      .cls-9 {
        fill: #4b6c9c;
      }

      .cls-10 {
        fill: #343969;
      }

      .cls-11 {
        fill: #161824;
        opacity: .2;
      }
    </style>
  </defs>
  <g id="TEXTS">
    <g>
      <g>
        <g>
          <path class="cls-10" d="m74.39,75.73c1.95,4.06,2.48,9.1,1.66,13.49-.35,1.85-.97,3.65-1.84,5.32-1.08,2.07-2.42,3.94-3.22,6.16-1.24,3.43-1.41,7.21.12,10.58,1.36,3,3.79,5.4,6.64,7.01.61.34.08,1.29-.53.95-5.37-3.05-8.95-8.67-8.19-14.97.24-1.99.85-3.91,1.7-5.72,1.03-2.2,2.53-4.13,3.4-6.42,1.26-3.33,1.49-6.98.91-10.47-.3-1.81-.78-3.75-1.56-5.38-.3-.62.63-1.18.93-.55h0Z"/>
          <g>
            <g>
              <g>
                <path class="cls-6" d="m71.61,76.42l2.31-.42,2.31-.42c2.14,5.26,5.03,6.11,5.03,6.11-1.58,2.17-5.79,2.92-5.79,2.92,0,0-4.21.76-6.45-.72,0,0,2.41-1.8,2.59-7.48Z"/>
                <path class="cls-5" d="m81.9,82.14c-1.39,1.9-4.09,2.85-6.29,3.24-2.2.4-5.06.45-7.03-.85-.83-.55.05-1.82.88-1.27.03.02.07.04.1.06.1.06.04.02-.03-.01.07.04.14.07.21.1.36.16.74.29,1.12.39,1.45.37,3,.32,4.47.05s2.94-.75,4.17-1.61c.33-.23.63-.48.92-.76.05-.05.1-.1.14-.15.06-.06-.12.14,0,0,.03-.03.05-.06.07-.09.59-.8,1.86.08,1.27.88h0Z"/>
              </g>
              <g>
                <ellipse class="cls-6" cx="67.31" cy="39.23" rx="34.48" ry="39.37" transform="translate(-5.88 12.54) rotate(-10.2)"/>
                <path class="cls-1" d="m56.87,1.32c-5.93,7.26-8.75,17.63-6.81,28.41,3.27,18.15,18.8,30.55,34.71,27.69,6.88-1.24,12.7-5.13,16.82-10.62-2.08,15.7-12.66,28.54-27.31,31.18-18.74,3.37-37.06-11.24-40.91-32.64C29.76,25.29,40.13,6.4,56.87,1.32Z"/>
                <path class="cls-2" d="m62.82,20.21c-1.32-7.34.48-14.52,4.46-20.17,16.13.81,30.59,14.35,33.96,33.08.36,2,.58,3.98.67,5.94-2.43,1.31-5.1,2.26-7.96,2.78-14.57,2.62-28.51-7.06-31.13-21.63Z"/>
              </g>
            </g>
            <g>
              <path class="cls-3" d="m77.51,13.27c.31,1.7,1.93,2.82,3.62,2.52,1.7-.31,2.82-1.93,2.52-3.62-.3-1.7-1.93-2.82-3.62-2.52-1.7.31-2.82,1.93-2.52,3.62Z"/>
              <path class="cls-3" d="m86.38,20.4c.12.68.77,1.13,1.45,1.01.68-.12,1.13-.77,1.01-1.45-.12-.68-.77-1.13-1.45-1.01-.68.12-1.13.77-1.01,1.45Z"/>
            </g>
          </g>
        </g>
        <g>
          <path class="cls-10" d="m44.29,104.98c4.28,2.67,7.8,7.11,9.66,11.75.78,1.96,1.27,4.04,1.45,6.14.22,2.61.08,5.17.65,7.75.88,3.99,3,7.66,6.46,9.93,3.08,2.02,6.82,2.82,10.48,2.64.78-.04.85,1.17.07,1.21-6.91.34-13.66-2.83-16.73-9.23-.97-2.02-1.54-4.2-1.83-6.42-.35-2.7-.08-5.43-.64-8.11-.8-3.9-2.77-7.49-5.42-10.44-1.37-1.53-2.98-3.07-4.7-4.14-.66-.41-.11-1.49.55-1.08h0Z"/>
          <g>
            <g>
              <g>
                <path class="cls-4" d="m46.58,108.73l2.12-.89,2.12-.89c3.17,4.58,6.11,4.78,6.11,4.78-1.05,2.41-4.93,4.03-4.93,4.03,0,0-3.87,1.62-6.33.68,0,0,1.93-2.24.89-7.71Z"/>
                <path class="cls-7" d="m57.64,112.03c-.93,2.11-3.31,3.59-5.34,4.44-2.03.85-4.75,1.5-6.91.68-.91-.35-.34-1.75.58-1.4.04.01.07.03.11.04.11.03.04.01-.03,0,.07.02.15.04.22.05.38.08.77.12,1.16.14,1.47.05,2.94-.33,4.29-.89,1.34-.56,2.65-1.34,3.65-2.42.26-.29.5-.6.72-.92.04-.06.07-.12.11-.17.04-.07-.09.16,0,0,.02-.03.03-.07.05-.1.39-.89,1.79-.32,1.4.58h0Z"/>
              </g>
              <g>
                <ellipse class="cls-4" cx="34.58" cy="74.03" rx="33.81" ry="38.6" transform="translate(-25.87 19.05) rotate(-22.67)"/>
                <path class="cls-1" d="m16.55,39.95c-4.14,8.21-4.64,18.74-.51,28.64,6.97,16.69,24.48,25.27,39.09,19.16,6.33-2.64,11.07-7.61,13.86-13.73,1.33,15.47-6.07,30.01-19.54,35.64-17.23,7.2-37.86-2.91-46.08-22.58-7.7-18.43-1.77-38.71,13.18-47.12Z"/>
                <path class="cls-2" d="m26.26,56.77c-2.82-6.75-2.61-14,0-20.26,15.61-2.64,32.32,7.26,39.52,24.48.77,1.84,1.4,3.69,1.9,5.55-2.05,1.77-4.4,3.25-7.03,4.35-13.39,5.6-28.79-.73-34.39-14.12Z"/>
              </g>
            </g>
            <g>
              <path class="cls-3" d="m38.84,47.01c.65,1.56,2.44,2.29,4,1.64,1.56-.65,2.29-2.44,1.64-4s-2.44-2.29-4-1.64c-1.56.65-2.29,2.44-1.64,4Z"/>
              <path class="cls-3" d="m48.85,51.96c.26.62.98.92,1.6.66.62-.26.92-.98.66-1.6-.26-.62-.98-.92-1.6-.66-.62.26-.92.98-.66,1.6Z"/>
            </g>
          </g>
        </g>
      </g>
      <g>
        <g>
          <path class="cls-8" d="m132.57,63.39l-.63-1.27c-.13-.37-.64-.59-1.49-.56l-48.62,1.8c-1.66.06-3.99,1.04-5.2,2.18l-35.32,33.46c-.62.59-.82,1.1-.64,1.46h0l.71,1.37,2.18-.92,47.2-1.75c1.66-.06,3.99-1.04,5.2-2.18l34.51-32.69,2.1-.89Z"/>
          <path class="cls-9" d="m96.58,98.2c-1.2,1.14-3.54,2.12-5.2,2.18l-48.62,1.8c-1.66.06-2.03-.82-.82-1.96l35.32-33.46c1.2-1.14,3.54-2.12,5.2-2.18l48.62-1.8c1.66-.06,2.03.82.82,1.96l-35.32,33.46Z"/>
        </g>
        <g>
          <path class="cls-10" d="m67.82,120.23s2.33,5.31,31.54-6.47c24.87-10.03,27.86-15.73,27.14-17.49,0,0-10.96-4.4-31.5,4.81-20.54,9.21-26.73,15.89-27.17,19.15Z"/>
          <path class="cls-8" d="m95.54,104.64c17.08-7.01,26.23-8.44,30.95-8.37l-6.45-15.72-3.56-8.68s-4.75-4.49-31.58,6.52c-26.83,11-27.06,17.53-27.06,17.53l3.56,8.68,6.41,15.62c3.4-3.38,10.95-8.71,27.72-15.59Z"/>
          <path class="cls-4" d="m64.71,112.67l.65,1.58c5.21-3.59,13.52-8.18,26.77-13.62,16.02-6.57,26.04-8.96,32.2-9.62l-.66-1.6c-6.35.76-16.44,3.22-32.18,9.68-13.09,5.37-21.44,9.95-26.78,13.59Z"/>
          <path class="cls-11" d="m120.04,80.56l-3.56-8.68s-1.23-1.16-5.98-.85c.64,1.59,1.08,3.26,1.28,4.99,1.66,14.87-14.71,28.91-36.56,31.34-4.38.49-8.64.47-12.67.01l5.28,12.86c3.4-3.38,10.95-8.71,27.72-15.59,17.08-7.01,26.23-8.44,30.95-8.37l-6.45-15.72Z"/>
        </g>
        <g>
          <path class="cls-4" d="m106.68,74.79c-1.53-3.64-3.48-8.5-5.01-12.14h-.8c1.55,3.7,3.7,8.68,5.25,12.38.2.47.75.23.56-.23Z"/>
          <path class="cls-4" d="m125.49,88.82c-1.69.23-3.42.05-5.11-.29-3.3-.67-6.71-2.24-9.45-5.82-1.71-2.23-3.04-5.28-3.75-8.94-.05-.24-.27-.32-.31-.02-.06-.24-.27-.3-.3.02-.35,3.89-.36,7.97.48,11.64.65,2.83,1.79,5.13,3.18,6.77,2.5,2.94,5.6,3.89,8.52,4,.7.03,1.42.02,2.12-.11.21-.04.21-.65,0-.61-1.73.32-3.53.11-5.24-.4-3.05-.92-6.28-3.24-7.9-8.45-.83-2.69-1.11-5.75-1.07-8.81.32,5.24,1.68,9.85,4.12,12.8,1.98,2.39,4.35,3.57,6.69,3.98.52.09,1.04.16,1.56.14.21-.01.21-.62,0-.61-1.33.06-2.68-.31-3.97-.88-2.51-1.11-4.98-3.36-6.51-7.34-.8-2.08-1.27-4.47-1.49-6.96.1.65.21,1.28.35,1.88,1.25,5.61,4.18,8.95,7.19,10.68,3.25,1.86,6.74,2.2,10.13,2.03.21-.01.21-.62,0-.61-3.04.15-6.12-.12-9.07-1.51-1.88-.89-3.74-2.26-5.28-4.49-1.78-2.57-3.02-6.33-3.23-10.55,2.05,11.52,9.26,15.03,15.19,15.27.64.03,1.28.03,1.92-.05.21-.03.21-.64,0-.61-1.63.22-3.29.02-4.9-.35-3.13-.73-6.39-2.43-8.86-6.21-1.28-1.96-2.24-4.44-2.85-7.28,3.06,9.57,10.16,12.18,15.81,12.35.67.02,1.34.02,2-.07.21-.03.21-.64,0-.61Zm-18.31-14.89h0s0-.06,0,0Zm-.42,1.7c.02-.26.03-.52.05-.78,0,.26,0,.53,0,.79-.02,0-.03-.01-.05-.01Z"/>
          <g>
            <path class="cls-4" d="m107.79,73.5c.5,1.18.16,2.45-.74,2.83-.91.38-2.04-.27-2.54-1.45-.5-1.18-.16-2.45.74-2.83.91-.38,2.04.27,2.54,1.45Z"/>
            <path class="cls-1" d="m105.61,71.95c.35.27.66.65.86,1.13.5,1.18.16,2.45-.74,2.83-.12.05-.23.08-.36.1.52.4,1.14.55,1.68.32.91-.38,1.24-1.65.74-2.83-.43-1.03-1.35-1.66-2.19-1.54Z"/>
          </g>
        </g>
      </g>
    </g>
  </g>
</svg>