<?xml version="1.0" encoding="UTF-8"?>
<svg id="Layer_2" data-name="Layer 2" xmlns="http://www.w3.org/2000/svg" width="127.68" height="144.43" xmlns:xlink="http://www.w3.org/1999/xlink" viewBox="0 0 127.68 144.43">
  <defs>
    <style>
      .cls-1 {
        fill: none;
      }

      .cls-2, .cls-3 {
        opacity: .1;
      }

      .cls-2, .cls-4 {
        fill: #594a3e;
      }

      .cls-3 {
        fill: #fffff9;
      }

      .cls-5 {
        clip-path: url(#clippath);
      }

      .cls-6 {
        fill: #fff;
      }

      .cls-7 {
        fill: #efbf2f;
      }

      .cls-8 {
        fill: #ec8550;
      }

      .cls-9 {
        fill: #cc4c1f;
      }

      .cls-10 {
        fill: #dba00b;
      }

      .cls-11 {
        fill: #e37245;
      }

      .cls-12 {
        fill: #443429;
      }

      .cls-13 {
        fill: #3d567f;
      }

      .cls-14 {
        fill: #4b6c9c;
      }

      .cls-15 {
        fill: #343969;
      }

      .cls-16 {
        fill: #161824;
        opacity: .2;
      }
    </style>
    <clipPath id="clippath">
      <path class="cls-1" d="m15.13,65.82l-10.32,20.07-4.03,7.84s-1,7.88,24.95,21.22c25.95,13.34,31.77,7.95,31.77,7.95l4.03-7.84,10.32-20.07-56.72-29.17Z"/>
    </clipPath>
  </defs>
  <g id="TEXTS">
    <g>
      <g>
        <g>
          <path class="cls-15" d="m53.29,75.73c-1.95,4.06-2.48,9.1-1.66,13.49.35,1.85.97,3.65,1.84,5.32,1.08,2.07,2.42,3.94,3.22,6.16,1.24,3.43,1.41,7.21-.12,10.58-1.36,3-3.79,5.4-6.64,7.01-.61.34-.08,1.29.53.95,5.37-3.05,8.95-8.67,8.19-14.97-.24-1.99-.85-3.91-1.7-5.72-1.03-2.2-2.53-4.13-3.4-6.42-1.26-3.33-1.49-6.98-.91-10.47.3-1.81.78-3.75,1.56-5.38.3-.62-.63-1.18-.93-.55h0Z"/>
          <g>
            <g>
              <g>
                <path class="cls-7" d="m56.06,76.42l-2.31-.42-2.31-.42c-2.14,5.26-5.03,6.11-5.03,6.11,1.58,2.17,5.79,2.92,5.79,2.92,0,0,4.21.76,6.45-.72,0,0-2.41-1.8-2.59-7.48Z"/>
                <path class="cls-10" d="m45.78,82.14c1.39,1.9,4.09,2.85,6.29,3.24,2.2.4,5.06.45,7.03-.85.83-.55-.05-1.82-.88-1.27-.03.02-.07.04-.1.06-.1.06-.04.02.03-.01-.07.04-.14.07-.21.1-.36.16-.74.29-1.12.39-1.45.37-3,.32-4.47.05s-2.94-.75-4.17-1.61c-.33-.23-.63-.48-.92-.76-.05-.05-.1-.1-.14-.15-.06-.06.12.14,0,0-.03-.03-.05-.06-.07-.09-.59-.8-1.86.08-1.27.88h0Z"/>
              </g>
              <g>
                <ellipse class="cls-7" cx="60.37" cy="39.23" rx="39.37" ry="34.48" transform="translate(11.07 91.7) rotate(-79.8)"/>
                <path class="cls-2" d="m70.81,1.32c5.93,7.26,8.75,17.63,6.81,28.41-3.27,18.15-18.8,30.55-34.71,27.69-6.88-1.24-12.7-5.13-16.82-10.62,2.08,15.7,12.66,28.54,27.31,31.18,18.74,3.37,37.06-11.24,40.91-32.64,3.61-20.05-6.76-38.94-23.5-44.01Z"/>
                <path class="cls-3" d="m64.85,20.21c1.32-7.34-.48-14.52-4.46-20.17-16.13.81-30.59,14.35-33.96,33.08-.36,2-.58,3.98-.67,5.94,2.43,1.31,5.1,2.26,7.96,2.78,14.57,2.62,28.51-7.06,31.13-21.63Z"/>
              </g>
            </g>
            <g>
              <path class="cls-6" d="m50.17,13.27c-.31,1.7-1.93,2.82-3.62,2.52-1.7-.31-2.82-1.93-2.52-3.62.3-1.7,1.93-2.82,3.62-2.52,1.7.31,2.82,1.93,2.52,3.62Z"/>
              <path class="cls-6" d="m41.29,20.4c-.12.68-.77,1.13-1.45,1.01-.68-.12-1.13-.77-1.01-1.45.12-.68.77-1.13,1.45-1.01.68.12,1.13.77,1.01,1.45Z"/>
            </g>
          </g>
        </g>
        <g>
          <path class="cls-15" d="m83.38,104.98c-4.28,2.67-7.8,7.11-9.66,11.75-.78,1.96-1.27,4.04-1.45,6.14-.22,2.61-.08,5.17-.65,7.75-.88,3.99-3,7.66-6.46,9.93-3.08,2.02-6.82,2.82-10.48,2.64-.78-.04-.85,1.17-.07,1.21,6.91.34,13.66-2.83,16.73-9.23.97-2.02,1.54-4.2,1.83-6.42.35-2.7.08-5.43.64-8.11.8-3.9,2.77-7.49,5.42-10.44,1.37-1.53,2.98-3.07,4.7-4.14.66-.41.11-1.49-.55-1.08h0Z"/>
          <g>
            <g>
              <g>
                <path class="cls-11" d="m81.1,108.73l-2.12-.89-2.12-.89c-3.17,4.58-6.11,4.78-6.11,4.78,1.05,2.41,4.93,4.03,4.93,4.03,0,0,3.87,1.62,6.33.68,0,0-1.93-2.24-.89-7.71Z"/>
                <path class="cls-9" d="m70.04,112.03c.93,2.11,3.31,3.59,5.34,4.44,2.03.85,4.75,1.5,6.91.68.91-.35.34-1.75-.58-1.4-.04.01-.07.03-.11.04-.11.03-.04.01.03,0-.07.02-.15.04-.22.05-.38.08-.77.12-1.16.14-1.47.05-2.94-.33-4.29-.89-1.34-.56-2.65-1.34-3.65-2.42-.26-.29-.5-.6-.72-.92-.04-.06-.07-.12-.11-.17-.04-.07.09.16,0,0-.02-.03-.03-.07-.05-.1-.39-.89-1.79-.32-1.4.58h0Z"/>
              </g>
              <g>
                <ellipse class="cls-11" cx="93.1" cy="74.03" rx="38.6" ry="33.81" transform="translate(-11.1 131.4) rotate(-67.33)"/>
                <path class="cls-2" d="m111.13,39.95c4.14,8.21,4.64,18.74.51,28.64-6.97,16.69-24.48,25.27-39.09,19.16-6.33-2.64-11.07-7.61-13.86-13.73-1.33,15.47,6.07,30.01,19.54,35.64,17.23,7.2,37.86-2.91,46.08-22.58,7.7-18.43,1.77-38.71-13.18-47.12Z"/>
                <path class="cls-3" d="m101.42,56.77c2.82-6.75,2.61-14,0-20.26-15.61-2.64-32.32,7.26-39.52,24.48-.77,1.84-1.4,3.69-1.9,5.55,2.05,1.77,4.4,3.25,7.03,4.35,13.39,5.6,28.79-.73,34.39-14.12Z"/>
              </g>
            </g>
            <g>
              <path class="cls-6" d="m88.83,47.01c-.65,1.56-2.44,2.29-4,1.64-1.56-.65-2.29-2.44-1.64-4s2.44-2.29,4-1.64c1.56.65,2.29,2.44,1.64,4Z"/>
              <path class="cls-6" d="m78.83,51.96c-.26.62-.98.92-1.6.66-.62-.26-.92-.98-.66-1.6.26-.62.98-.92,1.6-.66.62.26.92.98.66,1.6Z"/>
            </g>
          </g>
        </g>
      </g>
      <g>
        <g>
          <path class="cls-4" d="m55.04,83.62c-.74,1.36-2.71,1.73-4.39.81s-2.44-2.76-1.7-4.13c.74-1.36,2.71-1.73,4.39-.81,1.68.92,2.44,2.76,1.7,4.13Z"/>
          <path class="cls-12" d="m55.05,81.27c-.04.26-.12.52-.25.76-.74,1.36-2.71,1.73-4.39.81-.8-.43-1.38-1.08-1.7-1.78-.19,1.23.57,2.61,1.95,3.37,1.68.92,3.65.55,4.39-.81.39-.72.36-1.57,0-2.35Z"/>
        </g>
        <g>
          <path class="cls-15" d="m15.6,64.91l-10.32,20.07-4.03,7.84s-1,7.88,24.95,21.22c25.95,13.34,31.77,7.95,31.77,7.95l4.03-7.84,10.32-20.07-56.72-29.17Z"/>
          <path class="cls-16" d="m24.44,106.95c-9.29-4.78-16.56-11.45-20.94-18.51l-2.25,4.38s-1,7.88,24.95,21.22c25.95,13.34,31.77,7.95,31.77,7.95l4.03-7.84,2.23-4.33c-9.72,5.36-25.2,4.64-39.78-2.86Z"/>
          <g class="cls-5">
            <path class="cls-8" d="m29.3,109.66c-4.8-2.47-8.95-5.09-12.38-7.51C6.15,94.56.06,87.25,0,87.18l1.42-1.42c.24.29,24.1,28.62,62.06,31.91l-.36,1.98c-13.23-1.15-24.7-5.29-33.83-9.99Z"/>
          </g>
        </g>
        <g>
          <path class="cls-14" d="m82.07,99.47l-30.12-29.84c-1.07-1.06-3.15-2.13-4.63-2.38l-41.79-7.14-2.36-1.22-.6,1.17c-.14.26.05.69.58,1.22l31.3,31.01c1.07,1.06,3.15,2.13,4.63,2.38l43.43,7.42c.74.13,1.19.03,1.33-.24l.6-1.17-2.36-1.22Z"/>
          <path class="cls-13" d="m39.68,93.51c-1.48-.25-3.56-1.32-4.63-2.38L3.75,60.12c-1.07-1.06-.73-1.71.75-1.46l43.43,7.42c1.48.25,3.56,1.32,4.63,2.38l31.3,31.01c1.07,1.06.73,1.71-.75,1.46l-43.43-7.42Z"/>
        </g>
        <g>
          <g>
            <path class="cls-8" d="m59.15,132.83c-1.4-1.03-2.54-2.37-3.53-3.81-1.94-2.81-3.33-6.35-2.82-10.9.32-2.83,1.49-6,3.54-9.18.14-.21.03-.42-.21-.23.13-.22.01-.41-.23-.2-2.99,2.59-5.87,5.57-7.83,8.85-1.51,2.53-2.3,5.01-2.43,7.19-.24,3.9,1.36,6.78,3.42,8.91.5.51,1.02,1.01,1.62,1.41.18.12.61-.32.43-.44-1.49-.99-2.66-2.4-3.55-3.98-1.59-2.82-2.31-6.79.17-11.73,1.28-2.55,3.23-4.98,5.42-7.19-3.45,4.05-5.7,8.38-5.99,12.26-.23,3.14.68,5.67,2.09,7.62.31.43.65.85,1.04,1.2.16.14.59-.3.43-.44-1.01-.89-1.74-2.12-2.28-3.43-1.05-2.58-1.28-5.96.4-9.95.88-2.09,2.22-4.16,3.8-6.13-.39.54-.75,1.09-1.07,1.62-3.03,4.99-3.24,9.48-2.25,12.87,1.07,3.65,3.38,6.35,5.97,8.61.16.14.59-.3.43-.44-2.32-2.03-4.39-4.39-5.57-7.48-.75-1.97-1.15-4.28-.71-7,.51-3.13,2.24-6.75,5.06-9.99-6.6,9.87-3.79,17.5.37,21.85.45.47.91.93,1.44,1.31.17.13.61-.32.43-.44-1.34-.98-2.42-2.3-3.34-3.7-1.78-2.73-2.97-6.27-2.11-10.77.44-2.33,1.48-4.83,3.03-7.32-4.49,9.15-1.14,16.05,2.87,20.15.47.48.96.96,1.51,1.36.17.13.61-.32.43-.44Zm-2.92-23.77s0,0,0,0c.03-.03.05-.04,0,0Zm-1.5.94c.2-.18.39-.36.59-.53-.19.19-.38.38-.56.58,0-.02-.01-.03-.03-.04Z"/>
            <path class="cls-8" d="m59.75,97.28c-1.71-2.11-3.43-4.21-5.14-6.32-2.73-3.36-5.47-6.72-8.2-10.08-.63-.78-1.27-1.56-1.9-2.33-.26-.32-.8.21-.54.53,1.71,2.11,3.43,4.21,5.14,6.32,2.73,3.36,5.47,6.72,8.2,10.08.6.73,1.19,1.47,1.79,2.2-1.47,3.81-2.94,7.63-4.41,11.44-.18.48.39.7.57.22,1.5-3.89,3-7.79,4.51-11.68.05-.12.05-.29-.02-.38Z"/>
            <g>
              <path class="cls-8" d="m56.98,109.17c-.47,1.21-1.6,1.9-2.53,1.55-.93-.36-1.31-1.63-.84-2.85.47-1.21,1.6-1.9,2.53-1.55.93.36,1.31,1.63.84,2.85Z"/>
              <path class="cls-2" d="m56.47,106.51c.07.45.02.94-.17,1.43-.47,1.21-1.6,1.9-2.53,1.55-.12-.05-.23-.11-.33-.18.1.66.45,1.2,1.01,1.42.93.36,2.06-.33,2.53-1.55.41-1.06.17-2.16-.51-2.67Z"/>
            </g>
          </g>
          <g>
            <path class="cls-14" d="m47.17,80.76c-.54,1.05-2.35,1.2-4.04.33s-2.62-2.43-2.08-3.48c.54-1.05,2.35-1.2,4.04-.33,1.69.87,2.62,2.43,2.08,3.48Z"/>
            <path class="cls-15" d="m46.91,78.85c0,.21-.05.41-.15.6-.54,1.05-2.35,1.2-4.04.33-.8-.41-1.43-.98-1.81-1.57-.03.98.84,2.16,2.23,2.88,1.69.87,3.5.72,4.04-.33.28-.55.16-1.25-.27-1.91Z"/>
          </g>
        </g>
      </g>
    </g>
  </g>
</svg>